# Made in Blockbench 5.1.6
mtllib air_stove.mtl

o Boiler
v 2 2.9019237499999995 1.5
v -2 2.9019237500000004 1.5
v 2.0000000000000004 3.5980762499999996 1.09807625
v -1.9999999999999998 3.5980762500000005 1.09807625
v 2.0000000000000004 3.9999999999999996 0.40192375
v -1.9999999999999996 4 0.40192375
v 2.0000000000000004 3.9999999999999996 -0.40192375
v -1.9999999999999996 4 -0.40192375
v 2.0000000000000004 3.5980762499999996 -1.09807625
v -1.9999999999999998 3.5980762500000005 -1.09807625
v 2 2.9019237499999995 -1.5
v -2 2.9019237500000004 -1.5
v 2 2.0980762499999996 -1.5
v -2 2.0980762500000005 -1.5
v 1.9999999999999998 1.4019237499999995 -1.09807625
v -2.0000000000000004 1.4019237500000004 -1.09807625
v 1.9999999999999996 0.9999999999999996 -0.40192375
v -2.0000000000000004 1.0000000000000004 -0.40192375
v 1.9999999999999996 0.9999999999999996 0.40192375
v -2.0000000000000004 1.0000000000000004 0.40192375
v 1.9999999999999998 1.4019237499999995 1.09807625
v -2.0000000000000004 1.4019237500000004 1.09807625
v 2 2.0980762499999996 1.5
v -2 2.0980762500000005 1.5
v 1.96875 2.9186706249999994 1.5625
v 1.90625 2.9186706249999994 1.5625
v 1.96875 2.8999462499999997 1.49261875
v 1.90625 2.8999462499999997 1.49261875
v 1.9687500000000002 3.6438293749999993 1.143829375
v 1.9062500000000002 3.6438293749999993 1.143829375
v 1.9687500000000002 3.5926731249999992 1.092673125
v 1.9062500000000002 3.5926731249999992 1.092673125
v 1.9687500000000004 4.0625 0.418670625
v 1.9062500000000004 4.0625 0.418670625
v 1.9687500000000002 3.9926187499999997 0.39994625
v 1.9062500000000002 3.9926187499999997 0.39994625
v 1.9687500000000004 4.0625 -0.418670625
v 1.9062500000000004 4.0625 -0.418670625
v 1.9687500000000002 3.9926187499999997 -0.39994625
v 1.9062500000000002 3.9926187499999997 -0.39994625
v 1.9687500000000002 3.6438293749999993 -1.143829375
v 1.9062500000000002 3.6438293749999993 -1.143829375
v 1.9687500000000002 3.5926731249999992 -1.092673125
v 1.9062500000000002 3.5926731249999992 -1.092673125
v 1.96875 2.9186706249999994 -1.5625
v 1.90625 2.9186706249999994 -1.5625
v 1.96875 2.8999462499999997 -1.49261875
v 1.90625 2.8999462499999997 -1.49261875
v 1.96875 2.0813293749999997 -1.5625
v 1.90625 2.0813293749999997 -1.5625
v 1.96875 2.1000537499999994 -1.49261875
v 1.90625 2.1000537499999994 -1.49261875
v 1.9687499999999998 1.3561706249999996 -1.143829375
v 1.9062499999999998 1.3561706249999996 -1.143829375
v 1.9687499999999998 1.4073268749999996 -1.092673125
v 1.9062499999999998 1.4073268749999996 -1.092673125
v 1.9687499999999996 0.9374999999999996 -0.418670625
v 1.9062499999999996 0.9374999999999996 -0.418670625
v 1.9687499999999998 1.0073812499999995 -0.39994625
v 1.9062499999999998 1.0073812499999995 -0.39994625
v 1.9687499999999996 0.9374999999999996 0.418670625
v 1.9062499999999996 0.9374999999999996 0.418670625
v 1.9687499999999998 1.0073812499999995 0.39994625
v 1.9062499999999998 1.0073812499999995 0.39994625
v 1.9687499999999998 1.3561706249999996 1.143829375
v 1.9062499999999998 1.3561706249999996 1.143829375
v 1.9687499999999998 1.4073268749999996 1.092673125
v 1.9062499999999998 1.4073268749999996 1.092673125
v 1.96875 2.0813293749999997 1.5625
v 1.90625 2.0813293749999997 1.5625
v 1.96875 2.1000537499999994 1.49261875
v 1.90625 2.1000537499999994 1.49261875
v -1.90625 2.9186706250000003 1.5625
v -1.96875 2.9186706250000003 1.5625
v -1.90625 2.8999462500000006 1.49261875
v -1.96875 2.8999462500000006 1.49261875
v -1.9062499999999998 3.643829375 1.143829375
v -1.9687499999999998 3.643829375 1.143829375
v -1.9062499999999998 3.592673125 1.092673125
v -1.9687499999999998 3.592673125 1.092673125
v -1.9062499999999996 4.0625 0.418670625
v -1.9687499999999996 4.0625 0.418670625
v -1.9062499999999998 3.9926187500000005 0.39994625
v -1.9687499999999998 3.9926187500000005 0.39994625
v -1.9062499999999996 4.0625 -0.418670625
v -1.9687499999999996 4.0625 -0.418670625
v -1.9062499999999998 3.9926187500000005 -0.39994625
v -1.9687499999999998 3.9926187500000005 -0.39994625
v -1.9062499999999998 3.643829375 -1.143829375
v -1.9687499999999998 3.643829375 -1.143829375
v -1.9062499999999998 3.592673125 -1.092673125
v -1.9687499999999998 3.592673125 -1.092673125
v -1.90625 2.9186706250000003 -1.5625
v -1.96875 2.9186706250000003 -1.5625
v -1.90625 2.8999462500000006 -1.49261875
v -1.96875 2.8999462500000006 -1.49261875
v -1.90625 2.0813293750000006 -1.5625
v -1.96875 2.0813293750000006 -1.5625
v -1.90625 2.1000537500000003 -1.49261875
v -1.96875 2.1000537500000003 -1.49261875
v -1.9062500000000002 1.3561706250000005 -1.143829375
v -1.9687500000000002 1.3561706250000005 -1.143829375
v -1.9062500000000002 1.4073268750000005 -1.092673125
v -1.9687500000000002 1.4073268750000005 -1.092673125
v -1.9062500000000004 0.9375000000000004 -0.418670625
v -1.9687500000000004 0.9375000000000004 -0.418670625
v -1.9062500000000002 1.0073812500000003 -0.39994625
v -1.9687500000000002 1.0073812500000003 -0.39994625
v -1.9062500000000004 0.9375000000000004 0.418670625
v -1.9687500000000004 0.9375000000000004 0.418670625
v -1.9062500000000002 1.0073812500000003 0.39994625
v -1.9687500000000002 1.0073812500000003 0.39994625
v -1.9062500000000002 1.3561706250000005 1.143829375
v -1.9687500000000002 1.3561706250000005 1.143829375
v -1.9062500000000002 1.4073268750000005 1.092673125
v -1.9687500000000002 1.4073268750000005 1.092673125
v -1.90625 2.0813293750000006 1.5625
v -1.96875 2.0813293750000006 1.5625
v -1.90625 2.1000537500000003 1.49261875
v -1.96875 2.1000537500000003 1.49261875
v 2.375 2.4999999999999996 0
v -2.375 2.5000000000000004 0
v 2 2.9019237499999995 1.5
v -2 2.9019237500000004 1.5
v 2.0000000000000004 3.5980762499999996 1.09807625
v -1.9999999999999998 3.5980762500000005 1.09807625
v 2.0000000000000004 3.9999999999999996 0.40192375
v -1.9999999999999998 4 0.40192375
v 2.0000000000000004 3.9999999999999996 -0.40192375
v -1.9999999999999998 4 -0.40192375
v 2.0000000000000004 3.5980762499999996 -1.09807625
v -1.9999999999999998 3.5980762500000005 -1.09807625
v 2 2.9019237499999995 -1.5
v -2 2.9019237500000004 -1.5
v 2 2.0980762499999996 -1.5
v -2 2.0980762500000005 -1.5
v 1.9999999999999998 1.4019237499999995 -1.09807625
v -2.000000000000001 1.4019237500000004 -1.09807625
v 1.9999999999999996 0.9999999999999996 -0.40192375
v -2.000000000000001 1.0000000000000004 -0.40192375
v 1.9999999999999996 0.9999999999999996 0.40192375
v -2.000000000000001 1.0000000000000004 0.40192375
v 1.9999999999999998 1.4019237499999995 1.09807625
v -2.000000000000001 1.4019237500000004 1.09807625
v 2 2.0980762499999996 1.5
v -2 2.0980762500000005 1.5
vt 0 -4
vt 0.80385 -4
vt 0.80385 1
vt 0 1
vt 0 -4
vt 0.80385 -4
vt 0.80385 1
vt 0 1
vt 0 -4
vt 0.80385 -4
vt 0.80385 1
vt 0 1
vt 0 -4
vt 0.80385 -4
vt 0.80385 1
vt 0 1
vt 0 -4
vt 0.80385 -4
vt 0.80385 1
vt 0 1
vt 0 -4
vt 0.80385 -4
vt 0.80385 1
vt 0 1
vt 0 -4
vt 0.80385 -4
vt 0.80385 1
vt 0 1
vt 0 -4
vt 0.80385 -4
vt 0.80385 1
vt 0 1
vt 0 -4
vt 0.80385 -4
vt 0.80385 1
vt 0 1
vt 0 -4
vt 0.80385 -4
vt 0.80385 1
vt 0 1
vt 0 -4
vt 0.80385 -4
vt 0.80385 1
vt 0 1
vt 0 -4
vt 0.80385 -4
vt 0.80385 1
vt 0 1
vt 0 0.9375
vt 0.8373375 0.9375
vt 0.8373375 1
vt 0 1
vt 0.7998875 1
vt 0 1
vt 0 0.9375
vt 0.7998875 0.9375
vt 0 0.98127625
vt 0 0.18138125000000005
vt 0.069880625 0.16265624999999995
vt 0.06988125 1
vt 0 0.93011875
vt 0.83734375 0.93011875
vt 0.81861875 0.999999375
vt 0.01872375 1
vt 0 0.9375
vt 0.8373375 0.9375
vt 0.8373375 1
vt 0 1
vt 0.7998875 1
vt 0 1
vt 0 0.9375
vt 0.7998875 0.9375
vt 0 0.981275
vt 0 0.18138062499999996
vt 0.06988125 0.16265624999999995
vt 0.069880625 1
vt 0 0.93011875
vt 0.83734375 0.93011875
vt 0.818619375 1
vt 0.018725 0.999999375
vt 0 0.9375
vt 0.8373375 0.9375
vt 0.8373375 1
vt 0 1
vt 0.7998875 1
vt 0 1
vt 0 0.9375
vt 0.7998875 0.9375
vt 0 0.981275
vt 0 0.18138750000000003
vt 0.06988125 0.16266250000000004
vt 0.06988125 1
vt 0.06988125 0.16266250000000004
vt 0.06988125 1
vt 0 0.981275
vt 0 0.18138750000000003
vt 0 0.9375
vt 0.8373375 0.9375
vt 0.8373375 1
vt 0 1
vt 0.7998875 1
vt 0 1
vt 0 0.9375
vt 0.7998875 0.9375
vt 0.818619375 1
vt 0.018725 1
vt 0 0.930119375
vt 0.83734375 0.93011875
vt 0.06988125 0.16265624999999995
vt 0.06988125 1
vt 6.25e-7 0.981275
vt 0 0.18138062499999996
vt 0 0.9375
vt 0.8373375 0.9375
vt 0.8373375 1
vt 0 1
vt 0.7998875 1
vt 0 1
vt 0 0.9375
vt 0.7998875 0.9375
vt 0.81861875 1
vt 0.01872375 1
vt 0 0.93011875
vt 0.83734375 0.930119375
vt 0.06988125 0.16265624999999995
vt 0.06988125 1
vt 0 0.98127625
vt 6.25e-7 0.18138125000000005
vt 0 0.9375
vt 0.8373375 0.9375
vt 0.8373375 1
vt 0 1
vt 0.7998875 1
vt 0 1
vt 0 0.9375
vt 0.7998875 0.9375
vt 0.8186125 1
vt 0.018725 1
vt 0 0.93011875
vt 0.8373375 0.93011875
vt 0.8373375 1
vt 0 1
vt 0.018725 0.93011875
vt 0.8186125 0.93011875
vt 0 0.9375
vt 0.8373375 0.9375
vt 0.8373375 1
vt 0 1
vt 0.7998875 1
vt 0 1
vt 0 0.9375
vt 0.7998875 0.9375
vt 0.06988125 0.18138062499999996
vt 0.06988125 0.981275
vt 6.25e-7 1
vt 0 0.16265624999999995
vt 0.83734375 1
vt 0 1
vt 0.018725 0.930119375
vt 0.818619375 0.93011875
vt 0 0.9375
vt 0.8373375 0.9375
vt 0.8373375 1
vt 0 1
vt 0.7998875 1
vt 0 1
vt 0 0.9375
vt 0.7998875 0.9375
vt 0.06988125 0.18138125000000005
vt 0.06988125 0.98127625
vt 0 1
vt 6.25e-7 0.16265624999999995
vt 0.83734375 1
vt 0 1
vt 0.01872375 0.93011875
vt 0.81861875 0.930119375
vt 0 0.9375
vt 0.8373375 0.9375
vt 0.8373375 1
vt 0 1
vt 0.7998875 1
vt 0 1
vt 0 0.9375
vt 0.7998875 0.9375
vt 0.06988125 0.18138750000000003
vt 0.06988125 0.981275
vt 0 1
vt 0 0.16266250000000004
vt 0 1
vt 0 0.16266250000000004
vt 0.06988125 0.18138750000000003
vt 0.06988125 0.981275
vt 0 0.9375
vt 0.8373375 0.9375
vt 0.8373375 1
vt 0 1
vt 0.7998875 1
vt 0 1
vt 0 0.9375
vt 0.7998875 0.9375
vt 0.01872375 0.93011875
vt 0.81861875 0.93011875
vt 0.83734375 0.999999375
vt 0 1
vt 0 1
vt 0 0.16265624999999995
vt 0.069880625 0.18138125000000005
vt 0.06988125 0.98127625
vt 0 0.9375
vt 0.8373375 0.9375
vt 0.8373375 1
vt 0 1
vt 0.7998875 1
vt 0 1
vt 0 0.9375
vt 0.7998875 0.9375
vt 0.018725 0.93011875
vt 0.818619375 0.93011875
vt 0.83734375 1
vt 0 0.999999375
vt 0 1
vt 0 0.16265624999999995
vt 0.06988125 0.18138062499999996
vt 0.069880625 0.981275
vt 0 0.9375
vt 0.8373375 0.9375
vt 0.8373375 1
vt 0 1
vt 0.7998875 1
vt 0 1
vt 0 0.9375
vt 0.7998875 0.9375
vt 0.018725 0.93011875
vt 0.8186125 0.93011875
vt 0.8373375 1
vt 0 1
vt 0 0.93011875
vt 0.8373375 0.93011875
vt 0.8186125 1
vt 0.018725 1
vt 0 0.9375
vt 0.8373375 0.9375
vt 0.8373375 1
vt 0 1
vt 0.7998875 1
vt 0 1
vt 0 0.9375
vt 0.7998875 0.9375
vt 0 0.98127625
vt 0 0.18138125000000005
vt 0.069880625 0.16265624999999995
vt 0.06988125 1
vt 0 0.93011875
vt 0.83734375 0.93011875
vt 0.81861875 0.999999375
vt 0.01872375 1
vt 0 0.9375
vt 0.8373375 0.9375
vt 0.8373375 1
vt 0 1
vt 0.7998875 1
vt 0 1
vt 0 0.9375
vt 0.7998875 0.9375
vt 0 0.981275
vt 0 0.18138062499999996
vt 0.06988125 0.16265624999999995
vt 0.069880625 1
vt 0 0.93011875
vt 0.83734375 0.93011875
vt 0.818619375 1
vt 0.018725 0.999999375
vt 0 0.9375
vt 0.8373375 0.9375
vt 0.8373375 1
vt 0 1
vt 0.7998875 1
vt 0 1
vt 0 0.9375
vt 0.7998875 0.9375
vt 0 0.981275
vt 0 0.18138750000000003
vt 0.06988125 0.16266250000000004
vt 0.06988125 1
vt 0.06988125 0.16266250000000004
vt 0.06988125 1
vt 0 0.981275
vt 0 0.18138750000000003
vt 0 0.9375
vt 0.8373375 0.9375
vt 0.8373375 1
vt 0 1
vt 0.7998875 1
vt 0 1
vt 0 0.9375
vt 0.7998875 0.9375
vt 0.818619375 1
vt 0.018725 1
vt 0 0.930119375
vt 0.83734375 0.93011875
vt 0.06988125 0.16265624999999995
vt 0.06988125 1
vt 6.25e-7 0.981275
vt 0 0.18138062499999996
vt 0 0.9375
vt 0.8373375 0.9375
vt 0.8373375 1
vt 0 1
vt 0.7998875 1
vt 0 1
vt 0 0.9375
vt 0.7998875 0.9375
vt 0.81861875 1
vt 0.01872375 1
vt 0 0.93011875
vt 0.83734375 0.930119375
vt 0.06988125 0.16265624999999995
vt 0.06988125 1
vt 0 0.98127625
vt 6.25e-7 0.18138125000000005
vt 0 0.9375
vt 0.8373375 0.9375
vt 0.8373375 1
vt 0 1
vt 0.7998875 1
vt 0 1
vt 0 0.9375
vt 0.7998875 0.9375
vt 0.8186125 1
vt 0.018725 1
vt 0 0.93011875
vt 0.8373375 0.93011875
vt 0.8373375 1
vt 0 1
vt 0.018725 0.93011875
vt 0.8186125 0.93011875
vt 0 0.9375
vt 0.8373375 0.9375
vt 0.8373375 1
vt 0 1
vt 0.7998875 1
vt 0 1
vt 0 0.9375
vt 0.7998875 0.9375
vt 0.06988125 0.18138062499999996
vt 0.06988125 0.981275
vt 6.25e-7 1
vt 0 0.16265624999999995
vt 0.83734375 1
vt 0 1
vt 0.018725 0.930119375
vt 0.818619375 0.93011875
vt 0 0.9375
vt 0.8373375 0.9375
vt 0.8373375 1
vt 0 1
vt 0.7998875 1
vt 0 1
vt 0 0.9375
vt 0.7998875 0.9375
vt 0.06988125 0.18138125000000005
vt 0.06988125 0.98127625
vt 0 1
vt 6.25e-7 0.16265624999999995
vt 0.83734375 1
vt 0 1
vt 0.01872375 0.93011875
vt 0.81861875 0.930119375
vt 0 0.9375
vt 0.8373375 0.9375
vt 0.8373375 1
vt 0 1
vt 0.7998875 1
vt 0 1
vt 0 0.9375
vt 0.7998875 0.9375
vt 0.06988125 0.18138750000000003
vt 0.06988125 0.981275
vt 0 1
vt 0 0.16266250000000004
vt 0 1
vt 0 0.16266250000000004
vt 0.06988125 0.18138750000000003
vt 0.06988125 0.981275
vt 0 0.9375
vt 0.8373375 0.9375
vt 0.8373375 1
vt 0 1
vt 0.7998875 1
vt 0 1
vt 0 0.9375
vt 0.7998875 0.9375
vt 0.01872375 0.93011875
vt 0.81861875 0.93011875
vt 0.83734375 0.999999375
vt 0 1
vt 0 1
vt 0 0.16265624999999995
vt 0.069880625 0.18138125000000005
vt 0.06988125 0.98127625
vt 0 0.9375
vt 0.8373375 0.9375
vt 0.8373375 1
vt 0 1
vt 0.7998875 1
vt 0 1
vt 0 0.9375
vt 0.7998875 0.9375
vt 0.018725 0.93011875
vt 0.818619375 0.93011875
vt 0.83734375 1
vt 0 0.999999375
vt 0 1
vt 0 0.16265624999999995
vt 0.06988125 0.18138062499999996
vt 0.069880625 0.981275
vt 0 0.9375
vt 0.8373375 0.9375
vt 0.8373375 1
vt 0 1
vt 0.7998875 1
vt 0 1
vt 0 0.9375
vt 0.7998875 0.9375
vt 0.018725 0.93011875
vt 0.8186125 0.93011875
vt 0.8373375 1
vt 0 1
vt 0 0.93011875
vt 0.8373375 0.93011875
vt 0.8186125 1
vt 0.018725 1
vt 1.5529125 0.22354375000000004
vt 1.344864375 1
vt 0 0.22354375000000004
vt 0 -0.5529143750000001
vt 0.776455 -0.34486250000000007
vt 0 1
vt 1.552914375 0.223545
vt 1.3448625 1
vt 0 0.223545
vt 0 -0.5529124999999999
vt 0.77645625 -0.344864375
vt 0 1
vt 1.5 0.19615000000000005
vt 1.5 1
vt 0 0.598075
vt 1.5 0.19615000000000005
vt 1.5 1
vt 0 0.598075
vt 0 -0.5529124999999999
vt 0.77645625 -0.344864375
vt 0 1
vt 1.552914375 0.223545
vt 1.3448625 1
vt 0 0.223545
vt 0 -0.5529143750000001
vt 0.776455 -0.34486250000000007
vt 0 1
vt 1.5529125 0.22354375000000004
vt 1.344864375 1
vt 0 0.22354375000000004
vt 0 -0.5
vt 0.80385 -0.5
vt 0.401925 1
vt 0.80385 1
vt 0 1
vt 0.401925 -0.5
vt 0 1
vt 0.20804875 0.22354375000000004
vt 1.5529125 1
vt 0.776455 1
vt 0 0.7919475
vt 0.776455 -0.5529143750000001
vt 0 1
vt 0.2080525 0.223545
vt 1.552914375 1
vt 0.77645625 1
vt 0 0.79195125
vt 0.77645625 -0.5529124999999999
vt 0 1
vt 0 0.19615000000000005
vt 1.5 0.598075
vt 0 1
vt 0 0.19615000000000005
vt 1.5 0.598075
vt 0.77645625 1
vt 0 0.79195125
vt 0.77645625 -0.5529124999999999
vt 0 1
vt 0.2080525 0.223545
vt 1.552914375 1
vt 0.776455 1
vt 0 0.7919475
vt 0.776455 -0.5529143750000001
vt 0 1
vt 0.20804875 0.22354375000000004
vt 1.5529125 1
vt 0.80385 1
vt 0 1
vt 0.401925 -0.5
vt 0 -0.5
vt 0.80385 -0.5
vt 0.401925 1
vn 5.746936299608789e-17 0.2588190017744012 0.9659258378988019
vn 5.746936299608789e-17 0.2588190017744012 0.9659258378988019
vn 1.5700924586837752e-16 0.7071067811865476 0.7071067811865476
vn 1.5700924586837752e-16 0.7071067811865476 0.7071067811865476
vn 2.144786210631193e-16 0.9659258378988019 0.2588190017744012
vn 2.144786210631193e-16 0.9659258378988019 0.2588190017744012
vn 2.144786210631193e-16 0.9659258378988019 -0.2588190017744012
vn 2.144786210631193e-16 0.9659258378988019 -0.2588190017744012
vn 1.5700924586837752e-16 0.7071067811865476 -0.7071067811865476
vn 1.5700924586837752e-16 0.7071067811865476 -0.7071067811865476
vn 5.746936299608789e-17 0.2588190017744012 -0.9659258378988019
vn 5.746936299608789e-17 0.2588190017744012 -0.9659258378988019
vn -5.746936299608789e-17 -0.2588190017744012 -0.9659258378988019
vn -5.746936299608789e-17 -0.2588190017744012 -0.9659258378988019
vn -1.5700924586837752e-16 -0.7071067811865476 -0.7071067811865476
vn -1.5700924586837752e-16 -0.7071067811865476 -0.7071067811865476
vn -2.144786210631193e-16 -0.9659258378988019 -0.2588190017744012
vn -2.144786210631193e-16 -0.9659258378988019 -0.2588190017744012
vn -2.144786210631193e-16 -0.9659258378988019 0.2588190017744012
vn -2.144786210631193e-16 -0.9659258378988019 0.2588190017744012
vn -1.5700924586837752e-16 -0.7071067811865476 0.7071067811865476
vn -1.5700924586837752e-16 -0.7071067811865476 0.7071067811865476
vn -5.746936299608789e-17 -0.2588190017744012 0.9659258378988019
vn -5.746936299608789e-17 -0.2588190017744012 0.9659258378988019
vn 0.7192545979022176 0.17981365768379065 0.6710736709981222
vn -0.7192545979022175 0.17981365768379096 0.6710736709981222
vn 0.7192545753878075 -0.17981350129519 -0.671073737033174
vn -0.7192545753878076 -0.17981350129518972 -0.6710737370331741
vn 0.7192545942247761 0.49126002721906464 0.4912600272190648
vn -0.7192545942247759 0.4912600272190649 0.4912600272190648
vn 0.7192546392536521 -0.491259994255638 -0.4912599942556378
vn -0.7192546392536522 -0.4912599942556376 -0.49125999425563777
vn 0.7192545979022176 0.6710736709981219 0.1798136576837908
vn -0.7192545979022175 0.6710736709981223 0.17981365768379082
vn 0.7192545753878073 -0.6710737370331741 -0.17981350129518986
vn -0.7192545753878076 -0.6710737370331737 -0.17981350129518986
vn 0.7192545979022176 0.6710736709981219 -0.1798136576837908
vn -0.7192545979022175 0.6710736709981223 -0.17981365768379082
vn 0.7192545753878073 -0.6710737370331741 0.17981350129518986
vn -0.7192545753878076 -0.6710737370331737 0.17981350129518986
vn 0.7192545942247761 0.49126002721906464 -0.4912600272190648
vn -0.7192545942247759 0.4912600272190649 -0.4912600272190648
vn 0.7192546392536521 -0.491259994255638 0.4912599942556378
vn -0.7192546392536522 -0.4912599942556376 0.49125999425563777
vn 0.7192545979022176 0.17981365768379065 -0.6710736709981222
vn -0.7192545979022175 0.17981365768379096 -0.6710736709981222
vn 0.7192545753878075 -0.17981350129519 0.671073737033174
vn -0.7192545753878076 -0.17981350129518972 0.6710737370331741
vn 0.7192545979022175 -0.17981365768379096 -0.6710736709981222
vn -0.7192545979022176 -0.17981365768379065 -0.6710736709981222
vn 0.7192545753878076 0.17981350129518972 0.6710737370331741
vn -0.7192545753878075 0.17981350129519 0.671073737033174
vn 0.7192545942247759 -0.4912600272190649 -0.4912600272190648
vn -0.7192545942247761 -0.49126002721906464 -0.4912600272190648
vn 0.7192546392536522 0.4912599942556376 0.49125999425563777
vn -0.7192546392536521 0.491259994255638 0.4912599942556378
vn 0.7192545979022175 -0.6710736709981223 -0.17981365768379082
vn -0.7192545979022176 -0.6710736709981219 -0.1798136576837908
vn 0.7192545753878076 0.6710737370331737 0.17981350129518986
vn -0.7192545753878073 0.6710737370331741 0.17981350129518986
vn 0.7192545979022175 -0.6710736709981223 0.17981365768379082
vn -0.7192545979022176 -0.6710736709981219 0.1798136576837908
vn 0.7192545753878076 0.6710737370331737 -0.17981350129518986
vn -0.7192545753878073 0.6710737370331741 -0.17981350129518986
vn 0.7192545942247759 -0.4912600272190649 0.4912600272190648
vn -0.7192545942247761 -0.49126002721906464 0.4912600272190648
vn 0.7192546392536522 0.4912599942556376 -0.49125999425563777
vn -0.7192546392536521 0.491259994255638 -0.4912599942556378
vn 0.7192545979022175 -0.17981365768379096 0.6710736709981222
vn -0.7192545979022176 -0.17981365768379065 0.6710736709981222
vn 0.7192545753878076 0.17981350129518972 -0.6710737370331741
vn -0.7192545753878075 0.17981350129519 -0.671073737033174
vn 0.7192545979022176 0.17981365768379065 0.6710736709981222
vn -0.7192545979022175 0.17981365768379096 0.6710736709981222
vn 0.7192545753878075 -0.17981350129519 -0.671073737033174
vn -0.7192545753878076 -0.17981350129518972 -0.6710737370331741
vn 0.7192545942247761 0.49126002721906464 0.4912600272190648
vn -0.7192545942247759 0.4912600272190649 0.4912600272190648
vn 0.7192546392536521 -0.491259994255638 -0.4912599942556378
vn -0.7192546392536522 -0.4912599942556376 -0.49125999425563777
vn 0.7192545979022176 0.6710736709981219 0.1798136576837908
vn -0.7192545979022175 0.6710736709981223 0.17981365768379082
vn 0.7192545753878073 -0.6710737370331741 -0.17981350129518986
vn -0.7192545753878076 -0.6710737370331737 -0.17981350129518986
vn 0.7192545979022176 0.6710736709981219 -0.1798136576837908
vn -0.7192545979022175 0.6710736709981223 -0.17981365768379082
vn 0.7192545753878073 -0.6710737370331741 0.17981350129518986
vn -0.7192545753878076 -0.6710737370331737 0.17981350129518986
vn 0.7192545942247761 0.49126002721906464 -0.4912600272190648
vn -0.7192545942247759 0.4912600272190649 -0.4912600272190648
vn 0.7192546392536521 -0.491259994255638 0.4912599942556378
vn -0.7192546392536522 -0.4912599942556376 0.49125999425563777
vn 0.7192545979022176 0.17981365768379065 -0.6710736709981222
vn -0.7192545979022175 0.17981365768379096 -0.6710736709981222
vn 0.7192545753878075 -0.17981350129519 0.671073737033174
vn -0.7192545753878076 -0.17981350129518972 0.6710737370331741
vn 0.7192545979022175 -0.17981365768379096 -0.6710736709981222
vn -0.7192545979022176 -0.17981365768379065 -0.6710736709981222
vn 0.7192545753878076 0.17981350129518972 0.6710737370331741
vn -0.7192545753878075 0.17981350129519 0.671073737033174
vn 0.7192545942247759 -0.4912600272190649 -0.4912600272190648
vn -0.7192545942247761 -0.49126002721906464 -0.4912600272190648
vn 0.7192546392536522 0.4912599942556376 0.49125999425563777
vn -0.7192546392536521 0.491259994255638 0.4912599942556378
vn 0.7192545979022175 -0.6710736709981223 -0.17981365768379082
vn -0.7192545979022176 -0.6710736709981219 -0.1798136576837908
vn 0.7192545753878076 0.6710737370331737 0.17981350129518986
vn -0.7192545753878073 0.6710737370331741 0.17981350129518986
vn 0.7192545979022175 -0.6710736709981223 0.17981365768379082
vn -0.7192545979022176 -0.6710736709981219 0.1798136576837908
vn 0.7192545753878076 0.6710737370331737 -0.17981350129518986
vn -0.7192545753878073 0.6710737370331741 -0.17981350129518986
vn 0.7192545942247759 -0.4912600272190649 0.4912600272190648
vn -0.7192545942247761 -0.49126002721906464 0.4912600272190648
vn 0.7192546392536522 0.4912599942556376 -0.49125999425563777
vn -0.7192546392536521 0.491259994255638 -0.4912599942556378
vn 0.7192545979022175 -0.17981365768379096 0.6710736709981222
vn -0.7192545979022176 -0.17981365768379065 0.6710736709981222
vn 0.7192545753878076 0.17981350129518972 -0.6710737370331741
vn -0.7192545753878075 0.17981350129519 -0.671073737033174
vn 1 -2.1727630617865678e-16 0
vn -1 3.9489543448110756e-16 4.768298746374517e-18
vn 0.9720595561497505 0.06075371216112308 0.22673598249195812
vn -0.9720595561497505 0.06075371216112351 0.22673598249195812
vn 0.9720595583798044 0.16598225050055773 0.16598225050055798
vn -0.9720595583798042 0.16598225050055818 0.16598225050055787
vn 0.9720595561497505 0.2267359824919579 0.060753712161123304
vn -0.9720595561497503 0.22673598249195834 0.06075371216112325
vn 0.9720595561497505 0.2267359824919579 -0.060753712161123304
vn -0.9720595561497503 0.22673598249195834 -0.06075371216112325
vn 0.9720595583798044 0.16598225050055773 -0.16598225050055798
vn -0.9720595583798042 0.16598225050055818 -0.16598225050055787
vn 0.9720595561497505 0.06075371216112308 -0.22673598249195812
vn -0.9720595561497505 0.06075371216112351 -0.22673598249195812
vn 0.9720595561497505 -0.06075371216112351 -0.22673598249195812
vn -0.9720595561497504 -0.06075371216112281 -0.22673598249195814
vn 0.9720595583798042 -0.16598225050055812 -0.16598225050055793
vn -0.9720595583798045 -0.1659822505005574 -0.165982250500558
vn 0.9720595561497503 -0.22673598249195828 -0.06075371216112329
vn -0.9720595561497506 -0.22673598249195767 -0.06075371216112325
vn 0.9720595561497503 -0.22673598249195828 0.06075371216112329
vn -0.9720595561497506 -0.22673598249195767 0.06075371216112325
vn 0.9720595583798042 -0.16598225050055812 0.16598225050055793
vn -0.9720595583798045 -0.1659822505005574 0.165982250500558
vn 0.9720595561497505 -0.06075371216112351 0.22673598249195812
vn -0.9720595561497504 -0.06075371216112281 0.22673598249195814
usemtl none
f 1/1/1 3/2/3 4/3/4
f 1/1/1 4/3/4 2/4/2
f 3/5/3 5/6/5 6/7/6
f 3/5/3 6/7/6 4/8/4
f 5/9/5 7/10/7 8/11/8
f 5/9/5 8/11/8 6/12/6
f 7/13/7 9/14/9 10/15/10
f 7/13/7 10/15/10 8/16/8
f 9/17/9 11/18/11 12/19/12
f 9/17/9 12/19/12 10/20/10
f 11/21/11 13/22/13 14/23/14
f 11/21/11 14/23/14 12/24/12
f 13/25/13 15/26/15 16/27/16
f 13/25/13 16/27/16 14/28/14
f 15/29/15 17/30/17 18/31/18
f 15/29/15 18/31/18 16/32/16
f 17/33/17 19/34/19 20/35/20
f 17/33/17 20/35/20 18/36/18
f 19/37/19 21/38/21 22/39/22
f 19/37/19 22/39/22 20/40/20
f 21/41/21 23/42/23 24/43/24
f 21/41/21 24/43/24 22/44/22
f 23/45/23 1/46/1 2/47/2
f 23/45/23 2/47/2 24/48/24
f 25/49/25 29/50/29 30/51/30
f 25/49/25 30/51/30 26/52/26
f 28/53/28 32/54/32 31/55/31
f 28/53/28 31/55/31 27/56/27
f 27/57/27 31/58/31 29/59/29
f 27/57/27 29/59/29 25/60/25
f 26/61/26 30/62/30 32/63/32
f 26/61/26 32/63/32 28/64/28
f 29/65/29 33/66/33 34/67/34
f 29/65/29 34/67/34 30/68/30
f 32/69/32 36/70/36 35/71/35
f 32/69/32 35/71/35 31/72/31
f 31/73/31 35/74/35 33/75/33
f 31/73/31 33/75/33 29/76/29
f 30/77/30 34/78/34 36/79/36
f 30/77/30 36/79/36 32/80/32
f 33/81/33 37/82/37 38/83/38
f 33/81/33 38/83/38 34/84/34
f 36/85/36 40/86/40 39/87/39
f 36/85/36 39/87/39 35/88/35
f 35/89/35 39/90/39 37/91/37
f 35/89/35 37/91/37 33/92/33
f 34/93/34 38/94/38 40/95/40
f 34/93/34 40/95/40 36/96/36
f 37/97/37 41/98/41 42/99/42
f 37/97/37 42/99/42 38/100/38
f 40/101/40 44/102/44 43/103/43
f 40/101/40 43/103/43 39/104/39
f 39/105/39 43/106/43 41/107/41
f 39/105/39 41/107/41 37/108/37
f 38/109/38 42/110/42 44/111/44
f 38/109/38 44/111/44 40/112/40
f 41/113/41 45/114/45 46/115/46
f 41/113/41 46/115/46 42/116/42
f 44/117/44 48/118/48 47/119/47
f 44/117/44 47/119/47 43/120/43
f 43/121/43 47/122/47 45/123/45
f 43/121/43 45/123/45 41/124/41
f 42/125/42 46/126/46 48/127/48
f 42/125/42 48/127/48 44/128/44
f 45/129/45 49/130/49 50/131/50
f 45/129/45 50/131/50 46/132/46
f 48/133/48 52/134/52 51/135/51
f 48/133/48 51/135/51 47/136/47
f 47/137/47 51/138/51 49/139/49
f 47/137/47 49/139/49 45/140/45
f 46/141/46 50/142/50 52/143/52
f 46/141/46 52/143/52 48/144/48
f 49/145/49 53/146/53 54/147/54
f 49/145/49 54/147/54 50/148/50
f 52/149/52 56/150/56 55/151/55
f 52/149/52 55/151/55 51/152/51
f 51/153/51 55/154/55 53/155/53
f 51/153/51 53/155/53 49/156/49
f 50/157/50 54/158/54 56/159/56
f 50/157/50 56/159/56 52/160/52
f 53/161/53 57/162/57 58/163/58
f 53/161/53 58/163/58 54/164/54
f 56/165/56 60/166/60 59/167/59
f 56/165/56 59/167/59 55/168/55
f 55/169/55 59/170/59 57/171/57
f 55/169/55 57/171/57 53/172/53
f 54/173/54 58/174/58 60/175/60
f 54/173/54 60/175/60 56/176/56
f 57/177/57 61/178/61 62/179/62
f 57/177/57 62/179/62 58/180/58
f 60/181/60 64/182/64 63/183/63
f 60/181/60 63/183/63 59/184/59
f 59/185/59 63/186/63 61/187/61
f 59/185/59 61/187/61 57/188/57
f 58/189/58 62/190/62 64/191/64
f 58/189/58 64/191/64 60/192/60
f 61/193/61 65/194/65 66/195/66
f 61/193/61 66/195/66 62/196/62
f 64/197/64 68/198/68 67/199/67
f 64/197/64 67/199/67 63/200/63
f 63/201/63 67/202/67 65/203/65
f 63/201/63 65/203/65 61/204/61
f 62/205/62 66/206/66 68/207/68
f 62/205/62 68/207/68 64/208/64
f 65/209/65 69/210/69 70/211/70
f 65/209/65 70/211/70 66/212/66
f 68/213/68 72/214/72 71/215/71
f 68/213/68 71/215/71 67/216/67
f 67/217/67 71/218/71 69/219/69
f 67/217/67 69/219/69 65/220/65
f 66/221/66 70/222/70 72/223/72
f 66/221/66 72/223/72 68/224/68
f 69/225/69 25/226/25 26/227/26
f 69/225/69 26/227/26 70/228/70
f 72/229/72 28/230/28 27/231/27
f 72/229/72 27/231/27 71/232/71
f 71/233/71 27/234/27 25/235/25
f 71/233/71 25/235/25 69/236/69
f 70/237/70 26/238/26 28/239/28
f 70/237/70 28/239/28 72/240/72
f 73/241/73 77/242/77 78/243/78
f 73/241/73 78/243/78 74/244/74
f 76/245/76 80/246/80 79/247/79
f 76/245/76 79/247/79 75/248/75
f 75/249/75 79/250/79 77/251/77
f 75/249/75 77/251/77 73/252/73
f 74/253/74 78/254/78 80/255/80
f 74/253/74 80/255/80 76/256/76
f 77/257/77 81/258/81 82/259/82
f 77/257/77 82/259/82 78/260/78
f 80/261/80 84/262/84 83/263/83
f 80/261/80 83/263/83 79/264/79
f 79/265/79 83/266/83 81/267/81
f 79/265/79 81/267/81 77/268/77
f 78/269/78 82/270/82 84/271/84
f 78/269/78 84/271/84 80/272/80
f 81/273/81 85/274/85 86/275/86
f 81/273/81 86/275/86 82/276/82
f 84/277/84 88/278/88 87/279/87
f 84/277/84 87/279/87 83/280/83
f 83/281/83 87/282/87 85/283/85
f 83/281/83 85/283/85 81/284/81
f 82/285/82 86/286/86 88/287/88
f 82/285/82 88/287/88 84/288/84
f 85/289/85 89/290/89 90/291/90
f 85/289/85 90/291/90 86/292/86
f 88/293/88 92/294/92 91/295/91
f 88/293/88 91/295/91 87/296/87
f 87/297/87 91/298/91 89/299/89
f 87/297/87 89/299/89 85/300/85
f 86/301/86 90/302/90 92/303/92
f 86/301/86 92/303/92 88/304/88
f 89/305/89 93/306/93 94/307/94
f 89/305/89 94/307/94 90/308/90
f 92/309/92 96/310/96 95/311/95
f 92/309/92 95/311/95 91/312/91
f 91/313/91 95/314/95 93/315/93
f 91/313/91 93/315/93 89/316/89
f 90/317/90 94/318/94 96/319/96
f 90/317/90 96/319/96 92/320/92
f 93/321/93 97/322/97 98/323/98
f 93/321/93 98/323/98 94/324/94
f 96/325/96 100/326/100 99/327/99
f 96/325/96 99/327/99 95/328/95
f 95/329/95 99/330/99 97/331/97
f 95/329/95 97/331/97 93/332/93
f 94/333/94 98/334/98 100/335/100
f 94/333/94 100/335/100 96/336/96
f 97/337/97 101/338/101 102/339/102
f 97/337/97 102/339/102 98/340/98
f 100/341/100 104/342/104 103/343/103
f 100/341/100 103/343/103 99/344/99
f 99/345/99 103/346/103 101/347/101
f 99/345/99 101/347/101 97/348/97
f 98/349/98 102/350/102 104/351/104
f 98/349/98 104/351/104 100/352/100
f 101/353/101 105/354/105 106/355/106
f 101/353/101 106/355/106 102/356/102
f 104/357/104 108/358/108 107/359/107
f 104/357/104 107/359/107 103/360/103
f 103/361/103 107/362/107 105/363/105
f 103/361/103 105/363/105 101/364/101
f 102/365/102 106/366/106 108/367/108
f 102/365/102 108/367/108 104/368/104
f 105/369/105 109/370/109 110/371/110
f 105/369/105 110/371/110 106/372/106
f 108/373/108 112/374/112 111/375/111
f 108/373/108 111/375/111 107/376/107
f 107/377/107 111/378/111 109/379/109
f 107/377/107 109/379/109 105/380/105
f 106/381/106 110/382/110 112/383/112
f 106/381/106 112/383/112 108/384/108
f 109/385/109 113/386/113 114/387/114
f 109/385/109 114/387/114 110/388/110
f 112/389/112 116/390/116 115/391/115
f 112/389/112 115/391/115 111/392/111
f 111/393/111 115/394/115 113/395/113
f 111/393/111 113/395/113 109/396/109
f 110/397/110 114/398/114 116/399/116
f 110/397/110 116/399/116 112/400/112
f 113/401/113 117/402/117 118/403/118
f 113/401/113 118/403/118 114/404/114
f 116/405/116 120/406/120 119/407/119
f 116/405/116 119/407/119 115/408/115
f 115/409/115 119/410/119 117/411/117
f 115/409/115 117/411/117 113/412/113
f 114/413/114 118/414/118 120/415/120
f 114/413/114 120/415/120 116/416/116
f 117/417/117 73/418/73 74/419/74
f 117/417/117 74/419/74 118/420/118
f 120/421/120 76/422/76 75/423/75
f 120/421/120 75/423/75 119/424/119
f 119/425/119 75/426/75 73/427/73
f 119/425/119 73/427/73 117/428/117
f 118/429/118 74/430/74 76/431/76
f 118/429/118 76/431/76 120/432/120
f 125/433/125 123/434/123 121/435/121
f 124/436/124 126/437/126 122/438/122
f 127/439/127 125/440/125 121/441/121
f 126/442/126 128/443/128 122/444/122
f 129/445/129 127/446/127 121/447/121
f 128/448/128 130/449/130 122/450/122
f 131/451/131 129/452/129 121/453/121
f 130/454/130 132/455/132 122/456/122
f 133/457/133 131/458/131 121/459/121
f 132/460/132 134/461/134 122/462/122
f 135/463/135 133/464/133 121/465/121
f 134/466/134 136/467/136 122/468/122
f 137/469/137 135/470/135 121/471/121
f 136/472/136 138/473/138 122/474/122
f 139/475/139 137/476/137 121/477/121
f 138/478/138 140/479/140 122/480/122
f 141/481/141 139/482/139 121/483/121
f 140/484/140 142/485/142 122/486/122
f 143/487/143 141/488/141 121/489/121
f 142/490/142 144/491/144 122/492/122
f 145/493/145 143/494/143 121/495/121
f 144/496/144 146/497/146 122/498/122
f 123/499/123 145/500/145 121/501/121
f 146/502/146 124/503/124 122/504/122
o mesh
v 1.5 1.375 1
v 1.5 1.375 -1
v 1.5 0 1
v 1.5 0 -1
v -1.5 1.375 1
v -1.5 1.375 -1
v -1.5 0 1
v -1.5 0 -1
v 0.1875 0.6875 1.5
v 0.1875 0.6875 1
v 0.1875 0.3125 1.5
v 0.1875 0.3125 1
v -0.1875 0.6875 1.5
v -0.1875 0.6875 1
v -0.1875 0.3125 1.5
v -0.1875 0.3125 1
v 0.1875 0.6875 -1
v 0.1875 0.6875 -1.5
v 0.1875 0.3125 -1
v 0.1875 0.3125 -1.5
v -0.1875 0.6875 -1
v -0.1875 0.6875 -1.5
v -0.1875 0.3125 -1
v -0.1875 0.3125 -1.5
vt 2 1
vt 0 1
vt 0 0
vt 2 0
vt 2 0
vt 2 1
vt 0 1
vt 0 0
vt 2 -1
vt 2 1
vt 0 1
vt 0 -1
vt 2 0
vt 2 1
vt 0 1
vt 0 0
vt 2 1
vt 0 1
vt 0 0
vt 2 0
vt 0.375 1
vt 0 1
vt 0 0.625
vt 0.375 0.625
vt 0.375 0.625
vt 0.375 1
vt 0 1
vt 0 0.625
vt 0 0.625
vt 0.375 0.625
vt 0.375 1
vt 0 1
vt 0.375 0.625
vt 0.375 1
vt 0 1
vt 0 0.625
vt 0.375 0.625
vt 0.375 1
vt 0 1
vt 0 0.625
vt 0.375 1
vt 0 1
vt 0 0.625
vt 0.375 0.625
vt 0.375 0.625
vt 0.375 1
vt 0 1
vt 0 0.625
vt 0 0.625
vt 0.375 0.625
vt 0.375 1
vt 0 1
vt 0.375 0.625
vt 0.375 1
vt 0 1
vt 0 0.625
vt 0.375 1
vt 0 1
vt 0 0.625
vt 0.375 0.625
vn 1 0 0
vn -1 0 0
vn 0 -1 0
vn 0 0 1
vn 0 0 -1
vn 1 0 0
vn -1 0 0
vn 0 1 0
vn 0 -1 0
vn 0 0 1
vn 1 0 0
vn -1 0 0
vn 0 1 0
vn 0 -1 0
vn 0 0 -1
usemtl none
f 148/505/147 147/506/147 149/507/147
f 148/505/147 149/507/147 150/508/147
f 153/509/148 151/510/148 152/511/148
f 153/509/148 152/511/148 154/512/148
f 150/513/149 149/514/149 153/515/149
f 150/513/149 153/515/149 154/516/149
f 149/517/150 147/518/150 151/519/150
f 149/517/150 151/519/150 153/520/150
f 152/521/151 148/522/151 150/523/151
f 152/521/151 150/523/151 154/524/151
f 156/525/152 155/526/152 157/527/152
f 156/525/152 157/527/152 158/528/152
f 161/529/153 159/530/153 160/531/153
f 161/529/153 160/531/153 162/532/153
f 159/533/154 155/534/154 156/535/154
f 159/533/154 156/535/154 160/536/154
f 158/537/155 157/538/155 161/539/155
f 158/537/155 161/539/155 162/540/155
f 157/541/156 155/542/156 159/543/156
f 157/541/156 159/543/156 161/544/156
f 164/545/157 163/546/157 165/547/157
f 164/545/157 165/547/157 166/548/157
f 169/549/158 167/550/158 168/551/158
f 169/549/158 168/551/158 170/552/158
f 167/553/159 163/554/159 164/555/159
f 167/553/159 164/555/159 168/556/159
f 166/557/160 165/558/160 169/559/160
f 166/557/160 169/559/160 170/560/160
f 168/561/161 164/562/161 166/563/161
f 168/561/161 166/563/161 170/564/161
o mesh
v 2.5 2.6875 0.1875
v 2.5 2.6875 -0.1875
v 2.5 2.3125 0.1875
v 2.5 2.3125 -0.1875
v 2 2.6875 0.1875
v 2 2.6875 -0.1875
v 2 2.3125 0.1875
v 2 2.3125 -0.1875
vt 0.375 1
vt 0 1
vt 0 0.625
vt 0.375 0.625
vt 0.375 0.625
vt 0.375 1
vt 0 1
vt 0 0.625
vt 0 0.625
vt 0.375 0.625
vt 0.375 1
vt 0 1
vt 0.375 0.625
vt 0.375 1
vt 0 1
vt 0 0.625
vt 0.375 0.625
vt 0.375 1
vt 0 1
vt 0 0.625
vt 0.375 1
vt 0 1
vt 0 0.625
vt 0.375 0.625
vn 1 0 0
vn -1 0 0
vn 0 1 0
vn 0 -1 0
vn 0 0 1
vn 0 0 -1
usemtl none
f 172/565/162 171/566/162 173/567/162
f 172/565/162 173/567/162 174/568/162
f 177/569/163 175/570/163 176/571/163
f 177/569/163 176/571/163 178/572/163
f 175/573/164 171/574/164 172/575/164
f 175/573/164 172/575/164 176/576/164
f 174/577/165 173/578/165 177/579/165
f 174/577/165 177/579/165 178/580/165
f 173/581/166 171/582/166 175/583/166
f 173/581/166 175/583/166 177/584/166
f 176/585/167 172/586/167 174/587/167
f 176/585/167 174/587/167 178/588/167
o mesh
v -2 2.6875 0.1875
v -2 2.6875 -0.1875
v -2 2.3125 0.1875
v -2 2.3125 -0.1875
v -2.5 2.6875 0.1875
v -2.5 2.6875 -0.1875
v -2.5 2.3125 0.1875
v -2.5 2.3125 -0.1875
vt 0.375 1
vt 0 1
vt 0 0.625
vt 0.375 0.625
vt 0.375 0.625
vt 0.375 1
vt 0 1
vt 0 0.625
vt 0 0.625
vt 0.375 0.625
vt 0.375 1
vt 0 1
vt 0.375 0.625
vt 0.375 1
vt 0 1
vt 0 0.625
vt 0.375 0.625
vt 0.375 1
vt 0 1
vt 0 0.625
vt 0.375 1
vt 0 1
vt 0 0.625
vt 0.375 0.625
vn 1 0 0
vn -1 0 0
vn 0 1 0
vn 0 -1 0
vn 0 0 1
vn 0 0 -1
usemtl none
f 180/589/168 179/590/168 181/591/168
f 180/589/168 181/591/168 182/592/168
f 185/593/169 183/594/169 184/595/169
f 185/593/169 184/595/169 186/596/169
f 183/597/170 179/598/170 180/599/170
f 183/597/170 180/599/170 184/600/170
f 182/601/171 181/602/171 185/603/171
f 182/601/171 185/603/171 186/604/171
f 181/605/172 179/606/172 183/607/172
f 181/605/172 183/607/172 185/608/172
f 184/609/173 180/610/173 182/611/173
f 184/609/173 182/611/173 186/612/173