# Made in Blockbench 5.1.6
mtllib blast_furnace.mtl

o Base
v 1.5 3 1.5
v 1.5 3 -1.5
v 1.1875 1.5 1.1875
v 1.1875 1.5 -1.1875
v -1.5 3 1.5
v -1.5 3 -1.5
v -1.1875 1.5 1.1875
v -1.1875 1.5 -1.1875
v 0.75 6.75 0.75
v 0.75 6.75 -0.75
v 1.5 3 1.5
v 1.5 3 -1.5
v -0.75 6.75 0.75
v -0.75 6.75 -0.75
v -1.5 3 1.5
v -1.5 3 -1.5
v 0.75 7 0.75
v 0.75 7 -0.75
v -0.75 7 0.75
v -0.75 7 -0.75
v 1.5 1.5 1.5
v 1.5 1.5 -1.5
v 1.5 0 1.5
v 1.5 0 -1.5
v -1.5 1.5 1.5
v -1.5 1.5 -1.5
v -1.5 0 1.5
v -1.5 0 -1.5
v -1.5 0 -0.5
v -1.5 1 -0.5
v -1.5 1 0.5
v -1.5 0 0.5
v -1.4375 0.9375 -0.43750000000000044
v -1.4375 0.9375 0.4375
v -1.4375 0.0625 0.4375
v -1.4375 0.0625 -0.4375
v 0.5 1 -1.5
v -0.5 1 -1.5
v -0.5 0 -1.5
v 0.5 0 -1.5
v 0.4375 0.9375 -1.4375
v -0.4375 0.9375 -1.4375
v -0.4375 0.0625 -1.4375
v 0.4375 0.0625 -1.4375
v -0.5 1 1.5
v 0.5 1 1.5
v 0.5 0 1.5
v -0.5 0 1.5
v -0.43750000000000044 0.9375 1.4375
v 0.43749999999999994 0.9374999999999999 1.4374999999999998
v 0.4375 0.0625 1.4375
v -0.4375 0.0625 1.4375
v 1.5 0 -0.5
v 1.5 1 -0.5
v 1.5 1 0.5
v 1.5 0 0.5
v 1.4375 0.9375 0.4375
v 1.4375 0.9375 -0.4375
v 1.4375 0.0625 -0.4375
v 1.4375 0.0625 0.4375
v 1.4375 0.6875000000000001 0.1875
v 1.4375 0.6875 -0.1875
v 1.4375 0.3125 -0.1875
v 1.4375 0.3125 0.1875
v 0.1875 0.6875000000000001 -1.4375
v -0.1875 0.6875 -1.4375
v -0.1875 0.3125 -1.4375
v 0.1875 0.3125 -1.4375
v -1.4375 0.6875 -0.18750000000000017
v -1.4375 0.6875000000000001 0.1875
v -1.4375 0.3125 0.18750000000000022
v -1.4375 0.3125 -0.1875
v -0.18750000000000028 0.6875000000000001 1.4375
v 0.1875 0.6875 1.4374999999999998
v 0.18749999999999992 0.3125 1.4375
v -0.18750000000000028 0.3125 1.4375
v 1.5 0.6875 -0.1875
v 1.5 0.6875000000000001 0.1875
v 1.5 0.3125 -0.1875
v 1.5 0.3125 0.1875
v -0.1875 0.6875 -1.5
v 0.1875 0.6875000000000001 -1.5
v -0.1875 0.3125 -1.5
v 0.1875 0.3125 -1.5
v -1.5 0.6875000000000001 0.1875
v -1.5 0.6875 -0.18750000000000017
v -1.5 0.3125 -0.1875
v -1.5 0.3125 0.18750000000000022
v 0.18750000000000003 0.6875 1.4999999999999998
v -0.18750000000000025 0.6875000000000001 1.5
v -0.18750000000000025 0.3125 1.5
v 0.18749999999999994 0.3125 1.5
vt 0.75 0.375
vt 0 0.375
vt 0.0625 0.28125
vt 0.671875 0.28125
vt 0.671875 0.28125
vt 0.75 0.375
vt 0 0.375
vt 0.078125 0.28125
vt 0.671875 0.28125
vt 0.75 0.375
vt 0 0.375
vt 0.078125 0.28125
vt 0.75 0.375
vt 0 0.375
vt 0.078125 0.28125
vt 0.671875 0.28125
vt 0.5625 0.625
vt 0.1875 0.625
vt 0 0.375
vt 0.75 0.375
vt 0.75 0.375
vt 0.5625 0.625
vt 0.1875 0.625
vt 0 0.375
vt 0 0.671875
vt 0.375 0.671875
vt 0.375 0.765625
vt 0 0.765625
vt 3 -2
vt 3 1
vt 0 1
vt 0 -2
vt 0.75 0.375
vt 0.5625 0.625
vt 0.1875 0.625
vt 0 0.375
vt 0.5625 0.625
vt 0.1875 0.625
vt 0 0.375
vt 0.75 0.375
vt 0.375 0.671875
vt 0 0.671875
vt 0 0.65625
vt 0.375 0.65625
vt 0.375 0.671875
vt 0 0.671875
vt 0 0.65625
vt 0.375 0.65625
vt 0.375 0.671875
vt 0 0.671875
vt 0 0.65625
vt 0.375 0.65625
vt 0.375 0.671875
vt 0 0.671875
vt 0 0.65625
vt 0.375 0.65625
vt 0 0.09375
vt 0.75 0.09375
vt 0.75 0.28125
vt 0 0.28125
vt 0.75 0.09375
vt 0.75 0.28125
vt 0 0.28125
vt 0 0.09375
vt 0.75 0
vt 0.75 0.09375
vt 0.5 0.0625
vt 0.5 0
vt 0.75 0.09375
vt 0 0.09375
vt 0.2500000000000001 0.0625
vt 0.5 0.0625
vt 0.2500000000000001 0.0625
vt 0 0.09375
vt 0 0
vt 0.25 0
vt 0.484375 0.05859375
vt 0.5 0.0625
vt 0.2500000000000001 0.0625
vt 0.265625 0.05859375
vt 0.265625 0.05859375
vt 0.2500000000000001 0.0625
vt 0.25 0
vt 0.265625 0.00390625
vt 0.25 0
vt 0.5 0
vt 0.4843749999999999 0.00390625
vt 0.265625 0.00390625
vt 0.5 0
vt 0.5 0.0625
vt 0.484375 0.05859375
vt 0.4843749999999999 0.00390625
vt 0.75 0.09375
vt 0 0.09375
vt 0.25 0.0625
vt 0.5 0.0625
vt 0.25 0.0625
vt 0 0.09375
vt 0 0
vt 0.25 0
vt 0.75 0
vt 0.75 0.09375
vt 0.5 0.0625
vt 0.5 0
vt 0.5 0
vt 0.5 0.0625
vt 0.484375 0.05859375
vt 0.484375 0.00390625
vt 0.5 0.0625
vt 0.25 0.0625
vt 0.265625 0.05859375
vt 0.484375 0.05859375
vt 0.265625 0.05859375
vt 0.25 0.0625
vt 0.25 0
vt 0.265625 0.00390625
vt 0.25 0
vt 0.5 0
vt 0.484375 0.00390625
vt 0.265625 0.00390625
vt 0.75 0
vt 0.75 0.09375
vt 0.5 0.0625
vt 0.5 0
vt 0.75 0.09375
vt 0 0.09375
vt 0.2500000000000001 0.0625
vt 0.5 0.0625
vt 0.2500000000000001 0.0625
vt 0 0.09375
vt 0 0
vt 0.25 0
vt 0.5 0
vt 0.5 0.0625
vt 0.48437499999999994 0.05859375
vt 0.484375 0.00390625
vt 0.48437499999999994 0.05859375
vt 0.5 0.0625
vt 0.2500000000000001 0.0625
vt 0.265625 0.05859375
vt 0.265625 0.05859375
vt 0.2500000000000001 0.0625
vt 0.25 0
vt 0.2656250000000001 0.00390625
vt 0.25 0
vt 0.5 0
vt 0.484375 0.00390625
vt 0.2656250000000001 0.00390625
vt 0.5 0.0625
vt 0.75 0.09375
vt 0 0.09375
vt 0.25 0.0625
vt 0.25 0.0625
vt 0 0.09375
vt 0 0
vt 0.25 0
vt 0.75 0
vt 0.75 0.09375
vt 0.5 0.0625
vt 0.5 0
vt 0.5 0
vt 0.5 0.0625
vt 0.484375 0.05859375
vt 0.484375 0.00390625
vt 0.5 0.0625
vt 0.25 0.0625
vt 0.265625 0.05859375
vt 0.484375 0.05859375
vt 0.265625 0.05859375
vt 0.25 0.0625
vt 0.25 0
vt 0.265625 0.00390625
vt 0.25 0
vt 0.5 0
vt 0.484375 0.00390625
vt 0.265625 0.00390625
vt 0.484375 0.00390625
vt 0.484375 0.05859375
vt 0.421875 0.04296875
vt 0.421875 0.01953125
vt 0.484375 0.05859375
vt 0.2622876213592233 0.05859375
vt 0.33203125 0.04296875
vt 0.33203125 0.04296875
vt 0.265625 0.05859375
vt 0.265625 0.00390625
vt 0.328125 0.01953125
vt 0.328125 0.04296875
vt 0.265625 0.00390625
vt 0.484375 0.00390625
vt 0.421875 0.01953125
vt 0.328125 0.01953125
vt 0.421875 0.01953125
vt 0.421875 0.04296875
vt 0.328125 0.04296875
vt 0.328125 0.01953125
vt 0.328125 0.04296875
vt 0.421875 0.04296875
vt 0.484375 0.05859375
vt 0.484375 0.00390625
vt 0.484375 0.05859375
vt 0.421875 0.04296875
vt 0.421875 0.01953125
vt 0.484375 0.05859375
vt 0.265625 0.05859375
vt 0.328125 0.04296875
vt 0.421875 0.04296875
vt 0.265625 0.05859375
vt 0.265625 0.00390625
vt 0.328125 0.01953125
vt 0.328125 0.04296875
vt 0.265625 0.00390625
vt 0.484375 0.00390625
vt 0.421875 0.01953125
vt 0.328125 0.01953125
vt 0.421875 0.01953125
vt 0.421875 0.04296875
vt 0.328125 0.04296875
vt 0.328125 0.01953125
vt 0.484375 0.05859375
vt 0.265625 0.05859375
vt 0.33203125 0.04296875
vt 0.33203125 0.04296875
vt 0.328125 0.04296875
vt 0.265625 0.05859375
vt 0.265625 0.00390625
vt 0.328125 0.01953125
vt 0.328125 0.01953125
vt 0.265625 0.00390625
vt 0.4843749999999999 0.00390625
vt 0.421875 0.01953125
vt 0.421875 0.01953125
vt 0.4843749999999999 0.00390625
vt 0.484375 0.05859375
vt 0.421875 0.04296875
vt 0.421875 0.04296875
vt 0.328125 0.04296875
vt 0.328125 0.01953125
vt 0.421875 0.01953125
vt 0.328125 0.04296875
vt 0.421875 0.04296875
vt 0.484375 0.05859375
vt 0.48437499999999994 0.05859375
vt 0.265625 0.05859375
vt 0.328125 0.04296875000000011
vt 0.42187500000000006 0.04296875
vt 0.265625 0.05859375
vt 0.2656250000000001 0.00390625
vt 0.32812500000000006 0.01953125
vt 0.328125 0.04296875000000011
vt 0.2656250000000001 0.00390625
vt 0.484375 0.00390625
vt 0.421875 0.01953125
vt 0.32812500000000006 0.01953125
vt 0.484375 0.00390625
vt 0.48437499999999994 0.05859375
vt 0.42187500000000006 0.04296875
vt 0.421875 0.01953125
vt 0.42187500000000006 0.04296875
vt 0.328125 0.04296875000000011
vt 0.32812500000000006 0.01953125
vt 0.421875 0.01953125
vt 0.40625 0.04296875
vt 0.40625 0.01953125
vt 0.421875 0.01953125
vt 0.421875 0.04296875
vt 0.328125 0.04296875
vt 0.328125 0.01953125
vt 0.34375 0.01953125
vt 0.34375 0.04296875
vt 0.34375 0.01953125
vt 0.34375 0.04296875
vt 0.328125 0.04296875
vt 0.328125 0.01953125
vt 0.34375 0.01953125
vt 0.34375 0.04296875
vt 0.328125 0.04296875
vt 0.328125 0.01953125
vt 0.40625 0.04296875
vt 0.40625 0.01953125
vt 0.421875 0.01953125
vt 0.421875 0.04296875
vt 0.40625 0.04296875
vt 0.40625 0.01953125
vt 0.421875 0.01953125
vt 0.421875 0.04296875
vt 0.34375 0.01953125
vt 0.34375 0.04296875
vt 0.328125 0.04296875
vt 0.328125 0.01953125
vt 0.328125 0.01953125
vt 0.421875 0.01953125
vt 0.421875 0.0234375
vt 0.328125 0.0234375
vt 0.421875 0.01953125
vt 0.421875 0.04296875
vt 0.40625 0.04296875
vt 0.40625 0.01953125
vt 0.34375 0.01953125
vt 0.34375 0.04296875
vt 0.328125 0.04296875
vt 0.328125 0.01953125
vt 0.328125 0.04296875
vt 0.328125 0.01953125
vt 0.34375 0.01953125
vt 0.34375 0.04296875
vt 0.40625 0.04296875
vt 0.40625 0.01953125
vt 0.421875 0.01953125
vt 0.421875 0.04296875
vt 0.328125 0.04296875
vt 0.328125 0.01953125
vt 0.34375 0.01953125
vt 0.34375 0.04296875
vt 0.34375 0.01953125
vt 0.34375 0.04296875
vt 0.328125 0.04296875
vt 0.328125 0.01953125
vt 0.421875 0.01953125
vt 0.421875 0.04296875
vt 0.40625 0.04296875
vt 0.40625 0.01953125
vt 0.40625 0.04296875
vt 0.40625 0.01953125
vt 0.421875 0.01953125
vt 0.421875 0.04296875
vn 0.9789804197376051 -0.20395425411200105 0
vn -0.9789804197376051 -0.20395425411200105 0
vn 0 -0.20395425411200105 0.9789804197376051
vn 0 -0.20395425411200105 -0.9789804197376051
vn 0.9805806756909202 0.19611613513818404 0
vn -0.9805806756909202 0.19611613513818404 0
vn 0 1 0
vn 0 -1 0
vn 0 0.19611613513818404 0.9805806756909202
vn 0 0.19611613513818404 -0.9805806756909202
vn 0 0 1
vn 1 0 0
vn 0 0 -1
vn -1 0 0
vn 0 1 0
vn 0 -1 0
vn -1 0 0
vn -1 0 0
vn -1 0 0
vn -0.7071067811865476 -0.7071067811865476 0
vn -0.707106781186545 0 0.70710678118655
vn -0.7071067811865476 0.7071067811865476 0
vn -0.7071067811865476 0 -0.7071067811865476
vn 0 0 -1
vn 0 0 -1
vn 0 0 -1
vn 0.7071067811865476 0 -0.7071067811865476
vn 0 -0.7071067811865476 -0.7071067811865476
vn -0.7071067811865476 0 -0.7071067811865476
vn 0 0.7071067811865476 -0.7071067811865476
vn 0 0 1
vn 0 0 1
vn 0 0 1
vn -0.7071067811865485 0 0.7071067811865466
vn 0 -0.7071067811865482 0.7071067811865469
vn 0.70710678118655 0 0.707106781186545
vn 0 0.7071067811865476 0.7071067811865476
vn 1 0 0
vn 1 0 0
vn 1 0 0
vn 0.7071067811865476 0 0.7071067811865476
vn 0.7071067811865476 -0.7071067811865476 0
vn 0.7071067811865476 0 -0.7071067811865476
vn 0.7071067811865476 0.7071067811865476 0
vn 1 0 0
vn 1 0 0
vn 1 0 0
vn 1 0 0
vn 1 0 0
vn 1 0 0
vn 0 0 -1
vn 0 0 -1
vn 0 0 -1
vn 0 0 -1
vn 0 0 -1
vn -1 0 0
vn -1 0 0
vn -1 0 0
vn -1 0 0
vn -1 0 0
vn -1 0 0
vn 2.5376526277146424e-16 2.537652627714646e-16 1
vn 0 0 1
vn 0 0 1
vn -2.537652627714643e-16 2.5376526277146434e-16 1
vn 5.921189464667496e-16 0 1
vn 0 0 -1
vn 0 1 -2.9605947323337506e-16
vn 0 0 1
vn 0 -1 0
vn -1 0 0
vn -2.9605947323337506e-16 1 0
vn 1 0 0
vn 0 -1 0
vn 0 1 -2.9605947323337496e-16
vn 0 -4.440892098500626e-16 -1
vn 0 -1 0
vn 0 5.9211894646675e-16 1
vn 2.9605947323337486e-16 1 -2.629536350736704e-31
vn -1 0 4.440892098500626e-16
vn 0 -1 0
vn 1 -2.2204460492503155e-16 -4.440892098500626e-16
usemtl m_413150a3-c860-651f-8bd4-a59180ca17d6
f 2/1/1 1/2/1 3/3/1
f 2/1/1 3/3/1 4/4/1
f 7/5/2 5/6/2 6/7/2
f 7/5/2 6/7/2 8/8/2
f 3/9/3 1/10/3 5/11/3
f 3/9/3 5/11/3 7/12/3
f 6/13/4 2/14/4 4/15/4
f 6/13/4 4/15/4 8/16/4
f 10/17/5 9/18/5 11/19/5
f 10/17/5 11/19/5 12/20/5
f 15/21/6 13/22/6 14/23/6
f 15/21/6 14/23/6 16/24/6
f 19/25/7 17/26/7 18/27/7
f 19/25/7 18/27/7 20/28/7
usemtl none
f 12/29/8 11/30/8 15/31/8
f 12/29/8 15/31/8 16/32/8
usemtl m_413150a3-c860-651f-8bd4-a59180ca17d6
f 11/33/9 9/34/9 13/35/9
f 11/33/9 13/35/9 15/36/9
f 14/37/10 10/38/10 12/39/10
f 14/37/10 12/39/10 16/40/10
f 17/41/11 19/42/11 13/43/11
f 17/41/11 13/43/11 9/44/11
f 18/45/12 17/46/12 9/47/12
f 18/45/12 9/47/12 10/48/12
f 20/49/13 18/50/13 10/51/13
f 20/49/13 10/51/13 14/52/13
f 19/53/14 20/54/14 14/55/14
f 19/53/14 14/55/14 13/56/14
f 25/57/15 21/58/15 22/59/15
f 25/57/15 22/59/15 26/60/15
f 24/61/16 23/62/16 27/63/16
f 24/61/16 27/63/16 28/64/16
f 27/65/17 25/66/17 31/67/17
f 27/65/17 31/67/17 32/68/17
f 25/69/18 26/70/18 30/71/18
f 25/69/18 30/71/18 31/72/18
f 30/73/19 26/74/19 28/75/19
f 30/73/19 28/75/19 29/76/19
f 34/77/20 31/78/20 30/79/20
f 34/77/20 30/79/20 33/80/20
f 33/81/21 30/82/21 29/83/21
f 33/81/21 29/83/21 36/84/21
f 29/85/22 32/86/22 35/87/22
f 29/85/22 35/87/22 36/88/22
f 32/89/23 31/90/23 34/91/23
f 32/89/23 34/91/23 35/92/23
f 26/93/24 22/94/24 37/95/24
f 26/93/24 37/95/24 38/96/24
f 37/97/25 22/98/25 24/99/25
f 37/97/25 24/99/25 40/100/25
f 28/101/26 26/102/26 38/103/26
f 28/101/26 38/103/26 39/104/26
f 39/105/27 38/106/27 42/107/27
f 39/105/27 42/107/27 43/108/27
f 38/109/28 37/110/28 41/111/28
f 38/109/28 41/111/28 42/112/28
f 41/113/29 37/114/29 40/115/29
f 41/113/29 40/115/29 44/116/29
f 40/117/30 39/118/30 43/119/30
f 40/117/30 43/119/30 44/120/30
f 23/121/31 21/122/31 46/123/31
f 23/121/31 46/123/31 47/124/31
f 21/125/32 25/126/32 45/127/32
f 21/125/32 45/127/32 46/128/32
f 45/129/33 25/130/33 27/131/33
f 45/129/33 27/131/33 48/132/33
f 47/133/34 46/134/34 50/135/34
f 47/133/34 50/135/34 51/136/34
f 50/137/35 46/138/35 45/139/35
f 50/137/35 45/139/35 49/140/35
f 49/141/36 45/142/36 48/143/36
f 49/141/36 48/143/36 52/144/36
f 48/145/37 47/146/37 51/147/37
f 48/145/37 51/147/37 52/148/37
f 54/149/38 22/150/38 21/151/38
f 54/149/38 21/151/38 55/152/38
f 55/153/39 21/154/39 23/155/39
f 55/153/39 23/155/39 56/156/39
f 24/157/40 22/158/40 54/159/40
f 24/157/40 54/159/40 53/160/40
f 53/161/41 54/162/41 58/163/41
f 53/161/41 58/163/41 59/164/41
f 54/165/42 55/166/42 57/167/42
f 54/165/42 57/167/42 58/168/42
f 57/169/43 55/170/43 56/171/43
f 57/169/43 56/171/43 60/172/43
f 56/173/44 53/174/44 59/175/44
f 56/173/44 59/175/44 60/176/44
f 59/177/45 58/178/45 62/179/45
f 59/177/45 62/179/45 63/180/45
f 58/181/46 57/182/46 61/183/46
f 58/181/46 61/183/46 61/184/46
f 57/185/47 60/186/47 64/187/47
f 57/185/47 64/187/47 61/188/47
f 60/189/48 59/190/48 63/191/48
f 60/189/48 63/191/48 64/192/48
f 79/193/49 77/194/49 78/195/49
f 79/193/49 78/195/49 80/196/49
f 61/197/50 62/198/50 58/199/50
f 43/200/51 42/201/51 66/202/51
f 43/200/51 66/202/51 67/203/51
f 42/204/52 41/205/52 65/206/52
f 42/204/52 65/206/52 66/207/52
f 41/208/53 44/209/53 68/210/53
f 41/208/53 68/210/53 65/211/53
f 44/212/54 43/213/54 67/214/54
f 44/212/54 67/214/54 68/215/54
f 83/216/55 81/217/55 82/218/55
f 83/216/55 82/218/55 84/219/55
f 34/220/56 33/221/56 69/222/56
f 34/220/56 69/222/56 69/223/56
f 69/224/57 33/225/57 36/226/57
f 69/224/57 36/226/57 72/227/57
f 72/228/58 36/229/58 35/230/58
f 72/228/58 35/230/58 71/231/58
f 71/232/59 35/233/59 34/234/59
f 71/232/59 34/234/59 70/235/59
f 85/236/60 86/237/60 87/238/60
f 85/236/60 87/238/60 88/239/60
f 69/240/61 70/241/61 34/242/61
f 50/243/62 49/244/62 73/245/62
f 50/243/62 73/245/62 74/246/62
f 49/247/63 52/248/63 76/249/63
f 49/247/63 76/249/63 73/250/63
f 52/251/64 51/252/64 75/253/64
f 52/251/64 75/253/64 76/254/64
f 51/255/65 50/256/65 74/257/65
f 51/255/65 74/257/65 75/258/65
f 89/259/66 90/260/66 91/261/66
f 89/259/66 91/261/66 92/262/66
f 77/263/67 79/264/67 63/265/67
f 77/263/67 63/265/67 62/266/67
f 78/267/68 77/268/68 62/269/68
f 78/267/68 62/269/68 61/270/68
f 80/271/69 78/272/69 61/273/69
f 80/271/69 61/273/69 64/274/69
f 79/275/70 80/276/70 64/277/70
f 79/275/70 64/277/70 63/278/70
f 81/279/71 83/280/71 67/281/71
f 81/279/71 67/281/71 66/282/71
f 82/283/72 81/284/72 66/285/72
f 82/283/72 66/285/72 65/286/72
f 84/287/73 82/288/73 65/289/73
f 84/287/73 65/289/73 68/290/73
f 83/291/74 84/292/74 68/293/74
f 83/291/74 68/293/74 67/294/74
f 86/295/75 85/296/75 70/297/75
f 86/295/75 70/297/75 69/298/75
f 87/299/76 86/300/76 69/301/76
f 87/299/76 69/301/76 72/302/76
f 88/303/77 87/304/77 72/305/77
f 88/303/77 72/305/77 71/306/77
f 85/307/78 88/308/78 71/309/78
f 85/307/78 71/309/78 70/310/78
f 90/311/79 89/312/79 74/313/79
f 90/311/79 74/313/79 73/314/79
f 91/315/80 90/316/80 73/317/80
f 91/315/80 73/317/80 76/318/80
f 92/319/81 91/320/81 76/321/81
f 92/319/81 76/321/81 75/322/81
f 89/323/82 92/324/82 75/325/82
f 89/323/82 75/325/82 74/326/82