# Made in Blockbench 5.1.6
mtllib coke_oven.mtl

o Base
v 0.5 5 1.5
v 0.5 5 -1.5
v 0.5 -1 1.5
v 0.5 -1 -1.5
v -0.5 5 1.5
v -0.5 5 -1.5
v -0.5 -1 1.5
v -0.5 -1 -1.5
v 0.1875 4.8125 -1.5
v -0.1875 4.8125 -1.5
v -0.1875 -0.8125 -1.5
v 0.1875 -0.8125 -1.5
v 0.125 4.75 -1.4375
v -0.125 4.75 -1.4375
v -0.125 -0.75 -1.4375
v 0.125 -0.75 -1.4375
v -0.5 1 -0.5
v -0.5 0.9999999999999999 0.5
v -0.49999999999999994 -2.7755575615628914e-17 0.5
v -0.5 -5.551115123125783e-17 -0.5
v -0.4375 0.9375 -0.4375000000000002
v -0.4375 0.9374999999999999 0.4375
v -0.4375 0.06249999999999997 0.43749999999999956
v -0.4375 0.06249999999999995 -0.43750000000000044
v -0.49999999999999994 0.8749999999999998 0.37499999999999994
v -0.49999999999999994 0.12499999999999997 0.3749999999999996
v -0.5 0.1250000000000015 -0.3750000000000006
v -0.5 0.875 -0.3750000000000003
v 0.5 0.9999999999999999 0.5
v 0.5 1 -0.5
v 0.5 -5.551115123125783e-17 -0.5
v 0.49999999999999994 -2.7755575615628914e-17 0.5
v 0.5625 0.9374999999999998 0.4375
v 0.5625 0.9374999999999999 -0.4375
v 0.5625 0.06249999999999828 -0.4375
v 0.5625 0.06249999999999985 0.4375
v 0.5 0.8749999999999997 0.375
v 0.49999999999999994 0.8749999999999997 -0.37499999999999994
v 0.5 0.12499999999999838 -0.375
v 0.49999999999999994 0.1249999999999982 0.375
vt 0.875 0.375
vt 1 0.375
vt 1 0.5625
vt 0.875 0.5625
vt 0.875 0.375
vt 0.875 0.5625
vt 0.75 0.5625
vt 0.75 0.375
vt 0.875 0
vt 0.875 0.375
vt 0.75 0.375
vt 0.75 0
vt 1 0.375
vt 0.875 0.375
vt 0.9140625 0.36328125
vt 0.9609375 0.36328125
vt 0.875 0
vt 1 0
vt 0.9609375 0.01171875
vt 0.9140625 0.01171875
vt 1 0
vt 1 0.375
vt 0.9609375 0.36328125
vt 0.9609375 0.01171875
vt 0.9140625 0.01171875
vt 0.9140625 0.36328125
vt 0.875 0.375
vt 0.875 0
vt 0.9609375 0.01171875
vt 0.9609375 0.36328125
vt 0.953125 0.359375
vt 0.953125 0.015625
vt 0.9609375 0.36328125
vt 0.9140625 0.36328125
vt 0.9218749999999999 0.359375
vt 0.9218749999999999 0.359375
vt 0.9140625 0.36328125
vt 0.9140625 0.01171875
vt 0.921875 0.015625
vt 0.9218749999999999 0.359375
vt 0.9140625 0.01171875
vt 0.9609375 0.01171875
vt 0.953125 0.015625
vt 0.921875 0.015625
vt 0.9218749999999999 0.359375
vt 0.953125 0.359375
vt 0.9609375 0.36328125
vt 0.375 0
vt 0.375 0.375
vt 0.25 0.125
vt 0.25000000000000006 0.0625
vt 0.375 0.375
vt 0 0.375
vt 0.12500000000000003 0.125
vt 0.25 0.125
vt 0.12500000000000003 0.125
vt 0 0.375
vt 0 0
vt 0.12500000000000006 0.0625
vt 0 0
vt 0.375 0
vt 0.25000000000000006 0.0625
vt 0.12500000000000006 0.0625
vt 0.25000000000000006 0.0625
vt 0.25 0.125
vt 0.2421875 0.12109375
vt 0.2421875 0.06640625
vt 0.2421875 0.12109375
vt 0.25 0.125
vt 0.12500000000000003 0.125
vt 0.1328125 0.12109375
vt 0.1328125 0.12109375
vt 0.12500000000000003 0.125
vt 0.12500000000000006 0.0625
vt 0.13281250000000003 0.06640624999999989
vt 0.12500000000000006 0.0625
vt 0.25000000000000006 0.0625
vt 0.2421875 0.06640625
vt 0.13281250000000003 0.06640624999999989
vt 0.2421875 0.06640625
vt 0.2421875 0.12109375
vt 0.234375 0.1171875
vt 0.23437500000000003 0.0703125
vt 0.234375 0.1171875
vt 0.2421875 0.12109375
vt 0.1328125 0.12109375
vt 0.14062500000000003 0.1171875
vt 0.1328125 0.12109375
vt 0.13281250000000003 0.06640624999999989
vt 0.140625 0.0703125
vt 0.14062500000000003 0.1171875
vt 0.13281250000000003 0.06640624999999989
vt 0.2421875 0.06640625
vt 0.23437500000000003 0.0703125
vt 0.140625 0.0703125
vt 0.140625 0.0703125
vt 0.23437500000000003 0.0703125
vt 0.234375 0.1171875
vt 0.14062500000000003 0.1171875
vt 0.75 0.375
vt 0.375 0.375
vt 0.5 0.125
vt 0.625 0.125
vt 0.5 0.125
vt 0.375 0.375
vt 0.375 0
vt 0.5 0.0625
vt 0.375 0
vt 0.75 0
vt 0.625 0.06250000000000011
vt 0.5 0.0625
vt 0.75 0
vt 0.75 0.375
vt 0.625 0.125
vt 0.625 0.06250000000000011
vt 0.625 0.06250000000000011
vt 0.625 0.125
vt 0.6171875 0.12109375
vt 0.6171875 0.06640625
vt 0.6171875 0.12109375
vt 0.625 0.125
vt 0.5 0.125
vt 0.5078125 0.12109375
vt 0.5078125 0.12109375
vt 0.5 0.125
vt 0.5 0.0625
vt 0.5078125 0.06640625000000011
vt 0.5 0.0625
vt 0.625 0.06250000000000011
vt 0.6171875 0.06640625
vt 0.5078125 0.06640625000000011
vt 0.6171875 0.12109375
vt 0.5078125 0.12109375
vt 0.515625 0.1171875
vt 0.609375 0.1171875
vt 0.515625 0.1171875
vt 0.5078125 0.12109375
vt 0.5078125 0.06640625000000011
vt 0.5156249999999999 0.07031249999999989
vt 0.5156249999999999 0.07031249999999989
vt 0.5078125 0.06640625000000011
vt 0.6171875 0.06640625
vt 0.609375 0.07031249999999989
vt 0.6171875 0.06640625
vt 0.6171875 0.12109375
vt 0.609375 0.1171875
vt 0.609375 0.07031249999999989
vt 0.609375 0.07031249999999989
vt 0.609375 0.1171875
vt 0.515625 0.1171875
vt 0.5156249999999999 0.07031249999999989
vn 0 1 0
vn 0 -1 0
vn 0 0 1
vn 0 0 -1
vn 0 0 -1
vn 0 0 -1
vn 0 0 -1
vn 0.7071067811865476 0 -0.7071067811865476
vn 0 -0.7071067811865476 -0.7071067811865476
vn -0.7071067811865476 0 -0.7071067811865476
vn 0 0.7071067811865476 -0.7071067811865476
vn 0 -0.7071067811865476 -0.7071067811865476
vn -1 0 0
vn -1 0 0
vn -1 0 0
vn -1 5.551115123125783e-17 0
vn -0.7071067811865476 -3.9252311467094385e-17 -0.7071067811865476
vn -0.7071067811865476 -0.7071067811865476 -7.850462293418876e-17
vn -0.7071067811865464 0 0.7071067811865488
vn -0.7071067811865478 0.7071067811865472 1.9626155733547214e-17
vn -0.707106781186548 -3.588782762705771e-16 0.7071067811865471
vn -0.7071067811865486 0.7071067811865466 8.971956906764423e-17
vn -0.7071067811865465 1.7943913813528884e-16 -0.7071067811865486
vn -0.7071067811865479 -0.7071067811865471 1.6822419200183296e-17
vn -1 -3.2869204384208834e-32 7.401486830834377e-17
vn 1 0 0
vn 1 0 0
vn 1 0 0
vn 1 0 0
vn 0.7071067811865476 0 -0.7071067811865476
vn 0.7071067811865481 0.7071067811865469 7.850462293418868e-17
vn 0.7071067811865475 -3.925231146709438e-17 0.7071067811865476
vn 0.7071067811865381 -0.707106781186557 5.887846720064131e-17
vn 0.7071067811865482 -0.7071067811865469 -8.971956906764421e-17
vn 0.7071067811865476 0 -0.7071067811865476
vn 0.7071067811865386 0.7071067811865566 -1.2672889130804907e-15
vn 0.7071067811865476 0 0.7071067811865476
vn 1 7.401486830834364e-17 -7.401486830834377e-17
usemtl m_b639b591-3f78-0317-1950-8ebb0a002a01
f 5/1/1 1/2/1 2/3/1
f 5/1/1 2/3/1 6/4/1
f 4/5/2 3/6/2 7/7/2
f 4/5/2 7/7/2 8/8/2
f 3/9/3 1/10/3 5/11/3
f 3/9/3 5/11/3 7/12/3
f 6/13/4 2/14/4 9/15/4
f 6/13/4 9/15/4 10/16/4
f 4/17/5 8/18/5 11/19/5
f 4/17/5 11/19/5 12/20/5
f 8/21/6 6/22/6 10/23/6
f 8/21/6 10/23/6 11/24/6
f 12/25/7 9/26/7 2/27/7
f 12/25/7 2/27/7 4/28/7
f 11/29/8 10/30/8 14/31/8
f 11/29/8 14/31/8 15/32/8
f 10/33/9 9/34/9 13/35/9
f 10/33/9 13/35/9 13/36/9
f 9/37/10 12/38/10 16/39/10
f 9/37/10 16/39/10 13/40/10
f 12/41/11 11/42/11 15/43/11
f 12/41/11 15/43/11 16/44/11
f 13/45/12 14/46/12 10/47/12
f 7/48/13 5/49/13 18/50/13
f 7/48/13 18/50/13 19/51/13
f 5/52/14 6/53/14 17/54/14
f 5/52/14 17/54/14 18/55/14
f 17/56/15 6/57/15 8/58/15
f 17/56/15 8/58/15 20/59/15
f 8/60/16 7/61/16 19/62/16
f 8/60/16 19/62/16 20/63/16
f 19/64/17 18/65/17 22/66/17
f 19/64/17 22/66/17 23/67/17
f 22/68/18 18/69/18 17/70/18
f 22/68/18 17/70/18 21/71/18
f 21/72/19 17/73/19 20/74/19
f 21/72/19 20/74/19 24/75/19
f 20/76/20 19/77/20 23/78/20
f 20/76/20 23/78/20 24/79/20
f 23/80/21 22/81/21 25/82/21
f 23/80/21 25/82/21 26/83/21
f 25/84/22 22/85/22 21/86/22
f 25/84/22 21/86/22 28/87/22
f 21/88/23 24/89/23 27/90/23
f 21/88/23 27/90/23 28/91/23
f 24/92/24 23/93/24 26/94/24
f 24/92/24 26/94/24 27/95/24
f 27/96/25 26/97/25 25/98/25
f 27/96/25 25/98/25 28/99/25
f 2/100/26 1/101/26 29/102/26
f 2/100/26 29/102/26 30/103/26
f 29/104/27 1/105/27 3/106/27
f 29/104/27 3/106/27 32/107/27
f 3/108/28 4/109/28 31/110/28
f 3/108/28 31/110/28 32/111/28
f 4/112/29 2/113/29 30/114/29
f 4/112/29 30/114/29 31/115/29
f 31/116/30 30/117/30 34/118/30
f 31/116/30 34/118/30 35/119/30
f 34/120/31 30/121/31 29/122/31
f 34/120/31 29/122/31 33/123/31
f 33/124/32 29/125/32 32/126/32
f 33/124/32 32/126/32 36/127/32
f 32/128/33 31/129/33 35/130/33
f 32/128/33 35/130/33 36/131/33
f 34/132/34 33/133/34 37/134/34
f 34/132/34 37/134/34 38/135/34
f 37/136/35 33/137/35 36/138/35
f 37/136/35 36/138/35 40/139/35
f 40/140/36 36/141/36 35/142/36
f 40/140/36 35/142/36 39/143/36
f 35/144/37 34/145/37 38/146/37
f 35/144/37 38/146/37 39/147/37
f 39/148/38 38/149/38 37/150/38
f 39/148/38 37/150/38 40/151/38
o Fire
v 0.125 4.75 -1.4375
v -0.125 4.75 -1.4375
v -0.125 -0.75 -1.4375
v 0.125 -0.75 -1.4375
vt 0.953125 0.015625
vt 0.953125 0.359375
vt 0.9218749999999999 0.359375
vt 0.921875 0.015625
vn 0 0 -1
usemtl m_b639b591-3f78-0317-1950-8ebb0a002a01
f 43/152/39 42/153/39 41/154/39
f 43/152/39 41/154/39 44/155/39
o Door
v 0.25 4.8125 -1.4375
v 0.25 4.8125 -1.5625
v 0.25 -0.8125 -1.4375
v 0.25 -0.8125 -1.5625
v -0.25 4.8125 -1.4375
v -0.25 4.8125 -1.5625
v -0.25 -0.8125 -1.4375
v -0.25 -0.8125 -1.5625
v -0.3125 4.75 -1.4375
v -0.3125 4.75 -1.5625
v -0.3125 -0.75 -1.4375
v -0.3125 -0.75 -1.5625
v 0.3125 4.75 -1.4375
v 0.3125 -0.75 -1.4375
v 0.3125 4.75 -1.5625
v 0.3125 -0.75 -1.5625
vt 0.0234375 0.99609375
vt 0.0078125 0.99609375
vt 0.0078125 0.65234375
vt 0.0234375 0.65234375
vt 0.0703125 0.65234375
vt 0.0703125 0.99609375
vt 0.0546875 0.99609375
vt 0.0546875 0.65234375
vt 0.0078125 0.98828125
vt 0.0703125 0.98828125
vt 0.0703125 0.99609375
vt 0.0078125 0.99609375
vt 0.0703125 0.65234375
vt 0.0703125 0.66015625
vt 0.0078125 0.66015625
vt 0.0078125 0.65234375
vt 0.1484375 0.6484375
vt 0.1484375 1
vt 0.0859375 1
vt 0.0859375 0.6484375
vt 0.0703125 1
vt 0.0078125 1
vt 0.0078125 0.6484375
vt 0.0703125 0.6484375
vt 0.078125 0.99609375
vt 0.078125 0.65234375
vt 0.0859375 0.6484375
vt 0.0859375 1
vt 0.0625 0.99609375
vt 0.0625 0.98828125
vt 0.0703125 0.98828125
vt 0.0703125 0.99609375
vt 0.078125 0.65234375
vt 0.078125 0.99609375
vt 0.0703125 1
vt 0.0703125 0.6484375
vt 0.0078125 0.66015625
vt 0.0078125 0.65234375
vt 0.015625 0.65234375
vt 0.015625 0.66015625
vt 0.015625 0.98828125
vt 0.015625 0.99609375
vt 0.0078125 0.99609375
vt 0.0078125 0.98828125
vt 0.15625 0.65234375
vt 0.15625 0.99609375
vt 0.1484375 1
vt 0.1484375 0.6484375
vt 0.0703125 0.65234375
vt 0.0703125 0.66015625
vt 0.0625 0.66015625
vt 0.0625 0.65234375
vt 0 0.99609375
vt 0 0.65234375
vt 0.0078125 0.6484375
vt 0.0078125 1
vn 1 0 0
vn -1 0 0
vn 0 1 0
vn 0 -1 0
vn 0 0 1
vn 0 0 -1
vn 0 0 1
vn -0.7071067811865476 0.7071067811865476 0
vn 0 0 -1
vn -0.7071067811865476 -0.7071067811865476 0
vn 0.7071067811865476 0.7071067811865476 0
vn 0 0 1
vn 0.7071067811865476 -0.7071067811865476 0
vn 0 0 -1
usemtl m_b639b591-3f78-0317-1950-8ebb0a002a01
f 59/156/40 57/157/40 58/158/40
f 59/156/40 58/158/40 60/159/40
f 55/160/41 53/161/41 54/162/41
f 55/160/41 54/162/41 56/163/41
f 49/164/42 45/165/42 46/166/42
f 49/164/42 46/166/42 50/167/42
f 48/168/43 47/169/43 51/170/43
f 48/168/43 51/170/43 52/171/43
f 47/172/44 45/173/44 49/174/44
f 47/172/44 49/174/44 51/175/44
f 50/176/45 46/177/45 48/178/45
f 50/176/45 48/178/45 52/179/45
f 53/180/46 55/181/46 51/182/46
f 53/180/46 51/182/46 49/183/46
f 54/184/47 53/185/47 49/186/47
f 54/184/47 49/186/47 50/187/47
f 56/188/48 54/189/48 50/190/48
f 56/188/48 50/190/48 52/191/48
f 55/192/49 56/193/49 52/194/49
f 55/192/49 52/194/49 51/195/49
f 57/196/50 59/197/50 46/198/50
f 57/196/50 46/198/50 45/199/50
f 58/200/51 57/201/51 45/202/51
f 58/200/51 45/202/51 47/203/51
f 60/204/52 58/205/52 47/206/52
f 60/204/52 47/206/52 48/207/52
f 59/208/53 60/209/53 48/210/53
f 59/208/53 48/210/53 46/211/53