# Made in Blockbench 5.1.6
mtllib combustion_engine_v8.mtl

o Base
v -0.48613591206575146 1.2513009550107066 -0.5625
v -0.48613591206575146 1.2513009550107066 -0.9375
v -0.044194173824159244 0.8093592167691146 -0.5625
v -0.044194173824159244 0.8093592167691146 -0.9375
v -0.7513009550107067 0.9861359120657514 -0.5625
v -0.7513009550107067 0.9861359120657514 -0.9375
v -0.30935921676911454 0.5441941738241591 -0.5625
v -0.30935921676911454 0.5441941738241591 -0.9375
v -0.48613591206575146 1.2513009550107066 -0.0625
v -0.48613591206575146 1.2513009550107066 -0.4375
v -0.044194173824159244 0.8093592167691146 -0.0625
v -0.044194173824159244 0.8093592167691146 -0.4375
v -0.7513009550107067 0.9861359120657514 -0.0625
v -0.7513009550107067 0.9861359120657514 -0.4375
v -0.30935921676911454 0.5441941738241591 -0.0625
v -0.30935921676911454 0.5441941738241591 -0.4375
v -0.48613591206575146 1.2513009550107066 0.4375
v -0.48613591206575146 1.2513009550107066 0.0625
v -0.044194173824159244 0.8093592167691146 0.4375
v -0.044194173824159244 0.8093592167691146 0.0625
v -0.7513009550107067 0.9861359120657514 0.4375
v -0.7513009550107067 0.9861359120657514 0.0625
v -0.30935921676911454 0.5441941738241591 0.4375
v -0.30935921676911454 0.5441941738241591 0.0625
v -0.48613591206575146 1.2513009550107066 0.9375
v -0.48613591206575146 1.2513009550107066 0.5625
v -0.044194173824159244 0.8093592167691146 0.9375
v -0.044194173824159244 0.8093592167691146 0.5625
v -0.7513009550107067 0.9861359120657514 0.9375
v -0.7513009550107067 0.9861359120657514 0.5625
v -0.30935921676911454 0.5441941738241591 0.9375
v -0.30935921676911454 0.5441941738241591 0.5625
v 0.7513009550107066 0.9861359120657515 -0.5625
v 0.7513009550107066 0.9861359120657515 -0.9375
v 0.30935921676911454 0.5441941738241592 -0.5625
v 0.30935921676911454 0.5441941738241592 -0.9375
v 0.4861359120657513 1.2513009550107066 -0.5625
v 0.4861359120657513 1.2513009550107066 -0.9375
v 0.04419417382415919 0.8093592167691146 -0.5625
v 0.04419417382415919 0.8093592167691146 -0.9375
v 0.7513009550107066 0.9861359120657515 -0.0625
v 0.7513009550107066 0.9861359120657515 -0.4375
v 0.30935921676911454 0.5441941738241592 -0.0625
v 0.30935921676911454 0.5441941738241592 -0.4375
v 0.4861359120657513 1.2513009550107066 -0.0625
v 0.4861359120657513 1.2513009550107066 -0.4375
v 0.04419417382415919 0.8093592167691146 -0.0625
v 0.04419417382415919 0.8093592167691146 -0.4375
v 0.7513009550107066 0.9861359120657515 0.4375
v 0.7513009550107066 0.9861359120657515 0.0625
v 0.30935921676911454 0.5441941738241592 0.4375
v 0.30935921676911454 0.5441941738241592 0.0625
v 0.4861359120657513 1.2513009550107066 0.4375
v 0.4861359120657513 1.2513009550107066 0.0625
v 0.04419417382415919 0.8093592167691146 0.4375
v 0.04419417382415919 0.8093592167691146 0.0625
v 0.7513009550107066 0.9861359120657515 0.9375
v 0.7513009550107066 0.9861359120657515 0.5625
v 0.30935921676911454 0.5441941738241592 0.9375
v 0.30935921676911454 0.5441941738241592 0.5625
v 0.4861359120657513 1.2513009550107066 0.9375
v 0.4861359120657513 1.2513009550107066 0.5625
v 0.04419417382415919 0.8093592167691146 0.9375
v 0.04419417382415919 0.8093592167691146 0.5625
v 0.5000000663361284 1.0000000663361286 1
v 0.5000000663361284 1.0000000663361286 -1
v 0.5000000663361285 -6.633612836814962e-8 1
v 0.5000000663361285 -6.633612836814962e-8 -1
v -0.5000000663361285 1.0000000663361284 1
v -0.5000000663361285 1.0000000663361284 -1
v -0.5000000663361284 -6.633612847917192e-8 1
v -0.5000000663361284 -6.633612847917192e-8 -1
v 0.12500012706946664 0.6250001270694667 -1
v 0.18749996963333085 0.6874999696333308 -1.5
v 0.12500012706946667 0.3749998729305334 -1
v 0.18749996963333088 0.3125000303666692 -1.5
v -0.12500012706946667 0.6250001270694666 -1
v -0.18749996963333088 0.6874999696333308 -1.5
v -0.12500012706946664 0.37499987293053333 -1
v -0.18749996963333085 0.3125000303666691 -1.5
v 0.18749996963333085 0.6874999696333308 1.5
v 0.12500012706946664 0.6250001270694667 1
v 0.18749996963333088 0.3125000303666692 1.5
v 0.12500012706946667 0.3749998729305334 1
v -0.18749996963333088 0.6874999696333308 1.5
v -0.12500012706946667 0.6250001270694666 1
v -0.18749996963333085 0.3125000303666691 1.5
v -0.12500012706946664 0.37499987293053333 1
vt 0.59375 0.625
vt 0.5 0.625
vt 0.5 0.46875
vt 0.59375 0.46875
vt 0.59375 0.46875
vt 0.59375 0.625
vt 0.5 0.625
vt 0.5 0.46875
vt 0.5 0.375
vt 0.59375 0.375
vt 0.59375 0.46875
vt 0.5 0.46875
vt 0.375 0.625
vt 0.375 1
vt 0 1
vt 0 0.625
vt 0.59375 0.46875
vt 0.59375 0.625
vt 0.5 0.625
vt 0.5 0.46875
vt 0.59375 0.625
vt 0.5 0.625
vt 0.5 0.46875
vt 0.59375 0.46875
vt 0.59375 0.625
vt 0.5 0.625
vt 0.5 0.46875
vt 0.59375 0.46875
vt 0.59375 0.46875
vt 0.59375 0.625
vt 0.5 0.625
vt 0.5 0.46875
vt 0.5 0.375
vt 0.59375 0.375
vt 0.59375 0.46875
vt 0.5 0.46875
vt 0.375 0.625
vt 0.375 1
vt 0 1
vt 0 0.625
vt 0.59375 0.46875
vt 0.59375 0.625
vt 0.5 0.625
vt 0.5 0.46875
vt 0.59375 0.625
vt 0.5 0.625
vt 0.5 0.46875
vt 0.59375 0.46875
vt 0.59375 0.625
vt 0.5 0.625
vt 0.5 0.46875
vt 0.59375 0.46875
vt 0.59375 0.46875
vt 0.59375 0.625
vt 0.5 0.625
vt 0.5 0.46875
vt 0.5 0.375
vt 0.59375 0.375
vt 0.59375 0.46875
vt 0.5 0.46875
vt 0.375 0.625
vt 0.375 1
vt 0 1
vt 0 0.625
vt 0.59375 0.46875
vt 0.59375 0.625
vt 0.5 0.625
vt 0.5 0.46875
vt 0.59375 0.625
vt 0.5 0.625
vt 0.5 0.46875
vt 0.59375 0.46875
vt 0.59375 0.625
vt 0.5 0.625
vt 0.5 0.46875
vt 0.59375 0.46875
vt 0.59375 0.46875
vt 0.59375 0.625
vt 0.5 0.625
vt 0.5 0.46875
vt 0.5 0.375
vt 0.59375 0.375
vt 0.59375 0.46875
vt 0.5 0.46875
vt 0.375 0.625
vt 0.375 1
vt 0 1
vt 0 0.625
vt 0.59375 0.46875
vt 0.59375 0.625
vt 0.5 0.625
vt 0.5 0.46875
vt 0.59375 0.625
vt 0.5 0.625
vt 0.5 0.46875
vt 0.59375 0.46875
vt 0.59375 0.625
vt 0.5 0.625
vt 0.5 0.46875
vt 0.59375 0.46875
vt 0.59375 0.46875
vt 0.59375 0.625
vt 0.5 0.625
vt 0.5 0.46875
vt 0.5 0.375
vt 0.59375 0.375
vt 0.59375 0.46875
vt 0.5 0.46875
vt 0.375 0.625
vt 0.375 1
vt 0 1
vt 0 0.625
vt 0.59375 0.46875
vt 0.59375 0.625
vt 0.5 0.625
vt 0.5 0.46875
vt 0.59375 0.625
vt 0.5 0.625
vt 0.5 0.46875
vt 0.59375 0.46875
vt 0.59375 0.625
vt 0.5 0.625
vt 0.5 0.46875
vt 0.59375 0.46875
vt 0.59375 0.46875
vt 0.59375 0.625
vt 0.5 0.625
vt 0.5 0.46875
vt 0.5 0.375
vt 0.59375 0.375
vt 0.59375 0.46875
vt 0.5 0.46875
vt 0.375 0.625
vt 0.375 1
vt 0 1
vt 0 0.625
vt 0.59375 0.46875
vt 0.59375 0.625
vt 0.5 0.625
vt 0.5 0.46875
vt 0.59375 0.625
vt 0.5 0.625
vt 0.5 0.46875
vt 0.59375 0.46875
vt 0.59375 0.625
vt 0.5 0.625
vt 0.5 0.46875
vt 0.59375 0.46875
vt 0.59375 0.46875
vt 0.59375 0.625
vt 0.5 0.625
vt 0.5 0.46875
vt 0.5 0.375
vt 0.59375 0.375
vt 0.59375 0.46875
vt 0.5 0.46875
vt 0.375 0.625
vt 0.375 1
vt 0 1
vt 0 0.625
vt 0.59375 0.46875
vt 0.59375 0.625
vt 0.5 0.625
vt 0.5 0.46875
vt 0.59375 0.625
vt 0.5 0.625
vt 0.5 0.46875
vt 0.59375 0.46875
vt 0.59375 0.625
vt 0.5 0.625
vt 0.5 0.46875
vt 0.59375 0.46875
vt 0.59375 0.46875
vt 0.59375 0.625
vt 0.5 0.625
vt 0.5 0.46875
vt 0.5 0.375
vt 0.59375 0.375
vt 0.59375 0.46875
vt 0.5 0.46875
vt 0.375 0.625
vt 0.375 1
vt 0 1
vt 0 0.625
vt 0.59375 0.46875
vt 0.59375 0.625
vt 0.5 0.625
vt 0.5 0.46875
vt 0.59375 0.625
vt 0.5 0.625
vt 0.5 0.46875
vt 0.59375 0.46875
vt 0.59375 1
vt 0.09375 1
vt 0.09375 0.75
vt 0.59375 0.75
vt 0.59375 0.75
vt 0.59375 1
vt 0.09375 1
vt 0.09375 0.75
vt 0.25 0.25
vt 0.5 0.25
vt 0.5 0.75
vt 0.25 0.75
vt 0.25 0.25
vt 0.25 0.75
vt 0 0.75
vt 0 0.25
vt 0.84375 0.75
vt 0.84375 1
vt 0.59375 1
vt 0.59375 0.75
vt 0.84375 1
vt 0.59375 1
vt 0.59375 0.75
vt 0.84375 0.75
vt 0 0.90625
vt 0.015625 0.78125
vt 0.078125 0.78125
vt 0.09375 0.90625
vt 0.078125 0.90625
vt 0.015625 0.90625
vt 0 0.78125
vt 0.09375 0.78125
vt 0.015625 0.78125
vt 0.078125 0.78125
vt 0.09375 0.90625
vt 0 0.90625
vt 0.09375 0.78125
vt 0.078125 0.90625
vt 0.015625 0.90625
vt 0 0.78125
vt 0.09375 1
vt 0 1
vt 0 0.90625
vt 0.09375 0.90625
vt 0.015625 0.90625
vt 0 0.78125
vt 0.09375 0.78125
vt 0.078125 0.90625
vt 0.09375 0.90625
vt 0 0.90625
vt 0.015625 0.78125
vt 0.078125 0.78125
vt 0 0.78125
vt 0.09375 0.78125
vt 0.078125 0.90625
vt 0.015625 0.90625
vt 0.078125 0.78125
vt 0.09375 0.90625
vt 0 0.90625
vt 0.015625 0.78125
vt 0.09375 0.90625
vt 0.09375 1
vt 0 1
vt 0 0.90625
vn 0.7071067811865475 0.7071067811865476 0
vn -0.7071067811865475 -0.7071067811865476 0
vn -0.7071067811865476 0.7071067811865475 0
vn 0.7071067811865476 -0.7071067811865475 0
vn 0 0 1
vn 0 0 -1
vn 0.7071067811865475 0.7071067811865476 0
vn -0.7071067811865475 -0.7071067811865476 0
vn -0.7071067811865476 0.7071067811865475 0
vn 0.7071067811865476 -0.7071067811865475 0
vn 0 0 1
vn 0 0 -1
vn 0.7071067811865475 0.7071067811865476 0
vn -0.7071067811865475 -0.7071067811865476 0
vn -0.7071067811865476 0.7071067811865475 0
vn 0.7071067811865476 -0.7071067811865475 0
vn 0 0 1
vn 0 0 -1
vn 0.7071067811865475 0.7071067811865476 0
vn -0.7071067811865475 -0.7071067811865476 0
vn -0.7071067811865476 0.7071067811865475 0
vn 0.7071067811865476 -0.7071067811865475 0
vn 0 0 1
vn 0 0 -1
vn 0.7071067811865476 -0.7071067811865475 0
vn -0.7071067811865476 0.7071067811865475 0
vn 0.7071067811865475 0.7071067811865476 0
vn -0.7071067811865475 -0.7071067811865476 0
vn 0 0 1
vn 0 0 -1
vn 0.7071067811865476 -0.7071067811865475 0
vn -0.7071067811865476 0.7071067811865475 0
vn 0.7071067811865475 0.7071067811865476 0
vn -0.7071067811865475 -0.7071067811865476 0
vn 0 0 1
vn 0 0 -1
vn 0.7071067811865476 -0.7071067811865475 0
vn -0.7071067811865476 0.7071067811865475 0
vn 0.7071067811865475 0.7071067811865476 0
vn -0.7071067811865475 -0.7071067811865476 0
vn 0 0 1
vn 0 0 -1
vn 0.7071067811865476 -0.7071067811865475 0
vn -0.7071067811865476 0.7071067811865475 0
vn 0.7071067811865475 0.7071067811865476 0
vn -0.7071067811865475 -0.7071067811865476 0
vn 0 0 1
vn 0 0 -1
vn 1 1.1102230246251565e-16 0
vn -1 -1.1102230246251565e-16 0
vn -1.1102230246251565e-16 1 0
vn 1.1102230246251565e-16 -1 0
vn 0 0 1
vn 0 0 -1
vn 0.9922779151678724 5.551115123125783e-17 0.12403442695518285
vn -0.9922779151678724 -5.551115123125783e-17 0.12403442695518288
vn -5.551115123125783e-17 0.9922779151678724 0.12403442695518288
vn 5.551115123125783e-17 -0.9922779151678724 0.12403442695518285
vn 0 0 -1
vn 0.9922779151678724 5.551115123125783e-17 -0.12403442695518285
vn -0.9922779151678724 -5.551115123125783e-17 -0.12403442695518282
vn -5.551115123125783e-17 0.9922779151678724 -0.12403442695518282
vn 5.551115123125783e-17 -0.9922779151678724 -0.12403442695518285
vn 0 0 1
usemtl m_ef242ae5-f856-47ca-199f-8a18402fc4a2
f 2/1/1 1/2/1 3/3/1
f 2/1/1 3/3/1 4/4/1
f 7/5/2 5/6/2 6/7/2
f 7/5/2 6/7/2 8/8/2
f 5/9/3 1/10/3 2/11/3
f 5/9/3 2/11/3 6/12/3
usemtl none
f 4/13/4 3/14/4 7/15/4
f 4/13/4 7/15/4 8/16/4
usemtl m_ef242ae5-f856-47ca-199f-8a18402fc4a2
f 3/17/5 1/18/5 5/19/5
f 3/17/5 5/19/5 7/20/5
f 6/21/6 2/22/6 4/23/6
f 6/21/6 4/23/6 8/24/6
f 10/25/7 9/26/7 11/27/7
f 10/25/7 11/27/7 12/28/7
f 15/29/8 13/30/8 14/31/8
f 15/29/8 14/31/8 16/32/8
f 13/33/9 9/34/9 10/35/9
f 13/33/9 10/35/9 14/36/9
usemtl none
f 12/37/10 11/38/10 15/39/10
f 12/37/10 15/39/10 16/40/10
usemtl m_ef242ae5-f856-47ca-199f-8a18402fc4a2
f 11/41/11 9/42/11 13/43/11
f 11/41/11 13/43/11 15/44/11
f 14/45/12 10/46/12 12/47/12
f 14/45/12 12/47/12 16/48/12
f 18/49/13 17/50/13 19/51/13
f 18/49/13 19/51/13 20/52/13
f 23/53/14 21/54/14 22/55/14
f 23/53/14 22/55/14 24/56/14
f 21/57/15 17/58/15 18/59/15
f 21/57/15 18/59/15 22/60/15
usemtl none
f 20/61/16 19/62/16 23/63/16
f 20/61/16 23/63/16 24/64/16
usemtl m_ef242ae5-f856-47ca-199f-8a18402fc4a2
f 19/65/17 17/66/17 21/67/17
f 19/65/17 21/67/17 23/68/17
f 22/69/18 18/70/18 20/71/18
f 22/69/18 20/71/18 24/72/18
f 26/73/19 25/74/19 27/75/19
f 26/73/19 27/75/19 28/76/19
f 31/77/20 29/78/20 30/79/20
f 31/77/20 30/79/20 32/80/20
f 29/81/21 25/82/21 26/83/21
f 29/81/21 26/83/21 30/84/21
usemtl none
f 28/85/22 27/86/22 31/87/22
f 28/85/22 31/87/22 32/88/22
usemtl m_ef242ae5-f856-47ca-199f-8a18402fc4a2
f 27/89/23 25/90/23 29/91/23
f 27/89/23 29/91/23 31/92/23
f 30/93/24 26/94/24 28/95/24
f 30/93/24 28/95/24 32/96/24
f 34/97/25 33/98/25 35/99/25
f 34/97/25 35/99/25 36/100/25
f 39/101/26 37/102/26 38/103/26
f 39/101/26 38/103/26 40/104/26
f 37/105/27 33/106/27 34/107/27
f 37/105/27 34/107/27 38/108/27
usemtl none
f 36/109/28 35/110/28 39/111/28
f 36/109/28 39/111/28 40/112/28
usemtl m_ef242ae5-f856-47ca-199f-8a18402fc4a2
f 35/113/29 33/114/29 37/115/29
f 35/113/29 37/115/29 39/116/29
f 38/117/30 34/118/30 36/119/30
f 38/117/30 36/119/30 40/120/30
f 42/121/31 41/122/31 43/123/31
f 42/121/31 43/123/31 44/124/31
f 47/125/32 45/126/32 46/127/32
f 47/125/32 46/127/32 48/128/32
f 45/129/33 41/130/33 42/131/33
f 45/129/33 42/131/33 46/132/33
usemtl none
f 44/133/34 43/134/34 47/135/34
f 44/133/34 47/135/34 48/136/34
usemtl m_ef242ae5-f856-47ca-199f-8a18402fc4a2
f 43/137/35 41/138/35 45/139/35
f 43/137/35 45/139/35 47/140/35
f 46/141/36 42/142/36 44/143/36
f 46/141/36 44/143/36 48/144/36
f 50/145/37 49/146/37 51/147/37
f 50/145/37 51/147/37 52/148/37
f 55/149/38 53/150/38 54/151/38
f 55/149/38 54/151/38 56/152/38
f 53/153/39 49/154/39 50/155/39
f 53/153/39 50/155/39 54/156/39
usemtl none
f 52/157/40 51/158/40 55/159/40
f 52/157/40 55/159/40 56/160/40
usemtl m_ef242ae5-f856-47ca-199f-8a18402fc4a2
f 51/161/41 49/162/41 53/163/41
f 51/161/41 53/163/41 55/164/41
f 54/165/42 50/166/42 52/167/42
f 54/165/42 52/167/42 56/168/42
f 58/169/43 57/170/43 59/171/43
f 58/169/43 59/171/43 60/172/43
f 63/173/44 61/174/44 62/175/44
f 63/173/44 62/175/44 64/176/44
f 61/177/45 57/178/45 58/179/45
f 61/177/45 58/179/45 62/180/45
usemtl none
f 60/181/46 59/182/46 63/183/46
f 60/181/46 63/183/46 64/184/46
usemtl m_ef242ae5-f856-47ca-199f-8a18402fc4a2
f 59/185/47 57/186/47 61/187/47
f 59/185/47 61/187/47 63/188/47
f 62/189/48 58/190/48 60/191/48
f 62/189/48 60/191/48 64/192/48
f 66/193/49 65/194/49 67/195/49
f 66/193/49 67/195/49 68/196/49
f 71/197/50 69/198/50 70/199/50
f 71/197/50 70/199/50 72/200/50
f 69/201/51 65/202/51 66/203/51
f 69/201/51 66/203/51 70/204/51
f 68/205/52 67/206/52 71/207/52
f 68/205/52 71/207/52 72/208/52
f 67/209/53 65/210/53 69/211/53
f 67/209/53 69/211/53 71/212/53
f 70/213/54 66/214/54 68/215/54
f 70/213/54 68/215/54 72/216/54
f 74/217/55 73/218/55 75/219/55
f 74/217/55 75/219/55 76/220/55
f 79/221/56 77/222/56 78/223/56
f 79/221/56 78/223/56 80/224/56
f 77/225/57 73/226/57 74/227/57
f 77/225/57 74/227/57 78/228/57
f 76/229/58 75/230/58 79/231/58
f 76/229/58 79/231/58 80/232/58
f 78/233/59 74/234/59 76/235/59
f 78/233/59 76/235/59 80/236/59
f 82/237/60 81/238/60 83/239/60
f 82/237/60 83/239/60 84/240/60
f 87/241/61 85/242/61 86/243/61
f 87/241/61 86/243/61 88/244/61
f 85/245/62 81/246/62 82/247/62
f 85/245/62 82/247/62 86/248/62
f 84/249/63 83/250/63 87/251/63
f 84/249/63 87/251/63 88/252/63
f 83/253/64 81/254/64 85/255/64
f 83/253/64 85/255/64 87/256/64
o PistonsR1
v -0.57452425971407 1.339689302659025 0.9375
v -0.57452425971407 1.339689302659025 0.5625
v -0.48613591206575146 1.2513009550107066 0.9375
v -0.48613591206575146 1.2513009550107066 0.5625
v -0.8396893026590252 1.0745242597140698 0.9375
v -0.8396893026590252 1.0745242597140698 0.5625
v -0.7513009550107067 0.9861359120657514 0.9375
v -0.7513009550107067 0.9861359120657514 0.5625
v -0.57452425971407 1.339689302659025 -0.0625
v -0.57452425971407 1.339689302659025 -0.4375
v -0.48613591206575146 1.2513009550107066 -0.0625
v -0.48613591206575146 1.2513009550107066 -0.4375
v -0.8396893026590252 1.0745242597140698 -0.0625
v -0.8396893026590252 1.0745242597140698 -0.4375
v -0.7513009550107067 0.9861359120657514 -0.0625
v -0.7513009550107067 0.9861359120657514 -0.4375
v -0.5303300858899107 1.2071067811865475 0.875
v -0.5303300858899107 1.2071067811865475 0.625
v -0.17677669529663692 0.8535533905932737 0.875
v -0.17677669529663692 0.8535533905932737 0.625
v -0.7071067811865475 1.0303300858899105 0.875
v -0.7071067811865475 1.0303300858899105 0.625
v -0.3535533905932738 0.6767766952966369 0.875
v -0.3535533905932738 0.6767766952966369 0.625
v -0.5303300858899107 1.2071067811865475 -0.125
v -0.5303300858899107 1.2071067811865475 -0.375
v -0.17677669529663692 0.8535533905932737 -0.125
v -0.17677669529663692 0.8535533905932737 -0.375
v -0.7071067811865475 1.0303300858899105 -0.125
v -0.7071067811865475 1.0303300858899105 -0.375
v -0.3535533905932738 0.6767766952966369 -0.125
v -0.3535533905932738 0.6767766952966369 -0.375
vt 0.59375 0.65625
vt 0.5 0.65625
vt 0.5 0.625
vt 0.59375 0.625
vt 0.59375 0.625
vt 0.59375 0.65625
vt 0.5 0.65625
vt 0.5 0.625
vt 0.5 0.65625
vt 0.59375 0.65625
vt 0.59375 0.75
vt 0.5 0.75
vt 0.59375 0.65625
vt 0.59375 0.75
vt 0.5 0.75
vt 0.5 0.65625
vt 0.59375 0.625
vt 0.59375 0.65625
vt 0.5 0.65625
vt 0.5 0.625
vt 0.59375 0.65625
vt 0.5 0.65625
vt 0.5 0.625
vt 0.59375 0.625
vt 0.59375 0.65625
vt 0.5 0.65625
vt 0.5 0.625
vt 0.59375 0.625
vt 0.59375 0.625
vt 0.59375 0.65625
vt 0.5 0.65625
vt 0.5 0.625
vt 0.5 0.65625
vt 0.59375 0.65625
vt 0.59375 0.75
vt 0.5 0.75
vt 0.59375 0.65625
vt 0.59375 0.75
vt 0.5 0.75
vt 0.5 0.65625
vt 0.59375 0.625
vt 0.59375 0.65625
vt 0.5 0.65625
vt 0.5 0.625
vt 0.59375 0.65625
vt 0.5 0.65625
vt 0.5 0.625
vt 0.59375 0.625
vt 0.65625 0.75
vt 0.59375 0.75
vt 0.59375 0.625
vt 0.65625 0.625
vt 0.65625 0.625
vt 0.65625 0.75
vt 0.59375 0.75
vt 0.59375 0.625
vt 0.65625 0.625
vt 0.65625 0.75
vt 0.59375 0.75
vt 0.59375 0.625
vt 0.65625 0.75
vt 0.59375 0.75
vt 0.59375 0.625
vt 0.65625 0.625
vt 0.65625 0.75
vt 0.59375 0.75
vt 0.59375 0.625
vt 0.65625 0.625
vt 0.65625 0.625
vt 0.65625 0.75
vt 0.59375 0.75
vt 0.59375 0.625
vt 0.65625 0.625
vt 0.65625 0.75
vt 0.59375 0.75
vt 0.59375 0.625
vt 0.65625 0.75
vt 0.59375 0.75
vt 0.59375 0.625
vt 0.65625 0.625
vn 0.7071067811865475 0.7071067811865476 0
vn -0.7071067811865475 -0.7071067811865476 0
vn -0.7071067811865476 0.7071067811865475 0
vn 0.7071067811865476 -0.7071067811865475 0
vn 0 0 1
vn 0 0 -1
vn 0.7071067811865475 0.7071067811865476 0
vn -0.7071067811865475 -0.7071067811865476 0
vn -0.7071067811865476 0.7071067811865475 0
vn 0.7071067811865476 -0.7071067811865475 0
vn 0 0 1
vn 0 0 -1
vn 0.7071067811865475 0.7071067811865476 0
vn -0.7071067811865475 -0.7071067811865476 0
vn 0 0 1
vn 0 0 -1
vn 0.7071067811865475 0.7071067811865476 0
vn -0.7071067811865475 -0.7071067811865476 0
vn 0 0 1
vn 0 0 -1
usemtl m_ef242ae5-f856-47ca-199f-8a18402fc4a2
f 90/257/65 89/258/65 91/259/65
f 90/257/65 91/259/65 92/260/65
f 95/261/66 93/262/66 94/263/66
f 95/261/66 94/263/66 96/264/66
f 93/265/67 89/266/67 90/267/67
f 93/265/67 90/267/67 94/268/67
f 92/269/68 91/270/68 95/271/68
f 92/269/68 95/271/68 96/272/68
f 91/273/69 89/274/69 93/275/69
f 91/273/69 93/275/69 95/276/69
f 94/277/70 90/278/70 92/279/70
f 94/277/70 92/279/70 96/280/70
f 98/281/71 97/282/71 99/283/71
f 98/281/71 99/283/71 100/284/71
f 103/285/72 101/286/72 102/287/72
f 103/285/72 102/287/72 104/288/72
f 101/289/73 97/290/73 98/291/73
f 101/289/73 98/291/73 102/292/73
f 100/293/74 99/294/74 103/295/74
f 100/293/74 103/295/74 104/296/74
f 99/297/75 97/298/75 101/299/75
f 99/297/75 101/299/75 103/300/75
f 102/301/76 98/302/76 100/303/76
f 102/301/76 100/303/76 104/304/76
f 106/305/77 105/306/77 107/307/77
f 106/305/77 107/307/77 108/308/77
f 111/309/78 109/310/78 110/311/78
f 111/309/78 110/311/78 112/312/78
f 107/313/79 105/314/79 109/315/79
f 107/313/79 109/315/79 111/316/79
f 110/317/80 106/318/80 108/319/80
f 110/317/80 108/319/80 112/320/80
f 114/321/81 113/322/81 115/323/81
f 114/321/81 115/323/81 116/324/81
f 119/325/82 117/326/82 118/327/82
f 119/325/82 118/327/82 120/328/82
f 115/329/83 113/330/83 117/331/83
f 115/329/83 117/331/83 119/332/83
f 118/333/84 114/334/84 116/335/84
f 118/333/84 116/335/84 120/336/84
o PistonsR2
v -0.57452425971407 1.339689302659025 0.4375
v -0.57452425971407 1.339689302659025 0.0625
v -0.48613591206575146 1.2513009550107066 0.4375
v -0.48613591206575146 1.2513009550107066 0.0625
v -0.8396893026590252 1.0745242597140698 0.4375
v -0.8396893026590252 1.0745242597140698 0.0625
v -0.7513009550107067 0.9861359120657514 0.4375
v -0.7513009550107067 0.9861359120657514 0.0625
v -0.57452425971407 1.339689302659025 -0.5625
v -0.57452425971407 1.339689302659025 -0.9375
v -0.48613591206575146 1.2513009550107066 -0.5625
v -0.48613591206575146 1.2513009550107066 -0.9375
v -0.8396893026590252 1.0745242597140698 -0.5625
v -0.8396893026590252 1.0745242597140698 -0.9375
v -0.7513009550107067 0.9861359120657514 -0.5625
v -0.7513009550107067 0.9861359120657514 -0.9375
v -0.5303300858899107 1.2071067811865475 -0.625
v -0.5303300858899107 1.2071067811865475 -0.875
v -0.17677669529663692 0.8535533905932737 -0.625
v -0.17677669529663692 0.8535533905932737 -0.875
v -0.7071067811865475 1.0303300858899105 -0.625
v -0.7071067811865475 1.0303300858899105 -0.875
v -0.3535533905932738 0.6767766952966369 -0.625
v -0.3535533905932738 0.6767766952966369 -0.875
v -0.5303300858899107 1.2071067811865475 0.375
v -0.5303300858899107 1.2071067811865475 0.125
v -0.17677669529663692 0.8535533905932737 0.375
v -0.17677669529663692 0.8535533905932737 0.125
v -0.7071067811865475 1.0303300858899105 0.375
v -0.7071067811865475 1.0303300858899105 0.125
v -0.3535533905932738 0.6767766952966369 0.375
v -0.3535533905932738 0.6767766952966369 0.125
vt 0.59375 0.65625
vt 0.5 0.65625
vt 0.5 0.625
vt 0.59375 0.625
vt 0.59375 0.625
vt 0.59375 0.65625
vt 0.5 0.65625
vt 0.5 0.625
vt 0.5 0.65625
vt 0.59375 0.65625
vt 0.59375 0.75
vt 0.5 0.75
vt 0.59375 0.65625
vt 0.59375 0.75
vt 0.5 0.75
vt 0.5 0.65625
vt 0.59375 0.625
vt 0.59375 0.65625
vt 0.5 0.65625
vt 0.5 0.625
vt 0.59375 0.65625
vt 0.5 0.65625
vt 0.5 0.625
vt 0.59375 0.625
vt 0.59375 0.65625
vt 0.5 0.65625
vt 0.5 0.625
vt 0.59375 0.625
vt 0.59375 0.625
vt 0.59375 0.65625
vt 0.5 0.65625
vt 0.5 0.625
vt 0.5 0.65625
vt 0.59375 0.65625
vt 0.59375 0.75
vt 0.5 0.75
vt 0.59375 0.65625
vt 0.59375 0.75
vt 0.5 0.75
vt 0.5 0.65625
vt 0.59375 0.625
vt 0.59375 0.65625
vt 0.5 0.65625
vt 0.5 0.625
vt 0.59375 0.65625
vt 0.5 0.65625
vt 0.5 0.625
vt 0.59375 0.625
vt 0.65625 0.75
vt 0.59375 0.75
vt 0.59375 0.625
vt 0.65625 0.625
vt 0.65625 0.625
vt 0.65625 0.75
vt 0.59375 0.75
vt 0.59375 0.625
vt 0.65625 0.625
vt 0.65625 0.75
vt 0.59375 0.75
vt 0.59375 0.625
vt 0.65625 0.75
vt 0.59375 0.75
vt 0.59375 0.625
vt 0.65625 0.625
vt 0.65625 0.75
vt 0.59375 0.75
vt 0.59375 0.625
vt 0.65625 0.625
vt 0.65625 0.625
vt 0.65625 0.75
vt 0.59375 0.75
vt 0.59375 0.625
vt 0.65625 0.625
vt 0.65625 0.75
vt 0.59375 0.75
vt 0.59375 0.625
vt 0.65625 0.75
vt 0.59375 0.75
vt 0.59375 0.625
vt 0.65625 0.625
vn 0.7071067811865475 0.7071067811865476 0
vn -0.7071067811865475 -0.7071067811865476 0
vn -0.7071067811865476 0.7071067811865475 0
vn 0.7071067811865476 -0.7071067811865475 0
vn 0 0 1
vn 0 0 -1
vn 0.7071067811865475 0.7071067811865476 0
vn -0.7071067811865475 -0.7071067811865476 0
vn -0.7071067811865476 0.7071067811865475 0
vn 0.7071067811865476 -0.7071067811865475 0
vn 0 0 1
vn 0 0 -1
vn 0.7071067811865475 0.7071067811865476 0
vn -0.7071067811865475 -0.7071067811865476 0
vn 0 0 1
vn 0 0 -1
vn 0.7071067811865475 0.7071067811865476 0
vn -0.7071067811865475 -0.7071067811865476 0
vn 0 0 1
vn 0 0 -1
usemtl m_ef242ae5-f856-47ca-199f-8a18402fc4a2
f 122/337/85 121/338/85 123/339/85
f 122/337/85 123/339/85 124/340/85
f 127/341/86 125/342/86 126/343/86
f 127/341/86 126/343/86 128/344/86
f 125/345/87 121/346/87 122/347/87
f 125/345/87 122/347/87 126/348/87
f 124/349/88 123/350/88 127/351/88
f 124/349/88 127/351/88 128/352/88
f 123/353/89 121/354/89 125/355/89
f 123/353/89 125/355/89 127/356/89
f 126/357/90 122/358/90 124/359/90
f 126/357/90 124/359/90 128/360/90
f 130/361/91 129/362/91 131/363/91
f 130/361/91 131/363/91 132/364/91
f 135/365/92 133/366/92 134/367/92
f 135/365/92 134/367/92 136/368/92
f 133/369/93 129/370/93 130/371/93
f 133/369/93 130/371/93 134/372/93
f 132/373/94 131/374/94 135/375/94
f 132/373/94 135/375/94 136/376/94
f 131/377/95 129/378/95 133/379/95
f 131/377/95 133/379/95 135/380/95
f 134/381/96 130/382/96 132/383/96
f 134/381/96 132/383/96 136/384/96
f 138/385/97 137/386/97 139/387/97
f 138/385/97 139/387/97 140/388/97
f 143/389/98 141/390/98 142/391/98
f 143/389/98 142/391/98 144/392/98
f 139/393/99 137/394/99 141/395/99
f 139/393/99 141/395/99 143/396/99
f 142/397/100 138/398/100 140/399/100
f 142/397/100 140/399/100 144/400/100
f 146/401/101 145/402/101 147/403/101
f 146/401/101 147/403/101 148/404/101
f 151/405/102 149/406/102 150/407/102
f 151/405/102 150/407/102 152/408/102
f 147/409/103 145/410/103 149/411/103
f 147/409/103 149/411/103 151/412/103
f 150/413/104 146/414/104 148/415/104
f 150/413/104 148/415/104 152/416/104
o PistonsL1
v 0.8396893026590252 1.0745242597140698 -0.5625
v 0.8396893026590252 1.0745242597140698 -0.9375
v 0.7513009550107067 0.9861359120657514 -0.5625
v 0.7513009550107067 0.9861359120657514 -0.9375
v 0.57452425971407 1.339689302659025 -0.5625
v 0.57452425971407 1.339689302659025 -0.9375
v 0.48613591206575146 1.2513009550107066 -0.5625
v 0.48613591206575146 1.2513009550107066 -0.9375
v 0.8396893026590252 1.0745242597140698 0.4375
v 0.8396893026590252 1.0745242597140698 0.0625
v 0.7513009550107067 0.9861359120657514 0.4375
v 0.7513009550107067 0.9861359120657514 0.0625
v 0.57452425971407 1.339689302659025 0.4375
v 0.57452425971407 1.339689302659025 0.0625
v 0.48613591206575146 1.2513009550107066 0.4375
v 0.48613591206575146 1.2513009550107066 0.0625
v 0.7071067811865475 1.0303300858899105 0.375
v 0.7071067811865475 1.0303300858899105 0.125
v 0.3535533905932738 0.6767766952966369 0.375
v 0.3535533905932738 0.6767766952966369 0.125
v 0.5303300858899107 1.2071067811865475 0.375
v 0.5303300858899107 1.2071067811865475 0.125
v 0.17677669529663692 0.8535533905932737 0.375
v 0.17677669529663692 0.8535533905932737 0.125
v 0.7071067811865475 1.0303300858899105 -0.625
v 0.7071067811865475 1.0303300858899105 -0.875
v 0.3535533905932738 0.6767766952966369 -0.625
v 0.3535533905932738 0.6767766952966369 -0.875
v 0.5303300858899107 1.2071067811865475 -0.625
v 0.5303300858899107 1.2071067811865475 -0.875
v 0.17677669529663692 0.8535533905932737 -0.625
v 0.17677669529663692 0.8535533905932737 -0.875
vt 0.59375 0.65625
vt 0.5 0.65625
vt 0.5 0.625
vt 0.59375 0.625
vt 0.59375 0.625
vt 0.59375 0.65625
vt 0.5 0.65625
vt 0.5 0.625
vt 0.5 0.65625
vt 0.59375 0.65625
vt 0.59375 0.75
vt 0.5 0.75
vt 0.59375 0.65625
vt 0.59375 0.75
vt 0.5 0.75
vt 0.5 0.65625
vt 0.59375 0.625
vt 0.59375 0.65625
vt 0.5 0.65625
vt 0.5 0.625
vt 0.59375 0.65625
vt 0.5 0.65625
vt 0.5 0.625
vt 0.59375 0.625
vt 0.59375 0.65625
vt 0.5 0.65625
vt 0.5 0.625
vt 0.59375 0.625
vt 0.59375 0.625
vt 0.59375 0.65625
vt 0.5 0.65625
vt 0.5 0.625
vt 0.5 0.65625
vt 0.59375 0.65625
vt 0.59375 0.75
vt 0.5 0.75
vt 0.59375 0.65625
vt 0.59375 0.75
vt 0.5 0.75
vt 0.5 0.65625
vt 0.59375 0.625
vt 0.59375 0.65625
vt 0.5 0.65625
vt 0.5 0.625
vt 0.59375 0.65625
vt 0.5 0.65625
vt 0.5 0.625
vt 0.59375 0.625
vt 0.65625 0.75
vt 0.59375 0.75
vt 0.59375 0.625
vt 0.65625 0.625
vt 0.65625 0.625
vt 0.65625 0.75
vt 0.59375 0.75
vt 0.59375 0.625
vt 0.65625 0.625
vt 0.65625 0.75
vt 0.59375 0.75
vt 0.59375 0.625
vt 0.65625 0.75
vt 0.59375 0.75
vt 0.59375 0.625
vt 0.65625 0.625
vt 0.65625 0.75
vt 0.59375 0.75
vt 0.59375 0.625
vt 0.65625 0.625
vt 0.65625 0.625
vt 0.65625 0.75
vt 0.59375 0.75
vt 0.59375 0.625
vt 0.65625 0.625
vt 0.65625 0.75
vt 0.59375 0.75
vt 0.59375 0.625
vt 0.65625 0.75
vt 0.59375 0.75
vt 0.59375 0.625
vt 0.65625 0.625
vn 0.7071067811865475 -0.7071067811865476 0
vn -0.7071067811865475 0.7071067811865476 0
vn 0.7071067811865476 0.7071067811865475 0
vn -0.7071067811865476 -0.7071067811865475 0
vn 0 0 1
vn 0 0 -1
vn 0.7071067811865475 -0.7071067811865476 0
vn -0.7071067811865475 0.7071067811865476 0
vn 0.7071067811865476 0.7071067811865475 0
vn -0.7071067811865476 -0.7071067811865475 0
vn 0 0 1
vn 0 0 -1
vn 0.7071067811865475 -0.7071067811865476 0
vn -0.7071067811865475 0.7071067811865476 0
vn 0 0 1
vn 0 0 -1
vn 0.7071067811865475 -0.7071067811865476 0
vn -0.7071067811865475 0.7071067811865476 0
vn 0 0 1
vn 0 0 -1
usemtl m_ef242ae5-f856-47ca-199f-8a18402fc4a2
f 154/417/105 153/418/105 155/419/105
f 154/417/105 155/419/105 156/420/105
f 159/421/106 157/422/106 158/423/106
f 159/421/106 158/423/106 160/424/106
f 157/425/107 153/426/107 154/427/107
f 157/425/107 154/427/107 158/428/107
f 156/429/108 155/430/108 159/431/108
f 156/429/108 159/431/108 160/432/108
f 155/433/109 153/434/109 157/435/109
f 155/433/109 157/435/109 159/436/109
f 158/437/110 154/438/110 156/439/110
f 158/437/110 156/439/110 160/440/110
f 162/441/111 161/442/111 163/443/111
f 162/441/111 163/443/111 164/444/111
f 167/445/112 165/446/112 166/447/112
f 167/445/112 166/447/112 168/448/112
f 165/449/113 161/450/113 162/451/113
f 165/449/113 162/451/113 166/452/113
f 164/453/114 163/454/114 167/455/114
f 164/453/114 167/455/114 168/456/114
f 163/457/115 161/458/115 165/459/115
f 163/457/115 165/459/115 167/460/115
f 166/461/116 162/462/116 164/463/116
f 166/461/116 164/463/116 168/464/116
f 170/465/117 169/466/117 171/467/117
f 170/465/117 171/467/117 172/468/117
f 175/469/118 173/470/118 174/471/118
f 175/469/118 174/471/118 176/472/118
f 171/473/119 169/474/119 173/475/119
f 171/473/119 173/475/119 175/476/119
f 174/477/120 170/478/120 172/479/120
f 174/477/120 172/479/120 176/480/120
f 178/481/121 177/482/121 179/483/121
f 178/481/121 179/483/121 180/484/121
f 183/485/122 181/486/122 182/487/122
f 183/485/122 182/487/122 184/488/122
f 179/489/123 177/490/123 181/491/123
f 179/489/123 181/491/123 183/492/123
f 182/493/124 178/494/124 180/495/124
f 182/493/124 180/495/124 184/496/124
o PistonsL2
v 0.8396893026590252 1.0745242597140698 -0.0625
v 0.8396893026590252 1.0745242597140698 -0.4375
v 0.7513009550107067 0.9861359120657514 -0.0625
v 0.7513009550107067 0.9861359120657514 -0.4375
v 0.57452425971407 1.339689302659025 -0.0625
v 0.57452425971407 1.339689302659025 -0.4375
v 0.48613591206575146 1.2513009550107066 -0.0625
v 0.48613591206575146 1.2513009550107066 -0.4375
v 0.8396893026590252 1.0745242597140698 0.9375
v 0.8396893026590252 1.0745242597140698 0.5625
v 0.7513009550107067 0.9861359120657514 0.9375
v 0.7513009550107067 0.9861359120657514 0.5625
v 0.57452425971407 1.339689302659025 0.9375
v 0.57452425971407 1.339689302659025 0.5625
v 0.48613591206575146 1.2513009550107066 0.9375
v 0.48613591206575146 1.2513009550107066 0.5625
v 0.7071067811865475 1.0303300858899105 0.875
v 0.7071067811865475 1.0303300858899105 0.625
v 0.3535533905932738 0.6767766952966369 0.875
v 0.3535533905932738 0.6767766952966369 0.625
v 0.5303300858899107 1.2071067811865475 0.875
v 0.5303300858899107 1.2071067811865475 0.625
v 0.17677669529663692 0.8535533905932737 0.875
v 0.17677669529663692 0.8535533905932737 0.625
v 0.7071067811865475 1.0303300858899105 -0.125
v 0.7071067811865475 1.0303300858899105 -0.375
v 0.3535533905932738 0.6767766952966369 -0.125
v 0.3535533905932738 0.6767766952966369 -0.375
v 0.5303300858899107 1.2071067811865475 -0.125
v 0.5303300858899107 1.2071067811865475 -0.375
v 0.17677669529663692 0.8535533905932737 -0.125
v 0.17677669529663692 0.8535533905932737 -0.375
vt 0.59375 0.65625
vt 0.5 0.65625
vt 0.5 0.625
vt 0.59375 0.625
vt 0.59375 0.625
vt 0.59375 0.65625
vt 0.5 0.65625
vt 0.5 0.625
vt 0.5 0.65625
vt 0.59375 0.65625
vt 0.59375 0.75
vt 0.5 0.75
vt 0.59375 0.65625
vt 0.59375 0.75
vt 0.5 0.75
vt 0.5 0.65625
vt 0.59375 0.625
vt 0.59375 0.65625
vt 0.5 0.65625
vt 0.5 0.625
vt 0.59375 0.65625
vt 0.5 0.65625
vt 0.5 0.625
vt 0.59375 0.625
vt 0.59375 0.65625
vt 0.5 0.65625
vt 0.5 0.625
vt 0.59375 0.625
vt 0.59375 0.625
vt 0.59375 0.65625
vt 0.5 0.65625
vt 0.5 0.625
vt 0.5 0.65625
vt 0.59375 0.65625
vt 0.59375 0.75
vt 0.5 0.75
vt 0.59375 0.65625
vt 0.59375 0.75
vt 0.5 0.75
vt 0.5 0.65625
vt 0.59375 0.625
vt 0.59375 0.65625
vt 0.5 0.65625
vt 0.5 0.625
vt 0.59375 0.65625
vt 0.5 0.65625
vt 0.5 0.625
vt 0.59375 0.625
vt 0.65625 0.75
vt 0.59375 0.75
vt 0.59375 0.625
vt 0.65625 0.625
vt 0.65625 0.625
vt 0.65625 0.75
vt 0.59375 0.75
vt 0.59375 0.625
vt 0.65625 0.625
vt 0.65625 0.75
vt 0.59375 0.75
vt 0.59375 0.625
vt 0.65625 0.75
vt 0.59375 0.75
vt 0.59375 0.625
vt 0.65625 0.625
vt 0.65625 0.75
vt 0.59375 0.75
vt 0.59375 0.625
vt 0.65625 0.625
vt 0.65625 0.625
vt 0.65625 0.75
vt 0.59375 0.75
vt 0.59375 0.625
vt 0.65625 0.625
vt 0.65625 0.75
vt 0.59375 0.75
vt 0.59375 0.625
vt 0.65625 0.75
vt 0.59375 0.75
vt 0.59375 0.625
vt 0.65625 0.625
vn 0.7071067811865475 -0.7071067811865476 0
vn -0.7071067811865475 0.7071067811865476 0
vn 0.7071067811865476 0.7071067811865475 0
vn -0.7071067811865476 -0.7071067811865475 0
vn 0 0 1
vn 0 0 -1
vn 0.7071067811865475 -0.7071067811865476 0
vn -0.7071067811865475 0.7071067811865476 0
vn 0.7071067811865476 0.7071067811865475 0
vn -0.7071067811865476 -0.7071067811865475 0
vn 0 0 1
vn 0 0 -1
vn 0.7071067811865475 -0.7071067811865476 0
vn -0.7071067811865475 0.7071067811865476 0
vn 0 0 1
vn 0 0 -1
vn 0.7071067811865475 -0.7071067811865476 0
vn -0.7071067811865475 0.7071067811865476 0
vn 0 0 1
vn 0 0 -1
usemtl m_ef242ae5-f856-47ca-199f-8a18402fc4a2
f 186/497/125 185/498/125 187/499/125
f 186/497/125 187/499/125 188/500/125
f 191/501/126 189/502/126 190/503/126
f 191/501/126 190/503/126 192/504/126
f 189/505/127 185/506/127 186/507/127
f 189/505/127 186/507/127 190/508/127
f 188/509/128 187/510/128 191/511/128
f 188/509/128 191/511/128 192/512/128
f 187/513/129 185/514/129 189/515/129
f 187/513/129 189/515/129 191/516/129
f 190/517/130 186/518/130 188/519/130
f 190/517/130 188/519/130 192/520/130
f 194/521/131 193/522/131 195/523/131
f 194/521/131 195/523/131 196/524/131
f 199/525/132 197/526/132 198/527/132
f 199/525/132 198/527/132 200/528/132
f 197/529/133 193/530/133 194/531/133
f 197/529/133 194/531/133 198/532/133
f 196/533/134 195/534/134 199/535/134
f 196/533/134 199/535/134 200/536/134
f 195/537/135 193/538/135 197/539/135
f 195/537/135 197/539/135 199/540/135
f 198/541/136 194/542/136 196/543/136
f 198/541/136 196/543/136 200/544/136
f 202/545/137 201/546/137 203/547/137
f 202/545/137 203/547/137 204/548/137
f 207/549/138 205/550/138 206/551/138
f 207/549/138 206/551/138 208/552/138
f 203/553/139 201/554/139 205/555/139
f 203/553/139 205/555/139 207/556/139
f 206/557/140 202/558/140 204/559/140
f 206/557/140 204/559/140 208/560/140
f 210/561/141 209/562/141 211/563/141
f 210/561/141 211/563/141 212/564/141
f 215/565/142 213/566/142 214/567/142
f 215/565/142 214/567/142 216/568/142
f 211/569/143 209/570/143 213/571/143
f 211/569/143 213/571/143 215/572/143
f 214/573/144 210/574/144 212/575/144
f 214/573/144 212/575/144 216/576/144