# Made in Blockbench 5.2.1
mtllib drainage_pipe.mtl

o Base
v 0.1172275 0.9375 9.71445146547012e-17
v 0.1172275 0.9375000000000006 -2.5
v 0.11299 0.9216831249999999 9.363246289417758e-17
v 0.11299 0.9216831250000005 -2.5
v 0.3202725 0.8202725 7.111478073085209e-17
v 0.3202725 0.8202725000000006 -2.5
v 0.30869375 0.80869375 6.854378176157638e-17
v 0.30869375 0.8086937500000005 -2.5
v 0.4375 0.6172275 2.6029733923849104e-17
v 0.4375 0.6172275000000005 -2.5
v 0.421683125 0.6129899999999999 2.5088819910479283e-17
v 0.421683125 0.6129900000000006 -2.5
v 0.4375 0.3827725 -2.6029733923849107e-17
v 0.4375 0.38277250000000057 -2.5
v 0.421683125 0.38701 -2.5088819910479286e-17
v 0.421683125 0.3870100000000006 -2.5
v 0.3202725 0.17972749999999998 -7.111478073085209e-17
v 0.3202725 0.17972750000000054 -2.5
v 0.30869375 0.19130625 -6.854378176157638e-17
v 0.30869375 0.19130625000000057 -2.5
v 0.1172275 0.0625 -9.71445146547012e-17
v 0.1172275 0.06250000000000056 -2.5
v 0.11299 0.07831687500000001 -9.363246289417759e-17
v 0.11299 0.07831687500000056 -2.5
v -0.1172275 0.0625 -9.71445146547012e-17
v -0.1172275 0.06250000000000056 -2.5
v -0.11299 0.07831687500000001 -9.363246289417759e-17
v -0.11299 0.07831687500000056 -2.5
v -0.3202725 0.17972749999999998 -7.111478073085209e-17
v -0.3202725 0.17972750000000054 -2.5
v -0.30869375 0.19130625 -6.854378176157638e-17
v -0.30869375 0.19130625000000057 -2.5
v -0.4375 0.3827725 -2.6029733923849107e-17
v -0.4375 0.38277250000000057 -2.5
v -0.421683125 0.38701 -2.5088819910479286e-17
v -0.421683125 0.3870100000000006 -2.5
v -0.4375 0.6172275 2.6029733923849104e-17
v -0.4375 0.6172275000000005 -2.5
v -0.421683125 0.6129899999999999 2.5088819910479283e-17
v -0.421683125 0.6129900000000006 -2.5
v -0.3202725 0.8202725 7.111478073085209e-17
v -0.3202725 0.8202725000000006 -2.5
v -0.30869375 0.80869375 6.854378176157638e-17
v -0.30869375 0.8086937500000005 -2.5
v -0.1172275 0.9375 9.71445146547012e-17
v -0.1172275 0.9375000000000006 -2.5
v -0.11299 0.9216831249999999 9.363246289417758e-17
v -0.11299 0.9216831250000005 -2.5
v 0.1172275 0.9375 9.71445146547012e-17
v 0.1172275 0.9375000000000006 -2.5
v 0.11299 0.9216831249999999 9.363246289417759e-17
v 0.11299 0.9216831250000006 -2.5
v 0.3202725 0.8202725 7.111478073085209e-17
v 0.3202725 0.8202725000000006 -2.5
v 0.30869375 0.80869375 6.854378176157638e-17
v 0.30869375 0.8086937500000005 -2.5
v 0.4375 0.6172275 2.6029733923849117e-17
v 0.4375 0.6172275000000006 -2.5
v 0.421683125 0.61299 2.5088819910479295e-17
v 0.421683125 0.6129900000000006 -2.5
v 0.4375 0.3827725 -2.6029733923849104e-17
v 0.4375 0.38277250000000057 -2.5
v 0.421683125 0.38701 -2.5088819910479283e-17
v 0.421683125 0.3870100000000006 -2.5
v 0.3202725 0.17972749999999998 -7.111478073085209e-17
v 0.3202725 0.17972750000000054 -2.5
v 0.30869375 0.19130625 -6.854378176157638e-17
v 0.30869375 0.19130625000000057 -2.5
v 0.1172275 0.0625 -9.71445146547012e-17
v 0.1172275 0.06250000000000056 -2.5
v 0.11299 0.07831687500000001 -9.363246289417759e-17
v 0.11299 0.07831687500000056 -2.5
v -0.1172275 0.0625 -9.71445146547012e-17
v -0.1172275 0.06250000000000056 -2.5
v -0.11299 0.07831687500000001 -9.363246289417759e-17
v -0.11299 0.07831687500000056 -2.5
v -0.3202725 0.17972749999999998 -7.111478073085209e-17
v -0.3202725 0.17972750000000054 -2.5
v -0.30869375 0.19130625 -6.854378176157638e-17
v -0.30869375 0.19130625000000057 -2.5
v -0.4375 0.3827725 -2.6029733923849104e-17
v -0.4375 0.38277250000000057 -2.5
v -0.421683125 0.38701 -2.5088819910479283e-17
v -0.421683125 0.3870100000000006 -2.5
v -0.4375 0.6172275 2.6029733923849117e-17
v -0.4375 0.6172275000000006 -2.5
v -0.421683125 0.61299 2.5088819910479295e-17
v -0.421683125 0.6129900000000006 -2.5
v -0.3202725 0.8202725 7.111478073085209e-17
v -0.3202725 0.8202725000000006 -2.5
v -0.30869375 0.80869375 6.854378176157638e-17
v -0.30869375 0.8086937500000005 -2.5
v -0.1172275 0.9375 9.71445146547012e-17
v -0.1172275 0.9375000000000006 -2.5
v -0.11299 0.9216831249999999 9.363246289417759e-17
v -0.11299 0.9216831250000006 -2.5
v 0 0.5000000000000001 -0.5
v 0.1172275 0.9375000000000001 -0.4999999999999999
v 0.3202725 0.8202725000000002 -0.49999999999999994
v 0.4375 0.6172275000000002 -0.5
v 0.4375 0.3827725000000001 -0.5
v 0.3202725 0.1797275000000001 -0.5000000000000001
v 0.1172275 0.06250000000000011 -0.5000000000000001
v -0.1172275 0.06250000000000011 -0.5000000000000001
v -0.3202725 0.1797275000000001 -0.5000000000000001
v -0.4375 0.3827725000000001 -0.5
v -0.4375 0.6172275000000002 -0.5
v -0.3202725 0.8202725000000002 -0.49999999999999994
v -0.1172275 0.9375000000000001 -0.4999999999999999
v 0.5 1 1.1102230246251565e-16
v 0.5 1.1102230246251565e-16 -0.5000000000000001
v -0.5 1 1.1102230246251565e-16
v -0.5 1.1102230246251565e-16 -0.5000000000000001
v 0.5 -1.1102230246251565e-16 0.4999999999999999
v 0.5 1.1102230246251565e-16 -0.5000000000000001
v -0.5 -1.1102230246251565e-16 0.4999999999999999
v -0.5 1.1102230246251565e-16 -0.5000000000000001
v 0.5 0.9999999999999999 0.5000000000000001
v 0.5 1 1.1102230246251565e-16
v 0.5 -1.1102230246251565e-16 0.4999999999999999
v 0.5 1.1102230246251565e-16 -0.5000000000000001
v 0.5 0.9999999999999999 0.5000000000000001
v 0.5 -1.1102230246251565e-16 0.4999999999999999
v -0.5 0.9999999999999999 0.5000000000000001
v -0.5 -1.1102230246251565e-16 0.4999999999999999
v 0.5 0.9999999999999999 0.5000000000000001
v 0.5 1 1.1102230246251565e-16
v -0.5 0.9999999999999999 0.5000000000000001
v -0.5 1 1.1102230246251565e-16
v -0.5 0.9999999999999999 0.5000000000000001
v -0.5 1 1.1102230246251565e-16
v -0.5 -1.1102230246251565e-16 0.4999999999999999
v -0.5 1.1102230246251565e-16 -0.5000000000000001
vt 0.25 0.375
vt 0.3125 0.375
vt 0.3125 1
vt 0.25 1
vt 0.375 1
vt 0.3125 1
vt 0.3125 0.375
vt 0.375 0.375
vt 0.25 0.375
vt 0.3125 0.375
vt 0.3125 1
vt 0.25 1
vt 0.375 1
vt 0.3125 1
vt 0.3125 0.375
vt 0.375 0.375
vt 0.25 0.375
vt 0.3125 0.375
vt 0.3125 1
vt 0.25 1
vt 0.375 1
vt 0.3125 1
vt 0.3125 0.375
vt 0.375 0.375
vt 0.25 0.375
vt 0.3125 0.375
vt 0.3125 1
vt 0.25 1
vt 0.375 1
vt 0.3125 1
vt 0.3125 0.375
vt 0.375 0.375
vt 0.25 0.375
vt 0.3125 0.375
vt 0.3125 1
vt 0.25 1
vt 0.375 1
vt 0.3125 1
vt 0.3125 0.375
vt 0.375 0.375
vt 0.25 0.375
vt 0.3125 0.375
vt 0.3125 1
vt 0.25 1
vt 0.375 1
vt 0.3125 1
vt 0.3125 0.375
vt 0.375 0.375
vt 0.25 0.375
vt 0.3125 0.375
vt 0.3125 1
vt 0.25 1
vt 0.375 1
vt 0.3125 1
vt 0.3125 0.375
vt 0.375 0.375
vt 0.25 0.375
vt 0.3125 0.375
vt 0.3125 1
vt 0.25 1
vt 0.375 1
vt 0.3125 1
vt 0.3125 0.375
vt 0.375 0.375
vt 0.25 0.375
vt 0.3125 0.375
vt 0.3125 1
vt 0.25 1
vt 0.375 1
vt 0.3125 1
vt 0.3125 0.375
vt 0.375 0.375
vt 0.25 0.375
vt 0.3125 0.375
vt 0.3125 1
vt 0.25 1
vt 0.375 1
vt 0.3125 1
vt 0.3125 0.375
vt 0.375 0.375
vt 0.25 0.375
vt 0.3125 0.375
vt 0.3125 1
vt 0.25 1
vt 0.375 1
vt 0.3125 1
vt 0.3125 0.375
vt 0.375 0.375
vt 0.25 0.375
vt 0.3125 0.375
vt 0.3125 1
vt 0.25 1
vt 0.375 1
vt 0.3125 1
vt 0.3125 0.375
vt 0.375 0.375
vt 0 0.995760625
vt 0 0.76978
vt 0.01582 0.7655412500000001
vt 0.015818125 1
vt 0.08670875 0.234375
vt 0.0359475 0.20506812500000005
vt 0.0388421875 0.20217343750000005
vt 0.087768125 0.23042078124999998
vt 0 0.995760625
vt 0 0.769780625
vt 0.015818125 0.7655412500000001
vt 0.01582 1
vt 0.0359475 0.20506812500000005
vt 0.006640625 0.15430687499999995
vt 0.01059484375 0.15324749999999998
vt 0.0388421875 0.20217343750000005
vt 0 0.9957625
vt 0 0.7697875000000001
vt 0.01581875 0.76555
vt 0.01581875 1
vt 0.006640625 0.15430687499999995
vt 0.006640625 0.09569312500000005
vt 0.01059484375 0.09675250000000002
vt 0.01059484375 0.15324749999999998
vt 0.230219375 1
vt 0.004239375 1
vt 0 0.98418
vt 0.23445875 0.984181875
vt 0.006640625 0.09569312500000005
vt 0.0359475 0.044931874999999954
vt 0.0388421875 0.04782656249999995
vt 0.01059484375 0.09675250000000002
vt 0.23022 1
vt 0.004239375 1
vt 0 0.984181875
vt 0.23445875 0.98418
vt 0.0359475 0.044931874999999954
vt 0.08670875 0.015625
vt 0.087768125 0.019579218750000016
vt 0.0388421875 0.04782656249999995
vt 0.2302125 1
vt 0.0042375 1
vt 0 0.98418125
vt 0.23445 0.98418125
vt 0.08670875 0.015625
vt 0.1453225 0.015625
vt 0.144263125 0.019579218750000016
vt 0.087768125 0.019579218750000016
vt 0.01582 0.769780625
vt 0.01582 0.995760625
vt 0 1
vt 0.000001875 0.7655412500000001
vt 0.1453225 0.015625
vt 0.19608375 0.044931874999999954
vt 0.1931890625 0.04782656249999995
vt 0.144263125 0.019579218750000016
vt 0.01582 0.76978
vt 0.01582 0.995760625
vt 0.000001875 1
vt 0 0.7655412500000001
vt 0.19608375 0.044931874999999954
vt 0.225390625 0.09569312500000005
vt 0.22143640625 0.09675250000000002
vt 0.1931890625 0.04782656249999995
vt 0.01581875 0.7697875000000001
vt 0.01581875 0.9957625
vt 0 1
vt 0 0.76555
vt 0.225390625 0.09569312500000005
vt 0.225390625 0.15430687499999995
vt 0.22143640625 0.15324749999999998
vt 0.22143640625 0.09675250000000002
vt 0.004239375 0.98418
vt 0.23022 0.98418
vt 0.23445875 1
vt 0 0.999998125
vt 0.225390625 0.15430687499999995
vt 0.19608375 0.20506812500000005
vt 0.1931890625 0.20217343750000005
vt 0.22143640625 0.15324749999999998
vt 0.004239375 0.98418
vt 0.230219375 0.98418
vt 0.23445875 0.999998125
vt 0 1
vt 0.19608375 0.20506812500000005
vt 0.1453225 0.234375
vt 0.144263125 0.23042078124999998
vt 0.1931890625 0.20217343750000005
vt 0.0042375 0.98418125
vt 0.2302125 0.98418125
vt 0.23445 1
vt 0 1
vt 0.1453225 0.234375
vt 0.08670875 0.234375
vt 0.087768125 0.23042078124999998
vt 0.144263125 0.23042078124999998
vt 0.05013328125 0.954865625
vt 0.02216625 0.90472125
vt 0.128609375 0.87593453125
vt 0.02216625 0.90472125
vt 0.02288625 0.8475742187499999
vt 0.128609375 0.87593453125
vt 0.02288625 0.8475742187499999
vt 0.0515990625 0.79856734375
vt 0.128609375 0.87593453125
vt 0.0515990625 0.79856734375
vt 0.1005053125 0.77031640625
vt 0.128609375 0.87593453125
vt 0.1005053125 0.77031640625
vt 0.15688640625 0.77003828125
vt 0.128609375 0.87593453125
vt 0.15688640625 0.77003828125
vt 0.20613375 0.79796078125
vt 0.128609375 0.87593453125
vt 0.20613375 0.79796078125
vt 0.23517328125 0.84711515625
vt 0.128609375 0.87593453125
vt 0.23517328125 0.84711515625
vt 0.23584109375 0.904699375
vt 0.128609375 0.87593453125
vt 0.23584109375 0.904699375
vt 0.20744359375 0.95513375
vt 0.128609375 0.87593453125
vt 0.20744359375 0.95513375
vt 0.1574646875 0.984375
vt 0.128609375 0.87593453125
vt 0.1574646875 0.984375
vt 0.099695625 0.98421578125
vt 0.128609375 0.87593453125
vt 0.099695625 0.98421578125
vt 0.05013328125 0.954865625
vt 0.128609375 0.87593453125
vt 0.25 0.5
vt 0 0.5
vt 0 0.25
vt 0.25 0.25
vt 0.25 0.5
vt 0.25 0.75
vt 0 0.75
vt 0 0.5
vt 0.125 0.5
vt 0 0.5
vt 0 0.25
vt 0.25 0.25
vt 0.25 0.25
vt 0.25 0.5
vt 0 0.5
vt 0 0.25
vt 0 0.5
vt 0.25 0.5
vt 0.25 0.625
vt 0 0.625
vt 0.25 0.25
vt 0.25 0.5
vt 0.125 0.5
vt 0 0.25
vn 0.2588180007629995 0.9659261061183946 2.144786806198328e-16
vn 0.2588180007629995 0.9659261061183946 2.144786806198328e-16
vn -0.2588186050691927 -0.9659259441955358 -2.1447864466573558e-16
vn -0.2588186050691927 -0.9659259441955358 -2.1447864466573558e-16
vn 0.7071067811865476 0.7071067811865476 1.5700924586837752e-16
vn 0.7071067811865476 0.7071067811865476 1.5700924586837752e-16
vn -0.7071067811865475 -0.7071067811865476 -1.5700924586837752e-16
vn -0.7071067811865475 -0.7071067811865476 -1.5700924586837752e-16
vn 0.9659261061183946 0.2588180007629995 5.746914072690667e-17
vn 0.9659261061183946 0.2588180007629995 5.746914072690667e-17
vn -0.9659259441955357 -0.2588186050691927 -5.74692749098366e-17
vn -0.9659259441955357 -0.2588186050691927 -5.74692749098366e-17
vn 0.9659261061183946 -0.2588180007629995 -5.746914072690667e-17
vn 0.9659261061183946 -0.2588180007629995 -5.746914072690667e-17
vn -0.9659259441955357 0.2588186050691927 5.74692749098366e-17
vn -0.9659259441955357 0.2588186050691927 5.74692749098366e-17
vn 0.7071067811865476 -0.7071067811865476 -1.5700924586837752e-16
vn 0.7071067811865476 -0.7071067811865476 -1.5700924586837752e-16
vn -0.7071067811865476 0.7071067811865476 1.5700924586837752e-16
vn -0.7071067811865476 0.7071067811865476 1.5700924586837752e-16
vn 0.2588180007629995 -0.9659261061183946 -2.144786806198328e-16
vn 0.2588180007629995 -0.9659261061183946 -2.144786806198328e-16
vn -0.2588186050691927 0.9659259441955357 2.1447864466573556e-16
vn -0.2588186050691927 0.9659259441955357 2.1447864466573556e-16
vn -0.2588180007629995 -0.9659261061183946 -2.144786806198328e-16
vn -0.2588180007629995 -0.9659261061183946 -2.144786806198328e-16
vn 0.2588186050691927 0.9659259441955357 2.1447864466573556e-16
vn 0.2588186050691927 0.9659259441955357 2.1447864466573556e-16
vn -0.7071067811865476 -0.7071067811865476 -1.5700924586837752e-16
vn -0.7071067811865476 -0.7071067811865476 -1.5700924586837752e-16
vn 0.7071067811865476 0.7071067811865476 1.5700924586837752e-16
vn 0.7071067811865476 0.7071067811865476 1.5700924586837752e-16
vn -0.9659261061183946 -0.2588180007629995 -5.746914072690667e-17
vn -0.9659261061183946 -0.2588180007629995 -5.746914072690667e-17
vn 0.9659259441955357 0.2588186050691927 5.74692749098366e-17
vn 0.9659259441955357 0.2588186050691927 5.74692749098366e-17
vn -0.9659261061183946 0.2588180007629995 5.746914072690667e-17
vn -0.9659261061183946 0.2588180007629995 5.746914072690667e-17
vn 0.9659259441955357 -0.2588186050691927 -5.74692749098366e-17
vn 0.9659259441955357 -0.2588186050691927 -5.74692749098366e-17
vn -0.7071067811865476 0.7071067811865476 1.5700924586837752e-16
vn -0.7071067811865476 0.7071067811865476 1.5700924586837752e-16
vn 0.7071067811865475 -0.7071067811865476 -1.5700924586837752e-16
vn 0.7071067811865475 -0.7071067811865476 -1.5700924586837752e-16
vn -0.2588180007629995 0.9659261061183946 2.144786806198328e-16
vn -0.2588180007629995 0.9659261061183946 2.144786806198328e-16
vn 0.2588186050691927 -0.9659259441955358 -2.1447864466573558e-16
vn 0.2588186050691927 -0.9659259441955358 -2.1447864466573558e-16
vn -1.7485791232234592e-31 -2.2204460492503128e-16 1
vn 0 2.220446049250313e-16 -1
vn -1.7485791232234592e-31 -2.2204460492503128e-16 1
vn 0 2.220446049250313e-16 -1
vn -1.7485791232234592e-31 -2.2204460492503165e-16 1
vn 0 2.220446049250313e-16 -1
vn -1.7485791232234592e-31 -2.2204460492503165e-16 1
vn 0 2.220446049250313e-16 -1
vn 0 -2.220446049250313e-16 1
vn 0 2.220446049250313e-16 -1
vn 0 -2.220446049250313e-16 1
vn 0 2.220446049250313e-16 -1
vn 0 -2.220446049250313e-16 1
vn 0 2.220446049250313e-16 -1
vn 0 -2.220446049250313e-16 1
vn 0 2.220446049250313e-16 -1
vn 0 -2.220446049250313e-16 1
vn 0 2.220446049250313e-16 -1
vn 0 -2.220446049250313e-16 1
vn 0 2.220446049250313e-16 -1
vn 0 -2.220446049250313e-16 1
vn 0 2.220446049250313e-16 -1
vn 0 -2.220446049250313e-16 1
vn 0 2.220446049250313e-16 -1
vn 0 -2.220446049250313e-16 1
vn 0 2.220446049250313e-16 -1
vn 0 -2.220446049250313e-16 1
vn 0 2.220446049250313e-16 -1
vn 0 -2.220446049250313e-16 1
vn 0 2.220446049250313e-16 -1
vn 0 -2.220446049250313e-16 1
vn 0 2.220446049250313e-16 -1
vn 0 -2.220446049250313e-16 1
vn 0 2.220446049250313e-16 -1
vn 0 -2.220446049250313e-16 1
vn 0 2.220446049250313e-16 -1
vn 3.3744343019929392e-31 -2.220446049250315e-16 1
vn 0 2.220446049250313e-16 -1
vn 3.3744343019929392e-31 -2.220446049250315e-16 1
vn 0 2.220446049250313e-16 -1
vn 1.1534431862268356e-31 -2.2204460492503118e-16 1
vn 0 2.220446049250313e-16 -1
vn 1.1534431862268356e-31 -2.2204460492503118e-16 1
vn 0 2.220446049250313e-16 -1
vn -2.2209911157661037e-31 -2.220446049250306e-16 1
vn 0 2.220446049250313e-16 -1
vn -2.2209911157661037e-31 -2.220446049250306e-16 1
vn 0 2.220446049250313e-16 -1
vn 0 2.220446049250313e-16 -1
vn 0 2.220446049250313e-16 -1
vn 0 2.220446049250313e-16 -1
vn 0 2.220446049250313e-16 -1
vn 0 2.220446049250313e-16 -1
vn 0 2.220446049250313e-16 -1
vn 0 2.220446049250313e-16 -1
vn 0 2.220446049250313e-16 -1
vn 0 2.220446049250313e-16 -1
vn 0 2.220446049250313e-16 -1
vn 0 2.220446049250313e-16 -1
vn 0 2.220446049250313e-16 -1
vn 0 2.220446049250313e-16 -1
vn 0 0.44721359549995826 -0.894427190999916
vn 0 0.44721359549995826 -0.894427190999916
vn 0 0.44721359549995826 -0.894427190999916
vn 0 0.44721359549995826 -0.894427190999916
vn 0 -1 -2.220446049250313e-16
vn 0 -1 -2.220446049250313e-16
vn 0 -1 -2.220446049250313e-16
vn 0 -1 -2.220446049250313e-16
vn 1 0 0
vn 1 0 0
vn 1 0 0
vn 1 0 0
vn 0 -2.220446049250313e-16 1
vn 0 -2.220446049250313e-16 1
vn 0 -2.220446049250313e-16 1
vn 0 -2.220446049250313e-16 1
vn 0 1 2.220446049250313e-16
vn 0 1 2.220446049250313e-16
vn 0 1 2.220446049250313e-16
vn 0 1 2.220446049250313e-16
vn -1 0 0
vn -1 0 0
vn -1 0 0
vn -1 0 0
usemtl m_206b6a89-e6ca-8738-c131-5ada7377b43b
f 1/1/1 5/2/5 6/3/6
f 1/1/1 6/3/6 2/4/2
f 4/5/4 8/6/8 7/7/7
f 4/5/4 7/7/7 3/8/3
f 5/9/5 9/10/9 10/11/10
f 5/9/5 10/11/10 6/12/6
f 8/13/8 12/14/12 11/15/11
f 8/13/8 11/15/11 7/16/7
f 9/17/9 13/18/13 14/19/14
f 9/17/9 14/19/14 10/20/10
f 12/21/12 16/22/16 15/23/15
f 12/21/12 15/23/15 11/24/11
f 13/25/13 17/26/17 18/27/18
f 13/25/13 18/27/18 14/28/14
f 16/29/16 20/30/20 19/31/19
f 16/29/16 19/31/19 15/32/15
f 17/33/17 21/34/21 22/35/22
f 17/33/17 22/35/22 18/36/18
f 20/37/20 24/38/24 23/39/23
f 20/37/20 23/39/23 19/40/19
f 21/41/21 25/42/25 26/43/26
f 21/41/21 26/43/26 22/44/22
f 24/45/24 28/46/28 27/47/27
f 24/45/24 27/47/27 23/48/23
f 25/49/25 29/50/29 30/51/30
f 25/49/25 30/51/30 26/52/26
f 28/53/28 32/54/32 31/55/31
f 28/53/28 31/55/31 27/56/27
f 29/57/29 33/58/33 34/59/34
f 29/57/29 34/59/34 30/60/30
f 32/61/32 36/62/36 35/63/35
f 32/61/32 35/63/35 31/64/31
f 33/65/33 37/66/37 38/67/38
f 33/65/33 38/67/38 34/68/34
f 36/69/36 40/70/40 39/71/39
f 36/69/36 39/71/39 35/72/35
f 37/73/37 41/74/41 42/75/42
f 37/73/37 42/75/42 38/76/38
f 40/77/40 44/78/44 43/79/43
f 40/77/40 43/79/43 39/80/39
f 41/81/41 45/82/45 46/83/46
f 41/81/41 46/83/46 42/84/42
f 44/85/44 48/86/48 47/87/47
f 44/85/44 47/87/47 43/88/43
f 45/89/45 1/90/1 2/91/2
f 45/89/45 2/91/2 46/92/46
f 48/93/48 4/94/4 3/95/3
f 48/93/48 3/95/3 47/96/47
usemtl none
f 51/97/51 55/98/55 53/99/53
f 51/97/51 53/99/53 49/100/49
usemtl m_206b6a89-e6ca-8738-c131-5ada7377b43b
f 50/101/50 54/102/54 56/103/56
f 50/101/50 56/103/56 52/104/52
usemtl none
f 55/105/55 59/106/59 57/107/57
f 55/105/55 57/107/57 53/108/53
usemtl m_206b6a89-e6ca-8738-c131-5ada7377b43b
f 54/109/54 58/110/58 60/111/60
f 54/109/54 60/111/60 56/112/56
usemtl none
f 59/113/59 63/114/63 61/115/61
f 59/113/59 61/115/61 57/116/57
usemtl m_206b6a89-e6ca-8738-c131-5ada7377b43b
f 58/117/58 62/118/62 64/119/64
f 58/117/58 64/119/64 60/120/60
usemtl none
f 63/121/63 67/122/67 65/123/65
f 63/121/63 65/123/65 61/124/61
usemtl m_206b6a89-e6ca-8738-c131-5ada7377b43b
f 62/125/62 66/126/66 68/127/68
f 62/125/62 68/127/68 64/128/64
usemtl none
f 67/129/67 71/130/71 69/131/69
f 67/129/67 69/131/69 65/132/65
usemtl m_206b6a89-e6ca-8738-c131-5ada7377b43b
f 66/133/66 70/134/70 72/135/72
f 66/133/66 72/135/72 68/136/68
usemtl none
f 71/137/71 75/138/75 73/139/73
f 71/137/71 73/139/73 69/140/69
usemtl m_206b6a89-e6ca-8738-c131-5ada7377b43b
f 70/141/70 74/142/74 76/143/76
f 70/141/70 76/143/76 72/144/72
usemtl none
f 75/145/75 79/146/79 77/147/77
f 75/145/75 77/147/77 73/148/73
usemtl m_206b6a89-e6ca-8738-c131-5ada7377b43b
f 74/149/74 78/150/78 80/151/80
f 74/149/74 80/151/80 76/152/76
usemtl none
f 79/153/79 83/154/83 81/155/81
f 79/153/79 81/155/81 77/156/77
usemtl m_206b6a89-e6ca-8738-c131-5ada7377b43b
f 78/157/78 82/158/82 84/159/84
f 78/157/78 84/159/84 80/160/80
usemtl none
f 83/161/83 87/162/87 85/163/85
f 83/161/83 85/163/85 81/164/81
usemtl m_206b6a89-e6ca-8738-c131-5ada7377b43b
f 82/165/82 86/166/86 88/167/88
f 82/165/82 88/167/88 84/168/84
usemtl none
f 87/169/87 91/170/91 89/171/89
f 87/169/87 89/171/89 85/172/85
usemtl m_206b6a89-e6ca-8738-c131-5ada7377b43b
f 86/173/86 90/174/90 92/175/92
f 86/173/86 92/175/92 88/176/88
usemtl none
f 91/177/91 95/178/95 93/179/93
f 91/177/91 93/179/93 89/180/89
usemtl m_206b6a89-e6ca-8738-c131-5ada7377b43b
f 90/181/90 94/182/94 96/183/96
f 90/181/90 96/183/96 92/184/92
usemtl none
f 95/185/95 51/186/51 49/187/49
f 95/185/95 49/187/49 93/188/93
usemtl m_206b6a89-e6ca-8738-c131-5ada7377b43b
f 94/189/94 50/190/50 52/191/52
f 94/189/94 52/191/52 96/192/96
f 99/193/99 100/194/100 97/195/97
f 100/196/100 101/197/101 97/198/97
f 101/199/101 102/200/102 97/201/97
f 102/202/102 103/203/103 97/204/97
f 103/205/103 104/206/104 97/207/97
f 104/208/104 105/209/105 97/210/97
f 105/211/105 106/212/106 97/213/97
f 106/214/106 107/215/107 97/216/97
f 107/217/107 108/218/108 97/219/97
f 108/220/108 109/221/109 97/222/97
f 109/223/109 98/224/98 97/225/97
f 98/226/98 99/227/99 97/228/97
f 112/229/112 110/230/110 111/231/111
f 112/229/112 111/231/111 113/232/113
f 115/233/115 114/234/114 116/235/116
f 115/233/115 116/235/116 117/236/117
f 119/237/119 118/238/118 120/239/120
f 119/237/119 120/239/120 121/240/121
f 123/241/123 122/242/122 124/243/124
f 123/241/123 124/243/124 125/244/125
f 128/245/128 126/246/126 127/247/127
f 128/245/128 127/247/127 129/248/129
f 132/249/132 130/250/130 131/251/131
f 132/249/132 131/251/131 133/252/133