# Made in Blockbench 5.1.6
mtllib gas_flare.mtl

o Base
v 1 9.993749999999999 1
v 1 9.993749999999999 -1
v 1 7.999999999999999 1
v 1 7.999999999999999 -1
v -1 9.993749999999999 1
v -1 9.993749999999999 -1
v -1 7.999999999999999 1
v -1 7.999999999999999 -1
v 1 2 1
v 1 2 -1
v 1 0 1
v 1 0 -1
v -1 2 1
v -1 2 -1
v -1 0 1
v -1 0 -1
v 1 4 1
v 1 4 -1
v 1 2 1
v 1 2 -1
v -1 4 1
v -1 4 -1
v -1 2 1
v -1 2 -1
v 1 6 1
v 1 6 -1
v 1 4 1
v 1 4 -1
v -1 6 1
v -1 6 -1
v -1 4 1
v -1 4 -1
v 1 8 1
v 1 8 -1
v 1 6 1
v 1 6 -1
v -1 8 1
v -1 8 -1
v -1 6 1
v -1 6 -1
v -0.75 10 -0.75
v -0.75 10 -1.25
v -0.75 0 -0.75
v -0.75 0 -1.25
v -1.25 10 -0.75
v -1.25 10 -1.25
v -1.25 0 -0.75
v -1.25 0 -1.25
v 1.25 10 -0.75
v 1.25 10 -1.25
v 1.25 0 -0.75
v 1.25 0 -1.25
v 0.75 10 -0.75
v 0.75 10 -1.25
v 0.75 0 -0.75
v 0.75 0 -1.25
v 1.25 10 1.25
v 1.25 10 0.75
v 1.25 0 1.25
v 1.25 0 0.75
v 0.75 10 1.25
v 0.75 10 0.75
v 0.75 0 1.25
v 0.75 0 0.75
v -0.75 10 1.25
v -0.75 10 0.75
v -0.75 0 1.25
v -0.75 0 0.75
v -1.25 10 1.25
v -1.25 10 0.75
v -1.25 0 1.25
v -1.25 0 0.75
v 0.5 1 0.5
v 0.5 1 -0.5
v 0.5 0 0.5
v 0.5 0 -0.5
v -0.5 1 0.5
v -0.5 1 -0.5
v -0.5 0 0.5
v -0.5 0 -0.5
v 0.1875 0.6875 1.5
v 0.1875 0.6875 0.5
v 0.1875 0.3125 1.5
v 0.1875 0.3125 0.5
v -0.1875 0.6875 1.5
v -0.1875 0.6875 0.5
v -0.1875 0.3125 1.5
v -0.1875 0.3125 0.5
v 1.5 0.6875 -0.18749999999999967
v 0.5 0.6875 -0.1874999999999999
v 1.5 0.3125 -0.18749999999999967
v 0.5 0.3125 -0.1874999999999999
v 1.5 0.6875 0.18750000000000022
v 0.5 0.6875 0.1875
v 1.5 0.3125 0.18750000000000022
v 0.5 0.3125 0.1875
v -0.1875000000000001 0.6874999999999998 -1.5
v -0.1875000000000001 0.6875 -0.5
v -0.1875 0.3124999999999998 -1.5
v -0.1875 0.3124999999999999 -0.5
v 0.1875 0.6874999999999998 -1.5
v 0.1875 0.6875 -0.5
v 0.1875 0.3124999999999998 -1.5
v 0.1875 0.3124999999999999 -0.5
v -1.5 0.6875 0.18750000000000022
v -0.5 0.6875 0.1875
v -1.5 0.3125 0.18750000000000022
v -0.5 0.3125 0.1875
v -1.5 0.6875 -0.18749999999999967
v -0.5 0.6875 -0.1874999999999999
v -1.5 0.3125 -0.18749999999999967
v -0.5 0.3125 -0.1874999999999999
v 0.06698729810778059 1 0.25
v 0.06698729810778059 11 0.25
v 0.1830127018922192 1 0.1830127018922194
v 0.1830127018922192 11 0.1830127018922194
v 0.25 1 0.06698729810778059
v 0.25 11 0.06698729810778059
v 0.25 1 -0.0669872981077807
v 0.25 11 -0.0669872981077807
v 0.1830127018922194 1 -0.1830127018922193
v 0.1830127018922194 11 -0.1830127018922193
v 0.06698729810778081 1 -0.25
v 0.06698729810778081 11 -0.25
v -0.06698729810778059 1 -0.25
v -0.06698729810778059 11 -0.25
v -0.1830127018922193 1 -0.1830127018922194
v -0.1830127018922193 11 -0.1830127018922194
v -0.25 1 -0.06698729810778059
v -0.25 11 -0.06698729810778059
v -0.25 1 0.06698729810778059
v -0.25 11 0.06698729810778059
v -0.1830127018922194 1 0.1830127018922192
v -0.1830127018922194 11 0.1830127018922192
v -0.06698729810778059 1 0.25
v -0.06698729810778059 11 0.25
vt 0.5 0.875
vt 0.5 0.999609375
vt 0 0.999609375
vt 0 0.875
vt 0.5 0.875
vt 0.5 0.999609375
vt 0 0.999609375
vt 0 0.875
vt 0.5 0.875
vt 0.5 1
vt 0 1
vt 0 0.875
vt 0.5 0.875
vt 0.5 0.999609375
vt 0 0.999609375
vt 0 0.875
vt 0.5 0.875
vt 0.5 0.999609375
vt 0 0.999609375
vt 0 0.875
vt 0.5 0.875
vt 0.5 1
vt 0 1
vt 0 0.875
vt 0.5 0.875
vt 0.5 1
vt 0 1
vt 0 0.875
vt 0.5 0.875
vt 0.5 1
vt 0 1
vt 0 0.875
vt 0.5 0.875
vt 0.5 1
vt 0 1
vt 0 0.875
vt 0.5 0.875
vt 0.5 1
vt 0 1
vt 0 0.875
vt 0.5 0.875
vt 0.5 1
vt 0 1
vt 0 0.875
vt 0.5 0.875
vt 0.5 1
vt 0 1
vt 0 0.875
vt 0.5 0.875
vt 0.5 1
vt 0 1
vt 0 0.875
vt 0.5 0.875
vt 0.5 1
vt 0 1
vt 0 0.875
vt 0.5 0.875
vt 0.5 1
vt 0 1
vt 0 0.875
vt 0.5 0.875
vt 0.5 1
vt 0 1
vt 0 0.875
vt 0.5 0.875
vt 0.5 1
vt 0 1
vt 0 0.875
vt 0.5 0.875
vt 0.5 1
vt 0 1
vt 0 0.875
vt 0.5 0.875
vt 0.5 1
vt 0 1
vt 0 0.875
vt 0.5 0.875
vt 0.5 1
vt 0 1
vt 0 0.875
vt 0.5 0.875
vt 0.5 1
vt 0 1
vt 0 0.875
vt 0.5 0.875
vt 0.5 1
vt 0 1
vt 0 0.875
vt 0.5 0.875
vt 0.5 1
vt 0 1
vt 0 0.875
vt 0.5 0.875
vt 0.5 1
vt 0 1
vt 0 0.875
vt 0.5 0.875
vt 0.5 1
vt 0 1
vt 0 0.875
vt 0.125 0.625
vt 0 0.625
vt 0 0
vt 0.125 0
vt 0.125 0
vt 0.125 0.625
vt 0 0.625
vt 0 0
vt 0 0.625
vt 0.125 0.625
vt 0.125 0.65625
vt 0 0.65625
vt 0.125 0.625
vt 0.125 0.65625
vt 0 0.65625
vt 0 0.625
vt 0.125 0
vt 0.125 0.625
vt 0 0.625
vt 0 0
vt 0.125 0.625
vt 0 0.625
vt 0 0
vt 0.125 0
vt 0.125 0.625
vt 0 0.625
vt 0 0
vt 0.125 0
vt 0.125 0
vt 0.125 0.625
vt 0 0.625
vt 0 0
vt 0 0.625
vt 0.125 0.625
vt 0.125 0.65625
vt 0 0.65625
vt 0.125 0.625
vt 0.125 0.65625
vt 0 0.65625
vt 0 0.625
vt 0.125 0
vt 0.125 0.625
vt 0 0.625
vt 0 0
vt 0.125 0.625
vt 0 0.625
vt 0 0
vt 0.125 0
vt 0.125 0.625
vt 0 0.625
vt 0 0
vt 0.125 0
vt 0.125 0
vt 0.125 0.625
vt 0 0.625
vt 0 0
vt 0 0.625
vt 0.125 0.625
vt 0.125 0.65625
vt 0 0.65625
vt 0.125 0.625
vt 0.125 0.65625
vt 0 0.65625
vt 0 0.625
vt 0.125 0
vt 0.125 0.625
vt 0 0.625
vt 0 0
vt 0.125 0.625
vt 0 0.625
vt 0 0
vt 0.125 0
vt 0.125 0.625
vt 0 0.625
vt 0 0
vt 0.125 0
vt 0.125 0
vt 0.125 0.625
vt 0 0.625
vt 0 0
vt 0 0.625
vt 0.125 0.625
vt 0.125 0.65625
vt 0 0.65625
vt 0.125 0.625
vt 0.125 0.65625
vt 0 0.65625
vt 0 0.625
vt 0.125 0
vt 0.125 0.625
vt 0 0.625
vt 0 0
vt 0.125 0.625
vt 0 0.625
vt 0 0
vt 0.125 0
vt 0.40625 0.0625
vt 0.15625 0.0625
vt 0.15625 0
vt 0.40625 0
vt 0.40625 0
vt 0.40625 0.0625
vt 0.15625 0.0625
vt 0.15625 0
vt 0.15625 0
vt 0.40625 0
vt 0.40625 0.0625
vt 0.15625 0.0625
vt 0.40625 0
vt 0.40625 0.0625
vt 0.15625 0.0625
vt 0.15625 0
vt 0.40625 0
vt 0.40625 0.0625
vt 0.15625 0.0625
vt 0.15625 0
vt 0.40625 0.0625
vt 0.15625 0.0625
vt 0.15625 0
vt 0.40625 0
vt 0.40625 0.0625
vt 0.40625 0.0859375
vt 0.15625 0.0859375
vt 0.15625 0.0625
vt 0.75 0.0625
vt 0.75 0.0859375
vt 0.5 0.0859375
vt 0.5 0.0625
vt 0.5 0
vt 0.5 0.0625
vt 0.40625 0.0625
vt 0.40625 0
vt 0.5 0.0859375
vt 0.5 0.1484375
vt 0.40625 0.1484375
vt 0.40625 0.0859375
vt 0.5 0.0625
vt 0.5 0.0859375
vt 0.40625 0.0859375
vt 0.40625 0.0625
vt 0.40625 0.0625
vt 0.40625 0.0859375
vt 0.15625 0.0859375
vt 0.15625 0.0625
vt 0.75 0.0625
vt 0.75 0.0859375
vt 0.5 0.0859375
vt 0.5 0.0625
vt 0.5 0
vt 0.5 0.0625
vt 0.40625 0.0625
vt 0.40625 0
vt 0.5 0.0859375
vt 0.5 0.1484375
vt 0.40625 0.1484375
vt 0.40625 0.0859375
vt 0.5 0.0625
vt 0.5 0.0859375
vt 0.40625 0.0859375
vt 0.40625 0.0625
vt 0.40625 0.0625
vt 0.40625 0.0859375
vt 0.15625 0.0859375
vt 0.15625 0.0625
vt 0.75 0.0625
vt 0.75 0.0859375
vt 0.5 0.0859375
vt 0.5 0.0625
vt 0.5 0
vt 0.5 0.0625
vt 0.40625 0.0625
vt 0.40625 0
vt 0.5 0.0859375
vt 0.5 0.1484375
vt 0.40625 0.1484375
vt 0.40625 0.0859375
vt 0.5 0.0625
vt 0.5 0.0859375
vt 0.40625 0.0859375
vt 0.40625 0.0625
vt 0.40625 0.0625
vt 0.40625 0.0859375
vt 0.15625 0.0859375
vt 0.15625 0.0625
vt 0.75 0.0625
vt 0.75 0.0859375
vt 0.5 0.0859375
vt 0.5 0.0625
vt 0.5 0
vt 0.5 0.0625
vt 0.40625 0.0625
vt 0.40625 0
vt 0.5 0.0859375
vt 0.5 0.1484375
vt 0.40625 0.1484375
vt 0.40625 0.0859375
vt 0.5 0.0625
vt 0.5 0.0859375
vt 0.40625 0.0859375
vt 0.40625 0.0625
vt 0.125 0
vt 0.15625 0
vt 0.15625 0.625
vt 0.125 0.625
vt 0.125 0
vt 0.15625 0
vt 0.15625 0.625
vt 0.125 0.625
vt 0.125 0
vt 0.15625 0
vt 0.15625 0.625
vt 0.125 0.625
vt 0.125 0
vt 0.15625 0
vt 0.15625 0.625
vt 0.125 0.625
vt 0.125 0
vt 0.15625 0
vt 0.15625 0.625
vt 0.125 0.625
vt 0.125 0
vt 0.15625 0
vt 0.15625 0.625
vt 0.125 0.625
vt 0.125 0
vt 0.15625 0
vt 0.15625 0.625
vt 0.125 0.625
vt 0.125 0
vt 0.15625 0
vt 0.15625 0.625
vt 0.125 0.625
vt 0.125 0
vt 0.15625 0
vt 0.15625 0.625
vt 0.125 0.625
vt 0.125 0
vt 0.15625 0
vt 0.15625 0.625
vt 0.125 0.625
vt 0.125 0
vt 0.15625 0
vt 0.15625 0.625
vt 0.125 0.625
vt 0.125 0
vt 0.15625 0
vt 0.15625 0.625
vt 0.125 0.625
vn 1 0 0
vn -1 0 0
vn 0 1 0
vn 0 0 1
vn 0 0 -1
vn 1 0 0
vn -1 0 0
vn 0 1 0
vn 0 0 1
vn 0 0 -1
vn 1 0 0
vn -1 0 0
vn 0 1 0
vn 0 0 1
vn 0 0 -1
vn 1 0 0
vn -1 0 0
vn 0 1 0
vn 0 0 1
vn 0 0 -1
vn 1 0 0
vn -1 0 0
vn 0 1 0
vn 0 0 1
vn 0 0 -1
vn 1 0 0
vn -1 0 0
vn 0 1 0
vn 0 -1 0
vn 0 0 1
vn 0 0 -1
vn 1 0 0
vn -1 0 0
vn 0 1 0
vn 0 -1 0
vn 0 0 1
vn 0 0 -1
vn 1 0 0
vn -1 0 0
vn 0 1 0
vn 0 -1 0
vn 0 0 1
vn 0 0 -1
vn 1 0 0
vn -1 0 0
vn 0 1 0
vn 0 -1 0
vn 0 0 1
vn 0 0 -1
vn 1 0 0
vn -1 0 0
vn 0 1 0
vn 0 -1 0
vn 0 0 1
vn 0 0 -1
vn 1 0 0
vn -1 0 0
vn 0 1 0
vn 0 -1 0
vn 0 0 1
vn 2.220446049250313e-16 0 -1
vn -2.220446049250313e-16 0 1
vn 0 1 0
vn 0 -1 0
vn 1 0 0
vn -1 -2.96059473233375e-16 6.573840876841764e-32
vn 1 0 0
vn 0 1 -2.220446049250313e-16
vn 0 -1 1.1102230246251565e-16
vn 0 0 -1
vn 2.220446049250313e-16 0 1
vn -2.220446049250313e-16 0 -1
vn 0 1 0
vn 0 -1 0
vn -1 0 0
vn 0.49999999999999967 0 0.8660254037844388
vn 0.8660254037844387 0 0.5000000000000002
vn 1 0 0
vn 0.8660254037844388 0 -0.49999999999999967
vn 0.5000000000000003 0 -0.8660254037844385
vn 0 0 -1
vn -0.49999999999999933 0 -0.866025403784439
vn -0.8660254037844389 0 -0.4999999999999996
vn -1 0 0
vn -0.8660254037844388 0 0.49999999999999967
vn -0.5000000000000002 0 0.8660254037844387
vn 0 0 1
usemtl m_62d9c853-8489-5fe2-5f1a-34cc83c5015a
f 4/1/1 2/2/1 1/3/1
f 4/1/1 1/3/1 3/4/1
f 7/5/2 5/6/2 6/7/2
f 7/5/2 6/7/2 8/8/2
f 1/9/3 2/10/3 6/11/3
f 1/9/3 6/11/3 5/12/3
f 3/13/4 1/14/4 5/15/4
f 3/13/4 5/15/4 7/16/4
f 8/17/5 6/18/5 2/19/5
f 8/17/5 2/19/5 4/20/5
f 12/21/6 10/22/6 9/23/6
f 12/21/6 9/23/6 11/24/6
f 15/25/7 13/26/7 14/27/7
f 15/25/7 14/27/7 16/28/7
f 9/29/8 10/30/8 14/31/8
f 9/29/8 14/31/8 13/32/8
f 11/33/9 9/34/9 13/35/9
f 11/33/9 13/35/9 15/36/9
f 16/37/10 14/38/10 10/39/10
f 16/37/10 10/39/10 12/40/10
f 20/41/11 18/42/11 17/43/11
f 20/41/11 17/43/11 19/44/11
f 23/45/12 21/46/12 22/47/12
f 23/45/12 22/47/12 24/48/12
f 17/49/13 18/50/13 22/51/13
f 17/49/13 22/51/13 21/52/13
f 19/53/14 17/54/14 21/55/14
f 19/53/14 21/55/14 23/56/14
f 24/57/15 22/58/15 18/59/15
f 24/57/15 18/59/15 20/60/15
f 28/61/16 26/62/16 25/63/16
f 28/61/16 25/63/16 27/64/16
f 31/65/17 29/66/17 30/67/17
f 31/65/17 30/67/17 32/68/17
f 25/69/18 26/70/18 30/71/18
f 25/69/18 30/71/18 29/72/18
f 27/73/19 25/74/19 29/75/19
f 27/73/19 29/75/19 31/76/19
f 32/77/20 30/78/20 26/79/20
f 32/77/20 26/79/20 28/80/20
f 36/81/21 34/82/21 33/83/21
f 36/81/21 33/83/21 35/84/21
f 39/85/22 37/86/22 38/87/22
f 39/85/22 38/87/22 40/88/22
f 33/89/23 34/90/23 38/91/23
f 33/89/23 38/91/23 37/92/23
f 35/93/24 33/94/24 37/95/24
f 35/93/24 37/95/24 39/96/24
f 40/97/25 38/98/25 34/99/25
f 40/97/25 34/99/25 36/100/25
f 42/101/26 41/102/26 43/103/26
f 42/101/26 43/103/26 44/104/26
f 47/105/27 45/106/27 46/107/27
f 47/105/27 46/107/27 48/108/27
f 45/109/28 41/110/28 42/111/28
f 45/109/28 42/111/28 46/112/28
f 44/113/29 43/114/29 47/115/29
f 44/113/29 47/115/29 48/116/29
f 43/117/30 41/118/30 45/119/30
f 43/117/30 45/119/30 47/120/30
f 46/121/31 42/122/31 44/123/31
f 46/121/31 44/123/31 48/124/31
f 50/125/32 49/126/32 51/127/32
f 50/125/32 51/127/32 52/128/32
f 55/129/33 53/130/33 54/131/33
f 55/129/33 54/131/33 56/132/33
f 53/133/34 49/134/34 50/135/34
f 53/133/34 50/135/34 54/136/34
f 52/137/35 51/138/35 55/139/35
f 52/137/35 55/139/35 56/140/35
f 51/141/36 49/142/36 53/143/36
f 51/141/36 53/143/36 55/144/36
f 54/145/37 50/146/37 52/147/37
f 54/145/37 52/147/37 56/148/37
f 58/149/38 57/150/38 59/151/38
f 58/149/38 59/151/38 60/152/38
f 63/153/39 61/154/39 62/155/39
f 63/153/39 62/155/39 64/156/39
f 61/157/40 57/158/40 58/159/40
f 61/157/40 58/159/40 62/160/40
f 60/161/41 59/162/41 63/163/41
f 60/161/41 63/163/41 64/164/41
f 59/165/42 57/166/42 61/167/42
f 59/165/42 61/167/42 63/168/42
f 62/169/43 58/170/43 60/171/43
f 62/169/43 60/171/43 64/172/43
f 66/173/44 65/174/44 67/175/44
f 66/173/44 67/175/44 68/176/44
f 71/177/45 69/178/45 70/179/45
f 71/177/45 70/179/45 72/180/45
f 69/181/46 65/182/46 66/183/46
f 69/181/46 66/183/46 70/184/46
f 68/185/47 67/186/47 71/187/47
f 68/185/47 71/187/47 72/188/47
f 67/189/48 65/190/48 69/191/48
f 67/189/48 69/191/48 71/192/48
f 70/193/49 66/194/49 68/195/49
f 70/193/49 68/195/49 72/196/49
f 74/197/50 73/198/50 75/199/50
f 74/197/50 75/199/50 76/200/50
f 79/201/51 77/202/51 78/203/51
f 79/201/51 78/203/51 80/204/51
f 77/205/52 73/206/52 74/207/52
f 77/205/52 74/207/52 78/208/52
f 76/209/53 75/210/53 79/211/53
f 76/209/53 79/211/53 80/212/53
f 75/213/54 73/214/54 77/215/54
f 75/213/54 77/215/54 79/216/54
f 78/217/55 74/218/55 76/219/55
f 78/217/55 76/219/55 80/220/55
f 84/221/56 82/222/56 81/223/56
f 84/221/56 81/223/56 83/224/56
f 87/225/57 85/226/57 86/227/57
f 87/225/57 86/227/57 88/228/57
f 81/229/58 82/230/58 86/231/58
f 81/229/58 86/231/58 85/232/58
f 84/233/59 83/234/59 87/235/59
f 84/233/59 87/235/59 88/236/59
f 83/237/60 81/238/60 85/239/60
f 83/237/60 85/239/60 87/240/60
f 92/241/61 90/242/61 89/243/61
f 92/241/61 89/243/61 91/244/61
f 95/245/62 93/246/62 94/247/62
f 95/245/62 94/247/62 96/248/62
f 89/249/63 90/250/63 94/251/63
f 89/249/63 94/251/63 93/252/63
f 92/253/64 91/254/64 95/255/64
f 92/253/64 95/255/64 96/256/64
f 91/257/65 89/258/65 93/259/65
f 91/257/65 93/259/65 95/260/65
f 100/261/66 98/262/66 97/263/66
f 100/261/66 97/263/66 99/264/66
f 103/265/67 101/266/67 102/267/67
f 103/265/67 102/267/67 104/268/67
f 97/269/68 98/270/68 102/271/68
f 97/269/68 102/271/68 101/272/68
f 100/273/69 99/274/69 103/275/69
f 100/273/69 103/275/69 104/276/69
f 99/277/70 97/278/70 101/279/70
f 99/277/70 101/279/70 103/280/70
f 108/281/71 106/282/71 105/283/71
f 108/281/71 105/283/71 107/284/71
f 111/285/72 109/286/72 110/287/72
f 111/285/72 110/287/72 112/288/72
f 105/289/73 106/290/73 110/291/73
f 105/289/73 110/291/73 109/292/73
f 108/293/74 107/294/74 111/295/74
f 108/293/74 111/295/74 112/296/74
f 107/297/75 105/298/75 109/299/75
f 107/297/75 109/299/75 111/300/75
f 113/301/76 115/302/76 116/303/76
f 113/301/76 116/303/76 114/304/76
f 115/305/77 117/306/77 118/307/77
f 115/305/77 118/307/77 116/308/77
f 117/309/78 119/310/78 120/311/78
f 117/309/78 120/311/78 118/312/78
f 119/313/79 121/314/79 122/315/79
f 119/313/79 122/315/79 120/316/79
f 121/317/80 123/318/80 124/319/80
f 121/317/80 124/319/80 122/320/80
f 123/321/81 125/322/81 126/323/81
f 123/321/81 126/323/81 124/324/81
f 125/325/82 127/326/82 128/327/82
f 125/325/82 128/327/82 126/328/82
f 127/329/83 129/330/83 130/331/83
f 127/329/83 130/331/83 128/332/83
f 129/333/84 131/334/84 132/335/84
f 129/333/84 132/335/84 130/336/84
f 131/337/85 133/338/85 134/339/85
f 131/337/85 134/339/85 132/340/85
f 133/341/86 135/342/86 136/343/86
f 133/341/86 136/343/86 134/344/86
f 135/345/87 113/346/87 114/347/87
f 135/345/87 114/347/87 136/348/87