# Made in Blockbench 5.1.4

o Base
v 0.5 1 0.5
v 0.5 1 -0.5
v 0.5 0 0.5
v 0.5 0 -0.5
v -0.5 1 -0.5
v -0.5 1 0.5
v -0.5 0 -0.5
v -0.5 0 0.5
vt 0 0.25
vt 0.125 0.25
vt 0.125 0
vt 0 0
vt 0.375 0.25
vt 0.5 0.25
vt 0.5 0
vt 0.375 0
vt 0.25 0.25
vt 0.375 0.25
vt 0.375 0
vt 0.25 0
vt 0.125 0.25
vt 0.25 0.25
vt 0.25 0
vt 0.125 0
vt 0.5 0.25
vt 0.625 0.25
vt 0.625 0
vt 0.5 0
vt 0.625 0.25
vt 0.75 0.25
vt 0.75 0
vt 0.625 0
vn 0 0 -1
vn 1 0 0
vn 0 0 1
vn -1 0 0
vn 0 1 0
vn 0 -1 0

f 7/3/1 5/2/1 2/1/1
f 4/4/1 7/3/1 2/1/1
f 4/7/2 2/6/2 1/5/2
f 3/8/2 4/7/2 1/5/2
f 3/11/3 1/10/3 6/9/3
f 8/12/3 3/11/3 6/9/3
f 8/15/4 6/14/4 5/13/4
f 7/16/4 8/15/4 5/13/4
f 1/19/5 2/18/5 5/17/5
f 6/20/5 1/19/5 5/17/5
f 4/23/6 3/22/6 8/21/6
f 7/24/6 4/23/6 8/21/6

o Centrifuge1
v -0.3125 4.03125 -0.15625
v -0.3125 4.03125 -0.34375
v -0.3125 1 -0.15625
v -0.3125 1 -0.34375
v -0.5 4.03125 -0.34375
v -0.5 4.03125 -0.15625
v -0.5 1 -0.34375
v -0.5 1 -0.15625
vt 0.5078125 1
vt 0.53125 1
vt 0.53125 0.25
vt 0.5078125 0.25
vt 0.5390625 1
vt 0.5625 1
vt 0.5625 0.953125
vt 0.5390625 0.953125
vn -1 0 0
vn 0 1 0

f 16/27/7 14/26/7 13/25/7
f 15/28/7 16/27/7 13/25/7
f 9/31/8 10/30/8 13/29/8
f 14/32/8 9/31/8 13/29/8

v -0.03125000000000003 1 -0.1875
v -0.25 4.0625 -0.25
v -0.1875 1 -0.03125000000000003
v -0.1875 4 -0.03125000000000003
v -0.09375 1 -0.09375
v -0.09375 4 -0.09375
v -0.03125000000000003 4 -0.1875
v -0.03125000000000003 1 -0.3125
v -0.03125000000000003 4 -0.3125
v -0.09375 1 -0.40625
v -0.09375 4 -0.40625
v -0.1875 1 -0.46875
v -0.1875 4 -0.46875
v -0.3125 1 -0.46875
v -0.3125 4 -0.46875
v -0.40625 1 -0.40625
v -0.40625 4 -0.40625
v -0.46875 1 -0.3125
v -0.46875 4 -0.3125
v -0.46875 1 -0.1875
v -0.46875 4 -0.1875
v -0.40625 1 -0.09375
v -0.40625 4 -0.09375
v -0.3125 1 -0.03125000000000003
v -0.3125 4 -0.03125000000000003
vt 0.0390625 0.25
vt 0.0546875 0.25
vt 0.0546875 1
vt 0.0390625 1
vt 0.1015625 0.8828125
vt 0.11328125 0.8984375
vt 0.09375 0.9375
vt 0.0078125 0.25
vt 0.0234375 0.25
vt 0.0234375 1
vt 0.0078125 1
vt 0.11328125 0.8984375
vt 0.12109375 0.921875
vt 0.09375 0.9375
vt 0.0234375 0.25
vt 0.0390625 0.25
vt 0.0390625 1
vt 0.0234375 1
vt 0.12109375 0.921875
vt 0.12109375 0.953125
vt 0.09375 0.9375
vt 0.0390625 0.25
vt 0.0546875 0.25
vt 0.0546875 1
vt 0.0390625 1
vt 0.12109375 0.953125
vt 0.11328125 0.9765625
vt 0.09375 0.9375
vt 0.0078125 0.25
vt 0.0234375 0.25
vt 0.0234375 1
vt 0.0078125 1
vt 0.11328125 0.9765625
vt 0.1015625 0.9921875
vt 0.09375 0.9375
vt 0.0234375 0.25
vt 0.0390625 0.25
vt 0.0390625 1
vt 0.0234375 1
vt 0.1015625 0.9921875
vt 0.0859375 0.9921875
vt 0.09375 0.9375
vt 0.0390625 0.25
vt 0.0546875 0.25
vt 0.0546875 1
vt 0.0390625 1
vt 0.0859375 0.9921875
vt 0.07421875 0.9765625
vt 0.09375 0.9375
vt 0.0078125 0.25
vt 0.0234375 0.25
vt 0.0234375 1
vt 0.0078125 1
vt 0.07421875 0.9765625
vt 0.06640625 0.953125
vt 0.09375 0.9375
vt 0.0234375 0.25
vt 0.0390625 0.25
vt 0.0390625 1
vt 0.0234375 1
vt 0.06640625 0.953125
vt 0.06640625 0.921875
vt 0.09375 0.9375
vt 0.0390625 0.25
vt 0.0546875 0.25
vt 0.0546875 1
vt 0.0390625 1
vt 0.06640625 0.921875
vt 0.07421875 0.8984375
vt 0.09375 0.9375
vt 0.0078125 0.25
vt 0.0234375 0.25
vt 0.0234375 1
vt 0.0078125 1
vt 0.07421875 0.8984375
vt 0.0859375 0.8828125
vt 0.09375 0.9375
vt 0.0234375 0.25
vt 0.0390625 0.25
vt 0.0390625 1
vt 0.0234375 1
vt 0.0859375 0.8828125
vt 0.1015625 0.8828125
vt 0.09375 0.9375
vn 0.554700196225229 0 0.8320502943378439
vn 0.15373248840481754 0.9608280525301098 0.2305987326072264
vn 0.8320502943378439 0 0.554700196225229
vn 0.2305987326072264 0.9608280525301099 0.15373248840481754
vn 1 0 0
vn 0.27472112789737807 0.9615239476408232 0
vn 0.8320502943378439 0 -0.554700196225229
vn 0.2305987326072264 0.9608280525301098 -0.15373248840481754
vn 0.554700196225229 0 -0.8320502943378439
vn 0.15373248840481754 0.9608280525301099 -0.2305987326072264
vn 2.220446049250313e-16 0 -1
vn 6.100034430853231e-17 0.9615239476408232 -0.27472112789737807
vn -0.5547001962252291 0 -0.8320502943378438
vn -0.1537324884048176 0.96082805253011 -0.2305987326072264
vn -0.8320502943378439 0 -0.554700196225229
vn -0.2305987326072264 0.9608280525301099 -0.15373248840481754
vn -1 0 -2.220446049250313e-16
vn -0.27472112789737807 0.9615239476408232 -6.100034430853231e-17
vn -0.8320502943378438 0 0.5547001962252291
vn -0.2305987326072264 0.96082805253011 0.1537324884048176
vn -0.554700196225229 0 0.8320502943378439
vn -0.15373248840481754 0.9608280525301099 0.2305987326072264
vn 0 0 1
vn 0 0.9615239476408232 0.27472112789737807

f 19/33/9 21/34/9 22/35/9
f 19/33/9 22/35/9 20/36/9
f 20/37/10 22/38/10 18/39/10
f 21/40/11 17/41/11 23/42/11
f 21/40/11 23/42/11 22/43/11
f 22/44/12 23/45/12 18/46/12
f 17/47/13 24/48/13 25/49/13
f 17/47/13 25/49/13 23/50/13
f 23/51/14 25/52/14 18/53/14
f 24/54/15 26/55/15 27/56/15
f 24/54/15 27/56/15 25/57/15
f 25/58/16 27/59/16 18/60/16
f 26/61/17 28/62/17 29/63/17
f 26/61/17 29/63/17 27/64/17
f 27/65/18 29/66/18 18/67/18
f 28/68/19 30/69/19 31/70/19
f 28/68/19 31/70/19 29/71/19
f 29/72/20 31/73/20 18/74/20
f 30/75/21 32/76/21 33/77/21
f 30/75/21 33/77/21 31/78/21
f 31/79/22 33/80/22 18/81/22
f 32/82/23 34/83/23 35/84/23
f 32/82/23 35/84/23 33/85/23
f 33/86/24 35/87/24 18/88/24
f 34/89/25 36/90/25 37/91/25
f 34/89/25 37/91/25 35/92/25
f 35/93/26 37/94/26 18/95/26
f 36/96/27 38/97/27 39/98/27
f 36/96/27 39/98/27 37/99/27
f 37/100/28 39/101/28 18/102/28
f 38/103/29 40/104/29 41/105/29
f 38/103/29 41/105/29 39/106/29
f 39/107/30 41/108/30 18/109/30
f 40/110/31 19/111/31 20/112/31
f 40/110/31 20/112/31 41/113/31
f 41/114/32 20/115/32 18/116/32

o Centrifuge2
v -0.03125000000000003 1 0.3125
v -0.25 4.0625 0.25
v -0.1875 1 0.46875
v -0.1875 4 0.46875
v -0.09375 1 0.40625
v -0.09375 4 0.40625
v -0.03125000000000003 4 0.3125
v -0.03125000000000003 1 0.1875
v -0.03125000000000003 4 0.1875
v -0.09375 1 0.09375
v -0.09375 4 0.09375
v -0.1875 1 0.03125000000000003
v -0.1875 4 0.03125000000000003
v -0.3125 1 0.03125
v -0.3125 4 0.03125
v -0.40625 1 0.09375
v -0.40625 4 0.09375
v -0.46875 1 0.1875
v -0.46875 4 0.1875
v -0.46875 1 0.3125
v -0.46875 4 0.3125
v -0.40625 1 0.40625
v -0.40625 4 0.40625
v -0.3125 1 0.46875
v -0.3125 4 0.46875
vt 0.0390625 0.25
vt 0.0546875 0.25
vt 0.0546875 1
vt 0.0390625 1
vt 0.1015625 0.8828125
vt 0.11328125 0.8984375
vt 0.09375 0.9375
vt 0.0078125 0.25
vt 0.0234375 0.25
vt 0.0234375 1
vt 0.0078125 1
vt 0.11328125 0.8984375
vt 0.12109375 0.921875
vt 0.09375 0.9375
vt 0.0234375 0.25
vt 0.0390625 0.25
vt 0.0390625 1
vt 0.0234375 1
vt 0.12109375 0.921875
vt 0.12109375 0.953125
vt 0.09375 0.9375
vt 0.0390625 0.25
vt 0.0546875 0.25
vt 0.0546875 1
vt 0.0390625 1
vt 0.12109375 0.953125
vt 0.11328125 0.9765625
vt 0.09375 0.9375
vt 0.0078125 0.25
vt 0.0234375 0.25
vt 0.0234375 1
vt 0.0078125 1
vt 0.11328125 0.9765625
vt 0.1015625 0.9921875
vt 0.09375 0.9375
vt 0.0234375 0.25
vt 0.0390625 0.25
vt 0.0390625 1
vt 0.0234375 1
vt 0.1015625 0.9921875
vt 0.0859375 0.9921875
vt 0.09375 0.9375
vt 0.0390625 0.25
vt 0.0546875 0.25
vt 0.0546875 1
vt 0.0390625 1
vt 0.0859375 0.9921875
vt 0.07421875 0.9765625
vt 0.09375 0.9375
vt 0.0078125 0.25
vt 0.0234375 0.25
vt 0.0234375 1
vt 0.0078125 1
vt 0.07421875 0.9765625
vt 0.06640625 0.953125
vt 0.09375 0.9375
vt 0.0234375 0.25
vt 0.0390625 0.25
vt 0.0390625 1
vt 0.0234375 1
vt 0.06640625 0.953125
vt 0.06640625 0.921875
vt 0.09375 0.9375
vt 0.0390625 0.25
vt 0.0546875 0.25
vt 0.0546875 1
vt 0.0390625 1
vt 0.06640625 0.921875
vt 0.07421875 0.8984375
vt 0.09375 0.9375
vt 0.0078125 0.25
vt 0.0234375 0.25
vt 0.0234375 1
vt 0.0078125 1
vt 0.07421875 0.8984375
vt 0.0859375 0.8828125
vt 0.09375 0.9375
vt 0.0234375 0.25
vt 0.0390625 0.25
vt 0.0390625 1
vt 0.0234375 1
vt 0.0859375 0.8828125
vt 0.1015625 0.8828125
vt 0.09375 0.9375
vn 0.554700196225229 0 0.8320502943378439
vn 0.15373248840481754 0.9608280525301098 0.2305987326072264
vn 0.8320502943378439 0 0.554700196225229
vn 0.2305987326072264 0.9608280525301099 0.15373248840481754
vn 1 0 0
vn 0.27472112789737807 0.9615239476408232 0
vn 0.8320502943378439 0 -0.554700196225229
vn 0.2305987326072264 0.9608280525301098 -0.15373248840481754
vn 0.554700196225229 0 -0.8320502943378439
vn 0.15373248840481754 0.9608280525301099 -0.2305987326072264
vn 2.220446049250313e-16 0 -1
vn 6.100034430853231e-17 0.9615239476408232 -0.27472112789737807
vn -0.5547001962252291 0 -0.8320502943378438
vn -0.1537324884048176 0.96082805253011 -0.2305987326072264
vn -0.8320502943378439 0 -0.554700196225229
vn -0.2305987326072264 0.9608280525301099 -0.15373248840481754
vn -1 0 -2.220446049250313e-16
vn -0.27472112789737807 0.9615239476408232 -6.100034430853231e-17
vn -0.8320502943378438 0 0.5547001962252291
vn -0.2305987326072264 0.96082805253011 0.1537324884048176
vn -0.554700196225229 0 0.8320502943378439
vn -0.15373248840481754 0.9608280525301099 0.2305987326072264
vn 0 0 1
vn 0 0.9615239476408232 0.27472112789737807

f 44/117/33 46/118/33 47/119/33
f 44/117/33 47/119/33 45/120/33
f 45/121/34 47/122/34 43/123/34
f 46/124/35 42/125/35 48/126/35
f 46/124/35 48/126/35 47/127/35
f 47/128/36 48/129/36 43/130/36
f 42/131/37 49/132/37 50/133/37
f 42/131/37 50/133/37 48/134/37
f 48/135/38 50/136/38 43/137/38
f 49/138/39 51/139/39 52/140/39
f 49/138/39 52/140/39 50/141/39
f 50/142/40 52/143/40 43/144/40
f 51/145/41 53/146/41 54/147/41
f 51/145/41 54/147/41 52/148/41
f 52/149/42 54/150/42 43/151/42
f 53/152/43 55/153/43 56/154/43
f 53/152/43 56/154/43 54/155/43
f 54/156/44 56/157/44 43/158/44
f 55/159/45 57/160/45 58/161/45
f 55/159/45 58/161/45 56/162/45
f 56/163/46 58/164/46 43/165/46
f 57/166/47 59/167/47 60/168/47
f 57/166/47 60/168/47 58/169/47
f 58/170/48 60/171/48 43/172/48
f 59/173/49 61/174/49 62/175/49
f 59/173/49 62/175/49 60/176/49
f 60/177/50 62/178/50 43/179/50
f 61/180/51 63/181/51 64/182/51
f 61/180/51 64/182/51 62/183/51
f 62/184/52 64/185/52 43/186/52
f 63/187/53 65/188/53 66/189/53
f 63/187/53 66/189/53 64/190/53
f 64/191/54 66/192/54 43/193/54
f 65/194/55 44/195/55 45/196/55
f 65/194/55 45/196/55 66/197/55
f 66/198/56 45/199/56 43/200/56

v -0.3125 4.03125 0.34375
v -0.3125 4.03125 0.15625
v -0.3125 1 0.34375
v -0.3125 1 0.15625
v -0.5 4.03125 0.15625
v -0.5 4.03125 0.34375
v -0.5 1 0.15625
v -0.5 1 0.34375
vt 0.5078125 1
vt 0.53125 1
vt 0.53125 0.25
vt 0.5078125 0.25
vt 0.5390625 1
vt 0.5625 1
vt 0.5625 0.953125
vt 0.5390625 0.953125
vn -1 0 0
vn 0 1 0

f 74/203/57 72/202/57 71/201/57
f 73/204/57 74/203/57 71/201/57
f 67/207/58 68/206/58 71/205/58
f 72/208/58 67/207/58 71/205/58

o Centrifuge3
v 0.5 4.03125 -0.15625
v 0.5 4.03125 -0.34375
v 0.5 1 -0.15625
v 0.5 1 -0.34375
v 0.3125 4.03125 -0.34375
v 0.3125 4.03125 -0.15625
v 0.3125 1 -0.34375
v 0.3125 1 -0.15625
vt 0.5078125 1
vt 0.53125 1
vt 0.53125 0.25
vt 0.5078125 0.25
vt 0.5390625 1
vt 0.5625 1
vt 0.5625 0.953125
vt 0.5390625 0.953125
vn 1 0 0
vn 0 1 0

f 78/211/59 76/210/59 75/209/59
f 77/212/59 78/211/59 75/209/59
f 75/215/60 76/214/60 79/213/60
f 80/216/60 75/215/60 79/213/60

v 0.46875 1 0.3125
v 0.25 4.0625 0.25
v 0.3125 1 0.46875
v 0.3125 4 0.46875
v 0.40625 1 0.40625
v 0.40625 4 0.40625
v 0.46875 4 0.3125
v 0.46875 1 0.1875
v 0.46875 4 0.1875
v 0.40625 1 0.09375
v 0.40625 4 0.09375
v 0.3125 1 0.03125000000000003
v 0.3125 4 0.03125000000000003
v 0.1875 1 0.03125
v 0.1875 4 0.03125
v 0.09375 1 0.09375
v 0.09375 4 0.09375
v 0.03125000000000003 1 0.1875
v 0.03125000000000003 4 0.1875
v 0.03125 1 0.3125
v 0.03125 4 0.3125
v 0.09375 1 0.40625
v 0.09375 4 0.40625
v 0.1875 1 0.46875
v 0.1875 4 0.46875
vt 0.0390625 0.25
vt 0.0546875 0.25
vt 0.0546875 1
vt 0.0390625 1
vt 0.1015625 0.8828125
vt 0.11328125 0.8984375
vt 0.09375 0.9375
vt 0.0078125 0.25
vt 0.0234375 0.25
vt 0.0234375 1
vt 0.0078125 1
vt 0.11328125 0.8984375
vt 0.12109375 0.921875
vt 0.09375 0.9375
vt 0.0234375 0.25
vt 0.0390625 0.25
vt 0.0390625 1
vt 0.0234375 1
vt 0.12109375 0.921875
vt 0.12109375 0.953125
vt 0.09375 0.9375
vt 0.0390625 0.25
vt 0.0546875 0.25
vt 0.0546875 1
vt 0.0390625 1
vt 0.12109375 0.953125
vt 0.11328125 0.9765625
vt 0.09375 0.9375
vt 0.0078125 0.25
vt 0.0234375 0.25
vt 0.0234375 1
vt 0.0078125 1
vt 0.11328125 0.9765625
vt 0.1015625 0.9921875
vt 0.09375 0.9375
vt 0.0234375 0.25
vt 0.0390625 0.25
vt 0.0390625 1
vt 0.0234375 1
vt 0.1015625 0.9921875
vt 0.0859375 0.9921875
vt 0.09375 0.9375
vt 0.0390625 0.25
vt 0.0546875 0.25
vt 0.0546875 1
vt 0.0390625 1
vt 0.0859375 0.9921875
vt 0.07421875 0.9765625
vt 0.09375 0.9375
vt 0.0078125 0.25
vt 0.0234375 0.25
vt 0.0234375 1
vt 0.0078125 1
vt 0.07421875 0.9765625
vt 0.06640625 0.953125
vt 0.09375 0.9375
vt 0.0234375 0.25
vt 0.0390625 0.25
vt 0.0390625 1
vt 0.0234375 1
vt 0.06640625 0.953125
vt 0.06640625 0.921875
vt 0.09375 0.9375
vt 0.0390625 0.25
vt 0.0546875 0.25
vt 0.0546875 1
vt 0.0390625 1
vt 0.06640625 0.921875
vt 0.07421875 0.8984375
vt 0.09375 0.9375
vt 0.0078125 0.25
vt 0.0234375 0.25
vt 0.0234375 1
vt 0.0078125 1
vt 0.07421875 0.8984375
vt 0.0859375 0.8828125
vt 0.09375 0.9375
vt 0.0234375 0.25
vt 0.0390625 0.25
vt 0.0390625 1
vt 0.0234375 1
vt 0.0859375 0.8828125
vt 0.1015625 0.8828125
vt 0.09375 0.9375
vn 0.554700196225229 0 0.8320502943378439
vn 0.15373248840481754 0.9608280525301098 0.2305987326072264
vn 0.8320502943378439 0 0.554700196225229
vn 0.2305987326072264 0.9608280525301099 0.15373248840481754
vn 1 0 0
vn 0.27472112789737807 0.9615239476408232 0
vn 0.8320502943378439 0 -0.554700196225229
vn 0.2305987326072264 0.9608280525301098 -0.15373248840481754
vn 0.554700196225229 0 -0.8320502943378439
vn 0.15373248840481754 0.9608280525301099 -0.2305987326072264
vn 2.220446049250313e-16 0 -1
vn 6.100034430853231e-17 0.9615239476408232 -0.27472112789737807
vn -0.5547001962252291 0 -0.8320502943378438
vn -0.1537324884048176 0.96082805253011 -0.2305987326072264
vn -0.8320502943378439 0 -0.554700196225229
vn -0.2305987326072264 0.9608280525301099 -0.15373248840481754
vn -1 0 -2.220446049250313e-16
vn -0.27472112789737807 0.9615239476408232 -6.100034430853231e-17
vn -0.8320502943378438 0 0.5547001962252291
vn -0.2305987326072264 0.96082805253011 0.1537324884048176
vn -0.554700196225229 0 0.8320502943378439
vn -0.15373248840481754 0.9608280525301099 0.2305987326072264
vn 0 0 1
vn 0 0.9615239476408232 0.27472112789737807

f 85/217/61 87/218/61 88/219/61
f 85/217/61 88/219/61 86/220/61
f 86/221/62 88/222/62 84/223/62
f 87/224/63 83/225/63 89/226/63
f 87/224/63 89/226/63 88/227/63
f 88/228/64 89/229/64 84/230/64
f 83/231/65 90/232/65 91/233/65
f 83/231/65 91/233/65 89/234/65
f 89/235/66 91/236/66 84/237/66
f 90/238/67 92/239/67 93/240/67
f 90/238/67 93/240/67 91/241/67
f 91/242/68 93/243/68 84/244/68
f 92/245/69 94/246/69 95/247/69
f 92/245/69 95/247/69 93/248/69
f 93/249/70 95/250/70 84/251/70
f 94/252/71 96/253/71 97/254/71
f 94/252/71 97/254/71 95/255/71
f 95/256/72 97/257/72 84/258/72
f 96/259/73 98/260/73 99/261/73
f 96/259/73 99/261/73 97/262/73
f 97/263/74 99/264/74 84/265/74
f 98/266/75 100/267/75 101/268/75
f 98/266/75 101/268/75 99/269/75
f 99/270/76 101/271/76 84/272/76
f 100/273/77 102/274/77 103/275/77
f 100/273/77 103/275/77 101/276/77
f 101/277/78 103/278/78 84/279/78
f 102/280/79 104/281/79 105/282/79
f 102/280/79 105/282/79 103/283/79
f 103/284/80 105/285/80 84/286/80
f 104/287/81 106/288/81 107/289/81
f 104/287/81 107/289/81 105/290/81
f 105/291/82 107/292/82 84/293/82
f 106/294/83 85/295/83 86/296/83
f 106/294/83 86/296/83 107/297/83
f 107/298/84 86/299/84 84/300/84

o Centrifuge4
v 0.5 4.03125 0.34375
v 0.5 4.03125 0.15625
v 0.5 1 0.34375
v 0.5 1 0.15625
v 0.3125 4.03125 0.15625
v 0.3125 4.03125 0.34375
v 0.3125 1 0.15625
v 0.3125 1 0.34375
vt 0.5078125 1
vt 0.53125 1
vt 0.53125 0.25
vt 0.5078125 0.25
vt 0.5390625 1
vt 0.5625 1
vt 0.5625 0.953125
vt 0.5390625 0.953125
vn 1 0 0
vn 0 1 0

f 111/303/85 109/302/85 108/301/85
f 110/304/85 111/303/85 108/301/85
f 108/307/86 109/306/86 112/305/86
f 113/308/86 108/307/86 112/305/86

v 0.46875 1 -0.1875
v 0.25 4.0625 -0.25
v 0.3125 1 -0.03125000000000003
v 0.3125 4 -0.03125000000000003
v 0.40625 1 -0.09375
v 0.40625 4 -0.09375
v 0.46875 4 -0.1875
v 0.46875 1 -0.3125
v 0.46875 4 -0.3125
v 0.40625 1 -0.40625
v 0.40625 4 -0.40625
v 0.3125 1 -0.46875
v 0.3125 4 -0.46875
v 0.1875 1 -0.46875
v 0.1875 4 -0.46875
v 0.09375 1 -0.40625
v 0.09375 4 -0.40625
v 0.03125000000000003 1 -0.3125
v 0.03125000000000003 4 -0.3125
v 0.03125 1 -0.1875
v 0.03125 4 -0.1875
v 0.09375 1 -0.09375
v 0.09375 4 -0.09375
v 0.1875 1 -0.03125000000000003
v 0.1875 4 -0.03125000000000003
vt 0.0390625 0.25
vt 0.0546875 0.25
vt 0.0546875 1
vt 0.0390625 1
vt 0.1015625 0.8828125
vt 0.11328125 0.8984375
vt 0.09375 0.9375
vt 0.0078125 0.25
vt 0.0234375 0.25
vt 0.0234375 1
vt 0.0078125 1
vt 0.11328125 0.8984375
vt 0.12109375 0.921875
vt 0.09375 0.9375
vt 0.0234375 0.25
vt 0.0390625 0.25
vt 0.0390625 1
vt 0.0234375 1
vt 0.12109375 0.921875
vt 0.12109375 0.953125
vt 0.09375 0.9375
vt 0.0390625 0.25
vt 0.0546875 0.25
vt 0.0546875 1
vt 0.0390625 1
vt 0.12109375 0.953125
vt 0.11328125 0.9765625
vt 0.09375 0.9375
vt 0.0078125 0.25
vt 0.0234375 0.25
vt 0.0234375 1
vt 0.0078125 1
vt 0.11328125 0.9765625
vt 0.1015625 0.9921875
vt 0.09375 0.9375
vt 0.0234375 0.25
vt 0.0390625 0.25
vt 0.0390625 1
vt 0.0234375 1
vt 0.1015625 0.9921875
vt 0.0859375 0.9921875
vt 0.09375 0.9375
vt 0.0390625 0.25
vt 0.0546875 0.25
vt 0.0546875 1
vt 0.0390625 1
vt 0.0859375 0.9921875
vt 0.07421875 0.9765625
vt 0.09375 0.9375
vt 0.0078125 0.25
vt 0.0234375 0.25
vt 0.0234375 1
vt 0.0078125 1
vt 0.07421875 0.9765625
vt 0.06640625 0.953125
vt 0.09375 0.9375
vt 0.0234375 0.25
vt 0.0390625 0.25
vt 0.0390625 1
vt 0.0234375 1
vt 0.06640625 0.953125
vt 0.06640625 0.921875
vt 0.09375 0.9375
vt 0.0390625 0.25
vt 0.0546875 0.25
vt 0.0546875 1
vt 0.0390625 1
vt 0.06640625 0.921875
vt 0.07421875 0.8984375
vt 0.09375 0.9375
vt 0.0078125 0.25
vt 0.0234375 0.25
vt 0.0234375 1
vt 0.0078125 1
vt 0.07421875 0.8984375
vt 0.0859375 0.8828125
vt 0.09375 0.9375
vt 0.0234375 0.25
vt 0.0390625 0.25
vt 0.0390625 1
vt 0.0234375 1
vt 0.0859375 0.8828125
vt 0.1015625 0.8828125
vt 0.09375 0.9375
vn 0.554700196225229 0 0.8320502943378439
vn 0.15373248840481754 0.9608280525301098 0.2305987326072264
vn 0.8320502943378439 0 0.554700196225229
vn 0.2305987326072264 0.9608280525301099 0.15373248840481754
vn 1 0 0
vn 0.27472112789737807 0.9615239476408232 0
vn 0.8320502943378439 0 -0.554700196225229
vn 0.2305987326072264 0.9608280525301098 -0.15373248840481754
vn 0.554700196225229 0 -0.8320502943378439
vn 0.15373248840481754 0.9608280525301099 -0.2305987326072264
vn 2.220446049250313e-16 0 -1
vn 6.100034430853231e-17 0.9615239476408232 -0.27472112789737807
vn -0.5547001962252291 0 -0.8320502943378438
vn -0.1537324884048176 0.96082805253011 -0.2305987326072264
vn -0.8320502943378439 0 -0.554700196225229
vn -0.2305987326072264 0.9608280525301099 -0.15373248840481754
vn -1 0 -2.220446049250313e-16
vn -0.27472112789737807 0.9615239476408232 -6.100034430853231e-17
vn -0.8320502943378438 0 0.5547001962252291
vn -0.2305987326072264 0.96082805253011 0.1537324884048176
vn -0.554700196225229 0 0.8320502943378439
vn -0.15373248840481754 0.9608280525301099 0.2305987326072264
vn 0 0 1
vn 0 0.9615239476408232 0.27472112789737807

f 118/309/87 120/310/87 121/311/87
f 118/309/87 121/311/87 119/312/87
f 119/313/88 121/314/88 117/315/88
f 120/316/89 116/317/89 122/318/89
f 120/316/89 122/318/89 121/319/89
f 121/320/90 122/321/90 117/322/90
f 116/323/91 123/324/91 124/325/91
f 116/323/91 124/325/91 122/326/91
f 122/327/92 124/328/92 117/329/92
f 123/330/93 125/331/93 126/332/93
f 123/330/93 126/332/93 124/333/93
f 124/334/94 126/335/94 117/336/94
f 125/337/95 127/338/95 128/339/95
f 125/337/95 128/339/95 126/340/95
f 126/341/96 128/342/96 117/343/96
f 127/344/97 129/345/97 130/346/97
f 127/344/97 130/346/97 128/347/97
f 128/348/98 130/349/98 117/350/98
f 129/351/99 131/352/99 132/353/99
f 129/351/99 132/353/99 130/354/99
f 130/355/100 132/356/100 117/357/100
f 131/358/101 133/359/101 134/360/101
f 131/358/101 134/360/101 132/361/101
f 132/362/102 134/363/102 117/364/102
f 133/365/103 135/366/103 136/367/103
f 133/365/103 136/367/103 134/368/103
f 134/369/104 136/370/104 117/371/104
f 135/372/105 137/373/105 138/374/105
f 135/372/105 138/374/105 136/375/105
f 136/376/106 138/377/106 117/378/106
f 137/379/107 139/380/107 140/381/107
f 137/379/107 140/381/107 138/382/107
f 138/383/108 140/384/108 117/385/108
f 139/386/109 118/387/109 119/388/109
f 139/386/109 119/388/109 140/389/109
f 140/390/110 119/391/110 117/392/110