# Made in Blockbench 5.2.1
mtllib manufactory.mtl

o FlatShading
v -0.875 0.625 -1.1875
v -0.8125 0.6875 -1.5
v -0.875 0.375 -1.1875
v -0.8125 0.3125 -1.5
v -1.125 0.625 -1.1875
v -1.1875 0.6875 -1.5
v -1.125 0.375 -1.1875
v -1.1875 0.3125 -1.5
v 1.5 0.6875 0.1875
v 1.5 0.6875 -0.1875
v 1.5 0.3125 0.1875
v 1.5 0.3125 -0.1875
v 1.1875 0.625 0.125
v 1.1875 0.625 -0.125
v 1.1875 0.375 0.125
v 1.1875 0.375 -0.125
v 1.5 0.6875 -0.8125
v 1.5 0.6875 -1.1875
v 1.5 0.3125 -0.8125
v 1.5 0.3125 -1.1875
v 1.1875 0.625 -0.875
v 1.1875 0.625 -1.125
v 1.1875 0.375 -0.875
v 1.1875 0.375 -1.125
v 1.5 0.6875 1.1875
v 1.5 0.6875 0.8125
v 1.5 0.3125 1.1875
v 1.5 0.3125 0.8125
v 1.1875 0.625 1.125
v 1.1875 0.625 0.875
v 1.1875 0.375 1.125
v 1.1875 0.375 0.875
v -1.1875 0.625 1.125
v -1.1875 0.625 0.875
v -1.1875 0.375 1.125
v -1.1875 0.375 0.875
v -1.5 0.6875 1.1875
v -1.5 0.6875 0.8125
v -1.5 0.3125 1.1875
v -1.5 0.3125 0.8125
v -1.1875 0.625 0.125
v -1.1875 0.625 -0.125
v -1.1875 0.375 0.125
v -1.1875 0.375 -0.125
v -1.5 0.6875 0.1875
v -1.5 0.6875 -0.1875
v -1.5 0.3125 0.1875
v -1.5 0.3125 -0.1875
v -1.1875 0.625 -0.875
v -1.1875 0.625 -1.125
v -1.1875 0.375 -0.875
v -1.1875 0.375 -1.125
v -1.5 0.6875 -0.8125
v -1.5 0.6875 -1.1875
v -1.5 0.3125 -0.8125
v -1.5 0.3125 -1.1875
v 1.1875 0.6875 1.5
v 1.125 0.625 1.1875
v 1.1875 0.3125 1.5
v 1.125 0.375 1.1875
v 0.8125 0.6875 1.5
v 0.875 0.625 1.1875
v 0.8125 0.3125 1.5
v 0.875 0.375 1.1875
v 0.1875 0.6875 1.5
v 0.125 0.625 1.1875
v 0.1875 0.3125 1.5
v 0.125 0.375 1.1875
v -0.1875 0.6875 1.5
v -0.125 0.625 1.1875
v -0.1875 0.3125 1.5
v -0.125 0.375 1.1875
v -0.8125 0.6875 1.5
v -0.875 0.625 1.1875
v -0.8125 0.3125 1.5
v -0.875 0.375 1.1875
v -1.1875 0.6875 1.5
v -1.125 0.625 1.1875
v -1.1875 0.3125 1.5
v -1.125 0.375 1.1875
v 1.125 0.625 -1.1875
v 1.1875 0.6875 -1.5
v 1.125 0.375 -1.1875
v 1.1875 0.3125 -1.5
v 0.875 0.625 -1.1875
v 0.8125 0.6875 -1.5
v 0.875 0.375 -1.1875
v 0.8125 0.3125 -1.5
v 0.125 0.625 -1.1875
v 0.1875 0.6875 -1.5
v 0.125 0.375 -1.1875
v 0.1875 0.3125 -1.5
v -0.125 0.625 -1.1875
v -0.1875 0.6875 -1.5
v -0.125 0.375 -1.1875
v -0.1875 0.3125 -1.5
v 1.1875 0.75 1.1875
v 1.1875 0.75 -1.1875
v 1.1875 0.25 1.1875
v 1.1875 0.25 -1.1875
v -1.1875 0.75 1.1875
v -1.1875 0.75 -1.1875
v -1.1875 0.25 1.1875
v -1.1875 0.25 -1.1875
v 1.1875 3 1.1875
v 1.1875 3 -1.1875
v 1.1875 2.75 1.1875
v 1.1875 2.75 -1.1875
v -1.1875 3 1.1875
v -1.1875 3 -1.1875
v -1.1875 2.75 1.1875
v -1.1875 2.75 -1.1875
v -0.4375 0.25 1.25
v -0.4375 0.25 -1.25
v -0.4375 0.125 1.25
v -0.4375 0.125 -1.25
v -0.5625 0.25 1.25
v -0.5625 0.25 -1.25
v -0.5625 0.125 1.25
v -0.5625 0.125 -1.25
v 0.5625 0.25 1.25
v 0.5625 0.25 -1.25
v 0.5625 0.125 1.25
v 0.5625 0.125 -1.25
v 0.4375 0.25 1.25
v 0.4375 0.25 -1.25
v 0.4375 0.125 1.25
v 0.4375 0.125 -1.25
v 1.5 0.25 1.5
v 1.5 0.25 -1.5
v 1.5 0 1.5
v 1.5 0 -1.5
v -1.5 0.25 1.5
v -1.5 0.25 -1.5
v -1.5 0 1.5
v -1.5 0 -1.5
v -1.25 0.25 -1.25
v 1.25 0.25 -1.25
v 1.25 0.25 1.25
v -1.25 0.25 1.25
v -1.25 0 1.25
v 1.25 0 1.25
v 1.25 0 -1.25
v -1.25 0 -1.25
v 1.125 1.75 0.875
v 1.125 1.75 -0.875
v 1.125 0.75 0.875
v 1.125 0.75 -0.875
v -1.125 1.75 0.875
v -1.125 1.75 -0.875
v -1.125 0.75 0.875
v -1.125 0.75 -0.875
v 0.875 1.75 -1.125
v 0.875 0.75 -1.125
v -0.875 1.75 -1.125
v -0.875 0.75 -1.125
v 0.875 1.75 1.125
v 0.875 0.75 1.125
v -0.875 1.75 1.125
v -0.875 0.75 1.125
vt 0.01953125 0.77734375
vt 0 0.7734375
vt 0 0.7578125
vt 0.01953125 0.75390625
vt 0.0625 0.7578125
vt 0.0625 0.7734375
vt 0.04296875 0.77734375
vt 0.04296875 0.75390625
vt 0.0234375 0.734375
vt 0.0390625 0.734375
vt 0.04296875 0.75390625
vt 0.01953125 0.75390625
vt 0.04296875 0.77734375
vt 0.0390625 0.796875
vt 0.0234375 0.796875
vt 0.01953125 0.77734375
vt 0.04296875 0.77734375
vt 0.01953125 0.77734375
vt 0.01953125 0.75390625
vt 0.04296875 0.75390625
vt 0.04296875 0.77734375
vt 0.01953125 0.77734375
vt 0.01953125 0.75390625
vt 0.04296875 0.75390625
vt 0.0390625 0.734375
vt 0.04296875 0.75390625
vt 0.01953125 0.75390625
vt 0.0234375 0.734375
vt 0.01953125 0.77734375
vt 0.04296875 0.77734375
vt 0.0390625 0.796875
vt 0.0234375 0.796875
vt 0.01953125 0.75390625
vt 0.01953125 0.77734375
vt 0 0.7734375
vt 0 0.7578125
vt 0.0625 0.7734375
vt 0.04296875 0.77734375
vt 0.04296875 0.75390625
vt 0.0625 0.7578125
vt 0.04296875 0.77734375
vt 0.01953125 0.77734375
vt 0.01953125 0.75390625
vt 0.04296875 0.75390625
vt 0.0390625 0.734375
vt 0.04296875 0.75390625
vt 0.01953125 0.75390625
vt 0.0234375 0.734375
vt 0.01953125 0.77734375
vt 0.04296875 0.77734375
vt 0.0390625 0.796875
vt 0.0234375 0.796875
vt 0.01953125 0.75390625
vt 0.01953125 0.77734375
vt 0 0.7734375
vt 0 0.7578125
vt 0.0625 0.7734375
vt 0.04296875 0.77734375
vt 0.04296875 0.75390625
vt 0.0625 0.7578125
vt 0.04296875 0.77734375
vt 0.01953125 0.77734375
vt 0.01953125 0.75390625
vt 0.04296875 0.75390625
vt 0.0390625 0.734375
vt 0.04296875 0.75390625
vt 0.01953125 0.75390625
vt 0.0234375 0.734375
vt 0.01953125 0.77734375
vt 0.04296875 0.77734375
vt 0.0390625 0.796875
vt 0.0234375 0.796875
vt 0.01953125 0.75390625
vt 0.01953125 0.77734375
vt 0 0.7734375
vt 0 0.7578125
vt 0.0625 0.7734375
vt 0.04296875 0.77734375
vt 0.04296875 0.75390625
vt 0.0625 0.7578125
vt 0.04296875 0.75390625
vt 0.04296875 0.77734375
vt 0.01953125 0.77734375
vt 0.01953125 0.75390625
vt 0.01953125 0.75390625
vt 0.0234375 0.734375
vt 0.0390625 0.734375
vt 0.04296875 0.75390625
vt 0.0390625 0.796875
vt 0.0234375 0.796875
vt 0.01953125 0.77734375
vt 0.04296875 0.77734375
vt 0.0625 0.7578125
vt 0.0625 0.7734375
vt 0.04296875 0.77734375
vt 0.04296875 0.75390625
vt 0.01953125 0.77734375
vt 0 0.7734375
vt 0 0.7578125
vt 0.01953125 0.75390625
vt 0.04296875 0.75390625
vt 0.04296875 0.77734375
vt 0.01953125 0.77734375
vt 0.01953125 0.75390625
vt 0.01953125 0.75390625
vt 0.0234375 0.734375
vt 0.0390625 0.734375
vt 0.04296875 0.75390625
vt 0.0390625 0.796875
vt 0.0234375 0.796875
vt 0.01953125 0.77734375
vt 0.04296875 0.77734375
vt 0.0625 0.7578125
vt 0.0625 0.7734375
vt 0.04296875 0.77734375
vt 0.04296875 0.75390625
vt 0.01953125 0.77734375
vt 0 0.7734375
vt 0 0.7578125
vt 0.01953125 0.75390625
vt 0.04296875 0.75390625
vt 0.04296875 0.77734375
vt 0.01953125 0.77734375
vt 0.01953125 0.75390625
vt 0.01953125 0.75390625
vt 0.0234375 0.734375
vt 0.0390625 0.734375
vt 0.04296875 0.75390625
vt 0.0390625 0.796875
vt 0.0234375 0.796875
vt 0.01953125 0.77734375
vt 0.04296875 0.77734375
vt 0.0625 0.7578125
vt 0.0625 0.7734375
vt 0.04296875 0.77734375
vt 0.04296875 0.75390625
vt 0.01953125 0.77734375
vt 0 0.7734375
vt 0 0.7578125
vt 0.01953125 0.75390625
vt 0.0625 0.7734375
vt 0.04296875 0.77734375
vt 0.04296875 0.75390625
vt 0.0625 0.7578125
vt 0.01953125 0.75390625
vt 0.01953125 0.77734375
vt 0 0.7734375
vt 0 0.7578125
vt 0.04296875 0.75390625
vt 0.01953125 0.75390625
vt 0.0234375 0.734375
vt 0.0390625 0.734375
vt 0.0234375 0.796875
vt 0.01953125 0.77734375
vt 0.04296875 0.77734375
vt 0.0390625 0.796875
vt 0.04296875 0.75390625
vt 0.04296875 0.77734375
vt 0.01953125 0.77734375
vt 0.01953125 0.75390625
vt 0.0625 0.7734375
vt 0.04296875 0.77734375
vt 0.04296875 0.75390625
vt 0.0625 0.7578125
vt 0.01953125 0.75390625
vt 0.01953125 0.77734375
vt 0 0.7734375
vt 0 0.7578125
vt 0.04296875 0.75390625
vt 0.01953125 0.75390625
vt 0.0234375 0.734375
vt 0.0390625 0.734375
vt 0.0234375 0.796875
vt 0.01953125 0.77734375
vt 0.04296875 0.77734375
vt 0.0390625 0.796875
vt 0.04296875 0.75390625
vt 0.04296875 0.77734375
vt 0.01953125 0.77734375
vt 0.01953125 0.75390625
vt 0.0625 0.7734375
vt 0.04296875 0.77734375
vt 0.04296875 0.75390625
vt 0.0625 0.7578125
vt 0.01953125 0.75390625
vt 0.01953125 0.77734375
vt 0 0.7734375
vt 0 0.7578125
vt 0.04296875 0.75390625
vt 0.01953125 0.75390625
vt 0.0234375 0.734375
vt 0.0390625 0.734375
vt 0.0234375 0.796875
vt 0.01953125 0.77734375
vt 0.04296875 0.77734375
vt 0.0390625 0.796875
vt 0.04296875 0.75390625
vt 0.04296875 0.77734375
vt 0.01953125 0.77734375
vt 0.01953125 0.75390625
vt 0.01953125 0.77734375
vt 0 0.7734375
vt 0 0.7578125
vt 0.01953125 0.75390625
vt 0.0625 0.7578125
vt 0.0625 0.7734375
vt 0.04296875 0.77734375
vt 0.04296875 0.75390625
vt 0.0234375 0.734375
vt 0.0390625 0.734375
vt 0.04296875 0.75390625
vt 0.01953125 0.75390625
vt 0.04296875 0.77734375
vt 0.0390625 0.796875
vt 0.0234375 0.796875
vt 0.01953125 0.77734375
vt 0.04296875 0.77734375
vt 0.01953125 0.77734375
vt 0.01953125 0.75390625
vt 0.04296875 0.75390625
vt 0.01953125 0.77734375
vt 0 0.7734375
vt 0 0.7578125
vt 0.01953125 0.75390625
vt 0.0625 0.7578125
vt 0.0625 0.7734375
vt 0.04296875 0.77734375
vt 0.04296875 0.75390625
vt 0.0234375 0.734375
vt 0.0390625 0.734375
vt 0.04296875 0.75390625
vt 0.01953125 0.75390625
vt 0.04296875 0.77734375
vt 0.0390625 0.796875
vt 0.0234375 0.796875
vt 0.01953125 0.77734375
vt 0.04296875 0.77734375
vt 0.01953125 0.77734375
vt 0.01953125 0.75390625
vt 0.04296875 0.75390625
vt 0.3359375 0.8515625
vt 0.1875 0.8515625
vt 0.1875 0.8203125
vt 0.3359375 0.8203125
vt 0.3359375 0.8203125
vt 0.3359375 0.8515625
vt 0.1875 0.8515625
vt 0.1875 0.8203125
vt 0.1875 0.8515625
vt 0.3359375 0.8515625
vt 0.3359375 1
vt 0.1875 1
vt 0.3359375 0.8515625
vt 0.3359375 1
vt 0.1875 1
vt 0.1875 0.8515625
vt 0.3359375 0.8203125
vt 0.3359375 0.8515625
vt 0.1875 0.8515625
vt 0.1875 0.8203125
vt 0.3359375 0.8515625
vt 0.1875 0.8515625
vt 0.1875 0.8203125
vt 0.3359375 0.8203125
vt 0.3359375 0.8203125
vt 0.1875 0.8203125
vt 0.1875 0.8046875
vt 0.3359375 0.8046875
vt 0.3359375 0.8046875
vt 0.3359375 0.8203125
vt 0.1875 0.8203125
vt 0.1875 0.8046875
vt 0.1875 0.8515625
vt 0.3359375 0.8515625
vt 0.3359375 1
vt 0.1875 1
vt 0.3359375 0.8515625
vt 0.3359375 1
vt 0.1875 1
vt 0.1875 0.8515625
vt 0.3359375 0.8046875
vt 0.3359375 0.8203125
vt 0.1875 0.8203125
vt 0.1875 0.8046875
vt 0.3359375 0.8203125
vt 0.1875 0.8203125
vt 0.1875 0.8046875
vt 0.3359375 0.8046875
vt 0.03125 0.984375
vt 0.0234375 0.984375
vt 0.0234375 0.828125
vt 0.03125 0.828125
vt 0.03125 0.828125
vt 0.03125 0.984375
vt 0.0234375 0.984375
vt 0.0234375 0.828125
vt 0.0234375 0.828125
vt 0.03125 0.828125
vt 0.03125 0.984375
vt 0.0234375 0.984375
vt 0.03125 0.828125
vt 0.03125 0.984375
vt 0.0234375 0.984375
vt 0.0234375 0.828125
vt 0.1640625 0.984375
vt 0.15625 0.984375
vt 0.15625 0.828125
vt 0.1640625 0.828125
vt 0.1640625 0.828125
vt 0.1640625 0.984375
vt 0.15625 0.984375
vt 0.15625 0.828125
vt 0.15625 0.828125
vt 0.1640625 0.828125
vt 0.1640625 0.984375
vt 0.15625 0.984375
vt 0.1640625 0.828125
vt 0.1640625 0.984375
vt 0.15625 0.984375
vt 0.15625 0.828125
vt 0.1875 0.8125
vt 0 0.8125
vt 0 0.796875
vt 0.1875 0.796875
vt 0.1875 0.796875
vt 0.1875 0.8125
vt 0 0.8125
vt 0 0.796875
vt 0.1875 0.796875
vt 0.1875 0.8125
vt 0 0.8125
vt 0 0.796875
vt 0.1875 0.8125
vt 0 0.8125
vt 0 0.796875
vt 0.1875 0.796875
vt 0 0.8125
vt 0.1875 0.8125
vt 0.171875 0.828125
vt 0.015625 0.828125
vt 0.1875 0.8125
vt 0.1875 1
vt 0.171875 0.984375
vt 0.171875 0.828125
vt 0.1875 1
vt 0 1
vt 0.015625 0.984375
vt 0.171875 0.984375
vt 0.015625 0.984375
vt 0 1
vt 0 0.8125
vt 0.015625 0.828125
vt 0.1875 0.8125
vt 0.1875 1
vt 0.171875 0.984375
vt 0.171875 0.828125
vt 0.1875 1
vt 0 1
vt 0.015625 0.984375
vt 0.171875 0.984375
vt 0.015625 0.984375
vt 0 1
vt 0 0.8125
vt 0.015625 0.828125
vt 0 0.8125
vt 0.1875 0.8125
vt 0.171875 0.828125
vt 0.015625 0.828125
vt 0.015625 0.8125
vt 0.015625 0.796875
vt 0.171875 0.796875
vt 0.171875 0.8125
vt 0.015625 0.8125
vt 0.015625 0.796875
vt 0.171875 0.796875
vt 0.171875 0.8125
vt 0.015625 0.8125
vt 0.015625 0.796875
vt 0.171875 0.796875
vt 0.171875 0.8125
vt 0.015625 0.8125
vt 0.015625 0.796875
vt 0.171875 0.796875
vt 0.171875 0.8125
vt 0.4453125 0.9375
vt 0.4453125 1
vt 0.3359375 1
vt 0.3359375 0.9375
vt 0.4453125 0.9375
vt 0.4453125 1
vt 0.3359375 1
vt 0.3359375 0.9375
vt 0.4453125 0.9375
vt 0.4453125 1
vt 0.3359375 1
vt 0.3359375 0.9375
vt 0.4453125 0.9375
vt 0.4453125 1
vt 0.3359375 1
vt 0.3359375 0.9375
vt 0.4453125 0.9375
vt 0.4453125 1
vt 0.3359375 1
vt 0.3359375 0.9375
vt 0.4453125 0.9375
vt 0.4453125 1
vt 0.3359375 1
vt 0.3359375 0.9375
vt 0.4453125 0.9375
vt 0.4453125 1
vt 0.3359375 1
vt 0.3359375 0.9375
vt 0.4453125 0.9375
vt 0.4453125 1
vt 0.3359375 1
vt 0.3359375 0.9375
vn 0.9805806756909202 0 0.19611613513818404
vn -0.9805806756909202 0 0.19611613513818404
vn 0 0.9805806756909202 0.19611613513818404
vn 0 -0.9805806756909202 0.19611613513818404
vn 0 0 -1
vn 1 0 0
vn -0.19611613513818407 0.9805806756909203 0
vn -0.19611613513818407 -0.9805806756909203 0
vn -0.19611613513818407 0 0.9805806756909203
vn -0.19611613513818407 0 -0.9805806756909203
vn 1 0 0
vn -0.19611613513818407 0.9805806756909203 0
vn -0.19611613513818407 -0.9805806756909203 0
vn -0.19611613513818407 0 0.9805806756909203
vn -0.19611613513818407 0 -0.9805806756909203
vn 1 0 0
vn -0.19611613513818407 0.9805806756909203 0
vn -0.19611613513818407 -0.9805806756909203 0
vn -0.19611613513818407 0 0.9805806756909203
vn -0.19611613513818407 0 -0.9805806756909203
vn -1 0 0
vn 0.19611613513818404 0.9805806756909202 0
vn 0.19611613513818404 -0.9805806756909202 0
vn 0.19611613513818404 0 0.9805806756909202
vn 0.19611613513818404 0 -0.9805806756909202
vn -1 0 0
vn 0.19611613513818404 0.9805806756909202 0
vn 0.19611613513818404 -0.9805806756909202 0
vn 0.19611613513818404 0 0.9805806756909202
vn 0.19611613513818404 0 -0.9805806756909202
vn -1 0 0
vn 0.19611613513818404 0.9805806756909202 0
vn 0.19611613513818404 -0.9805806756909202 0
vn 0.19611613513818404 0 0.9805806756909202
vn 0.19611613513818404 0 -0.9805806756909202
vn 0.9805806756909203 0 -0.19611613513818407
vn -0.9805806756909203 0 -0.19611613513818407
vn 0 0.9805806756909203 -0.19611613513818407
vn 0 -0.9805806756909203 -0.19611613513818407
vn 0 0 1
vn 0.9805806756909203 0 -0.19611613513818407
vn -0.9805806756909203 0 -0.19611613513818407
vn 0 0.9805806756909203 -0.19611613513818407
vn 0 -0.9805806756909203 -0.19611613513818407
vn 0 0 1
vn 0.9805806756909203 0 -0.19611613513818407
vn -0.9805806756909203 0 -0.19611613513818407
vn 0 0.9805806756909203 -0.19611613513818407
vn 0 -0.9805806756909203 -0.19611613513818407
vn 0 0 1
vn 0.9805806756909202 0 0.19611613513818404
vn -0.9805806756909202 0 0.19611613513818404
vn 0 0.9805806756909202 0.19611613513818404
vn 0 -0.9805806756909202 0.19611613513818404
vn 0 0 -1
vn 0.9805806756909202 0 0.19611613513818404
vn -0.9805806756909202 0 0.19611613513818404
vn 0 0.9805806756909202 0.19611613513818404
vn 0 -0.9805806756909202 0.19611613513818404
vn 0 0 -1
vn 1 0 0
vn -1 0 0
vn 0 1 0
vn 0 -1 0
vn 0 0 1
vn 0 0 -1
vn 1 0 0
vn -1 0 0
vn 0 1 0
vn 0 -1 0
vn 0 0 1
vn 0 0 -1
vn 1 0 0
vn -1 0 0
vn 0 1 0
vn 0 -1 0
vn 1 0 0
vn -1 0 0
vn 0 1 0
vn 0 -1 0
vn 1 0 0
vn -1 0 0
vn 0 0 1
vn 0 0 -1
vn 0 1 0
vn 0 1 0
vn 0 1 0
vn 0 1 0
vn 0 -1 0
vn 0 -1 0
vn 0 -1 0
vn 0 -1 0
vn 1 0 0
vn 0 0 1
vn 0 0 -1
vn -1 0 0
vn 1 0 0
vn -1 0 0
vn 1 0 0
vn -1 0 0
vn 0 0 1
vn 0 0 -1
vn 0 0 1
vn 0 0 -1
usemtl m_aeaf2e53-40f1-1d39-20c1-db71d57a42f7
f 2/1/1 1/2/1 3/3/1
f 2/1/1 3/3/1 4/4/1
f 7/5/2 5/6/2 6/7/2
f 7/5/2 6/7/2 8/8/2
f 5/9/3 1/10/3 2/11/3
f 5/9/3 2/11/3 6/12/3
f 4/13/4 3/14/4 7/15/4
f 4/13/4 7/15/4 8/16/4
f 6/17/5 2/18/5 4/19/5
f 6/17/5 4/19/5 8/20/5
f 10/21/6 9/22/6 11/23/6
f 10/21/6 11/23/6 12/24/6
f 13/25/7 9/26/7 10/27/7
f 13/25/7 10/27/7 14/28/7
f 12/29/8 11/30/8 15/31/8
f 12/29/8 15/31/8 16/32/8
f 11/33/9 9/34/9 13/35/9
f 11/33/9 13/35/9 15/36/9
f 14/37/10 10/38/10 12/39/10
f 14/37/10 12/39/10 16/40/10
f 18/41/11 17/42/11 19/43/11
f 18/41/11 19/43/11 20/44/11
f 21/45/12 17/46/12 18/47/12
f 21/45/12 18/47/12 22/48/12
f 20/49/13 19/50/13 23/51/13
f 20/49/13 23/51/13 24/52/13
f 19/53/14 17/54/14 21/55/14
f 19/53/14 21/55/14 23/56/14
f 22/57/15 18/58/15 20/59/15
f 22/57/15 20/59/15 24/60/15
f 26/61/16 25/62/16 27/63/16
f 26/61/16 27/63/16 28/64/16
f 29/65/17 25/66/17 26/67/17
f 29/65/17 26/67/17 30/68/17
f 28/69/18 27/70/18 31/71/18
f 28/69/18 31/71/18 32/72/18
f 27/73/19 25/74/19 29/75/19
f 27/73/19 29/75/19 31/76/19
f 30/77/20 26/78/20 28/79/20
f 30/77/20 28/79/20 32/80/20
f 39/81/21 37/82/21 38/83/21
f 39/81/21 38/83/21 40/84/21
f 37/85/22 33/86/22 34/87/22
f 37/85/22 34/87/22 38/88/22
f 36/89/23 35/90/23 39/91/23
f 36/89/23 39/91/23 40/92/23
f 35/93/24 33/94/24 37/95/24
f 35/93/24 37/95/24 39/96/24
f 38/97/25 34/98/25 36/99/25
f 38/97/25 36/99/25 40/100/25
f 47/101/26 45/102/26 46/103/26
f 47/101/26 46/103/26 48/104/26
f 45/105/27 41/106/27 42/107/27
f 45/105/27 42/107/27 46/108/27
f 44/109/28 43/110/28 47/111/28
f 44/109/28 47/111/28 48/112/28
f 43/113/29 41/114/29 45/115/29
f 43/113/29 45/115/29 47/116/29
f 46/117/30 42/118/30 44/119/30
f 46/117/30 44/119/30 48/120/30
f 55/121/31 53/122/31 54/123/31
f 55/121/31 54/123/31 56/124/31
f 53/125/32 49/126/32 50/127/32
f 53/125/32 50/127/32 54/128/32
f 52/129/33 51/130/33 55/131/33
f 52/129/33 55/131/33 56/132/33
f 51/133/34 49/134/34 53/135/34
f 51/133/34 53/135/34 55/136/34
f 54/137/35 50/138/35 52/139/35
f 54/137/35 52/139/35 56/140/35
f 58/141/36 57/142/36 59/143/36
f 58/141/36 59/143/36 60/144/36
f 63/145/37 61/146/37 62/147/37
f 63/145/37 62/147/37 64/148/37
f 61/149/38 57/150/38 58/151/38
f 61/149/38 58/151/38 62/152/38
f 60/153/39 59/154/39 63/155/39
f 60/153/39 63/155/39 64/156/39
f 59/157/40 57/158/40 61/159/40
f 59/157/40 61/159/40 63/160/40
f 66/161/41 65/162/41 67/163/41
f 66/161/41 67/163/41 68/164/41
f 71/165/42 69/166/42 70/167/42
f 71/165/42 70/167/42 72/168/42
f 69/169/43 65/170/43 66/171/43
f 69/169/43 66/171/43 70/172/43
f 68/173/44 67/174/44 71/175/44
f 68/173/44 71/175/44 72/176/44
f 67/177/45 65/178/45 69/179/45
f 67/177/45 69/179/45 71/180/45
f 74/181/46 73/182/46 75/183/46
f 74/181/46 75/183/46 76/184/46
f 79/185/47 77/186/47 78/187/47
f 79/185/47 78/187/47 80/188/47
f 77/189/48 73/190/48 74/191/48
f 77/189/48 74/191/48 78/192/48
f 76/193/49 75/194/49 79/195/49
f 76/193/49 79/195/49 80/196/49
f 75/197/50 73/198/50 77/199/50
f 75/197/50 77/199/50 79/200/50
f 82/201/51 81/202/51 83/203/51
f 82/201/51 83/203/51 84/204/51
f 87/205/52 85/206/52 86/207/52
f 87/205/52 86/207/52 88/208/52
f 85/209/53 81/210/53 82/211/53
f 85/209/53 82/211/53 86/212/53
f 84/213/54 83/214/54 87/215/54
f 84/213/54 87/215/54 88/216/54
f 86/217/55 82/218/55 84/219/55
f 86/217/55 84/219/55 88/220/55
f 90/221/56 89/222/56 91/223/56
f 90/221/56 91/223/56 92/224/56
f 95/225/57 93/226/57 94/227/57
f 95/225/57 94/227/57 96/228/57
f 93/229/58 89/230/58 90/231/58
f 93/229/58 90/231/58 94/232/58
f 92/233/59 91/234/59 95/235/59
f 92/233/59 95/235/59 96/236/59
f 94/237/60 90/238/60 92/239/60
f 94/237/60 92/239/60 96/240/60
f 98/241/61 97/242/61 99/243/61
f 98/241/61 99/243/61 100/244/61
f 103/245/62 101/246/62 102/247/62
f 103/245/62 102/247/62 104/248/62
f 101/249/63 97/250/63 98/251/63
f 101/249/63 98/251/63 102/252/63
f 100/253/64 99/254/64 103/255/64
f 100/253/64 103/255/64 104/256/64
f 99/257/65 97/258/65 101/259/65
f 99/257/65 101/259/65 103/260/65
f 102/261/66 98/262/66 100/263/66
f 102/261/66 100/263/66 104/264/66
f 106/265/67 105/266/67 107/267/67
f 106/265/67 107/267/67 108/268/67
f 111/269/68 109/270/68 110/271/68
f 111/269/68 110/271/68 112/272/68
f 109/273/69 105/274/69 106/275/69
f 109/273/69 106/275/69 110/276/69
f 108/277/70 107/278/70 111/279/70
f 108/277/70 111/279/70 112/280/70
f 107/281/71 105/282/71 109/283/71
f 107/281/71 109/283/71 111/284/71
f 110/285/72 106/286/72 108/287/72
f 110/285/72 108/287/72 112/288/72
f 114/289/73 113/290/73 115/291/73
f 114/289/73 115/291/73 116/292/73
f 119/293/74 117/294/74 118/295/74
f 119/293/74 118/295/74 120/296/74
f 117/297/75 113/298/75 114/299/75
f 117/297/75 114/299/75 118/300/75
f 116/301/76 115/302/76 119/303/76
f 116/301/76 119/303/76 120/304/76
f 122/305/77 121/306/77 123/307/77
f 122/305/77 123/307/77 124/308/77
f 127/309/78 125/310/78 126/311/78
f 127/309/78 126/311/78 128/312/78
f 125/313/79 121/314/79 122/315/79
f 125/313/79 122/315/79 126/316/79
f 124/317/80 123/318/80 127/319/80
f 124/317/80 127/319/80 128/320/80
f 130/321/81 129/322/81 131/323/81
f 130/321/81 131/323/81 132/324/81
f 135/325/82 133/326/82 134/327/82
f 135/325/82 134/327/82 136/328/82
f 131/329/83 129/330/83 133/331/83
f 131/329/83 133/331/83 135/332/83
f 134/333/84 130/334/84 132/335/84
f 134/333/84 132/335/84 136/336/84
f 133/337/85 129/338/85 139/339/85
f 133/337/85 139/339/85 140/340/85
f 129/341/86 130/342/86 138/343/86
f 129/341/86 138/343/86 139/344/86
f 130/345/87 134/346/87 137/347/87
f 130/345/87 137/347/87 138/348/87
f 137/349/88 134/350/88 133/351/88
f 137/349/88 133/351/88 140/352/88
f 132/353/89 131/354/89 142/355/89
f 132/353/89 142/355/89 143/356/89
f 131/357/90 135/358/90 141/359/90
f 131/357/90 141/359/90 142/360/90
f 141/361/91 135/362/91 136/363/91
f 141/361/91 136/363/91 144/364/91
f 136/365/92 132/366/92 143/367/92
f 136/365/92 143/367/92 144/368/92
f 140/369/93 141/370/93 144/371/93
f 140/369/93 144/371/93 137/372/93
f 137/373/94 144/374/94 143/375/94
f 137/373/94 143/375/94 138/376/94
f 139/377/95 142/378/95 141/379/95
f 139/377/95 141/379/95 140/380/95
f 138/381/96 143/382/96 142/383/96
f 138/381/96 142/383/96 139/384/96
f 148/385/97 146/386/97 145/387/97
f 148/385/97 145/387/97 147/388/97
f 147/389/98 145/390/98 146/391/98
f 147/389/98 146/391/98 148/392/98
f 152/393/99 150/394/99 149/395/99
f 152/393/99 149/395/99 151/396/99
f 151/397/100 149/398/100 150/399/100
f 151/397/100 150/399/100 152/400/100
f 154/401/101 153/402/101 155/403/101
f 154/401/101 155/403/101 156/404/101
f 156/405/102 155/406/102 153/407/102
f 156/405/102 153/407/102 154/408/102
f 158/409/103 157/410/103 159/411/103
f 158/409/103 159/411/103 160/412/103
f 160/413/104 159/414/104 157/415/104
f 160/413/104 157/415/104 158/416/104
o SmoothShading
v 0.133974375 0.75 0.5
v 0.133974375 1.25 0.5
v 0.366025625 0.75 0.366025625
v 0.366025625 1.25 0.366025625
v 0.5 0.75 0.133974375
v 0.5 1.25 0.133974375
v 0.5 0.75 -0.133974375
v 0.5 1.25 -0.133974375
v 0.366025625 0.75 -0.366025625
v 0.366025625 1.25 -0.366025625
v 0.133974375 0.75 -0.5
v 0.133974375 1.25 -0.5
v -0.133974375 0.75 -0.5
v -0.133974375 1.25 -0.5
v -0.366025625 0.75 -0.366025625
v -0.366025625 1.25 -0.366025625
v -0.5 0.75 -0.133974375
v -0.5 1.25 -0.133974375
v -0.5 0.75 0.133974375
v -0.5 1.25 0.133974375
v -0.366025625 0.75 0.366025625
v -0.366025625 1.25 0.366025625
v -0.133974375 0.75 0.5
v -0.133974375 1.25 0.5
v 0 1.25 0
v 0.133974375 1.25 0.5
v 0.366025625 1.25 0.366025625
v 0.5 1.25 0.133974375
v 0.5 1.25 -0.133974375
v 0.366025625 1.25 -0.366025625
v 0.133974375 1.25 -0.5
v -0.133974375 1.25 -0.5
v -0.366025625 1.25 -0.366025625
v -0.5 1.25 -0.133974375
v -0.5 1.25 0.133974375
v -0.366025625 1.25 0.366025625
v -0.133974375 1.25 0.5
v 1.0044875 0.75 -0.6875
v 1.0044875 2.75 -0.6875
v 1.1205125 0.75 -0.7544875
v 1.1205125 2.75 -0.7544875
v 1.1875 0.75 -0.8705125
v 1.1875 2.75 -0.8705125
v 1.1875 0.75 -1.0044875
v 1.1875 2.75 -1.0044875
v 1.1205125 0.75 -1.1205125
v 1.1205125 2.75 -1.1205125
v 1.0044875 0.75 -1.1875
v 1.0044875 2.75 -1.1875
v 0.8705125 0.75 -1.1875
v 0.8705125 2.75 -1.1875
v 0.7544875 0.75 -1.1205125
v 0.7544875 2.75 -1.1205125
v 0.6875 0.75 -1.0044875
v 0.6875 2.75 -1.0044875
v 0.6875 0.75 -0.8705125
v 0.6875 2.75 -0.8705125
v 0.7544875 0.75 -0.7544875
v 0.7544875 2.75 -0.7544875
v 0.8705125 0.75 -0.6875
v 0.8705125 2.75 -0.6875
v 1.0044875 0.75 1.1875
v 1.0044875 2.75 1.1875
v 1.1205125 0.75 1.1205125
v 1.1205125 2.75 1.1205125
v 1.1875 0.75 1.0044875
v 1.1875 2.75 1.0044875
v 1.1875 0.75 0.8705125
v 1.1875 2.75 0.8705125
v 1.1205125 0.75 0.7544875
v 1.1205125 2.75 0.7544875
v 1.0044875 0.75 0.6875
v 1.0044875 2.75 0.6875
v 0.8705125 0.75 0.6875
v 0.8705125 2.75 0.6875
v 0.7544875 0.75 0.7544875
v 0.7544875 2.75 0.7544875
v 0.6875 0.75 0.8705125
v 0.6875 2.75 0.8705125
v 0.6875 0.75 1.0044875
v 0.6875 2.75 1.0044875
v 0.7544875 0.75 1.1205125
v 0.7544875 2.75 1.1205125
v 0.8705125 0.75 1.1875
v 0.8705125 2.75 1.1875
v -0.8705125 0.75 1.1875
v -0.8705125 2.75 1.1875
v -0.7544875 0.75 1.1205125
v -0.7544875 2.75 1.1205125
v -0.6875 0.75 1.0044875
v -0.6875 2.75 1.0044875
v -0.6875 0.75 0.8705125
v -0.6875 2.75 0.8705125
v -0.7544875 0.75 0.7544875
v -0.7544875 2.75 0.7544875
v -0.8705125 0.75 0.6875
v -0.8705125 2.75 0.6875
v -1.0044875 0.75 0.6875
v -1.0044875 2.75 0.6875
v -1.1205125 0.75 0.7544875
v -1.1205125 2.75 0.7544875
v -1.1875 0.75 0.8705125
v -1.1875 2.75 0.8705125
v -1.1875 0.75 1.0044875
v -1.1875 2.75 1.0044875
v -1.1205125 0.75 1.1205125
v -1.1205125 2.75 1.1205125
v -1.0044875 0.75 1.1875
v -1.0044875 2.75 1.1875
v -0.8705125 0.75 -0.6875
v -0.8705125 2.75 -0.6875
v -0.7544875 0.75 -0.7544875
v -0.7544875 2.75 -0.7544875
v -0.6875 0.75 -0.8705125
v -0.6875 2.75 -0.8705125
v -0.6875 0.75 -1.0044875
v -0.6875 2.75 -1.0044875
v -0.7544875 0.75 -1.1205125
v -0.7544875 2.75 -1.1205125
v -0.8705125 0.75 -1.1875
v -0.8705125 2.75 -1.1875
v -1.0044875 0.75 -1.1875
v -1.0044875 2.75 -1.1875
v -1.1205125 0.75 -1.1205125
v -1.1205125 2.75 -1.1205125
v -1.1875 0.75 -1.0044875
v -1.1875 2.75 -1.0044875
v -1.1875 0.75 -0.8705125
v -1.1875 2.75 -0.8705125
v -1.1205125 0.75 -0.7544875
v -1.1205125 2.75 -0.7544875
v -1.0044875 0.75 -0.6875
v -1.0044875 2.75 -0.6875
vt 0.3359375 0.84375
vt 0.3515625 0.84375
vt 0.3515625 0.875
vt 0.3359375 0.875
vt 0.3359375 0.84375
vt 0.3515625 0.84375
vt 0.3515625 0.875
vt 0.3359375 0.875
vt 0.3359375 0.84375
vt 0.3515625 0.84375
vt 0.3515625 0.875
vt 0.3359375 0.875
vt 0.3359375 0.84375
vt 0.3515625 0.84375
vt 0.3515625 0.875
vt 0.3359375 0.875
vt 0.3359375 0.84375
vt 0.3515625 0.84375
vt 0.3515625 0.875
vt 0.3359375 0.875
vt 0.3359375 0.84375
vt 0.3515625 0.84375
vt 0.3515625 0.875
vt 0.3359375 0.875
vt 0.3359375 0.84375
vt 0.3515625 0.84375
vt 0.3515625 0.875
vt 0.3359375 0.875
vt 0.3359375 0.84375
vt 0.3515625 0.84375
vt 0.3515625 0.875
vt 0.3359375 0.875
vt 0.3359375 0.84375
vt 0.3515625 0.84375
vt 0.3515625 0.875
vt 0.3359375 0.875
vt 0.3359375 0.84375
vt 0.3515625 0.84375
vt 0.3515625 0.875
vt 0.3359375 0.875
vt 0.3359375 0.84375
vt 0.3515625 0.84375
vt 0.3515625 0.875
vt 0.3359375 0.875
vt 0.3359375 0.84375
vt 0.3515625 0.84375
vt 0.3515625 0.875
vt 0.3359375 0.875
vt 0.375 0.875
vt 0.390625 0.8828125
vt 0.3671875 0.90625
vt 0.390625 0.8828125
vt 0.3984375 0.8984375
vt 0.3671875 0.90625
vt 0.3984375 0.8984375
vt 0.3984375 0.9140625
vt 0.3671875 0.90625
vt 0.3984375 0.9140625
vt 0.390625 0.9296875
vt 0.3671875 0.90625
vt 0.390625 0.9296875
vt 0.375 0.9375
vt 0.3671875 0.90625
vt 0.375 0.9375
vt 0.359375 0.9375
vt 0.3671875 0.90625
vt 0.359375 0.9375
vt 0.34375 0.9296875
vt 0.3671875 0.90625
vt 0.34375 0.9296875
vt 0.3359375 0.9140625
vt 0.3671875 0.90625
vt 0.3359375 0.9140625
vt 0.3359375 0.8984375
vt 0.3671875 0.90625
vt 0.3359375 0.8984375
vt 0.34375 0.8828125
vt 0.3671875 0.90625
vt 0.34375 0.8828125
vt 0.359375 0.875
vt 0.3671875 0.90625
vt 0.359375 0.875
vt 0.375 0.875
vt 0.3671875 0.90625
vt 0.4609375 0.875
vt 0.46875 0.875
vt 0.46875 1
vt 0.4609375 1
vt 0.4453125 0.875
vt 0.453125 0.875
vt 0.453125 1
vt 0.4453125 1
vt 0.453125 0.875
vt 0.4609375 0.875
vt 0.4609375 1
vt 0.453125 1
vt 0.4609375 0.875
vt 0.46875 0.875
vt 0.46875 1
vt 0.4609375 1
vt 0.4453125 0.875
vt 0.453125 0.875
vt 0.453125 1
vt 0.4453125 1
vt 0.453125 0.875
vt 0.4609375 0.875
vt 0.4609375 1
vt 0.453125 1
vt 0.4609375 0.875
vt 0.46875 0.875
vt 0.46875 1
vt 0.4609375 1
vt 0.4453125 0.875
vt 0.453125 0.875
vt 0.453125 1
vt 0.4453125 1
vt 0.453125 0.875
vt 0.4609375 0.875
vt 0.4609375 1
vt 0.453125 1
vt 0.4609375 0.875
vt 0.46875 0.875
vt 0.46875 1
vt 0.4609375 1
vt 0.4453125 0.875
vt 0.453125 0.875
vt 0.453125 1
vt 0.4453125 1
vt 0.453125 0.875
vt 0.4609375 0.875
vt 0.4609375 1
vt 0.453125 1
vt 0.4609375 0.875
vt 0.46875 0.875
vt 0.46875 1
vt 0.4609375 1
vt 0.4453125 0.875
vt 0.453125 0.875
vt 0.453125 1
vt 0.4453125 1
vt 0.453125 0.875
vt 0.4609375 0.875
vt 0.4609375 1
vt 0.453125 1
vt 0.4609375 0.875
vt 0.46875 0.875
vt 0.46875 1
vt 0.4609375 1
vt 0.4453125 0.875
vt 0.453125 0.875
vt 0.453125 1
vt 0.4453125 1
vt 0.453125 0.875
vt 0.4609375 0.875
vt 0.4609375 1
vt 0.453125 1
vt 0.4609375 0.875
vt 0.46875 0.875
vt 0.46875 1
vt 0.4609375 1
vt 0.4453125 0.875
vt 0.453125 0.875
vt 0.453125 1
vt 0.4453125 1
vt 0.453125 0.875
vt 0.4609375 0.875
vt 0.4609375 1
vt 0.453125 1
vt 0.4609375 0.875
vt 0.46875 0.875
vt 0.46875 1
vt 0.4609375 1
vt 0.4453125 0.875
vt 0.453125 0.875
vt 0.453125 1
vt 0.4453125 1
vt 0.453125 0.875
vt 0.4609375 0.875
vt 0.4609375 1
vt 0.453125 1
vt 0.4609375 0.875
vt 0.46875 0.875
vt 0.46875 1
vt 0.4609375 1
vt 0.4453125 0.875
vt 0.453125 0.875
vt 0.453125 1
vt 0.4453125 1
vt 0.453125 0.875
vt 0.4609375 0.875
vt 0.4609375 1
vt 0.453125 1
vt 0.4609375 0.875
vt 0.46875 0.875
vt 0.46875 1
vt 0.4609375 1
vt 0.4453125 0.875
vt 0.453125 0.875
vt 0.453125 1
vt 0.4453125 1
vt 0.453125 0.875
vt 0.4609375 0.875
vt 0.4609375 1
vt 0.453125 1
vt 0.4609375 0.875
vt 0.46875 0.875
vt 0.46875 1
vt 0.4609375 1
vt 0.4453125 0.875
vt 0.453125 0.875
vt 0.453125 1
vt 0.4453125 1
vt 0.453125 0.875
vt 0.4609375 0.875
vt 0.4609375 1
vt 0.453125 1
vt 0.4609375 0.875
vt 0.46875 0.875
vt 0.46875 1
vt 0.4609375 1
vt 0.4453125 0.875
vt 0.453125 0.875
vt 0.453125 1
vt 0.4453125 1
vt 0.453125 0.875
vt 0.4609375 0.875
vt 0.4609375 1
vt 0.453125 1
vt 0.4609375 0.875
vt 0.46875 0.875
vt 0.46875 1
vt 0.4609375 1
vt 0.4453125 0.875
vt 0.453125 0.875
vt 0.453125 1
vt 0.4453125 1
vt 0.453125 0.875
vt 0.4609375 0.875
vt 0.4609375 1
vt 0.453125 1
vt 0.4609375 0.875
vt 0.46875 0.875
vt 0.46875 1
vt 0.4609375 1
vt 0.4453125 0.875
vt 0.453125 0.875
vt 0.453125 1
vt 0.4453125 1
vt 0.453125 0.875
vt 0.4609375 0.875
vt 0.4609375 1
vt 0.453125 1
vt 0.4609375 0.875
vt 0.46875 0.875
vt 0.46875 1
vt 0.4609375 1
vt 0.4453125 0.875
vt 0.453125 0.875
vt 0.453125 1
vt 0.4453125 1
vt 0.453125 0.875
vt 0.4609375 0.875
vt 0.4609375 1
vt 0.453125 1
vt 0.4609375 0.875
vt 0.46875 0.875
vt 0.46875 1
vt 0.4609375 1
vt 0.4453125 0.875
vt 0.453125 0.875
vt 0.453125 1
vt 0.4453125 1
vt 0.453125 0.875
vt 0.4609375 0.875
vt 0.4609375 1
vt 0.453125 1
vn 0.2588183010661615 0 0.9659260256527028
vn 0.2588183010661615 0 0.9659260256527028
vn 0.7071067811865476 0 0.7071067811865476
vn 0.7071067811865476 0 0.7071067811865476
vn 0.9659260256527028 0 0.2588183010661615
vn 0.9659260256527028 0 0.2588183010661615
vn 0.9659260256527028 0 -0.2588183010661615
vn 0.9659260256527028 0 -0.2588183010661615
vn 0.7071067811865476 0 -0.7071067811865476
vn 0.7071067811865476 0 -0.7071067811865476
vn 0.2588183010661615 0 -0.9659260256527028
vn 0.2588183010661615 0 -0.9659260256527028
vn -0.2588183010661615 0 -0.9659260256527028
vn -0.2588183010661615 0 -0.9659260256527028
vn -0.7071067811865476 0 -0.7071067811865476
vn -0.7071067811865476 0 -0.7071067811865476
vn -0.9659260256527028 0 -0.2588183010661615
vn -0.9659260256527028 0 -0.2588183010661615
vn -0.9659260256527028 0 0.2588183010661615
vn -0.9659260256527028 0 0.2588183010661615
vn -0.7071067811865476 0 0.7071067811865476
vn -0.7071067811865476 0 0.7071067811865476
vn -0.2588183010661615 0 0.9659260256527028
vn -0.2588183010661615 0 0.9659260256527028
vn 0 1 0
vn 0 1 0
vn 0 1 0
vn 0 1 0
vn 0 1 0
vn 0 1 0
vn 0 1 0
vn 0 1 0
vn 0 1 0
vn 0 1 0
vn 0 1 0
vn 0 1 0
vn 0 1 0
vn 0.2588204031944992 0 0.9659254623883962
vn 0.2588204031944992 0 0.9659254623883962
vn 0.7071067811865476 0 0.7071067811865476
vn 0.7071067811865476 0 0.7071067811865476
vn 0.9659254623883962 0 0.2588204031944992
vn 0.9659254623883962 0 0.2588204031944992
vn 0.9659254623883962 0 -0.2588204031944992
vn 0.9659254623883962 0 -0.2588204031944992
vn 0.7071067811865476 0 -0.7071067811865476
vn 0.7071067811865476 0 -0.7071067811865476
vn 0.2588204031944992 0 -0.9659254623883962
vn 0.2588204031944992 0 -0.9659254623883962
vn -0.2588204031944992 0 -0.9659254623883962
vn -0.2588204031944992 0 -0.9659254623883962
vn -0.7071067811865476 0 -0.7071067811865476
vn -0.7071067811865476 0 -0.7071067811865476
vn -0.9659254623883962 0 -0.2588204031944992
vn -0.9659254623883962 0 -0.2588204031944992
vn -0.9659254623883962 0 0.2588204031944992
vn -0.9659254623883962 0 0.2588204031944992
vn -0.7071067811865476 0 0.7071067811865476
vn -0.7071067811865476 0 0.7071067811865476
vn -0.2588204031944992 0 0.9659254623883962
vn -0.2588204031944992 0 0.9659254623883962
vn 0.2588204031944992 0 0.9659254623883962
vn 0.2588204031944992 0 0.9659254623883962
vn 0.7071067811865476 0 0.7071067811865476
vn 0.7071067811865476 0 0.7071067811865476
vn 0.9659254623883962 0 0.2588204031944992
vn 0.9659254623883962 0 0.2588204031944992
vn 0.9659254623883962 0 -0.2588204031944992
vn 0.9659254623883962 0 -0.2588204031944992
vn 0.7071067811865476 0 -0.7071067811865476
vn 0.7071067811865476 0 -0.7071067811865476
vn 0.2588204031944992 0 -0.9659254623883962
vn 0.2588204031944992 0 -0.9659254623883962
vn -0.2588204031944992 0 -0.9659254623883962
vn -0.2588204031944992 0 -0.9659254623883962
vn -0.7071067811865476 0 -0.7071067811865476
vn -0.7071067811865476 0 -0.7071067811865476
vn -0.9659254623883962 0 -0.2588204031944992
vn -0.9659254623883962 0 -0.2588204031944992
vn -0.9659254623883962 0 0.2588204031944992
vn -0.9659254623883962 0 0.2588204031944992
vn -0.7071067811865476 0 0.7071067811865476
vn -0.7071067811865476 0 0.7071067811865476
vn -0.2588204031944992 0 0.9659254623883962
vn -0.2588204031944992 0 0.9659254623883962
vn 0.2588204031944992 0 0.9659254623883962
vn 0.2588204031944992 0 0.9659254623883962
vn 0.7071067811865476 0 0.7071067811865476
vn 0.7071067811865476 0 0.7071067811865476
vn 0.9659254623883962 0 0.2588204031944992
vn 0.9659254623883962 0 0.2588204031944992
vn 0.9659254623883962 0 -0.2588204031944992
vn 0.9659254623883962 0 -0.2588204031944992
vn 0.7071067811865476 0 -0.7071067811865476
vn 0.7071067811865476 0 -0.7071067811865476
vn 0.2588204031944992 0 -0.9659254623883962
vn 0.2588204031944992 0 -0.9659254623883962
vn -0.2588204031944992 0 -0.9659254623883962
vn -0.2588204031944992 0 -0.9659254623883962
vn -0.7071067811865476 0 -0.7071067811865476
vn -0.7071067811865476 0 -0.7071067811865476
vn -0.9659254623883962 0 -0.2588204031944992
vn -0.9659254623883962 0 -0.2588204031944992
vn -0.9659254623883962 0 0.2588204031944992
vn -0.9659254623883962 0 0.2588204031944992
vn -0.7071067811865476 0 0.7071067811865476
vn -0.7071067811865476 0 0.7071067811865476
vn -0.2588204031944992 0 0.9659254623883962
vn -0.2588204031944992 0 0.9659254623883962
vn 0.2588204031944992 0 0.9659254623883962
vn 0.2588204031944992 0 0.9659254623883962
vn 0.7071067811865476 0 0.7071067811865476
vn 0.7071067811865476 0 0.7071067811865476
vn 0.9659254623883962 0 0.2588204031944992
vn 0.9659254623883962 0 0.2588204031944992
vn 0.9659254623883962 0 -0.2588204031944992
vn 0.9659254623883962 0 -0.2588204031944992
vn 0.7071067811865476 0 -0.7071067811865476
vn 0.7071067811865476 0 -0.7071067811865476
vn 0.2588204031944992 0 -0.9659254623883962
vn 0.2588204031944992 0 -0.9659254623883962
vn -0.2588204031944992 0 -0.9659254623883962
vn -0.2588204031944992 0 -0.9659254623883962
vn -0.7071067811865476 0 -0.7071067811865476
vn -0.7071067811865476 0 -0.7071067811865476
vn -0.9659254623883962 0 -0.2588204031944992
vn -0.9659254623883962 0 -0.2588204031944992
vn -0.9659254623883962 0 0.2588204031944992
vn -0.9659254623883962 0 0.2588204031944992
vn -0.7071067811865476 0 0.7071067811865476
vn -0.7071067811865476 0 0.7071067811865476
vn -0.2588204031944992 0 0.9659254623883962
vn -0.2588204031944992 0 0.9659254623883962
usemtl m_aeaf2e53-40f1-1d39-20c1-db71d57a42f7
f 161/417/105 163/418/107 164/419/108
f 161/417/105 164/419/108 162/420/106
f 163/421/107 165/422/109 166/423/110
f 163/421/107 166/423/110 164/424/108
f 165/425/109 167/426/111 168/427/112
f 165/425/109 168/427/112 166/428/110
f 167/429/111 169/430/113 170/431/114
f 167/429/111 170/431/114 168/432/112
f 169/433/113 171/434/115 172/435/116
f 169/433/113 172/435/116 170/436/114
f 171/437/115 173/438/117 174/439/118
f 171/437/115 174/439/118 172/440/116
f 173/441/117 175/442/119 176/443/120
f 173/441/117 176/443/120 174/444/118
f 175/445/119 177/446/121 178/447/122
f 175/445/119 178/447/122 176/448/120
f 177/449/121 179/450/123 180/451/124
f 177/449/121 180/451/124 178/452/122
f 179/453/123 181/454/125 182/455/126
f 179/453/123 182/455/126 180/456/124
f 181/457/125 183/458/127 184/459/128
f 181/457/125 184/459/128 182/460/126
f 183/461/127 161/462/105 162/463/106
f 183/461/127 162/463/106 184/464/128
f 186/465/130 187/466/131 185/467/129
f 187/468/131 188/469/132 185/470/129
f 188/471/132 189/472/133 185/473/129
f 189/474/133 190/475/134 185/476/129
f 190/477/134 191/478/135 185/479/129
f 191/480/135 192/481/136 185/482/129
f 192/483/136 193/484/137 185/485/129
f 193/486/137 194/487/138 185/488/129
f 194/489/138 195/490/139 185/491/129
f 195/492/139 196/493/140 185/494/129
f 196/495/140 197/496/141 185/497/129
f 197/498/141 186/499/130 185/500/129
f 198/501/142 200/502/144 201/503/145
f 198/501/142 201/503/145 199/504/143
f 200/505/144 202/506/146 203/507/147
f 200/505/144 203/507/147 201/508/145
f 202/509/146 204/510/148 205/511/149
f 202/509/146 205/511/149 203/512/147
f 204/513/148 206/514/150 207/515/151
f 204/513/148 207/515/151 205/516/149
f 206/517/150 208/518/152 209/519/153
f 206/517/150 209/519/153 207/520/151
f 208/521/152 210/522/154 211/523/155
f 208/521/152 211/523/155 209/524/153
f 210/525/154 212/526/156 213/527/157
f 210/525/154 213/527/157 211/528/155
f 212/529/156 214/530/158 215/531/159
f 212/529/156 215/531/159 213/532/157
f 214/533/158 216/534/160 217/535/161
f 214/533/158 217/535/161 215/536/159
f 216/537/160 218/538/162 219/539/163
f 216/537/160 219/539/163 217/540/161
f 218/541/162 220/542/164 221/543/165
f 218/541/162 221/543/165 219/544/163
f 220/545/164 198/546/142 199/547/143
f 220/545/164 199/547/143 221/548/165
f 222/549/166 224/550/168 225/551/169
f 222/549/166 225/551/169 223/552/167
f 224/553/168 226/554/170 227/555/171
f 224/553/168 227/555/171 225/556/169
f 226/557/170 228/558/172 229/559/173
f 226/557/170 229/559/173 227/560/171
f 228/561/172 230/562/174 231/563/175
f 228/561/172 231/563/175 229/564/173
f 230/565/174 232/566/176 233/567/177
f 230/565/174 233/567/177 231/568/175
f 232/569/176 234/570/178 235/571/179
f 232/569/176 235/571/179 233/572/177
f 234/573/178 236/574/180 237/575/181
f 234/573/178 237/575/181 235/576/179
f 236/577/180 238/578/182 239/579/183
f 236/577/180 239/579/183 237/580/181
f 238/581/182 240/582/184 241/583/185
f 238/581/182 241/583/185 239/584/183
f 240/585/184 242/586/186 243/587/187
f 240/585/184 243/587/187 241/588/185
f 242/589/186 244/590/188 245/591/189
f 242/589/186 245/591/189 243/592/187
f 244/593/188 222/594/166 223/595/167
f 244/593/188 223/595/167 245/596/189
f 246/597/190 248/598/192 249/599/193
f 246/597/190 249/599/193 247/600/191
f 248/601/192 250/602/194 251/603/195
f 248/601/192 251/603/195 249/604/193
f 250/605/194 252/606/196 253/607/197
f 250/605/194 253/607/197 251/608/195
f 252/609/196 254/610/198 255/611/199
f 252/609/196 255/611/199 253/612/197
f 254/613/198 256/614/200 257/615/201
f 254/613/198 257/615/201 255/616/199
f 256/617/200 258/618/202 259/619/203
f 256/617/200 259/619/203 257/620/201
f 258/621/202 260/622/204 261/623/205
f 258/621/202 261/623/205 259/624/203
f 260/625/204 262/626/206 263/627/207
f 260/625/204 263/627/207 261/628/205
f 262/629/206 264/630/208 265/631/209
f 262/629/206 265/631/209 263/632/207
f 264/633/208 266/634/210 267/635/211
f 264/633/208 267/635/211 265/636/209
f 266/637/210 268/638/212 269/639/213
f 266/637/210 269/639/213 267/640/211
f 268/641/212 246/642/190 247/643/191
f 268/641/212 247/643/191 269/644/213
f 270/645/214 272/646/216 273/647/217
f 270/645/214 273/647/217 271/648/215
f 272/649/216 274/650/218 275/651/219
f 272/649/216 275/651/219 273/652/217
f 274/653/218 276/654/220 277/655/221
f 274/653/218 277/655/221 275/656/219
f 276/657/220 278/658/222 279/659/223
f 276/657/220 279/659/223 277/660/221
f 278/661/222 280/662/224 281/663/225
f 278/661/222 281/663/225 279/664/223
f 280/665/224 282/666/226 283/667/227
f 280/665/224 283/667/227 281/668/225
f 282/669/226 284/670/228 285/671/229
f 282/669/226 285/671/229 283/672/227
f 284/673/228 286/674/230 287/675/231
f 284/673/228 287/675/231 285/676/229
f 286/677/230 288/678/232 289/679/233
f 286/677/230 289/679/233 287/680/231
f 288/681/232 290/682/234 291/683/235
f 288/681/232 291/683/235 289/684/233
f 290/685/234 292/686/236 293/687/237
f 290/685/234 293/687/237 291/688/235
f 292/689/236 270/690/214 271/691/215
f 292/689/236 271/691/215 293/692/237
o Press
v 0.133974375 2.25 0.5
v 0.133974375 2.75 0.5
v 0.366025625 2.25 0.366025625
v 0.366025625 2.75 0.366025625
v 0.5 2.25 0.133974375
v 0.5 2.75 0.133974375
v 0.5 2.25 -0.133974375
v 0.5 2.75 -0.133974375
v 0.366025625 2.25 -0.366025625
v 0.366025625 2.75 -0.366025625
v 0.133974375 2.25 -0.5
v 0.133974375 2.75 -0.5
v -0.133974375 2.25 -0.5
v -0.133974375 2.75 -0.5
v -0.366025625 2.25 -0.366025625
v -0.366025625 2.75 -0.366025625
v -0.5 2.25 -0.133974375
v -0.5 2.75 -0.133974375
v -0.5 2.25 0.133974375
v -0.5 2.75 0.133974375
v -0.366025625 2.25 0.366025625
v -0.366025625 2.75 0.366025625
v -0.133974375 2.25 0.5
v -0.133974375 2.75 0.5
v 0 2.25 0
v 0.133974375 2.25 0.5
v 0.366025625 2.25 0.366025625
v 0.5 2.25 0.133974375
v 0.5 2.25 -0.133974375
v 0.366025625 2.25 -0.366025625
v 0.133974375 2.25 -0.5
v -0.133974375 2.25 -0.5
v -0.366025625 2.25 -0.366025625
v -0.5 2.25 -0.133974375
v -0.5 2.25 0.133974375
v -0.366025625 2.25 0.366025625
v -0.133974375 2.25 0.5
vt 0.3359375 0.84375
vt 0.3515625 0.84375
vt 0.3515625 0.875
vt 0.3359375 0.875
vt 0.3359375 0.84375
vt 0.3515625 0.84375
vt 0.3515625 0.875
vt 0.3359375 0.875
vt 0.3359375 0.84375
vt 0.3515625 0.84375
vt 0.3515625 0.875
vt 0.3359375 0.875
vt 0.3359375 0.84375
vt 0.3515625 0.84375
vt 0.3515625 0.875
vt 0.3359375 0.875
vt 0.3359375 0.84375
vt 0.3515625 0.84375
vt 0.3515625 0.875
vt 0.3359375 0.875
vt 0.3359375 0.84375
vt 0.3515625 0.84375
vt 0.3515625 0.875
vt 0.3359375 0.875
vt 0.3359375 0.84375
vt 0.3515625 0.84375
vt 0.3515625 0.875
vt 0.3359375 0.875
vt 0.3359375 0.84375
vt 0.3515625 0.84375
vt 0.3515625 0.875
vt 0.3359375 0.875
vt 0.3359375 0.84375
vt 0.3515625 0.84375
vt 0.3515625 0.875
vt 0.3359375 0.875
vt 0.3359375 0.84375
vt 0.3515625 0.84375
vt 0.3515625 0.875
vt 0.3359375 0.875
vt 0.3359375 0.84375
vt 0.3515625 0.84375
vt 0.3515625 0.875
vt 0.3359375 0.875
vt 0.3359375 0.84375
vt 0.3515625 0.84375
vt 0.3515625 0.875
vt 0.3359375 0.875
vt 0.390625 0.9296875
vt 0.375 0.9375
vt 0.3671875 0.90625
vt 0.3984375 0.9140625
vt 0.390625 0.9296875
vt 0.3671875 0.90625
vt 0.3984375 0.8984375
vt 0.3984375 0.9140625
vt 0.3671875 0.90625
vt 0.390625 0.8828125
vt 0.3984375 0.8984375
vt 0.3671875 0.90625
vt 0.375 0.875
vt 0.390625 0.8828125
vt 0.3671875 0.90625
vt 0.359375 0.875
vt 0.375 0.875
vt 0.3671875 0.90625
vt 0.34375 0.8828125
vt 0.359375 0.875
vt 0.3671875 0.90625
vt 0.3359375 0.8984375
vt 0.34375 0.8828125
vt 0.3671875 0.90625
vt 0.3359375 0.9140625
vt 0.3359375 0.8984375
vt 0.3671875 0.90625
vt 0.34375 0.9296875
vt 0.3359375 0.9140625
vt 0.3671875 0.90625
vt 0.359375 0.9375
vt 0.34375 0.9296875
vt 0.3671875 0.90625
vt 0.375 0.9375
vt 0.359375 0.9375
vt 0.3671875 0.90625
vn 0.2588183010661615 0 0.9659260256527028
vn 0.2588183010661615 0 0.9659260256527028
vn 0.7071067811865476 0 0.7071067811865476
vn 0.7071067811865476 0 0.7071067811865476
vn 0.9659260256527028 0 0.2588183010661615
vn 0.9659260256527028 0 0.2588183010661615
vn 0.9659260256527028 0 -0.2588183010661615
vn 0.9659260256527028 0 -0.2588183010661615
vn 0.7071067811865476 0 -0.7071067811865476
vn 0.7071067811865476 0 -0.7071067811865476
vn 0.2588183010661615 0 -0.9659260256527028
vn 0.2588183010661615 0 -0.9659260256527028
vn -0.2588183010661615 0 -0.9659260256527028
vn -0.2588183010661615 0 -0.9659260256527028
vn -0.7071067811865476 0 -0.7071067811865476
vn -0.7071067811865476 0 -0.7071067811865476
vn -0.9659260256527028 0 -0.2588183010661615
vn -0.9659260256527028 0 -0.2588183010661615
vn -0.9659260256527028 0 0.2588183010661615
vn -0.9659260256527028 0 0.2588183010661615
vn -0.7071067811865476 0 0.7071067811865476
vn -0.7071067811865476 0 0.7071067811865476
vn -0.2588183010661615 0 0.9659260256527028
vn -0.2588183010661615 0 0.9659260256527028
vn 0 -1 0
vn 0 -1 0
vn 0 -1 0
vn 0 -1 0
vn 0 -1 0
vn 0 -1 0
vn 0 -1 0
vn 0 -1 0
vn 0 -1 0
vn 0 -1 0
vn 0 -1 0
vn 0 -1 0
vn 0 -1 0
usemtl m_aeaf2e53-40f1-1d39-20c1-db71d57a42f7
f 294/693/238 296/694/240 297/695/241
f 294/693/238 297/695/241 295/696/239
f 296/697/240 298/698/242 299/699/243
f 296/697/240 299/699/243 297/700/241
f 298/701/242 300/702/244 301/703/245
f 298/701/242 301/703/245 299/704/243
f 300/705/244 302/706/246 303/707/247
f 300/705/244 303/707/247 301/708/245
f 302/709/246 304/710/248 305/711/249
f 302/709/246 305/711/249 303/712/247
f 304/713/248 306/714/250 307/715/251
f 304/713/248 307/715/251 305/716/249
f 306/717/250 308/718/252 309/719/253
f 306/717/250 309/719/253 307/720/251
f 308/721/252 310/722/254 311/723/255
f 308/721/252 311/723/255 309/724/253
f 310/725/254 312/726/256 313/727/257
f 310/725/254 313/727/257 311/728/255
f 312/729/256 314/730/258 315/731/259
f 312/729/256 315/731/259 313/732/257
f 314/733/258 316/734/260 317/735/261
f 314/733/258 317/735/261 315/736/259
f 316/737/260 294/738/238 295/739/239
f 316/737/260 295/739/239 317/740/261
f 320/741/264 319/742/263 318/743/262
f 321/744/265 320/745/264 318/746/262
f 322/747/266 321/748/265 318/749/262
f 323/750/267 322/751/266 318/752/262
f 324/753/268 323/754/267 318/755/262
f 325/756/269 324/757/268 318/758/262
f 326/759/270 325/760/269 318/761/262
f 327/762/271 326/763/270 318/764/262
f 328/765/272 327/766/271 318/767/262
f 329/768/273 328/769/272 318/770/262
f 330/771/274 329/772/273 318/773/262
f 319/774/263 330/775/274 318/776/262
o Cogwheel1
v 0.13541666666666666 1 -0.5416666666666666
v 0.13541666666666666 1 -0.8125
v 0.13541666666666666 0.75 -0.5416666666666666
v 0.13541666666666666 0.75 -0.8125
v -0.13541666666666666 1 -0.5416666666666666
v -0.13541666666666666 1 -0.8125
v -0.13541666666666666 0.75 -0.5416666666666666
v -0.13541666666666666 0.75 -0.8125
v -0.2872621298570349 1 -0.47877021642839146
v -0.47877021642839157 1 -0.6702783029997481
v -0.2872621298570349 0.75 -0.47877021642839146
v -0.47877021642839157 0.75 -0.6702783029997481
v -0.4787702164283915 1 -0.28726212985703486
v -0.6702783029997482 1 -0.47877021642839146
v -0.4787702164283915 0.75 -0.28726212985703486
v -0.6702783029997482 0.75 -0.47877021642839146
v -0.5416666666666666 1 -0.13541666666666677
v -0.8125 1 -0.13541666666666682
v -0.5416666666666666 0.75 -0.13541666666666677
v -0.8125 0.75 -0.13541666666666682
v -0.5416666666666666 1 0.13541666666666655
v -0.8125 1 0.1354166666666665
v -0.5416666666666666 0.75 0.13541666666666655
v -0.8125 0.75 0.1354166666666665
v -0.47877021642839157 1 0.2872621298570348
v -0.6702783029997482 1 0.4787702164283914
v -0.47877021642839157 0.75 0.2872621298570348
v -0.6702783029997482 0.75 0.4787702164283914
v -0.28726212985703503 1 0.4787702164283915
v -0.47877021642839157 1 0.6702783029997481
v -0.28726212985703503 0.75 0.4787702164283915
v -0.47877021642839157 0.75 0.6702783029997481
v -0.1354166666666666 1 0.5416666666666666
v -0.13541666666666655 1 0.8125
v -0.1354166666666666 0.75 0.5416666666666666
v -0.13541666666666655 0.75 0.8125
v 0.1354166666666667 1 0.5416666666666666
v 0.13541666666666674 1 0.8125
v 0.1354166666666667 0.75 0.5416666666666666
v 0.13541666666666674 0.75 0.8125
v 0.4787702164283915 1 -0.28726212985703486
v 0.6702783029997482 1 -0.47877021642839146
v 0.4787702164283915 0.75 -0.28726212985703486
v 0.6702783029997482 0.75 -0.47877021642839146
v 0.2872621298570349 1 -0.47877021642839146
v 0.47877021642839157 1 -0.6702783029997481
v 0.2872621298570349 0.75 -0.47877021642839146
v 0.47877021642839157 0.75 -0.6702783029997481
v 0.5416666666666666 1 0.13541666666666655
v 0.8125 1 0.1354166666666665
v 0.5416666666666666 0.75 0.13541666666666655
v 0.8125 0.75 0.1354166666666665
v 0.5416666666666666 1 -0.13541666666666677
v 0.8125 1 -0.13541666666666682
v 0.5416666666666666 0.75 -0.13541666666666677
v 0.8125 0.75 -0.13541666666666682
v 0.28726212985703503 1 0.4787702164283915
v 0.47877021642839157 1 0.6702783029997481
v 0.28726212985703503 0.75 0.4787702164283915
v 0.47877021642839157 0.75 0.6702783029997481
v 0.47877021642839157 1 0.2872621298570348
v 0.6702783029997482 1 0.4787702164283914
v 0.47877021642839157 0.75 0.2872621298570348
v 0.6702783029997482 0.75 0.4787702164283914
v 0.11218283980937992 0.75 0.2708333333333333
v 0.11218283980937992 1 0.2708333333333333
v 0.2708333333333333 0.75 0.11218283980937993
v 0.2708333333333333 1 0.11218283980937993
v 0.2708333333333333 0.75 -0.1121828398093799
v 0.2708333333333333 1 -0.1121828398093799
v 0.11218283980937994 0.75 -0.2708333333333333
v 0.11218283980937994 1 -0.2708333333333333
v -0.11218283980937989 0.75 -0.27083333333333337
v -0.11218283980937989 1 -0.27083333333333337
v -0.27083333333333326 0.75 -0.11218283980938008
v -0.27083333333333326 1 -0.11218283980938008
v -0.27083333333333326 0.75 0.11218283980937997
v -0.27083333333333326 1 0.11218283980937997
v -0.1121828398093801 0.75 0.27083333333333326
v -0.1121828398093801 1 0.27083333333333326
vt 0.47265625 0.984375
vt 0.47265625 0.96875
vt 0.48828125 0.96875
vt 0.48828125 0.984375
vt 0.47265625 0.96875
vt 0.48828125 0.96875
vt 0.48828125 0.984375
vt 0.47265625 0.984375
vt 0.47265625 0.96875
vt 0.48828125 0.96875
vt 0.48828125 0.984375
vt 0.47265625 0.984375
vt 0.48828125 0.984375
vt 0.48828125 0.96875
vt 0.47265625 0.96875
vt 0.47265625 0.984375
vt 0.48828125 1
vt 0.47265625 1
vt 0.47265625 0.984375
vt 0.48828125 0.984375
vt 0.47265625 0.984375
vt 0.47265625 0.96875
vt 0.48828125 0.96875
vt 0.48828125 0.984375
vt 0.47265625 0.96875
vt 0.48828125 0.96875
vt 0.48828125 0.984375
vt 0.47265625 0.984375
vt 0.47265625 0.96875
vt 0.48828125 0.96875
vt 0.48828125 0.984375
vt 0.47265625 0.984375
vt 0.48828125 0.984375
vt 0.48828125 0.96875
vt 0.47265625 0.96875
vt 0.47265625 0.984375
vt 0.48828125 1
vt 0.47265625 1
vt 0.47265625 0.984375
vt 0.48828125 0.984375
vt 0.47265625 0.984375
vt 0.47265625 0.96875
vt 0.48828125 0.96875
vt 0.48828125 0.984375
vt 0.47265625 0.96875
vt 0.48828125 0.96875
vt 0.48828125 0.984375
vt 0.47265625 0.984375
vt 0.47265625 0.96875
vt 0.48828125 0.96875
vt 0.48828125 0.984375
vt 0.47265625 0.984375
vt 0.48828125 0.984375
vt 0.48828125 0.96875
vt 0.47265625 0.96875
vt 0.47265625 0.984375
vt 0.48828125 1
vt 0.47265625 1
vt 0.47265625 0.984375
vt 0.48828125 0.984375
vt 0.47265625 0.984375
vt 0.47265625 0.96875
vt 0.48828125 0.96875
vt 0.48828125 0.984375
vt 0.47265625 0.96875
vt 0.48828125 0.96875
vt 0.48828125 0.984375
vt 0.47265625 0.984375
vt 0.47265625 0.96875
vt 0.48828125 0.96875
vt 0.48828125 0.984375
vt 0.47265625 0.984375
vt 0.48828125 0.984375
vt 0.48828125 0.96875
vt 0.47265625 0.96875
vt 0.47265625 0.984375
vt 0.48828125 1
vt 0.47265625 1
vt 0.47265625 0.984375
vt 0.48828125 0.984375
vt 0.47265625 0.984375
vt 0.47265625 0.96875
vt 0.48828125 0.96875
vt 0.48828125 0.984375
vt 0.47265625 0.96875
vt 0.48828125 0.96875
vt 0.48828125 0.984375
vt 0.47265625 0.984375
vt 0.47265625 0.96875
vt 0.48828125 0.96875
vt 0.48828125 0.984375
vt 0.47265625 0.984375
vt 0.48828125 0.984375
vt 0.48828125 0.96875
vt 0.47265625 0.96875
vt 0.47265625 0.984375
vt 0.48828125 1
vt 0.47265625 1
vt 0.47265625 0.984375
vt 0.48828125 0.984375
vt 0.47265625 0.984375
vt 0.47265625 0.96875
vt 0.48828125 0.96875
vt 0.48828125 0.984375
vt 0.47265625 0.96875
vt 0.48828125 0.96875
vt 0.48828125 0.984375
vt 0.47265625 0.984375
vt 0.47265625 0.96875
vt 0.48828125 0.96875
vt 0.48828125 0.984375
vt 0.47265625 0.984375
vt 0.48828125 0.984375
vt 0.48828125 0.96875
vt 0.47265625 0.96875
vt 0.47265625 0.984375
vt 0.48828125 1
vt 0.47265625 1
vt 0.47265625 0.984375
vt 0.48828125 0.984375
vt 0.47265625 0.984375
vt 0.47265625 0.96875
vt 0.48828125 0.96875
vt 0.48828125 0.984375
vt 0.47265625 0.96875
vt 0.48828125 0.96875
vt 0.48828125 0.984375
vt 0.47265625 0.984375
vt 0.47265625 0.96875
vt 0.48828125 0.96875
vt 0.48828125 0.984375
vt 0.47265625 0.984375
vt 0.48828125 0.984375
vt 0.48828125 0.96875
vt 0.47265625 0.96875
vt 0.47265625 0.984375
vt 0.48828125 1
vt 0.47265625 1
vt 0.47265625 0.984375
vt 0.48828125 0.984375
vt 0.47265625 0.984375
vt 0.47265625 0.96875
vt 0.48828125 0.96875
vt 0.48828125 0.984375
vt 0.47265625 0.96875
vt 0.48828125 0.96875
vt 0.48828125 0.984375
vt 0.47265625 0.984375
vt 0.47265625 0.96875
vt 0.48828125 0.96875
vt 0.48828125 0.984375
vt 0.47265625 0.984375
vt 0.48828125 0.984375
vt 0.48828125 0.96875
vt 0.47265625 0.96875
vt 0.47265625 0.984375
vt 0.48828125 1
vt 0.47265625 1
vt 0.47265625 0.984375
vt 0.48828125 0.984375
vt 0.484375 0.96875
vt 0.4765625 0.96875
vt 0.4765625 0.953125
vt 0.484375 0.953125
vt 0.484375 0.96875
vt 0.4765625 0.96875
vt 0.4765625 0.953125
vt 0.484375 0.953125
vt 0.4765625 0.953125
vt 0.484375 0.953125
vt 0.484375 0.96875
vt 0.4765625 0.96875
vt 0.484375 0.96875
vt 0.4765625 0.96875
vt 0.4765625 0.953125
vt 0.484375 0.953125
vt 0.4765625 0.953125
vt 0.484375 0.953125
vt 0.484375 0.96875
vt 0.4765625 0.96875
vt 0.484375 0.96875
vt 0.4765625 0.96875
vt 0.4765625 0.953125
vt 0.484375 0.953125
vt 0.484375 0.96875
vt 0.4765625 0.96875
vt 0.4765625 0.953125
vt 0.484375 0.953125
vt 0.4765625 0.953125
vt 0.484375 0.953125
vt 0.484375 0.96875
vt 0.4765625 0.96875
vt 0.484375 0.96875
vt 0.484375 0.953125
vt 0.47265625 0.953125
vt 0.47265625 0.96875
vt 0.484375 0.96875
vt 0.484375 0.953125
vt 0.47265625 0.953125
vt 0.47265625 0.96875
vt 0.484375 0.96875
vt 0.484375 0.953125
vt 0.47265625 0.953125
vt 0.47265625 0.96875
vt 0.484375 0.96875
vt 0.484375 0.953125
vt 0.47265625 0.953125
vt 0.47265625 0.96875
vt 0.484375 0.96875
vt 0.484375 0.953125
vt 0.47265625 0.953125
vt 0.47265625 0.96875
vt 0.484375 0.96875
vt 0.484375 0.953125
vt 0.47265625 0.953125
vt 0.47265625 0.96875
vt 0.484375 0.96875
vt 0.484375 0.953125
vt 0.47265625 0.953125
vt 0.47265625 0.96875
vt 0.484375 0.96875
vt 0.484375 0.953125
vt 0.47265625 0.953125
vt 0.47265625 0.96875
vt 0.4726559737864136 0.9687497237864136
vt 0.473996714534804 0.9531248736308822
vt 0.4869406356207275 0.9531248736308822
vt 0.4882813763691179 0.9687497237864136
vt 0.47265625 0.96875
vt 0.473996484375 0.953125
vt 0.48694101562500003 0.953125
vt 0.48828125 0.96875
vt 0.4882816525827043 0.96875
vt 0.47265625 0.96875
vt 0.4739969907483904 0.9531251498444685
vt 0.48694091183431387 0.9531251498444685
vt 0.47265625 0.96875
vt 0.473996484375 0.953125
vt 0.48694101562500003 0.953125
vt 0.48828125 0.96875
vt 0.4726559737864136 0.9687497237864136
vt 0.473996714534804 0.9531248736308822
vt 0.4869406356207275 0.9531248736308822
vt 0.4882813763691179 0.9687497237864136
vt 0.47265625 0.96875
vt 0.47399648437499997 0.953125
vt 0.486941015625 0.953125
vt 0.48828125 0.96875
vt 0.47265625 0.96875
vt 0.4739969907483904 0.9531251498444685
vt 0.48694091183431387 0.9531251498444685
vt 0.4882816525827043 0.96875
vt 0.47265625 0.96875
vt 0.47399648437499997 0.953125
vt 0.486941015625 0.953125
vt 0.48828125 0.96875
vt 0.48694101562500003 0.953125
vt 0.48828125 0.96875
vt 0.47265625 0.96875
vt 0.47399648437499997 0.953125
vt 0.48694091183431387 0.9531251498444685
vt 0.4882816525827043 0.96875
vt 0.47265625 0.96875
vt 0.4739969907483904 0.9531251498444685
vt 0.47265625 0.96875
vt 0.47399648437499997 0.953125
vt 0.48694101562500003 0.953125
vt 0.48828125 0.96875
vt 0.4726559737864136 0.9687497237864136
vt 0.473996714534804 0.9531248736308822
vt 0.4869406356207275 0.9531248736308822
vt 0.4882813763691179 0.9687497237864136
vt 0.47265625 0.96875
vt 0.47399648437499997 0.953125
vt 0.48694101562500003 0.953125
vt 0.48828125 0.96875
vt 0.47265625 0.96875
vt 0.4739969907483904 0.9531251498444685
vt 0.48694091183431387 0.9531251498444685
vt 0.4882816525827043 0.96875
vt 0.47265625 0.96875
vt 0.473996484375 0.953125
vt 0.48694101562500003 0.953125
vt 0.48828125 0.96875
vt 0.4869406356207275 0.9531248736308822
vt 0.4882813763691179 0.9687497237864136
vt 0.4726559737864136 0.9687497237864136
vt 0.473996714534804 0.9531248736308822
vt 0.48046875 0.953125
vt 0.484375 0.96875
vt 0.4765625 0.96875
vt 0.48046875 0.953125
vt 0.484375 0.96875
vt 0.4765625 0.96875
vt 0.48046875 0.953125
vt 0.484375 0.96875
vt 0.4765625 0.96875
vt 0.484375 0.96875
vt 0.4765625 0.96875
vt 0.48046875 0.953125
vt 0.484375 0.96875
vt 0.4765625 0.96875
vt 0.48046875 0.953125
vt 0.484375 0.96875
vt 0.4765625 0.96875
vt 0.48046875 0.953125
vt 0.4765625 0.96875
vt 0.48046875 0.953125
vt 0.484375 0.96875
vt 0.48046875 0.953125
vt 0.484375 0.96875
vt 0.4765625 0.96875
vt 0.4765625 0.96875
vt 0.48046875 0.953125
vt 0.484375 0.96875
vt 0.48046875 0.953125
vt 0.484375 0.96875
vt 0.4765625 0.96875
vt 0.48046875 0.953125
vt 0.484375 0.96875
vt 0.4765625 0.96875
vt 0.48046875 0.953125
vt 0.484375 0.96875
vt 0.4765625 0.96875
vt 0.484375 0.96875
vt 0.4765625 0.96875
vt 0.48046875 0.953125
vt 0.484375 0.96875
vt 0.4765625 0.96875
vt 0.48046875 0.953125
vt 0.4765625 0.96875
vt 0.48046875 0.953125
vt 0.484375 0.96875
vt 0.4765625 0.96875
vt 0.48046875 0.953125
vt 0.484375 0.96875
vn 1 0 0
vn -1 0 0
vn 0 1 0
vn 0 -1 0
vn 0 0 -1
vn 0.7071067811865476 0 -0.7071067811865476
vn -0.7071067811865474 0 0.7071067811865478
vn 0 1 0
vn 0 -1 0
vn -0.7071067811865476 0 -0.7071067811865476
vn 2.0496425070002886e-16 0 -1
vn -2.0496425070002886e-16 0 1
vn 0 1 0
vn 0 -1 0
vn -1 0 0
vn -0.7071067811865475 0 -0.7071067811865477
vn 0.7071067811865476 0 0.7071067811865475
vn 0 1 0
vn 0 -1 0
vn -0.7071067811865477 0 0.7071067811865475
vn -1 0 2.0496425070002886e-16
vn 1 0 -1.0248212535001443e-16
vn 0 1 0
vn 0 -1 0
vn 0 0 1
vn 0.7071067811865474 0 0.7071067811865478
vn -0.7071067811865476 0 -0.7071067811865476
vn 0 1 0
vn 0 -1 0
vn 0.7071067811865476 0 -0.7071067811865476
vn 2.0496425070002886e-16 0 1
vn -2.0496425070002886e-16 0 -1
vn 0 1 0
vn 0 -1 0
vn 1 0 0
vn -0.7071067811865476 0 0.7071067811865475
vn 0.7071067811865475 0 -0.7071067811865477
vn 0 1 0
vn 0 -1 0
vn 0.7071067811865477 0 0.7071067811865475
vn -0.38268343236509006 0 -0.9238795325112866
vn -0.9238795325112866 0 -0.3826834323650901
vn -0.9238795325112868 0 0.38268343236508945
vn -0.3826834323650895 0 0.9238795325112871
vn 0.38268343236508967 0 0.9238795325112868
vn 0.9238795325112868 0 0.38268343236508945
vn 0.9238795325112866 0 -0.3826834323650901
vn 0.38268343236509006 0 -0.9238795325112866
vn -0.7071067811865476 0 -0.7071067811865476
vn -1 0 0
vn -0.7071067811865476 0 0.7071067811865475
vn -2.474137369208244e-16 0 1
vn 0.7071067811865474 0 0.7071067811865478
vn 1 0 0
vn 0.7071067811865478 0 -0.7071067811865472
vn 2.474137369208242e-16 0 -1
vn 0 1 0
vn 0 1 0
vn 0 1 0
vn 0 1 0
vn 0 1 0
vn 0 1 0
vn 0 1 0
vn 0 1 0
vn 0 -1 0
vn 0 -1 0
vn 0 -1 0
vn 0 -1 0
vn 0 -1 0
vn 0 -1 0
vn 0 -1 0
vn 0 -1 0
vn 0 1 0
vn 0 1 0
vn 0 1 0
vn 0 1 0
vn 0 1 0
vn 0 1 0
vn 0 1 0
vn 0 1 0
vn 0 -1 0
vn 0 -1 0
vn 0 -1 0
vn 0 -1 0
vn 0 -1 0
vn 0 -1 0
vn 0 -1 0
vn 0 -1 0
usemtl m_aeaf2e53-40f1-1d39-20c1-db71d57a42f7
f 332/777/275 331/778/275 333/779/275
f 332/777/275 333/779/275 334/780/275
f 337/781/276 335/782/276 336/783/276
f 337/781/276 336/783/276 338/784/276
f 335/785/277 331/786/277 332/787/277
f 335/785/277 332/787/277 336/788/277
f 334/789/278 333/790/278 337/791/278
f 334/789/278 337/791/278 338/792/278
f 336/793/279 332/794/279 334/795/279
f 336/793/279 334/795/279 338/796/279
f 340/797/280 339/798/280 341/799/280
f 340/797/280 341/799/280 342/800/280
f 345/801/281 343/802/281 344/803/281
f 345/801/281 344/803/281 346/804/281
f 343/805/282 339/806/282 340/807/282
f 343/805/282 340/807/282 344/808/282
f 342/809/283 341/810/283 345/811/283
f 342/809/283 345/811/283 346/812/283
f 344/813/284 340/814/284 342/815/284
f 344/813/284 342/815/284 346/816/284
f 348/817/285 347/818/285 349/819/285
f 348/817/285 349/819/285 350/820/285
f 353/821/286 351/822/286 352/823/286
f 353/821/286 352/823/286 354/824/286
f 351/825/287 347/826/287 348/827/287
f 351/825/287 348/827/287 352/828/287
f 350/829/288 349/830/288 353/831/288
f 350/829/288 353/831/288 354/832/288
f 352/833/289 348/834/289 350/835/289
f 352/833/289 350/835/289 354/836/289
f 356/837/290 355/838/290 357/839/290
f 356/837/290 357/839/290 358/840/290
f 361/841/291 359/842/291 360/843/291
f 361/841/291 360/843/291 362/844/291
f 359/845/292 355/846/292 356/847/292
f 359/845/292 356/847/292 360/848/292
f 358/849/293 357/850/293 361/851/293
f 358/849/293 361/851/293 362/852/293
f 360/853/294 356/854/294 358/855/294
f 360/853/294 358/855/294 362/856/294
f 364/857/295 363/858/295 365/859/295
f 364/857/295 365/859/295 366/860/295
f 369/861/296 367/862/296 368/863/296
f 369/861/296 368/863/296 370/864/296
f 367/865/297 363/866/297 364/867/297
f 367/865/297 364/867/297 368/868/297
f 366/869/298 365/870/298 369/871/298
f 366/869/298 369/871/298 370/872/298
f 368/873/299 364/874/299 366/875/299
f 368/873/299 366/875/299 370/876/299
f 372/877/300 371/878/300 373/879/300
f 372/877/300 373/879/300 374/880/300
f 377/881/301 375/882/301 376/883/301
f 377/881/301 376/883/301 378/884/301
f 375/885/302 371/886/302 372/887/302
f 375/885/302 372/887/302 376/888/302
f 374/889/303 373/890/303 377/891/303
f 374/889/303 377/891/303 378/892/303
f 376/893/304 372/894/304 374/895/304
f 376/893/304 374/895/304 378/896/304
f 380/897/305 379/898/305 381/899/305
f 380/897/305 381/899/305 382/900/305
f 385/901/306 383/902/306 384/903/306
f 385/901/306 384/903/306 386/904/306
f 383/905/307 379/906/307 380/907/307
f 383/905/307 380/907/307 384/908/307
f 382/909/308 381/910/308 385/911/308
f 382/909/308 385/911/308 386/912/308
f 384/913/309 380/914/309 382/915/309
f 384/913/309 382/915/309 386/916/309
f 388/917/310 387/918/310 389/919/310
f 388/917/310 389/919/310 390/920/310
f 393/921/311 391/922/311 392/923/311
f 393/921/311 392/923/311 394/924/311
f 391/925/312 387/926/312 388/927/312
f 391/925/312 388/927/312 392/928/312
f 390/929/313 389/930/313 393/931/313
f 390/929/313 393/931/313 394/932/313
f 392/933/314 388/934/314 390/935/314
f 392/933/314 390/935/314 394/936/314
f 339/937/315 335/938/315 337/939/315
f 339/937/315 337/939/315 341/940/315
f 347/941/316 343/942/316 345/943/316
f 347/941/316 345/943/316 349/944/316
f 353/945/317 357/946/317 355/947/317
f 353/945/317 355/947/317 351/948/317
f 363/949/318 359/950/318 361/951/318
f 363/949/318 361/951/318 365/952/318
f 369/953/319 389/954/319 387/955/319
f 369/953/319 387/955/319 367/956/319
f 379/957/320 391/958/320 393/959/320
f 379/957/320 393/959/320 381/960/320
f 371/961/321 383/962/321 385/963/321
f 371/961/321 385/963/321 373/964/321
f 377/965/322 333/966/322 331/967/322
f 377/965/322 331/967/322 375/968/322
f 398/969/323 397/970/323 395/971/323
f 398/969/323 395/971/323 396/972/323
f 400/973/324 399/974/324 397/975/324
f 400/973/324 397/975/324 398/976/324
f 402/977/325 401/978/325 399/979/325
f 402/977/325 399/979/325 400/980/325
f 404/981/326 403/982/326 401/983/326
f 404/981/326 401/983/326 402/984/326
f 406/985/327 405/986/327 403/987/327
f 406/985/327 403/987/327 404/988/327
f 408/989/328 407/990/328 405/991/328
f 408/989/328 405/991/328 406/992/328
f 410/993/329 409/994/329 407/995/329
f 410/993/329 407/995/329 408/996/329
f 396/997/330 395/998/330 409/999/330
f 396/997/330 409/999/330 410/1000/330
f 375/1001/331 402/1002/331 400/1003/331
f 375/1001/331 400/1003/331 371/1004/331
f 335/1005/332 404/1006/332 402/1007/332
f 335/1005/332 402/1007/332 331/1008/332
f 339/1009/333 343/1010/333 406/1011/333
f 339/1009/333 406/1011/333 404/1012/333
f 351/1013/334 408/1014/334 406/1015/334
f 351/1013/334 406/1015/334 347/1016/334
f 359/1017/335 410/1018/335 408/1019/335
f 359/1017/335 408/1019/335 355/1020/335
f 367/1021/336 396/1022/336 410/1023/336
f 367/1021/336 410/1023/336 363/1024/336
f 391/1025/337 398/1026/337 396/1027/337
f 391/1025/337 396/1027/337 387/1028/337
f 383/1029/338 400/1030/338 398/1031/338
f 383/1029/338 398/1031/338 379/1032/338
f 403/1033/339 337/1034/339 333/1035/339
f 403/1033/339 333/1035/339 401/1036/339
f 401/1037/340 377/1038/340 373/1039/340
f 401/1037/340 373/1039/340 399/1040/340
f 381/1041/341 397/1042/341 399/1043/341
f 381/1041/341 399/1043/341 385/1044/341
f 389/1045/342 395/1046/342 397/1047/342
f 389/1045/342 397/1047/342 393/1048/342
f 365/1049/343 409/1050/343 395/1051/343
f 365/1049/343 395/1051/343 369/1052/343
f 357/1053/344 407/1054/344 409/1055/344
f 357/1053/344 409/1055/344 361/1056/344
f 349/1057/345 405/1058/345 407/1059/345
f 349/1057/345 407/1059/345 353/1060/345
f 405/1061/346 345/1062/346 341/1063/346
f 405/1061/346 341/1063/346 403/1064/346
f 402/1065/347 375/1066/347 331/1067/347
f 400/1068/348 383/1069/348 371/1070/348
f 398/1071/349 391/1072/349 379/1073/349
f 367/1074/350 387/1075/350 396/1076/350
f 359/1077/351 363/1078/351 410/1079/351
f 351/1080/352 355/1081/352 408/1082/352
f 347/1083/353 406/1084/353 343/1085/353
f 404/1086/354 335/1087/354 339/1088/354
f 353/1089/355 407/1090/355 357/1091/355
f 409/1092/356 365/1093/356 361/1094/356
f 395/1095/357 389/1096/357 369/1097/357
f 397/1098/358 381/1099/358 393/1100/358
f 373/1101/359 385/1102/359 399/1103/359
f 333/1104/360 377/1105/360 401/1106/360
f 337/1107/361 403/1108/361 341/1109/361
f 345/1110/362 405/1111/362 349/1112/362
o Cogwheel2
v 0.13541666666666666 2.75 -0.5416666666666666
v 0.13541666666666666 2.75 -0.8125
v 0.13541666666666666 2.5 -0.5416666666666666
v 0.13541666666666666 2.5 -0.8125
v -0.13541666666666666 2.75 -0.5416666666666666
v -0.13541666666666666 2.75 -0.8125
v -0.13541666666666666 2.5 -0.5416666666666666
v -0.13541666666666666 2.5 -0.8125
v -0.2872621298570349 2.75 -0.47877021642839146
v -0.47877021642839157 2.75 -0.6702783029997481
v -0.2872621298570349 2.5 -0.47877021642839146
v -0.47877021642839157 2.5 -0.6702783029997481
v -0.4787702164283915 2.75 -0.28726212985703486
v -0.6702783029997482 2.75 -0.47877021642839146
v -0.4787702164283915 2.5 -0.28726212985703486
v -0.6702783029997482 2.5 -0.47877021642839146
v -0.5416666666666666 2.75 -0.13541666666666677
v -0.8125 2.75 -0.13541666666666682
v -0.5416666666666666 2.5 -0.13541666666666677
v -0.8125 2.5 -0.13541666666666682
v -0.5416666666666666 2.75 0.13541666666666655
v -0.8125 2.75 0.1354166666666665
v -0.5416666666666666 2.5 0.13541666666666655
v -0.8125 2.5 0.1354166666666665
v -0.47877021642839157 2.75 0.2872621298570348
v -0.6702783029997482 2.75 0.4787702164283914
v -0.47877021642839157 2.5 0.2872621298570348
v -0.6702783029997482 2.5 0.4787702164283914
v -0.28726212985703503 2.75 0.4787702164283915
v -0.47877021642839157 2.75 0.6702783029997481
v -0.28726212985703503 2.5 0.4787702164283915
v -0.47877021642839157 2.5 0.6702783029997481
v -0.1354166666666666 2.75 0.5416666666666666
v -0.13541666666666655 2.75 0.8125
v -0.1354166666666666 2.5 0.5416666666666666
v -0.13541666666666655 2.5 0.8125
v 0.1354166666666667 2.75 0.5416666666666666
v 0.13541666666666674 2.75 0.8125
v 0.1354166666666667 2.5 0.5416666666666666
v 0.13541666666666674 2.5 0.8125
v 0.4787702164283915 2.75 -0.28726212985703486
v 0.6702783029997482 2.75 -0.47877021642839146
v 0.4787702164283915 2.5 -0.28726212985703486
v 0.6702783029997482 2.5 -0.47877021642839146
v 0.2872621298570349 2.75 -0.47877021642839146
v 0.47877021642839157 2.75 -0.6702783029997481
v 0.2872621298570349 2.5 -0.47877021642839146
v 0.47877021642839157 2.5 -0.6702783029997481
v 0.5416666666666666 2.75 0.13541666666666655
v 0.8125 2.75 0.1354166666666665
v 0.5416666666666666 2.5 0.13541666666666655
v 0.8125 2.5 0.1354166666666665
v 0.5416666666666666 2.75 -0.13541666666666677
v 0.8125 2.75 -0.13541666666666682
v 0.5416666666666666 2.5 -0.13541666666666677
v 0.8125 2.5 -0.13541666666666682
v 0.28726212985703503 2.75 0.4787702164283915
v 0.47877021642839157 2.75 0.6702783029997481
v 0.28726212985703503 2.5 0.4787702164283915
v 0.47877021642839157 2.5 0.6702783029997481
v 0.47877021642839157 2.75 0.2872621298570348
v 0.6702783029997482 2.75 0.4787702164283914
v 0.47877021642839157 2.5 0.2872621298570348
v 0.6702783029997482 2.5 0.4787702164283914
v 0.11218283980937992 2.5 0.2708333333333333
v 0.11218283980937992 2.75 0.2708333333333333
v 0.2708333333333333 2.5 0.11218283980937993
v 0.2708333333333333 2.75 0.11218283980937993
v 0.2708333333333333 2.5 -0.1121828398093799
v 0.2708333333333333 2.75 -0.1121828398093799
v 0.11218283980937994 2.5 -0.2708333333333333
v 0.11218283980937994 2.75 -0.2708333333333333
v -0.11218283980937989 2.5 -0.27083333333333337
v -0.11218283980937989 2.75 -0.27083333333333337
v -0.27083333333333326 2.5 -0.11218283980938008
v -0.27083333333333326 2.75 -0.11218283980938008
v -0.27083333333333326 2.5 0.11218283980937997
v -0.27083333333333326 2.75 0.11218283980937997
v -0.1121828398093801 2.5 0.27083333333333326
v -0.1121828398093801 2.75 0.27083333333333326
vt 0.47265625 0.984375
vt 0.47265625 0.96875
vt 0.48828125 0.96875
vt 0.48828125 0.984375
vt 0.47265625 0.96875
vt 0.48828125 0.96875
vt 0.48828125 0.984375
vt 0.47265625 0.984375
vt 0.47265625 0.96875
vt 0.48828125 0.96875
vt 0.48828125 0.984375
vt 0.47265625 0.984375
vt 0.48828125 0.984375
vt 0.48828125 0.96875
vt 0.47265625 0.96875
vt 0.47265625 0.984375
vt 0.48828125 1
vt 0.47265625 1
vt 0.47265625 0.984375
vt 0.48828125 0.984375
vt 0.47265625 0.984375
vt 0.47265625 0.96875
vt 0.48828125 0.96875
vt 0.48828125 0.984375
vt 0.47265625 0.96875
vt 0.48828125 0.96875
vt 0.48828125 0.984375
vt 0.47265625 0.984375
vt 0.47265625 0.96875
vt 0.48828125 0.96875
vt 0.48828125 0.984375
vt 0.47265625 0.984375
vt 0.48828125 0.984375
vt 0.48828125 0.96875
vt 0.47265625 0.96875
vt 0.47265625 0.984375
vt 0.48828125 1
vt 0.47265625 1
vt 0.47265625 0.984375
vt 0.48828125 0.984375
vt 0.47265625 0.984375
vt 0.47265625 0.96875
vt 0.48828125 0.96875
vt 0.48828125 0.984375
vt 0.47265625 0.96875
vt 0.48828125 0.96875
vt 0.48828125 0.984375
vt 0.47265625 0.984375
vt 0.47265625 0.96875
vt 0.48828125 0.96875
vt 0.48828125 0.984375
vt 0.47265625 0.984375
vt 0.48828125 0.984375
vt 0.48828125 0.96875
vt 0.47265625 0.96875
vt 0.47265625 0.984375
vt 0.48828125 1
vt 0.47265625 1
vt 0.47265625 0.984375
vt 0.48828125 0.984375
vt 0.47265625 0.984375
vt 0.47265625 0.96875
vt 0.48828125 0.96875
vt 0.48828125 0.984375
vt 0.47265625 0.96875
vt 0.48828125 0.96875
vt 0.48828125 0.984375
vt 0.47265625 0.984375
vt 0.47265625 0.96875
vt 0.48828125 0.96875
vt 0.48828125 0.984375
vt 0.47265625 0.984375
vt 0.48828125 0.984375
vt 0.48828125 0.96875
vt 0.47265625 0.96875
vt 0.47265625 0.984375
vt 0.48828125 1
vt 0.47265625 1
vt 0.47265625 0.984375
vt 0.48828125 0.984375
vt 0.47265625 0.984375
vt 0.47265625 0.96875
vt 0.48828125 0.96875
vt 0.48828125 0.984375
vt 0.47265625 0.96875
vt 0.48828125 0.96875
vt 0.48828125 0.984375
vt 0.47265625 0.984375
vt 0.47265625 0.96875
vt 0.48828125 0.96875
vt 0.48828125 0.984375
vt 0.47265625 0.984375
vt 0.48828125 0.984375
vt 0.48828125 0.96875
vt 0.47265625 0.96875
vt 0.47265625 0.984375
vt 0.48828125 1
vt 0.47265625 1
vt 0.47265625 0.984375
vt 0.48828125 0.984375
vt 0.47265625 0.984375
vt 0.47265625 0.96875
vt 0.48828125 0.96875
vt 0.48828125 0.984375
vt 0.47265625 0.96875
vt 0.48828125 0.96875
vt 0.48828125 0.984375
vt 0.47265625 0.984375
vt 0.47265625 0.96875
vt 0.48828125 0.96875
vt 0.48828125 0.984375
vt 0.47265625 0.984375
vt 0.48828125 0.984375
vt 0.48828125 0.96875
vt 0.47265625 0.96875
vt 0.47265625 0.984375
vt 0.48828125 1
vt 0.47265625 1
vt 0.47265625 0.984375
vt 0.48828125 0.984375
vt 0.47265625 0.984375
vt 0.47265625 0.96875
vt 0.48828125 0.96875
vt 0.48828125 0.984375
vt 0.47265625 0.96875
vt 0.48828125 0.96875
vt 0.48828125 0.984375
vt 0.47265625 0.984375
vt 0.47265625 0.96875
vt 0.48828125 0.96875
vt 0.48828125 0.984375
vt 0.47265625 0.984375
vt 0.48828125 0.984375
vt 0.48828125 0.96875
vt 0.47265625 0.96875
vt 0.47265625 0.984375
vt 0.48828125 1
vt 0.47265625 1
vt 0.47265625 0.984375
vt 0.48828125 0.984375
vt 0.47265625 0.984375
vt 0.47265625 0.96875
vt 0.48828125 0.96875
vt 0.48828125 0.984375
vt 0.47265625 0.96875
vt 0.48828125 0.96875
vt 0.48828125 0.984375
vt 0.47265625 0.984375
vt 0.47265625 0.96875
vt 0.48828125 0.96875
vt 0.48828125 0.984375
vt 0.47265625 0.984375
vt 0.48828125 0.984375
vt 0.48828125 0.96875
vt 0.47265625 0.96875
vt 0.47265625 0.984375
vt 0.48828125 1
vt 0.47265625 1
vt 0.47265625 0.984375
vt 0.48828125 0.984375
vt 0.484375 0.96875
vt 0.4765625 0.96875
vt 0.4765625 0.953125
vt 0.484375 0.953125
vt 0.484375 0.96875
vt 0.4765625 0.96875
vt 0.4765625 0.953125
vt 0.484375 0.953125
vt 0.4765625 0.953125
vt 0.484375 0.953125
vt 0.484375 0.96875
vt 0.4765625 0.96875
vt 0.484375 0.96875
vt 0.4765625 0.96875
vt 0.4765625 0.953125
vt 0.484375 0.953125
vt 0.4765625 0.953125
vt 0.484375 0.953125
vt 0.484375 0.96875
vt 0.4765625 0.96875
vt 0.484375 0.96875
vt 0.4765625 0.96875
vt 0.4765625 0.953125
vt 0.484375 0.953125
vt 0.484375 0.96875
vt 0.4765625 0.96875
vt 0.4765625 0.953125
vt 0.484375 0.953125
vt 0.4765625 0.953125
vt 0.484375 0.953125
vt 0.484375 0.96875
vt 0.4765625 0.96875
vt 0.484375 0.96875
vt 0.484375 0.953125
vt 0.47265625 0.953125
vt 0.47265625 0.96875
vt 0.484375 0.96875
vt 0.484375 0.953125
vt 0.47265625 0.953125
vt 0.47265625 0.96875
vt 0.484375 0.96875
vt 0.484375 0.953125
vt 0.47265625 0.953125
vt 0.47265625 0.96875
vt 0.484375 0.96875
vt 0.484375 0.953125
vt 0.47265625 0.953125
vt 0.47265625 0.96875
vt 0.484375 0.96875
vt 0.484375 0.953125
vt 0.47265625 0.953125
vt 0.47265625 0.96875
vt 0.484375 0.96875
vt 0.484375 0.953125
vt 0.47265625 0.953125
vt 0.47265625 0.96875
vt 0.484375 0.96875
vt 0.484375 0.953125
vt 0.47265625 0.953125
vt 0.47265625 0.96875
vt 0.484375 0.96875
vt 0.484375 0.953125
vt 0.47265625 0.953125
vt 0.47265625 0.96875
vt 0.4726559737864136 0.9687497237864136
vt 0.473996714534804 0.9531248736308822
vt 0.4869406356207275 0.9531248736308822
vt 0.4882813763691179 0.9687497237864136
vt 0.47265625 0.96875
vt 0.473996484375 0.953125
vt 0.48694101562500003 0.953125
vt 0.48828125 0.96875
vt 0.4882816525827043 0.96875
vt 0.47265625 0.96875
vt 0.4739969907483904 0.9531251498444685
vt 0.48694091183431387 0.9531251498444685
vt 0.47265625 0.96875
vt 0.473996484375 0.953125
vt 0.48694101562500003 0.953125
vt 0.48828125 0.96875
vt 0.4726559737864136 0.9687497237864136
vt 0.473996714534804 0.9531248736308822
vt 0.4869406356207275 0.9531248736308822
vt 0.4882813763691179 0.9687497237864136
vt 0.47265625 0.96875
vt 0.47399648437499997 0.953125
vt 0.486941015625 0.953125
vt 0.48828125 0.96875
vt 0.47265625 0.96875
vt 0.4739969907483904 0.9531251498444685
vt 0.48694091183431387 0.9531251498444685
vt 0.4882816525827043 0.96875
vt 0.47265625 0.96875
vt 0.47399648437499997 0.953125
vt 0.486941015625 0.953125
vt 0.48828125 0.96875
vt 0.48694101562500003 0.953125
vt 0.48828125 0.96875
vt 0.47265625 0.96875
vt 0.47399648437499997 0.953125
vt 0.48694091183431387 0.9531251498444685
vt 0.4882816525827043 0.96875
vt 0.47265625 0.96875
vt 0.4739969907483904 0.9531251498444685
vt 0.47265625 0.96875
vt 0.47399648437499997 0.953125
vt 0.48694101562500003 0.953125
vt 0.48828125 0.96875
vt 0.4726559737864136 0.9687497237864136
vt 0.473996714534804 0.9531248736308822
vt 0.4869406356207275 0.9531248736308822
vt 0.4882813763691179 0.9687497237864136
vt 0.47265625 0.96875
vt 0.47399648437499997 0.953125
vt 0.48694101562500003 0.953125
vt 0.48828125 0.96875
vt 0.47265625 0.96875
vt 0.4739969907483904 0.9531251498444685
vt 0.48694091183431387 0.9531251498444685
vt 0.4882816525827043 0.96875
vt 0.47265625 0.96875
vt 0.473996484375 0.953125
vt 0.48694101562500003 0.953125
vt 0.48828125 0.96875
vt 0.4869406356207275 0.9531248736308822
vt 0.4882813763691179 0.9687497237864136
vt 0.4726559737864136 0.9687497237864136
vt 0.473996714534804 0.9531248736308822
vt 0.48046875 0.953125
vt 0.484375 0.96875
vt 0.4765625 0.96875
vt 0.48046875 0.953125
vt 0.484375 0.96875
vt 0.4765625 0.96875
vt 0.48046875 0.953125
vt 0.484375 0.96875
vt 0.4765625 0.96875
vt 0.484375 0.96875
vt 0.4765625 0.96875
vt 0.48046875 0.953125
vt 0.484375 0.96875
vt 0.4765625 0.96875
vt 0.48046875 0.953125
vt 0.484375 0.96875
vt 0.4765625 0.96875
vt 0.48046875 0.953125
vt 0.4765625 0.96875
vt 0.48046875 0.953125
vt 0.484375 0.96875
vt 0.48046875 0.953125
vt 0.484375 0.96875
vt 0.4765625 0.96875
vt 0.4765625 0.96875
vt 0.48046875 0.953125
vt 0.484375 0.96875
vt 0.48046875 0.953125
vt 0.484375 0.96875
vt 0.4765625 0.96875
vt 0.48046875 0.953125
vt 0.484375 0.96875
vt 0.4765625 0.96875
vt 0.48046875 0.953125
vt 0.484375 0.96875
vt 0.4765625 0.96875
vt 0.484375 0.96875
vt 0.4765625 0.96875
vt 0.48046875 0.953125
vt 0.484375 0.96875
vt 0.4765625 0.96875
vt 0.48046875 0.953125
vt 0.4765625 0.96875
vt 0.48046875 0.953125
vt 0.484375 0.96875
vt 0.4765625 0.96875
vt 0.48046875 0.953125
vt 0.484375 0.96875
vn 1 0 0
vn -1 0 0
vn 0 1 0
vn 0 -1 0
vn 0 0 -1
vn 0.7071067811865476 0 -0.7071067811865476
vn -0.7071067811865474 0 0.7071067811865478
vn 0 1 0
vn 0 -1 0
vn -0.7071067811865476 0 -0.7071067811865476
vn 2.0496425070002886e-16 0 -1
vn -2.0496425070002886e-16 0 1
vn 0 1 0
vn 0 -1 0
vn -1 0 0
vn -0.7071067811865475 0 -0.7071067811865477
vn 0.7071067811865476 0 0.7071067811865475
vn 0 1 0
vn 0 -1 0
vn -0.7071067811865477 0 0.7071067811865475
vn -1 0 2.0496425070002886e-16
vn 1 0 -1.0248212535001443e-16
vn 0 1 0
vn 0 -1 0
vn 0 0 1
vn 0.7071067811865474 0 0.7071067811865478
vn -0.7071067811865476 0 -0.7071067811865476
vn 0 1 0
vn 0 -1 0
vn 0.7071067811865476 0 -0.7071067811865476
vn 2.0496425070002886e-16 0 1
vn -2.0496425070002886e-16 0 -1
vn 0 1 0
vn 0 -1 0
vn 1 0 0
vn -0.7071067811865476 0 0.7071067811865475
vn 0.7071067811865475 0 -0.7071067811865477
vn 0 1 0
vn 0 -1 0
vn 0.7071067811865477 0 0.7071067811865475
vn -0.38268343236509006 0 -0.9238795325112866
vn -0.9238795325112866 0 -0.3826834323650901
vn -0.9238795325112868 0 0.38268343236508945
vn -0.3826834323650895 0 0.9238795325112871
vn 0.38268343236508967 0 0.9238795325112868
vn 0.9238795325112868 0 0.38268343236508945
vn 0.9238795325112866 0 -0.3826834323650901
vn 0.38268343236509006 0 -0.9238795325112866
vn -0.7071067811865476 0 -0.7071067811865476
vn -1 0 0
vn -0.7071067811865476 0 0.7071067811865475
vn -2.474137369208244e-16 0 1
vn 0.7071067811865474 0 0.7071067811865478
vn 1 0 0
vn 0.7071067811865478 0 -0.7071067811865472
vn 2.474137369208242e-16 0 -1
vn 0 1 0
vn 0 1 0
vn 0 1 0
vn 0 1 0
vn 0 1 0
vn 0 1 0
vn 0 1 0
vn 0 1 0
vn 0 -1 0
vn 0 -1 0
vn 0 -1 0
vn 0 -1 0
vn 0 -1 0
vn 0 -1 0
vn 0 -1 0
vn 0 -1 0
vn 0 1 0
vn 0 1 0
vn 0 1 0
vn 0 1 0
vn 0 1 0
vn 0 1 0
vn 0 1 0
vn 0 1 0
vn 0 -1 0
vn 0 -1 0
vn 0 -1 0
vn 0 -1 0
vn 0 -1 0
vn 0 -1 0
vn 0 -1 0
vn 0 -1 0
usemtl m_aeaf2e53-40f1-1d39-20c1-db71d57a42f7
f 412/1113/363 411/1114/363 413/1115/363
f 412/1113/363 413/1115/363 414/1116/363
f 417/1117/364 415/1118/364 416/1119/364
f 417/1117/364 416/1119/364 418/1120/364
f 415/1121/365 411/1122/365 412/1123/365
f 415/1121/365 412/1123/365 416/1124/365
f 414/1125/366 413/1126/366 417/1127/366
f 414/1125/366 417/1127/366 418/1128/366
f 416/1129/367 412/1130/367 414/1131/367
f 416/1129/367 414/1131/367 418/1132/367
f 420/1133/368 419/1134/368 421/1135/368
f 420/1133/368 421/1135/368 422/1136/368
f 425/1137/369 423/1138/369 424/1139/369
f 425/1137/369 424/1139/369 426/1140/369
f 423/1141/370 419/1142/370 420/1143/370
f 423/1141/370 420/1143/370 424/1144/370
f 422/1145/371 421/1146/371 425/1147/371
f 422/1145/371 425/1147/371 426/1148/371
f 424/1149/372 420/1150/372 422/1151/372
f 424/1149/372 422/1151/372 426/1152/372
f 428/1153/373 427/1154/373 429/1155/373
f 428/1153/373 429/1155/373 430/1156/373
f 433/1157/374 431/1158/374 432/1159/374
f 433/1157/374 432/1159/374 434/1160/374
f 431/1161/375 427/1162/375 428/1163/375
f 431/1161/375 428/1163/375 432/1164/375
f 430/1165/376 429/1166/376 433/1167/376
f 430/1165/376 433/1167/376 434/1168/376
f 432/1169/377 428/1170/377 430/1171/377
f 432/1169/377 430/1171/377 434/1172/377
f 436/1173/378 435/1174/378 437/1175/378
f 436/1173/378 437/1175/378 438/1176/378
f 441/1177/379 439/1178/379 440/1179/379
f 441/1177/379 440/1179/379 442/1180/379
f 439/1181/380 435/1182/380 436/1183/380
f 439/1181/380 436/1183/380 440/1184/380
f 438/1185/381 437/1186/381 441/1187/381
f 438/1185/381 441/1187/381 442/1188/381
f 440/1189/382 436/1190/382 438/1191/382
f 440/1189/382 438/1191/382 442/1192/382
f 444/1193/383 443/1194/383 445/1195/383
f 444/1193/383 445/1195/383 446/1196/383
f 449/1197/384 447/1198/384 448/1199/384
f 449/1197/384 448/1199/384 450/1200/384
f 447/1201/385 443/1202/385 444/1203/385
f 447/1201/385 444/1203/385 448/1204/385
f 446/1205/386 445/1206/386 449/1207/386
f 446/1205/386 449/1207/386 450/1208/386
f 448/1209/387 444/1210/387 446/1211/387
f 448/1209/387 446/1211/387 450/1212/387
f 452/1213/388 451/1214/388 453/1215/388
f 452/1213/388 453/1215/388 454/1216/388
f 457/1217/389 455/1218/389 456/1219/389
f 457/1217/389 456/1219/389 458/1220/389
f 455/1221/390 451/1222/390 452/1223/390
f 455/1221/390 452/1223/390 456/1224/390
f 454/1225/391 453/1226/391 457/1227/391
f 454/1225/391 457/1227/391 458/1228/391
f 456/1229/392 452/1230/392 454/1231/392
f 456/1229/392 454/1231/392 458/1232/392
f 460/1233/393 459/1234/393 461/1235/393
f 460/1233/393 461/1235/393 462/1236/393
f 465/1237/394 463/1238/394 464/1239/394
f 465/1237/394 464/1239/394 466/1240/394
f 463/1241/395 459/1242/395 460/1243/395
f 463/1241/395 460/1243/395 464/1244/395
f 462/1245/396 461/1246/396 465/1247/396
f 462/1245/396 465/1247/396 466/1248/396
f 464/1249/397 460/1250/397 462/1251/397
f 464/1249/397 462/1251/397 466/1252/397
f 468/1253/398 467/1254/398 469/1255/398
f 468/1253/398 469/1255/398 470/1256/398
f 473/1257/399 471/1258/399 472/1259/399
f 473/1257/399 472/1259/399 474/1260/399
f 471/1261/400 467/1262/400 468/1263/400
f 471/1261/400 468/1263/400 472/1264/400
f 470/1265/401 469/1266/401 473/1267/401
f 470/1265/401 473/1267/401 474/1268/401
f 472/1269/402 468/1270/402 470/1271/402
f 472/1269/402 470/1271/402 474/1272/402
f 419/1273/403 415/1274/403 417/1275/403
f 419/1273/403 417/1275/403 421/1276/403
f 427/1277/404 423/1278/404 425/1279/404
f 427/1277/404 425/1279/404 429/1280/404
f 433/1281/405 437/1282/405 435/1283/405
f 433/1281/405 435/1283/405 431/1284/405
f 443/1285/406 439/1286/406 441/1287/406
f 443/1285/406 441/1287/406 445/1288/406
f 449/1289/407 469/1290/407 467/1291/407
f 449/1289/407 467/1291/407 447/1292/407
f 459/1293/408 471/1294/408 473/1295/408
f 459/1293/408 473/1295/408 461/1296/408
f 451/1297/409 463/1298/409 465/1299/409
f 451/1297/409 465/1299/409 453/1300/409
f 457/1301/410 413/1302/410 411/1303/410
f 457/1301/410 411/1303/410 455/1304/410
f 478/1305/411 477/1306/411 475/1307/411
f 478/1305/411 475/1307/411 476/1308/411
f 480/1309/412 479/1310/412 477/1311/412
f 480/1309/412 477/1311/412 478/1312/412
f 482/1313/413 481/1314/413 479/1315/413
f 482/1313/413 479/1315/413 480/1316/413
f 484/1317/414 483/1318/414 481/1319/414
f 484/1317/414 481/1319/414 482/1320/414
f 486/1321/415 485/1322/415 483/1323/415
f 486/1321/415 483/1323/415 484/1324/415
f 488/1325/416 487/1326/416 485/1327/416
f 488/1325/416 485/1327/416 486/1328/416
f 490/1329/417 489/1330/417 487/1331/417
f 490/1329/417 487/1331/417 488/1332/417
f 476/1333/418 475/1334/418 489/1335/418
f 476/1333/418 489/1335/418 490/1336/418
f 455/1337/419 482/1338/419 480/1339/419
f 455/1337/419 480/1339/419 451/1340/419
f 415/1341/420 484/1342/420 482/1343/420
f 415/1341/420 482/1343/420 411/1344/420
f 419/1345/421 423/1346/421 486/1347/421
f 419/1345/421 486/1347/421 484/1348/421
f 431/1349/422 488/1350/422 486/1351/422
f 431/1349/422 486/1351/422 427/1352/422
f 439/1353/423 490/1354/423 488/1355/423
f 439/1353/423 488/1355/423 435/1356/423
f 447/1357/424 476/1358/424 490/1359/424
f 447/1357/424 490/1359/424 443/1360/424
f 471/1361/425 478/1362/425 476/1363/425
f 471/1361/425 476/1363/425 467/1364/425
f 463/1365/426 480/1366/426 478/1367/426
f 463/1365/426 478/1367/426 459/1368/426
f 483/1369/427 417/1370/427 413/1371/427
f 483/1369/427 413/1371/427 481/1372/427
f 481/1373/428 457/1374/428 453/1375/428
f 481/1373/428 453/1375/428 479/1376/428
f 461/1377/429 477/1378/429 479/1379/429
f 461/1377/429 479/1379/429 465/1380/429
f 469/1381/430 475/1382/430 477/1383/430
f 469/1381/430 477/1383/430 473/1384/430
f 445/1385/431 489/1386/431 475/1387/431
f 445/1385/431 475/1387/431 449/1388/431
f 437/1389/432 487/1390/432 489/1391/432
f 437/1389/432 489/1391/432 441/1392/432
f 429/1393/433 485/1394/433 487/1395/433
f 429/1393/433 487/1395/433 433/1396/433
f 485/1397/434 425/1398/434 421/1399/434
f 485/1397/434 421/1399/434 483/1400/434
f 482/1401/435 455/1402/435 411/1403/435
f 480/1404/436 463/1405/436 451/1406/436
f 478/1407/437 471/1408/437 459/1409/437
f 447/1410/438 467/1411/438 476/1412/438
f 439/1413/439 443/1414/439 490/1415/439
f 431/1416/440 435/1417/440 488/1418/440
f 427/1419/441 486/1420/441 423/1421/441
f 484/1422/442 415/1423/442 419/1424/442
f 433/1425/443 487/1426/443 437/1427/443
f 489/1428/444 445/1429/444 441/1430/444
f 475/1431/445 469/1432/445 449/1433/445
f 477/1434/446 461/1435/446 473/1436/446
f 453/1437/447 465/1438/447 479/1439/447
f 413/1440/448 457/1441/448 481/1442/448
f 417/1443/449 483/1444/449 421/1445/449
f 425/1446/450 485/1447/450 429/1448/450