# Made in Blockbench 5.1.6
mtllib oil_distillery_segment.mtl

o Base
v 0 0 0
v 0 2 0
v 0.5 0 1.25
v 0.5 2 1.25
v 1.25 0 0.5
v 1.25 2 0.5
v 1.25 0 -0.5
v 1.25 2 -0.5
v 0.5 0 -1.25
v 0.5 2 -1.25
v -0.5 0 -1.25
v -0.5 2 -1.25
v -1.2499999999999996 0 -0.5
v -1.2499999999999996 2 -0.5
v -1.2499999999999998 0 0.5
v -1.2499999999999998 2 0.5
v -0.5 0 1.2499999999999996
v -0.5 2 1.2499999999999996
v 1.5 0.6875 0.1875
v 1.5 0.6875 -0.1875
v 1.5 0.3125 0.1875
v 1.5 0.3125 -0.1875
v 1.25 0.6875 0.1875
v 1.25 0.6875 -0.1875
v 1.25 0.3125 0.1875
v 1.25 0.3125 -0.1875
v 0.18750000000000033 0.6875 -1.5
v -0.18749999999999967 0.6875 -1.5
v 0.18750000000000033 0.3125 -1.5
v -0.18749999999999967 0.3125 -1.5
v 0.18750000000000028 0.6875 -1.25
v -0.18749999999999972 0.6875 -1.25
v 0.18750000000000028 0.3125 -1.25
v -0.18749999999999972 0.3125 -1.25
v -1.5 0.6875 -0.1874999999999998
v -1.5 0.6875 0.1875000000000002
v -1.5 0.3125 -0.1874999999999998
v -1.5 0.3125 0.1875000000000002
v -1.25 0.6875 -0.18749999999999983
v -1.25 0.6875 0.18750000000000017
v -1.25 0.3125 -0.18749999999999983
v -1.25 0.3125 0.18750000000000017
v -0.18749999999999967 0.6875 1.5
v 0.18750000000000033 0.6875 1.5
v -0.18749999999999967 0.3125 1.5
v 0.18750000000000033 0.3125 1.5
v -0.18749999999999972 0.6875 1.25
v 0.18750000000000028 0.6875 1.25
v -0.18749999999999972 0.3125 1.25
v 0.18750000000000028 0.3125 1.25
vt 1 0.4375
vt 0.90625 0.625
vt 0.84375 0.3125
vt 0.125 0
vt 0.25 0
vt 0.25 0.5
vt 0.125 0.5
vt 0.90625 0
vt 1 0.1875
vt 0.84375 0.3125
vt 1 0.1875
vt 1 0.4375
vt 0.84375 0.3125
vt 0.25 0
vt 0.375 0
vt 0.375 0.5
vt 0.25 0.5
vt 1 0.1875
vt 1 0.4375
vt 0.84375 0.3125
vt 0.90625 0
vt 1 0.1875
vt 0.84375 0.3125
vt 0.375 0
vt 0.5 0
vt 0.5 0.5
vt 0.375 0.5
vt 1 0.4375
vt 0.90625 0.625
vt 0.84375 0.3125
vt 0.78125 0
vt 0.90625 0
vt 0.84375 0.3125
vt 0 0.5
vt 0.125 0.5
vt 0.125 1
vt 0 1
vt 0.90625 0.625
vt 0.78125 0.625
vt 0.84375 0.3125
vt 0.6875 0.1875
vt 0.78125 0
vt 0.84375 0.3125
vt 0.125 0.5
vt 0.25 0.5
vt 0.25 1
vt 0.125 1
vt 0.78125 0.625
vt 0.6875 0.4375
vt 0.84375 0.3125
vt 0.6875 0.4375
vt 0.6875 0.1875
vt 0.84375 0.3125
vt 0.25 0.5
vt 0.375 0.5
vt 0.375 1
vt 0.25 1
vt 0.6875 0.4375
vt 0.6875 0.1875
vt 0.84375 0.3125
vt 0.78125 0.625
vt 0.6875 0.4375
vt 0.84375 0.3125
vt 0.375 0.5
vt 0.5 0.5
vt 0.5 1
vt 0.375 1
vt 0.6875 0.1875
vt 0.78125 0
vt 0.84375 0.3125
vt 0.90625 0.625
vt 0.78125 0.625
vt 0.84375 0.3125
vt 0 0
vt 0.125 0
vt 0.125 0.5
vt 0 0.5
vt 0.78125 0
vt 0.90625 0
vt 0.84375 0.3125
vt 0.9921875 0.640625
vt 0.9921875 0.734375
vt 0.9453125 0.734375
vt 0.9453125 0.640625
vt 0.9921875 0.75
vt 0.9453125 0.75
vt 0.9453125 0.734375
vt 0.9921875 0.734375
vt 0.9921875 0.640625
vt 0.9453125 0.640625
vt 0.9453125 0.625
vt 0.9921875 0.625
vt 0.9453125 0.640625
vt 0.9453125 0.734375
vt 0.9375 0.734375
vt 0.9375 0.640625
vt 1 0.640625
vt 1 0.734375
vt 0.9921875 0.734375
vt 0.9921875 0.640625
vt 0.9921875 0.640625
vt 0.9921875 0.734375
vt 0.9453125 0.734375
vt 0.9453125 0.640625
vt 0.9921875 0.75
vt 0.9453125 0.75
vt 0.9453125 0.734375
vt 0.9921875 0.734375
vt 0.9921875 0.640625
vt 0.9453125 0.640625
vt 0.9453125 0.625
vt 0.9921875 0.625
vt 0.9453125 0.640625
vt 0.9453125 0.734375
vt 0.9375 0.734375
vt 0.9375 0.640625
vt 1 0.640625
vt 1 0.734375
vt 0.9921875 0.734375
vt 0.9921875 0.640625
vt 0.9921875 0.640625
vt 0.9921875 0.734375
vt 0.9453125 0.734375
vt 0.9453125 0.640625
vt 0.9921875 0.75
vt 0.9453125 0.75
vt 0.9453125 0.734375
vt 0.9921875 0.734375
vt 0.9921875 0.640625
vt 0.9453125 0.640625
vt 0.9453125 0.625
vt 0.9921875 0.625
vt 0.9453125 0.640625
vt 0.9453125 0.734375
vt 0.9375 0.734375
vt 0.9375 0.640625
vt 1 0.640625
vt 1 0.734375
vt 0.9921875 0.734375
vt 0.9921875 0.640625
vt 0.9921875 0.640625
vt 0.9921875 0.734375
vt 0.9453125 0.734375
vt 0.9453125 0.640625
vt 0.9921875 0.75
vt 0.9453125 0.75
vt 0.9453125 0.734375
vt 0.9921875 0.734375
vt 0.9921875 0.640625
vt 0.9453125 0.640625
vt 0.9453125 0.625
vt 0.9921875 0.625
vt 0.9453125 0.640625
vt 0.9453125 0.734375
vt 0.9375 0.734375
vt 0.9375 0.640625
vt 1 0.640625
vt 1 0.734375
vt 0.9921875 0.734375
vt 0.9921875 0.640625
vn 0 -1 0
vn 0.7071067811865476 0 0.7071067811865476
vn 0 1 0
vn 0 -1 0
vn 1 0 0
vn 0 1 0
vn 0 -1 0
vn 0.7071067811865476 0 -0.7071067811865476
vn 0 1 0
vn 0 -1 0
vn 0 0 -1
vn 0 1 0
vn 0 -1 0
vn -0.7071067811865477 0 -0.7071067811865474
vn 0 1 0
vn 0 -1 0
vn -1 0 -2.220446049250313e-16
vn 0 1 0
vn 0 -1 0
vn -0.7071067811865475 0 0.7071067811865477
vn 0 1 0
vn 0 -1 0
vn -4.440892098500626e-16 0 1
vn 0 1 0
vn 1 0 0
vn 0 1 0
vn 0 -1 0
vn 0 0 1
vn 0 0 -1
vn 0 0 -1
vn 0 1 0
vn 0 -1 0
vn 1 0 2.220446049250313e-16
vn -1 0 -2.220446049250313e-16
vn -1 0 0
vn 0 1 0
vn 0 -1 0
vn -1.1102230246251565e-16 0 -1
vn 1.1102230246251565e-16 0 1
vn 0 0 1
vn 0 1 0
vn 0 -1 0
vn -1 0 2.220446049250313e-16
vn 1 0 -2.220446049250313e-16
usemtl m_bdaee942-3af9-ed23-9e29-610e9ef8a4c7
f 5/1/1 3/2/1 1/3/1
f 3/4/2 5/5/2 6/6/2
f 3/4/2 6/6/2 4/7/2
f 4/8/3 6/9/3 2/10/3
f 7/11/4 5/12/4 1/13/4
f 5/14/5 7/15/5 8/16/5
f 5/14/5 8/16/5 6/17/5
f 6/18/6 8/19/6 2/20/6
f 9/21/7 7/22/7 1/23/7
f 7/24/8 9/25/8 10/26/8
f 7/24/8 10/26/8 8/27/8
f 8/28/9 10/29/9 2/30/9
f 11/31/10 9/32/10 1/33/10
f 9/34/11 11/35/11 12/36/11
f 9/34/11 12/36/11 10/37/11
f 10/38/12 12/39/12 2/40/12
f 13/41/13 11/42/13 1/43/13
f 11/44/14 13/45/14 14/46/14
f 11/44/14 14/46/14 12/47/14
f 12/48/15 14/49/15 2/50/15
f 15/51/16 13/52/16 1/53/16
f 13/54/17 15/55/17 16/56/17
f 13/54/17 16/56/17 14/57/17
f 14/58/18 16/59/18 2/60/18
f 17/61/19 15/62/19 1/63/19
f 15/64/20 17/65/20 18/66/20
f 15/64/20 18/66/20 16/67/20
f 16/68/21 18/69/21 2/70/21
f 3/71/22 17/72/22 1/73/22
f 17/74/23 3/75/23 4/76/23
f 17/74/23 4/76/23 18/77/23
f 18/78/24 4/79/24 2/80/24
f 22/81/25 20/82/25 19/83/25
f 22/81/25 19/83/25 21/84/25
f 19/85/26 20/86/26 24/87/26
f 19/85/26 24/87/26 23/88/26
f 22/89/27 21/90/27 25/91/27
f 22/89/27 25/91/27 26/92/27
f 21/93/28 19/94/28 23/95/28
f 21/93/28 23/95/28 25/96/28
f 26/97/29 24/98/29 20/99/29
f 26/97/29 20/99/29 22/100/29
f 30/101/30 28/102/30 27/103/30
f 30/101/30 27/103/30 29/104/30
f 27/105/31 28/106/31 32/107/31
f 27/105/31 32/107/31 31/108/31
f 30/109/32 29/110/32 33/111/32
f 30/109/32 33/111/32 34/112/32
f 29/113/33 27/114/33 31/115/33
f 29/113/33 31/115/33 33/116/33
f 34/117/34 32/118/34 28/119/34
f 34/117/34 28/119/34 30/120/34
f 38/121/35 36/122/35 35/123/35
f 38/121/35 35/123/35 37/124/35
f 35/125/36 36/126/36 40/127/36
f 35/125/36 40/127/36 39/128/36
f 38/129/37 37/130/37 41/131/37
f 38/129/37 41/131/37 42/132/37
f 37/133/38 35/134/38 39/135/38
f 37/133/38 39/135/38 41/136/38
f 42/137/39 40/138/39 36/139/39
f 42/137/39 36/139/39 38/140/39
f 46/141/40 44/142/40 43/143/40
f 46/141/40 43/143/40 45/144/40
f 43/145/41 44/146/41 48/147/41
f 43/145/41 48/147/41 47/148/41
f 46/149/42 45/150/42 49/151/42
f 46/149/42 49/151/42 50/152/42
f 45/153/43 43/154/43 47/155/43
f 45/153/43 47/155/43 49/156/43
f 50/157/44 48/158/44 44/159/44
f 50/157/44 44/159/44 46/160/44