# Made in Blockbench 5.1.6
mtllib oil_distillery_base.mtl

o Base
v 1 0.5 1
v 1 0.5 -1
v 1.5 0 1.5
v 1.5 0 -1.5
v -1 0.5 1
v -1 0.5 -1
v -1.5 0 1.5
v -1.5 0 -1.5
v 0 1 0
v 0.5 0 1.25
v 0.5 1 1.25
v 1.25 0 0.5
v 1.25 1 0.5
v 1.25 0 -0.5
v 1.25 1 -0.5
v 0.5 0 -1.25
v 0.5 1 -1.25
v -0.5 0 -1.25
v -0.5 1 -1.25
v -1.25 0 -0.5
v -1.25 1 -0.5
v -1.25 0 0.5
v -1.25 1 0.5
v -0.5 0 1.25
v -0.5 1 1.25
v 1.5 0.6875 0.1875
v 1.5 0.6875 -0.1875
v 1.5 0.3125 0.1875
v 1.5 0.3125 -0.1875
v 1.25 0.6875 0.1875
v 1.25 0.6875 -0.1875
v 1.25 0.3125 0.1875
v 1.25 0.3125 -0.1875
v 0.18750000000000033 0.6875 -1.5
v -0.18749999999999967 0.6875 -1.5
v 0.18750000000000033 0.3125 -1.5
v -0.18749999999999967 0.3125 -1.5
v 0.18750000000000028 0.6875 -1.25
v -0.18749999999999972 0.6875 -1.25
v 0.18750000000000028 0.3125 -1.25
v -0.18749999999999972 0.3125 -1.25
v -1.5 0.6875 -0.1874999999999998
v -1.5 0.6875 0.1875000000000002
v -1.5 0.3125 -0.1874999999999998
v -1.5 0.3125 0.1875000000000002
v -1.25 0.6875 -0.18749999999999983
v -1.25 0.6875 0.18750000000000017
v -1.25 0.3125 -0.18749999999999983
v -1.25 0.3125 0.18750000000000017
v -0.18749999999999967 0.6875 1.5
v 0.18750000000000033 0.6875 1.5
v -0.18749999999999967 0.3125 1.5
v 0.18750000000000033 0.3125 1.5
v -0.18749999999999972 0.6875 1.25
v 0.18750000000000028 0.6875 1.25
v -0.18749999999999972 0.3125 1.25
v 0.18750000000000028 0.3125 1.25
vt 0.6875 0.125
vt 0.4375 0.125
vt 0.375 0
vt 0.75 0
vt 0.75 0
vt 0.6875 0.125
vt 0.4375 0.125
vt 0.375 0
vt 0.375 0.125
vt 0.625 0.125
vt 0.625 0.625
vt 0.375 0.625
vt 0.375 0
vt 0.375 0.75
vt 0 0.75
vt 0 0
vt 0.75 0
vt 0.6875 0.125
vt 0.4375 0.125
vt 0.375 0
vt 0.6875 0.125
vt 0.4375 0.125
vt 0.375 0
vt 0.75 0
vt 0.625 0.75
vt 0.75 0.75
vt 0.75 1
vt 0.625 1
vt 0.90625 0.125
vt 1 0.3125
vt 0.84375 0.4375
vt 0.75 0.75
vt 0.875 0.75
vt 0.875 1
vt 0.75 1
vt 1 0.3125
vt 1 0.5625
vt 0.84375 0.4375
vt 0.875 0.75
vt 1 0.75
vt 1 1
vt 0.875 1
vt 1 0.5625
vt 0.90625 0.75
vt 0.84375 0.4375
vt 0 0.75
vt 0.125 0.75
vt 0.125 1
vt 0 1
vt 0.90625 0.75
vt 0.78125 0.75
vt 0.84375 0.4375
vt 0.125 0.75
vt 0.25 0.75
vt 0.25 1
vt 0.125 1
vt 0.78125 0.75
vt 0.6875 0.5625
vt 0.84375 0.4375
vt 0.25 0.75
vt 0.375 0.75
vt 0.375 1
vt 0.25 1
vt 0.6875 0.5625
vt 0.6875 0.3125
vt 0.84375 0.4375
vt 0.375 0.75
vt 0.5 0.75
vt 0.5 1
vt 0.375 1
vt 0.6875 0.3125
vt 0.78125 0.125
vt 0.84375 0.4375
vt 0.5 0.75
vt 0.625 0.75
vt 0.625 1
vt 0.5 1
vt 0.78125 0.125
vt 0.90625 0.125
vt 0.84375 0.4375
vt 0.4296875 0.640625
vt 0.4296875 0.734375
vt 0.3828125 0.734375
vt 0.3828125 0.640625
vt 0.4296875 0.75
vt 0.3828125 0.75
vt 0.3828125 0.734375
vt 0.4296875 0.734375
vt 0.4296875 0.640625
vt 0.3828125 0.640625
vt 0.3828125 0.625
vt 0.4296875 0.625
vt 0.3828125 0.640625
vt 0.3828125 0.734375
vt 0.375 0.734375
vt 0.375 0.640625
vt 0.4375 0.640625
vt 0.4375 0.734375
vt 0.4296875 0.734375
vt 0.4296875 0.640625
vt 0.4296875 0.640625
vt 0.4296875 0.734375
vt 0.3828125 0.734375
vt 0.3828125 0.640625
vt 0.4296875 0.75
vt 0.3828125 0.75
vt 0.3828125 0.734375
vt 0.4296875 0.734375
vt 0.4296875 0.640625
vt 0.3828125 0.640625
vt 0.3828125 0.625
vt 0.4296875 0.625
vt 0.3828125 0.640625
vt 0.3828125 0.734375
vt 0.375 0.734375
vt 0.375 0.640625
vt 0.4375 0.640625
vt 0.4375 0.734375
vt 0.4296875 0.734375
vt 0.4296875 0.640625
vt 0.4296875 0.640625
vt 0.4296875 0.734375
vt 0.3828125 0.734375
vt 0.3828125 0.640625
vt 0.4296875 0.75
vt 0.3828125 0.75
vt 0.3828125 0.734375
vt 0.4296875 0.734375
vt 0.4296875 0.640625
vt 0.3828125 0.640625
vt 0.3828125 0.625
vt 0.4296875 0.625
vt 0.3828125 0.640625
vt 0.3828125 0.734375
vt 0.375 0.734375
vt 0.375 0.640625
vt 0.4375 0.640625
vt 0.4375 0.734375
vt 0.4296875 0.734375
vt 0.4296875 0.640625
vt 0.4296875 0.640625
vt 0.4296875 0.734375
vt 0.3828125 0.734375
vt 0.3828125 0.640625
vt 0.4296875 0.75
vt 0.3828125 0.75
vt 0.3828125 0.734375
vt 0.4296875 0.734375
vt 0.4296875 0.640625
vt 0.3828125 0.640625
vt 0.3828125 0.625
vt 0.4296875 0.625
vt 0.3828125 0.640625
vt 0.3828125 0.734375
vt 0.375 0.734375
vt 0.375 0.640625
vt 0.4375 0.640625
vt 0.4375 0.734375
vt 0.4296875 0.734375
vt 0.4296875 0.640625
vn 0.7071067811865476 0.7071067811865476 0
vn -0.7071067811865476 0.7071067811865476 0
vn 0 1 0
vn 0 -1 0
vn 0 0.7071067811865476 0.7071067811865476
vn 0 0.7071067811865476 -0.7071067811865476
vn 0.7071067811865476 0 0.7071067811865476
vn 0 1 0
vn 1 0 0
vn 0 1 0
vn 0.7071067811865476 0 -0.7071067811865476
vn 0 1 0
vn 0 0 -1
vn 0 1 0
vn -0.7071067811865476 0 -0.7071067811865476
vn 0 1 0
vn -1 0 0
vn 0 1 0
vn -0.7071067811865476 0 0.7071067811865476
vn 0 1 0
vn 0 0 1
vn 0 1 0
vn 1 0 0
vn 0 1 0
vn 0 -1 0
vn 0 0 1
vn 0 0 -1
vn 0 0 -1
vn 0 1 0
vn 0 -1 0
vn 1 0 2.220446049250313e-16
vn -1 0 -2.220446049250313e-16
vn -1 0 0
vn 0 1 0
vn 0 -1 0
vn -1.1102230246251565e-16 0 -1
vn 1.1102230246251565e-16 0 1
vn 0 0 1
vn 0 1 0
vn 0 -1 0
vn -1 0 2.220446049250313e-16
vn 1 0 -2.220446049250313e-16
usemtl m_1fc53cee-88a9-7a33-e48b-d93b3d3a196c
f 2/1/1 1/2/1 3/3/1
f 2/1/1 3/3/1 4/4/1
f 7/5/2 5/6/2 6/7/2
f 7/5/2 6/7/2 8/8/2
f 5/9/3 1/10/3 2/11/3
f 5/9/3 2/11/3 6/12/3
f 4/13/4 3/14/4 7/15/4
f 4/13/4 7/15/4 8/16/4
f 3/17/5 1/18/5 5/19/5
f 3/17/5 5/19/5 7/20/5
f 6/21/6 2/22/6 4/23/6
f 6/21/6 4/23/6 8/24/6
f 10/25/7 12/26/7 13/27/7
f 10/25/7 13/27/7 11/28/7
f 11/29/8 13/30/8 9/31/8
f 12/32/9 14/33/9 15/34/9
f 12/32/9 15/34/9 13/35/9
f 13/36/10 15/37/10 9/38/10
f 14/39/11 16/40/11 17/41/11
f 14/39/11 17/41/11 15/42/11
f 15/43/12 17/44/12 9/45/12
f 16/46/13 18/47/13 19/48/13
f 16/46/13 19/48/13 17/49/13
f 17/50/14 19/51/14 9/52/14
f 18/53/15 20/54/15 21/55/15
f 18/53/15 21/55/15 19/56/15
f 19/57/16 21/58/16 9/59/16
f 20/60/17 22/61/17 23/62/17
f 20/60/17 23/62/17 21/63/17
f 21/64/18 23/65/18 9/66/18
f 22/67/19 24/68/19 25/69/19
f 22/67/19 25/69/19 23/70/19
f 23/71/20 25/72/20 9/73/20
f 24/74/21 10/75/21 11/76/21
f 24/74/21 11/76/21 25/77/21
f 25/78/22 11/79/22 9/80/22
f 29/81/23 27/82/23 26/83/23
f 29/81/23 26/83/23 28/84/23
f 26/85/24 27/86/24 31/87/24
f 26/85/24 31/87/24 30/88/24
f 29/89/25 28/90/25 32/91/25
f 29/89/25 32/91/25 33/92/25
f 28/93/26 26/94/26 30/95/26
f 28/93/26 30/95/26 32/96/26
f 33/97/27 31/98/27 27/99/27
f 33/97/27 27/99/27 29/100/27
f 37/101/28 35/102/28 34/103/28
f 37/101/28 34/103/28 36/104/28
f 34/105/29 35/106/29 39/107/29
f 34/105/29 39/107/29 38/108/29
f 37/109/30 36/110/30 40/111/30
f 37/109/30 40/111/30 41/112/30
f 36/113/31 34/114/31 38/115/31
f 36/113/31 38/115/31 40/116/31
f 41/117/32 39/118/32 35/119/32
f 41/117/32 35/119/32 37/120/32
f 45/121/33 43/122/33 42/123/33
f 45/121/33 42/123/33 44/124/33
f 42/125/34 43/126/34 47/127/34
f 42/125/34 47/127/34 46/128/34
f 45/129/35 44/130/35 48/131/35
f 45/129/35 48/131/35 49/132/35
f 44/133/36 42/134/36 46/135/36
f 44/133/36 46/135/36 48/136/36
f 49/137/37 47/138/37 43/139/37
f 49/137/37 43/139/37 45/140/37
f 53/141/38 51/142/38 50/143/38
f 53/141/38 50/143/38 52/144/38
f 50/145/39 51/146/39 55/147/39
f 50/145/39 55/147/39 54/148/39
f 53/149/40 52/150/40 56/151/40
f 53/149/40 56/151/40 57/152/40
f 52/153/41 50/154/41 54/155/41
f 52/153/41 54/155/41 56/156/41
f 57/157/42 55/158/42 51/159/42
f 57/157/42 51/159/42 53/160/42