# Made in Blockbench 5.1.6

o Base
v 0.03125 1 0.12499999999999999
v 0.03125 6 0.12499999999999999
v 0.09375 1 0.09375
v 0.09375 6 0.09375
v 0.12499999999999999 1 0.03125
v 0.12499999999999999 6 0.03125
v 0.12499999999999999 1 -0.03125
v 0.12499999999999999 6 -0.03125
v 0.09375 1 -0.09375
v 0.09375 6 -0.09375
v 0.03125 1 -0.12499999999999997
v 0.03125 6 -0.12499999999999997
v -0.03125 1 -0.125
v -0.03125 6 -0.125
v -0.09375 1 -0.09375
v -0.09375 6 -0.09375
v -0.12499999999999999 1 -0.03125
v -0.12499999999999999 6 -0.03125
v -0.125 1 0.03125
v -0.125 6 0.03125
v -0.09375 1 0.09375
v -0.09375 6 0.09375
v -0.03125 1 0.12499999999999999
v -0.03125 6 0.12499999999999999
v -1.5 0.6875 0.18750000000000033
v -0.49999999999999994 0.6875 0.1875000000000001
v -1.5 0.3125 0.18750000000000033
v -0.49999999999999994 0.3125 0.1875000000000001
v -1.5 0.6875 -0.18749999999999967
v -0.5 0.6875 -0.1874999999999999
v -1.5 0.3125 -0.18749999999999967
v -0.5 0.3125 -0.1874999999999999
v 0.5 1 0.5
v 0.5 1 -0.5
v 0.5 0 0.5
v 0.5 0 -0.5
v -0.5 1 0.5
v -0.5 1 -0.5
v -0.5 0 0.5
v -0.5 0 -0.5
v 0.1875 0.6875 1.5
v 0.1875 0.6875 0.49999999999999994
v 0.1875 0.3125 1.5
v 0.1875 0.3125 0.49999999999999994
v -0.1875 0.6875 1.5
v -0.1875 0.6875 0.5
v -0.1875 0.3125 1.5
v -0.1875 0.3125 0.5
v 1.5 0.6875 -0.18749999999999967
v 0.49999999999999994 0.6875 -0.1874999999999999
v 1.5 0.3125 -0.18749999999999967
v 0.49999999999999994 0.3125 -0.1874999999999999
v 1.5 0.6875 0.18750000000000033
v 0.49999999999999994 0.6875 0.1875000000000001
v 1.5 0.3125 0.18750000000000033
v 0.49999999999999994 0.3125 0.1875000000000001
v -0.1875000000000002 0.6875 -1.5
v -0.18750000000000006 0.6875 -0.49999999999999994
v -0.1875000000000002 0.3125 -1.5
v -0.18750000000000006 0.3125 -0.49999999999999994
v 0.1874999999999998 0.6875 -1.5
v 0.18749999999999994 0.6875 -0.5
v 0.1874999999999998 0.3125 -1.5
v 0.18749999999999994 0.3125 -0.5
v 1.375 0 1.375
v 1.375 0 -1.375
v 0.3125 5 0.3125
v 0.3125 5 -0.3125
v 1.3750000000000002 0 -1.3749999999999998
v -1.3749999999999998 0 -1.3750000000000002
v 0.31250000000000006 5 -0.31249999999999994
v -0.31249999999999994 5 -0.31250000000000006
v -1.3750000000000002 0 -1.3749999999999998
v -1.3749999999999998 0 1.3750000000000002
v -0.31250000000000006 5 -0.31249999999999994
v -0.31249999999999994 5 0.31250000000000006
v -1.3749999999999998 0 1.3750000000000002
v 1.3750000000000002 0 1.3749999999999998
v -0.31249999999999994 5 0.31250000000000006
v 0.31250000000000006 5 0.31249999999999994
v -0.1875 5 -0.18750000000000003
v -0.1875 5 -0.4375
v -1.25 0 -1.25
v -1.25 0 -1.5
v -0.4375 5 -0.18750000000000003
v -0.4375 5 -0.4375
v -1.5 0 -1.2500000000000002
v -1.5 0 -1.5000000000000002
v -0.18750000000000003 5 0.4375
v -0.18750000000000003 5 0.1875
v -1.2500000000000002 0 1.5
v -1.25 0 1.25
v -0.4375 5 0.4375
v -0.4375 5 0.1875
v -1.5000000000000002 0 1.5
v -1.5 0 1.25
v 0.4375 5 0.4375
v 0.4375 5 0.18750000000000003
v 1.5 0 1.5000000000000002
v 1.5 0 1.2500000000000002
v 0.1875 5 0.4375
v 0.1875 5 0.18750000000000003
v 1.25 0 1.5
v 1.25 0 1.25
v 0.4375 5 -0.1875
v 0.4375 5 -0.4375
v 1.5 0 -1.25
v 1.5000000000000002 0 -1.5
v 0.18750000000000003 5 -0.1875
v 0.18750000000000003 5 -0.4375
v 1.25 0 -1.25
v 1.2500000000000002 0 -1.5
v 0.5 5.25 0.5
v 0.5 5.25 -0.5
v 0.5 5 0.5
v 0.5 5 -0.5
v -0.5 5.25 0.5
v -0.5 5.25 -0.5
v -0.5 5 0.5
v -0.5 5 -0.5
vt 0.984375 0
vt 0.9921875 0
vt 0.9921875 0.625
vt 0.984375 0.625
vt 0.96875 0
vt 0.9765625 0
vt 0.9765625 0.625
vt 0.96875 0.625
vt 0.9765625 0
vt 0.984375 0
vt 0.984375 0.625
vt 0.9765625 0.625
vt 0.984375 0
vt 0.9921875 0
vt 0.9921875 0.625
vt 0.984375 0.625
vt 0.96875 0
vt 0.9765625 0
vt 0.9765625 0.625
vt 0.96875 0.625
vt 0.9765625 0
vt 0.984375 0
vt 0.984375 0.625
vt 0.9765625 0.625
vt 0.9921875 0
vt 1 0
vt 1 0.625
vt 0.9921875 0.625
vt 0.984375 0
vt 0.9921875 0
vt 0.9921875 0.625
vt 0.984375 0.625
vt 0.9921875 0
vt 1 0
vt 1 0.625
vt 0.9921875 0.625
vt 0.984375 0
vt 0.9921875 0
vt 0.9921875 0.625
vt 0.984375 0.625
vt 0.96875 0
vt 0.9765625 0
vt 0.9765625 0.625
vt 0.96875 0.625
vt 0.9765625 0
vt 0.984375 0
vt 0.984375 0.625
vt 0.9765625 0.625
vt 0.4296875 0.8125
vt 0.3046875 0.8125
vt 0.3046875 0.765625
vt 0.4296875 0.765625
vt 0.2578125 0.765625
vt 0.2578125 0.8125
vt 0.1328125 0.8125
vt 0.1328125 0.765625
vt 0.2578125 0.8125
vt 0.3046875 0.8125
vt 0.3046875 0.9375
vt 0.2578125 0.9375
vt 0.3046875 0.640625
vt 0.3046875 0.765625
vt 0.2578125 0.765625
vt 0.2578125 0.640625
vt 0.3046875 0.765625
vt 0.3046875 0.8125
vt 0.2578125 0.8125
vt 0.2578125 0.765625
vt 0.25 0.7578125
vt 0.125 0.7578125
vt 0.125 0.6328125
vt 0.25 0.6328125
vt 0.25 0.6328125
vt 0.25 0.7578125
vt 0.125 0.7578125
vt 0.125 0.6328125
vt 0 0.6328125
vt 0.125 0.6328125
vt 0.125 0.7578125
vt 0 0.7578125
vt 0.25 0.6328125
vt 0.25 0.7578125
vt 0.125 0.7578125
vt 0.125 0.6328125
vt 0.25 0.6328125
vt 0.25 0.7578125
vt 0.125 0.7578125
vt 0.125 0.6328125
vt 0.25 0.7578125
vt 0.125 0.7578125
vt 0.125 0.6328125
vt 0.25 0.6328125
vt 0.4296875 0.8125
vt 0.3046875 0.8125
vt 0.3046875 0.765625
vt 0.4296875 0.765625
vt 0.2578125 0.765625
vt 0.2578125 0.8125
vt 0.1328125 0.8125
vt 0.1328125 0.765625
vt 0.2578125 0.8125
vt 0.3046875 0.8125
vt 0.3046875 0.9375
vt 0.2578125 0.9375
vt 0.3046875 0.640625
vt 0.3046875 0.765625
vt 0.2578125 0.765625
vt 0.2578125 0.640625
vt 0.3046875 0.765625
vt 0.3046875 0.8125
vt 0.2578125 0.8125
vt 0.2578125 0.765625
vt 0.4296875 0.8125
vt 0.3046875 0.8125
vt 0.3046875 0.765625
vt 0.4296875 0.765625
vt 0.2578125 0.765625
vt 0.2578125 0.8125
vt 0.1328125 0.8125
vt 0.1328125 0.765625
vt 0.2578125 0.8125
vt 0.3046875 0.8125
vt 0.3046875 0.9375
vt 0.2578125 0.9375
vt 0.3046875 0.640625
vt 0.3046875 0.765625
vt 0.2578125 0.765625
vt 0.2578125 0.640625
vt 0.3046875 0.765625
vt 0.3046875 0.8125
vt 0.2578125 0.8125
vt 0.2578125 0.765625
vt 0.4296875 0.8125
vt 0.3046875 0.8125
vt 0.3046875 0.765625
vt 0.4296875 0.765625
vt 0.2578125 0.765625
vt 0.2578125 0.8125
vt 0.1328125 0.8125
vt 0.1328125 0.765625
vt 0.2578125 0.8125
vt 0.3046875 0.8125
vt 0.3046875 0.9375
vt 0.2578125 0.9375
vt 0.3046875 0.640625
vt 0.3046875 0.765625
vt 0.2578125 0.765625
vt 0.2578125 0.640625
vt 0.3046875 0.765625
vt 0.3046875 0.8125
vt 0.2578125 0.8125
vt 0.2578125 0.765625
vt 0.548828125 0
vt 0.892578125 0
vt 0.751953125 0.625
vt 0.689453125 0.625
vt 0.548828125 0
vt 0.892578125 0
vt 0.751953125 0.625
vt 0.689453125 0.625
vt 0.548828125 0
vt 0.892578125 0
vt 0.751953125 0.625
vt 0.689453125 0.625
vt 0.548828125 0
vt 0.892578125 0
vt 0.751953125 0.625
vt 0.689453125 0.625
vt 0.125 0.625
vt 0.09375 0.625
vt 0.09375 0
vt 0.125 0
vt 0.0625 0
vt 0.0625 0.625
vt 0.03125 0.625
vt 0.03125 0
vt 0.15625 0.6328125
vt 0.15625 0.6640625
vt 0.125 0.6640625
vt 0.125 0.6328125
vt 0.09375 0
vt 0.09375 0.625
vt 0.0625 0.625
vt 0.0625 0
vt 0.03125 0.625
vt 0 0.625
vt 0 0
vt 0.03125 0
vt 0.2578125 0.625
vt 0.2265625 0.625
vt 0.2265625 0
vt 0.2578125 0
vt 0.1953125 0
vt 0.1953125 0.625
vt 0.1640625 0.625
vt 0.1640625 0
vt 0.15625 0.7265625
vt 0.15625 0.7578125
vt 0.125 0.7578125
vt 0.125 0.7265625
vt 0.2265625 0
vt 0.2265625 0.625
vt 0.1953125 0.625
vt 0.1953125 0
vt 0.1640625 0.625
vt 0.1328125 0.625
vt 0.1328125 0
vt 0.1640625 0
vt 0.390625 0.625
vt 0.359375 0.625
vt 0.359375 0
vt 0.390625 0
vt 0.328125 0
vt 0.328125 0.625
vt 0.296875 0.625
vt 0.296875 0
vt 0.25 0.7265625
vt 0.25 0.7578125
vt 0.21875 0.7578125
vt 0.21875 0.7265625
vt 0.359375 0
vt 0.359375 0.625
vt 0.328125 0.625
vt 0.328125 0
vt 0.296875 0.625
vt 0.265625 0.625
vt 0.265625 0
vt 0.296875 0
vt 0.5234375 0.625
vt 0.4921875 0.625
vt 0.4921875 0
vt 0.5234375 0
vt 0.4609375 0
vt 0.4609375 0.625
vt 0.4296875 0.625
vt 0.4296875 0
vt 0.25 0.6328125
vt 0.25 0.6640625
vt 0.21875 0.6640625
vt 0.21875 0.6328125
vt 0.4921875 0
vt 0.4921875 0.625
vt 0.4609375 0.625
vt 0.4609375 0
vt 0.4296875 0.625
vt 0.3984375 0.625
vt 0.3984375 0
vt 0.4296875 0
vt 0.125 0.7890625
vt 0 0.7890625
vt 0 0.7578125
vt 0.125 0.7578125
vt 0.125 0.7578125
vt 0.125 0.7890625
vt 0 0.7890625
vt 0 0.7578125
vt 0 0.6328125
vt 0.125 0.6328125
vt 0.125 0.7578125
vt 0 0.7578125
vt 0.125 0.6328125
vt 0.125 0.7578125
vt 0 0.7578125
vt 0 0.6328125
vt 0.125 0.7578125
vt 0.125 0.7890625
vt 0 0.7890625
vt 0 0.7578125
vt 0.125 0.7890625
vt 0 0.7890625
vt 0 0.7578125
vt 0.125 0.7578125
vn 0.4472135954999578 0 0.894427190999916
vn 0.894427190999916 0 0.4472135954999578
vn 1 0 0
vn 0.894427190999916 0 -0.4472135954999578
vn 0.4472135954999577 0 -0.8944271909999162
vn 4.440892098500626e-16 0 -1
vn -0.44721359549995804 0 -0.8944271909999161
vn -0.894427190999916 0 -0.4472135954999578
vn -1 0 -2.220446049250313e-16
vn -0.8944271909999161 0 0.44721359549995804
vn -0.4472135954999578 0 0.894427190999916
vn 0 0 1
vn 2.220446049250313e-16 0 1
vn -2.220446049250313e-16 0 -1
vn 0 1 0
vn 0 -1 0
vn -1 0 0
vn 1 0 0
vn -1 0 0
vn 0 1 0
vn 0 -1 0
vn 0 0 1
vn 0 0 -1
vn 1 0 0
vn -1 0 0
vn 0 1 0
vn 0 -1 0
vn 0 0 1
vn 2.220446049250313e-16 0 -1
vn -2.220446049250313e-16 0 1
vn 0 1 0
vn 0 -1 0
vn 1 0 0
vn -1 0 1.3877787807814457e-16
vn 1 0 -1.3877787807814457e-16
vn 0 1 0
vn 0 -1 0
vn 0 0 -1
vn 0.9781588509178574 0.2078587558200447 0
vn 1.579599240770751e-16 0.20785875582004473 -0.9781588509178574
vn -0.9781588509178574 0.20785875582004465 1.579599240770751e-16
vn 1.579599240770751e-16 0.20785875582004465 0.9781588509178574
vn 0.9781588509178575 -0.20785875582004473 0
vn -0.9781588509178575 0.20785875582004473 0
vn 0 -1 0
vn 0 -0.20785875582004473 0.9781588509178575
vn 0 0.20785875582004473 -0.9781588509178575
vn 0.9781588509178575 -0.2078587558200448 0
vn -0.9781588509178575 0.20785875582004473 0
vn 0 -1 0
vn 0 0.20785875582004473 0.9781588509178575
vn 0 -0.20785875582004473 -0.9781588509178575
vn 0.9781588509178575 0.20785875582004473 0
vn -0.9781588509178575 -0.20785875582004473 0
vn 0 -1 0
vn 0 0.20785875582004473 0.9781588509178575
vn 0 -0.2078587558200448 -0.9781588509178575
vn 0.9781588509178575 0.20785875582004473 0
vn -0.9781588509178575 -0.20785875582004473 0
vn 0 -1 0
vn 0 -0.20785875582004473 0.9781588509178575
vn 0 0.20785875582004473 -0.9781588509178575
vn 1 0 0
vn -1 0 0
vn 0 1 0
vn 0 -1 0
vn 0 0 1
vn 0 0 -1

f 1/1/1 3/2/1 4/3/1
f 1/1/1 4/3/1 2/4/1
f 3/5/2 5/6/2 6/7/2
f 3/5/2 6/7/2 4/8/2
f 5/9/3 7/10/3 8/11/3
f 5/9/3 8/11/3 6/12/3
f 7/13/4 9/14/4 10/15/4
f 7/13/4 10/15/4 8/16/4
f 9/17/5 11/18/5 12/19/5
f 9/17/5 12/19/5 10/20/5
f 11/21/6 13/22/6 14/23/6
f 11/21/6 14/23/6 12/24/6
f 13/25/7 15/26/7 16/27/7
f 13/25/7 16/27/7 14/28/7
f 15/29/8 17/30/8 18/31/8
f 15/29/8 18/31/8 16/32/8
f 17/33/9 19/34/9 20/35/9
f 17/33/9 20/35/9 18/36/9
f 19/37/10 21/38/10 22/39/10
f 19/37/10 22/39/10 20/40/10
f 21/41/11 23/42/11 24/43/11
f 21/41/11 24/43/11 22/44/11
f 23/45/12 1/46/12 2/47/12
f 23/45/12 2/47/12 24/48/12
f 26/49/13 25/50/13 27/51/13
f 26/49/13 27/51/13 28/52/13
f 31/53/14 29/54/14 30/55/14
f 31/53/14 30/55/14 32/56/14
f 29/57/15 25/58/15 26/59/15
f 29/57/15 26/59/15 30/60/15
f 28/61/16 27/62/16 31/63/16
f 28/61/16 31/63/16 32/64/16
f 27/65/17 25/66/17 29/67/17
f 27/65/17 29/67/17 31/68/17
f 34/69/18 33/70/18 35/71/18
f 34/69/18 35/71/18 36/72/18
f 39/73/19 37/74/19 38/75/19
f 39/73/19 38/75/19 40/76/19
f 37/77/20 33/78/20 34/79/20
f 37/77/20 34/79/20 38/80/20
f 36/81/21 35/82/21 39/83/21
f 36/81/21 39/83/21 40/84/21
f 35/85/22 33/86/22 37/87/22
f 35/85/22 37/87/22 39/88/22
f 38/89/23 34/90/23 36/91/23
f 38/89/23 36/91/23 40/92/23
f 42/93/24 41/94/24 43/95/24
f 42/93/24 43/95/24 44/96/24
f 47/97/25 45/98/25 46/99/25
f 47/97/25 46/99/25 48/100/25
f 45/101/26 41/102/26 42/103/26
f 45/101/26 42/103/26 46/104/26
f 44/105/27 43/106/27 47/107/27
f 44/105/27 47/107/27 48/108/27
f 43/109/28 41/110/28 45/111/28
f 43/109/28 45/111/28 47/112/28
f 50/113/29 49/114/29 51/115/29
f 50/113/29 51/115/29 52/116/29
f 55/117/30 53/118/30 54/119/30
f 55/117/30 54/119/30 56/120/30
f 53/121/31 49/122/31 50/123/31
f 53/121/31 50/123/31 54/124/31
f 52/125/32 51/126/32 55/127/32
f 52/125/32 55/127/32 56/128/32
f 51/129/33 49/130/33 53/131/33
f 51/129/33 53/131/33 55/132/33
f 58/133/34 57/134/34 59/135/34
f 58/133/34 59/135/34 60/136/34
f 63/137/35 61/138/35 62/139/35
f 63/137/35 62/139/35 64/140/35
f 61/141/36 57/142/36 58/143/36
f 61/141/36 58/143/36 62/144/36
f 60/145/37 59/146/37 63/147/37
f 60/145/37 63/147/37 64/148/37
f 59/149/38 57/150/38 61/151/38
f 59/149/38 61/151/38 63/152/38
f 65/153/39 66/154/39 68/155/39
f 65/153/39 68/155/39 67/156/39
f 69/157/40 70/158/40 72/159/40
f 69/157/40 72/159/40 71/160/40
f 73/161/41 74/162/41 76/163/41
f 73/161/41 76/163/41 75/164/41
f 77/165/42 78/166/42 80/167/42
f 77/165/42 80/167/42 79/168/42
f 82/169/43 81/170/43 83/171/43
f 82/169/43 83/171/43 84/172/43
f 87/173/44 85/174/44 86/175/44
f 87/173/44 86/175/44 88/176/44
f 84/177/45 83/178/45 87/179/45
f 84/177/45 87/179/45 88/180/45
f 83/181/46 81/182/46 85/183/46
f 83/181/46 85/183/46 87/184/46
f 86/185/47 82/186/47 84/187/47
f 86/185/47 84/187/47 88/188/47
f 90/189/48 89/190/48 91/191/48
f 90/189/48 91/191/48 92/192/48
f 95/193/49 93/194/49 94/195/49
f 95/193/49 94/195/49 96/196/49
f 92/197/50 91/198/50 95/199/50
f 92/197/50 95/199/50 96/200/50
f 91/201/51 89/202/51 93/203/51
f 91/201/51 93/203/51 95/204/51
f 94/205/52 90/206/52 92/207/52
f 94/205/52 92/207/52 96/208/52
f 98/209/53 97/210/53 99/211/53
f 98/209/53 99/211/53 100/212/53
f 103/213/54 101/214/54 102/215/54
f 103/213/54 102/215/54 104/216/54
f 100/217/55 99/218/55 103/219/55
f 100/217/55 103/219/55 104/220/55
f 99/221/56 97/222/56 101/223/56
f 99/221/56 101/223/56 103/224/56
f 102/225/57 98/226/57 100/227/57
f 102/225/57 100/227/57 104/228/57
f 106/229/58 105/230/58 107/231/58
f 106/229/58 107/231/58 108/232/58
f 111/233/59 109/234/59 110/235/59
f 111/233/59 110/235/59 112/236/59
f 108/237/60 107/238/60 111/239/60
f 108/237/60 111/239/60 112/240/60
f 107/241/61 105/242/61 109/243/61
f 107/241/61 109/243/61 111/244/61
f 110/245/62 106/246/62 108/247/62
f 110/245/62 108/247/62 112/248/62
f 114/249/63 113/250/63 115/251/63
f 114/249/63 115/251/63 116/252/63
f 119/253/64 117/254/64 118/255/64
f 119/253/64 118/255/64 120/256/64
f 117/257/65 113/258/65 114/259/65
f 117/257/65 114/259/65 118/260/65
f 116/261/66 115/262/66 119/263/66
f 116/261/66 119/263/66 120/264/66
f 115/265/67 113/266/67 117/267/67
f 115/265/67 117/267/67 119/268/67
f 118/269/68 114/270/68 116/271/68
f 118/269/68 116/271/68 120/272/68