# Made in Blockbench 5.1.6
mtllib pebble_bed_reactor.mtl

o Hull
v 0 0.0625 0
v 0.36843013959279364 0.75 1.375
v 0.31906986040720625 0.40625000000000017 1.190784930203603
v 0.1842150697963968 0.15460753489819834 0.6874999999999999
v 1.0065698604072062 0.75 1.0065698604072062
v 0.8717150697963968 0.40625000000000017 0.8717150697963969
v 0.503284930203603 0.15460753489819834 0.5032849302036031
v 1.375 0.75 0.36843013959279364
v 1.190784930203603 0.40625000000000017 0.31906986040720625
v 0.6874999999999999 0.15460753489819834 0.1842150697963968
v 1.375 0.75 -0.3684301395927938
v 1.190784930203603 0.40625000000000017 -0.31906986040720636
v 0.6874999999999999 0.15460753489819834 -0.18421506979639687
v 1.0065698604072062 0.75 -1.0065698604072062
v 0.8717150697963969 0.40625000000000017 -0.8717150697963968
v 0.5032849302036031 0.15460753489819834 -0.503284930203603
v 0.368430139592794 0.75 -1.3749999999999998
v 0.3190698604072066 0.40625000000000017 -1.190784930203603
v 0.18421506979639699 0.15460753489819834 -0.6874999999999998
v -0.3684301395927931 0.75 -1.375
v -0.31906986040720575 0.40625000000000017 -1.1907849302036033
v -0.1842150697963965 0.15460753489819834 -0.6874999999999999
v -1.0065698604072062 0.75 -1.0065698604072064
v -0.8717150697963968 0.40625000000000017 -0.871715069796397
v -0.503284930203603 0.15460753489819834 -0.5032849302036031
v -1.375 0.75 -0.36843013959279347
v -1.190784930203603 0.40625000000000017 -0.31906986040720614
v -0.6874999999999999 0.15460753489819834 -0.1842150697963967
v -1.375 0.75 0.368430139592793
v -1.1907849302036033 0.40625000000000017 0.3190698604072057
v -0.6874999999999999 0.15460753489819834 0.18421506979639649
v -1.0065698604072064 0.75 1.006569860407206
v -0.871715069796397 0.40625000000000017 0.8717150697963967
v -0.5032849302036031 0.15460753489819834 0.5032849302036029
v -0.3684301395927936 0.75 1.375
v -0.3190698604072062 0.40625000000000017 1.190784930203603
v -0.18421506979639676 0.15460753489819834 0.6874999999999999
v 0 3.9375 0
v 0.1842150697963968 3.845392465101802 0.6874999999999999
v 0.3190698604072062 3.59375 1.1907849302036029
v 0.36843013959279364 3.25 1.375
v 0.503284930203603 3.845392465101802 0.5032849302036031
v 0.8717150697963967 3.59375 0.8717150697963968
v 1.0065698604072062 3.25 1.0065698604072062
v 0.6874999999999999 3.845392465101802 0.1842150697963968
v 1.1907849302036029 3.59375 0.3190698604072062
v 1.375 3.25 0.36843013959279364
v 0.6874999999999999 3.845392465101802 -0.18421506979639687
v 1.1907849302036029 3.59375 -0.3190698604072063
v 1.375 3.25 -0.3684301395927938
v 0.5032849302036031 3.845392465101802 -0.503284930203603
v 0.8717150697963968 3.59375 -0.8717150697963967
v 1.0065698604072062 3.25 -1.0065698604072062
v 0.18421506979639699 3.845392465101802 -0.6874999999999998
v 0.31906986040720653 3.59375 -1.1907849302036029
v 0.368430139592794 3.25 -1.3749999999999998
v -0.1842150697963965 3.845392465101802 -0.6874999999999999
v -0.3190698604072057 3.59375 -1.190784930203603
v -0.3684301395927931 3.25 -1.375
v -0.503284930203603 3.845392465101802 -0.5032849302036031
v -0.8717150697963967 3.59375 -0.8717150697963969
v -1.0065698604072062 3.25 -1.0065698604072064
v -0.6874999999999999 3.845392465101802 -0.1842150697963967
v -1.1907849302036029 3.59375 -0.31906986040720603
v -1.375 3.25 -0.36843013959279347
v -0.6874999999999999 3.845392465101802 0.18421506979639649
v -1.190784930203603 3.59375 0.31906986040720564
v -1.375 3.25 0.368430139592793
v -0.5032849302036031 3.845392465101802 0.5032849302036029
v -0.8717150697963969 3.59375 0.8717150697963965
v -1.0065698604072064 3.25 1.006569860407206
v -0.18421506979639676 3.845392465101802 0.6874999999999999
v -0.31906986040720614 3.59375 1.1907849302036029
v -0.3684301395927936 3.25 1.375
vt 0.375 0.73828125
vt 0.37890625 0.71484375
vt 0.41796875 0.71484375
vt 0.421875 0.73828125
vt 0.37890625 0.71484375
vt 0.38671875 0.67578125
vt 0.41015625 0.67578125
vt 0.41796875 0.71484375
vt 0.41015625 0.67578125
vt 0.38671875 0.67578125
vt 0.3984375 0.6328125
vt 0.421875 0.73828125
vt 0.42578125 0.71484375
vt 0.46484375 0.71484375
vt 0.46875 0.73828125
vt 0.42578125 0.71484375
vt 0.43359375 0.67578125
vt 0.45703125 0.67578125
vt 0.46484375 0.71484375
vt 0.45703125 0.67578125
vt 0.43359375 0.67578125
vt 0.4453125 0.6328125
vt 0.46875 0.73828125
vt 0.47265625 0.71484375
vt 0.51171875 0.71484375
vt 0.515625 0.73828125
vt 0.47265625 0.71484375
vt 0.48046875 0.67578125
vt 0.50390625 0.67578125
vt 0.51171875 0.71484375
vt 0.50390625 0.67578125
vt 0.48046875 0.67578125
vt 0.4921875 0.6328125
vt 0.515625 0.73828125
vt 0.51953125 0.71484375
vt 0.55859375 0.71484375
vt 0.5625 0.73828125
vt 0.51953125 0.71484375
vt 0.52734375 0.67578125
vt 0.55078125 0.67578125
vt 0.55859375 0.71484375
vt 0.55078125 0.67578125
vt 0.52734375 0.67578125
vt 0.5390625 0.6328125
vt 0 0.73828125
vt 0.00390625 0.71484375
vt 0.04296875 0.71484375
vt 0.046875 0.73828125
vt 0.00390625 0.71484375
vt 0.01171875 0.67578125
vt 0.03515625 0.67578125
vt 0.04296875 0.71484375
vt 0.03515625 0.67578125
vt 0.01171875 0.67578125
vt 0.0234375 0.6328125
vt 0.046875 0.73828125
vt 0.05078125 0.71484375
vt 0.08984375 0.71484375
vt 0.09375 0.73828125
vt 0.05078125 0.71484375
vt 0.05859375 0.67578125
vt 0.08203125 0.67578125
vt 0.08984375 0.71484375
vt 0.08203125 0.67578125
vt 0.05859375 0.67578125
vt 0.0703125 0.6328125
vt 0.09375 0.73828125
vt 0.09765625 0.71484375
vt 0.13671875 0.71484375
vt 0.140625 0.73828125
vt 0.09765625 0.71484375
vt 0.10546875 0.67578125
vt 0.12890625 0.67578125
vt 0.13671875 0.71484375
vt 0.12890625 0.67578125
vt 0.10546875 0.67578125
vt 0.1171875 0.6328125
vt 0.140625 0.73828125
vt 0.14453125 0.71484375
vt 0.18359375 0.71484375
vt 0.1875 0.73828125
vt 0.14453125 0.71484375
vt 0.15234375 0.67578125
vt 0.17578125 0.67578125
vt 0.18359375 0.71484375
vt 0.17578125 0.67578125
vt 0.15234375 0.67578125
vt 0.1640625 0.6328125
vt 0.1875 0.73828125
vt 0.19140625 0.71484375
vt 0.23046875 0.71484375
vt 0.234375 0.73828125
vt 0.19140625 0.71484375
vt 0.19921875 0.67578125
vt 0.22265625 0.67578125
vt 0.23046875 0.71484375
vt 0.22265625 0.67578125
vt 0.19921875 0.67578125
vt 0.2109375 0.6328125
vt 0.234375 0.73828125
vt 0.23828125 0.71484375
vt 0.27734375 0.71484375
vt 0.28125 0.73828125
vt 0.23828125 0.71484375
vt 0.24609375 0.67578125
vt 0.26953125 0.67578125
vt 0.27734375 0.71484375
vt 0.26953125 0.67578125
vt 0.24609375 0.67578125
vt 0.2578125 0.6328125
vt 0.28125 0.73828125
vt 0.28515625 0.71484375
vt 0.32421875 0.71484375
vt 0.328125 0.73828125
vt 0.28515625 0.71484375
vt 0.29296875 0.67578125
vt 0.31640625 0.67578125
vt 0.32421875 0.71484375
vt 0.31640625 0.67578125
vt 0.29296875 0.67578125
vt 0.3046875 0.6328125
vt 0.328125 0.73828125
vt 0.33121015625 0.71484375
vt 0.37109375 0.71484375
vt 0.37417890625 0.73828125
vt 0.33203125 0.71484375
vt 0.33984375 0.67578125
vt 0.36328125 0.67578125
vt 0.37109375 0.71484375
vt 0.36328125 0.67578125
vt 0.33984375 0.67578125
vt 0.3515625 0.6328125
vt 0.38671875 0.95703125
vt 0.41015625 0.95703125
vt 0.3984375 1
vt 0.38671875 0.95703125
vt 0.37890625 0.91796875
vt 0.41796875 0.91796875
vt 0.41015625 0.95703125
vt 0.37890625 0.91796875
vt 0.375 0.89453125
vt 0.421875 0.89453125
vt 0.41796875 0.91796875
vt 0.43359375 0.95703125
vt 0.45703125 0.95703125
vt 0.4453125 1
vt 0.43359375 0.95703125
vt 0.42578125 0.91796875
vt 0.46484375 0.91796875
vt 0.45703125 0.95703125
vt 0.42578125 0.91796875
vt 0.421875 0.89453125
vt 0.46875 0.89453125
vt 0.46484375 0.91796875
vt 0.48046875 0.95703125
vt 0.50390625 0.95703125
vt 0.4921875 1
vt 0.48046875 0.95703125
vt 0.47265625 0.91796875
vt 0.51171875 0.91796875
vt 0.50390625 0.95703125
vt 0.47265625 0.91796875
vt 0.46875 0.89453125
vt 0.515625 0.89453125
vt 0.51171875 0.91796875
vt 0.52734375 0.95703125
vt 0.55078125 0.95703125
vt 0.5390625 1
vt 0.52734375 0.95703125
vt 0.51953125 0.91796875
vt 0.55859375 0.91796875
vt 0.55078125 0.95703125
vt 0.51953125 0.91796875
vt 0.515625 0.89453125
vt 0.5625 0.89453125
vt 0.55859375 0.91796875
vt 0.01171875 0.95703125
vt 0.03515625 0.95703125
vt 0.0234375 1
vt 0.01171875 0.95703125
vt 0.00390625 0.91796875
vt 0.04296875 0.91796875
vt 0.03515625 0.95703125
vt 0.00390625 0.91796875
vt 0 0.89453125
vt 0.046875 0.89453125
vt 0.04296875 0.91796875
vt 0.05859375 0.95703125
vt 0.08203125 0.95703125
vt 0.0703125 1
vt 0.05859375 0.95703125
vt 0.05078125 0.91796875
vt 0.08984375 0.91796875
vt 0.08203125 0.95703125
vt 0.05078125 0.91796875
vt 0.046875 0.89453125
vt 0.09375 0.89453125
vt 0.08984375 0.91796875
vt 0.10546875 0.95703125
vt 0.12890625 0.95703125
vt 0.1171875 1
vt 0.10546875 0.95703125
vt 0.09765625 0.91796875
vt 0.13671875 0.91796875
vt 0.12890625 0.95703125
vt 0.09765625 0.91796875
vt 0.09375 0.89453125
vt 0.140625 0.89453125
vt 0.13671875 0.91796875
vt 0.15234375 0.95703125
vt 0.17578125 0.95703125
vt 0.1640625 1
vt 0.15234375 0.95703125
vt 0.14453125 0.91796875
vt 0.18359375 0.91796875
vt 0.17578125 0.95703125
vt 0.14453125 0.91796875
vt 0.140625 0.89453125
vt 0.1875 0.89453125
vt 0.18359375 0.91796875
vt 0.19921875 0.95703125
vt 0.22265625 0.95703125
vt 0.2109375 1
vt 0.199834765625 0.95703125
vt 0.19140625 0.91796875
vt 0.23128984375 0.91796875
vt 0.222861328125 0.95703125
vt 0.19140625 0.91796875
vt 0.1875 0.89453125
vt 0.234375 0.89453125
vt 0.23046875 0.91796875
vt 0.24609375 0.95703125
vt 0.26953125 0.95703125
vt 0.2578125 1
vt 0.24609375 0.95703125
vt 0.23828125 0.91796875
vt 0.27734375 0.91796875
vt 0.26953125 0.95703125
vt 0.23828125 0.91796875
vt 0.234375 0.89453125
vt 0.28125 0.89453125
vt 0.27734375 0.91796875
vt 0.29296875 0.95703125
vt 0.31640625 0.95703125
vt 0.3046875 1
vt 0.29296875 0.95703125
vt 0.28515625 0.91796875
vt 0.32421875 0.91796875
vt 0.31640625 0.95703125
vt 0.28515625 0.91796875
vt 0.28125 0.89453125
vt 0.328125 0.89453125
vt 0.32421875 0.91796875
vt 0.33984375 0.95703125
vt 0.36328125 0.95703125
vt 0.3515625 1
vt 0.33984375 0.95703125
vt 0.33203125 0.91796875
vt 0.37109375 0.91796875
vt 0.36328125 0.95703125
vt 0.33203125 0.91796875
vt 0.328125 0.89453125
vt 0.375 0.89453125
vt 0.37109375 0.91796875
vt 0.515625 0.73828125
vt 0.515625 0.89453125
vt 0.46875 0.89453125
vt 0.46875 0.73828125
vt 0.5625 0.73828125
vt 0.5625 0.89453125
vt 0.515625 0.89453125
vt 0.515625 0.73828125
vt 0.046875 0.73828125
vt 0.046875 0.89453125
vt 0 0.89453125
vt 0 0.73828125
vt 0.09375 0.73828125
vt 0.09375 0.89453125
vt 0.046875 0.89453125
vt 0.046875 0.73828125
vt 0.140625 0.73828125
vt 0.140625 0.89453125
vt 0.09375 0.89453125
vt 0.09375 0.73828125
vt 0.1875 0.73828125
vt 0.1875 0.89453125
vt 0.140625 0.89453125
vt 0.140625 0.73828125
vt 0.234375 0.73828125
vt 0.234375 0.89453125
vt 0.1875 0.89453125
vt 0.1875 0.73828125
vt 0.28125 0.73828125
vt 0.28125 0.89453125
vt 0.234375 0.89453125
vt 0.234375 0.73828125
vt 0.328125 0.73828125
vt 0.328125 0.89453125
vt 0.28125 0.89453125
vt 0.28125 0.73828125
vt 0.375 0.73828125
vt 0.375 0.89453125
vt 0.328125 0.89453125
vt 0.328125 0.73828125
vt 0.421875 0.73828125
vt 0.421875 0.89453125
vt 0.375 0.89453125
vt 0.375 0.73828125
vt 0.46875 0.73828125
vt 0.46875 0.89453125
vt 0.421875 0.89453125
vt 0.421875 0.73828125
vn 0 -1 -7.000890713987587e-18
vn 0.25049599098658165 -0.2515581414710598 0.934863765454238
vn 0.17716409502119745 -0.7290039403940911 0.6611854038960694
vn 0.07371503203210238 -0.9585830937804027 0.27510824482537344
vn 0.6843677744676564 -0.25155814147105976 0.6843677744676564
vn 0.484021308874872 -0.7290039403940913 0.484021308874872
vn 0.201393212793271 -0.9585830937804027 0.20139321279327102
vn 0.934863765454238 -0.2515581414710598 0.25049599098658165
vn 0.6611854038960694 -0.7290039403940911 0.17716409502119745
vn 0.27510824482537344 -0.9585830937804027 0.07371503203210239
vn 0.934863765454238 -0.25155814147105987 -0.25049599098658165
vn 0.6611854038960694 -0.7290039403940912 -0.1771640950211975
vn 0.2751082448253734 -0.9585830937804027 -0.07371503203210239
vn 0.6843677744676564 -0.2515581414710598 -0.6843677744676564
vn 0.4840213088748719 -0.7290039403940912 -0.4840213088748718
vn 0.20139321279327096 -0.9585830937804027 -0.201393212793271
vn 0.2504959909865819 -0.2515581414710597 -0.934863765454238
vn 0.17716409502119765 -0.7290039403940911 -0.6611854038960694
vn 0.07371503203210242 -0.9585830937804027 -0.2751082448253734
vn -0.25049599098658126 -0.25155814147105965 -0.9348637654542382
vn -0.17716409502119726 -0.7290039403940911 -0.6611854038960695
vn -0.07371503203210228 -0.9585830937804029 -0.2751082448253734
vn -0.6843677744676563 -0.2515581414710597 -0.6843677744676565
vn -0.4840213088748719 -0.7290039403940913 -0.484021308874872
vn -0.20139321279327096 -0.9585830937804027 -0.20139321279327096
vn -0.9348637654542381 -0.25155814147105987 -0.2504959909865816
vn -0.6611854038960694 -0.7290039403940913 -0.1771640950211975
vn -0.27510824482537344 -0.9585830937804027 -0.07371503203210236
vn -0.9348637654542382 -0.25155814147105976 0.2504959909865814
vn -0.6611854038960694 -0.7290039403940911 0.17716409502119732
vn -0.27510824482537344 -0.9585830937804027 0.07371503203210233
vn -0.6843677744676567 -0.2515581414710597 0.6843677744676563
vn -0.484021308874872 -0.7290039403940911 0.4840213088748718
vn -0.20139321279327102 -0.9585830937804027 0.2013932127932709
vn -0.25049599098658165 -0.25155814147105976 0.934863765454238
vn -0.1771640950211975 -0.7290039403940911 0.6611854038960694
vn -0.0737150320321024 -0.9585830937804027 0.2751082448253734
vn 1.1668151189979308e-18 0.9999999999999999 -1.1668151189979307e-17
vn 0.07371503203210236 0.9585830937804027 0.2751082448253734
vn 0.17716409502119743 0.7290039403940913 0.6611854038960693
vn 0.2504959909865816 0.25155814147106004 0.934863765454238
vn 0.20139321279327096 0.9585830937804027 0.20139321279327096
vn 0.48402130887487177 0.7290039403940912 0.48402130887487177
vn 0.6843677744676564 0.2515581414710599 0.6843677744676564
vn 0.2751082448253734 0.9585830937804027 0.07371503203210236
vn 0.6611854038960694 0.7290039403940912 0.1771640950211975
vn 0.934863765454238 0.2515581414710599 0.25049599098658165
vn 0.2751082448253733 0.9585830937804027 -0.07371503203210238
vn 0.6611854038960694 0.7290039403940912 -0.17716409502119754
vn 0.934863765454238 0.25155814147106004 -0.25049599098658165
vn 0.20139321279327096 0.9585830937804027 -0.20139321279327096
vn 0.4840213088748719 0.7290039403940912 -0.4840213088748718
vn 0.6843677744676564 0.2515581414710599 -0.6843677744676564
vn 0.07371503203210243 0.9585830937804027 -0.2751082448253734
vn 0.17716409502119765 0.7290039403940911 -0.6611854038960694
vn 0.25049599098658176 0.2515581414710598 -0.934863765454238
vn -0.07371503203210225 0.9585830937804027 -0.2751082448253734
vn -0.17716409502119726 0.7290039403940913 -0.6611854038960695
vn -0.2504959909865812 0.25155814147105976 -0.9348637654542381
vn -0.2013932127932709 0.9585830937804027 -0.2013932127932709
vn -0.48402130887487177 0.7290039403940912 -0.4840213088748719
vn -0.6843677744676565 0.2515581414710599 -0.6843677744676567
vn -0.2751082448253734 0.9585830937804027 -0.07371503203210236
vn -0.6611854038960694 0.7290039403940913 -0.1771640950211974
vn -0.934863765454238 0.2515581414710599 -0.2504959909865815
vn -0.2751082448253734 0.9585830937804029 0.07371503203210229
vn -0.6611854038960694 0.7290039403940913 0.17716409502119734
vn -0.9348637654542381 0.25155814147105987 0.2504959909865814
vn -0.201393212793271 0.9585830937804027 0.2013932127932709
vn -0.484021308874872 0.7290039403940912 0.48402130887487177
vn -0.6843677744676567 0.25155814147105987 0.6843677744676562
vn -0.07371503203210238 0.9585830937804027 0.2751082448253733
vn -0.17716409502119754 0.7290039403940913 0.6611854038960693
vn -0.2504959909865817 0.25155814147106004 0.934863765454238
usemtl m_2a3653a0-b086-87bf-3577-6b542552ad6f
f 2/1/2 3/2/3 6/3/6
f 2/1/2 6/3/6 5/4/5
f 3/5/3 4/6/4 7/7/7
f 3/5/3 7/7/7 6/8/6
f 7/9/7 4/10/4 1/11/1
f 5/12/5 6/13/6 9/14/9
f 5/12/5 9/14/9 8/15/8
f 6/16/6 7/17/7 10/18/10
f 6/16/6 10/18/10 9/19/9
f 10/20/10 7/21/7 1/22/1
f 8/23/8 9/24/9 12/25/12
f 8/23/8 12/25/12 11/26/11
f 9/27/9 10/28/10 13/29/13
f 9/27/9 13/29/13 12/30/12
f 13/31/13 10/32/10 1/33/1
f 11/34/11 12/35/12 15/36/15
f 11/34/11 15/36/15 14/37/14
f 12/38/12 13/39/13 16/40/16
f 12/38/12 16/40/16 15/41/15
f 16/42/16 13/43/13 1/44/1
f 14/45/14 15/46/15 18/47/18
f 14/45/14 18/47/18 17/48/17
f 15/49/15 16/50/16 19/51/19
f 15/49/15 19/51/19 18/52/18
f 19/53/19 16/54/16 1/55/1
f 17/56/17 18/57/18 21/58/21
f 17/56/17 21/58/21 20/59/20
f 18/60/18 19/61/19 22/62/22
f 18/60/18 22/62/22 21/63/21
f 22/64/22 19/65/19 1/66/1
f 20/67/20 21/68/21 24/69/24
f 20/67/20 24/69/24 23/70/23
f 21/71/21 22/72/22 25/73/25
f 21/71/21 25/73/25 24/74/24
f 25/75/25 22/76/22 1/77/1
f 23/78/23 24/79/24 27/80/27
f 23/78/23 27/80/27 26/81/26
f 24/82/24 25/83/25 28/84/28
f 24/82/24 28/84/28 27/85/27
f 28/86/28 25/87/25 1/88/1
f 26/89/26 27/90/27 30/91/30
f 26/89/26 30/91/30 29/92/29
f 27/93/27 28/94/28 31/95/31
f 27/93/27 31/95/31 30/96/30
f 31/97/31 28/98/28 1/99/1
f 29/100/29 30/101/30 33/102/33
f 29/100/29 33/102/33 32/103/32
f 30/104/30 31/105/31 34/106/34
f 30/104/30 34/106/34 33/107/33
f 34/108/34 31/109/31 1/110/1
f 32/111/32 33/112/33 36/113/36
f 32/111/32 36/113/36 35/114/35
f 33/115/33 34/116/34 37/117/37
f 33/115/33 37/117/37 36/118/36
f 37/119/37 34/120/34 1/121/1
f 35/122/35 36/123/36 3/124/3
f 35/122/35 3/124/3 2/125/2
f 36/126/36 37/127/37 4/128/4
f 36/126/36 4/128/4 3/129/3
f 4/130/4 37/131/37 1/132/1
f 39/133/39 42/134/42 38/135/38
f 39/136/39 40/137/40 43/138/43
f 39/136/39 43/138/43 42/139/42
f 40/140/40 41/141/41 44/142/44
f 40/140/40 44/142/44 43/143/43
f 42/144/42 45/145/45 38/146/38
f 42/147/42 43/148/43 46/149/46
f 42/147/42 46/149/46 45/150/45
f 43/151/43 44/152/44 47/153/47
f 43/151/43 47/153/47 46/154/46
f 45/155/45 48/156/48 38/157/38
f 45/158/45 46/159/46 49/160/49
f 45/158/45 49/160/49 48/161/48
f 46/162/46 47/163/47 50/164/50
f 46/162/46 50/164/50 49/165/49
f 48/166/48 51/167/51 38/168/38
f 48/169/48 49/170/49 52/171/52
f 48/169/48 52/171/52 51/172/51
f 49/173/49 50/174/50 53/175/53
f 49/173/49 53/175/53 52/176/52
f 51/177/51 54/178/54 38/179/38
f 51/180/51 52/181/52 55/182/55
f 51/180/51 55/182/55 54/183/54
f 52/184/52 53/185/53 56/186/56
f 52/184/52 56/186/56 55/187/55
f 54/188/54 57/189/57 38/190/38
f 54/191/54 55/192/55 58/193/58
f 54/191/54 58/193/58 57/194/57
f 55/195/55 56/196/56 59/197/59
f 55/195/55 59/197/59 58/198/58
f 57/199/57 60/200/60 38/201/38
f 57/202/57 58/203/58 61/204/61
f 57/202/57 61/204/61 60/205/60
f 58/206/58 59/207/59 62/208/62
f 58/206/58 62/208/62 61/209/61
f 60/210/60 63/211/63 38/212/38
f 60/213/60 61/214/61 64/215/64
f 60/213/60 64/215/64 63/216/63
f 61/217/61 62/218/62 65/219/65
f 61/217/61 65/219/65 64/220/64
f 63/221/63 66/222/66 38/223/38
f 63/224/63 64/225/64 67/226/67
f 63/224/63 67/226/67 66/227/66
f 64/228/64 65/229/65 68/230/68
f 64/228/64 68/230/68 67/231/67
f 66/232/66 69/233/69 38/234/38
f 66/235/66 67/236/67 70/237/70
f 66/235/66 70/237/70 69/238/69
f 67/239/67 68/240/68 71/241/71
f 67/239/67 71/241/71 70/242/70
f 69/243/69 72/244/72 38/245/38
f 69/246/69 70/247/70 73/248/73
f 69/246/69 73/248/73 72/249/72
f 70/250/70 71/251/71 74/252/74
f 70/250/70 74/252/74 73/253/73
f 72/254/72 39/255/39 38/256/38
f 72/257/72 73/258/73 40/259/40
f 72/257/72 40/259/40 39/260/39
f 73/261/73 74/262/74 41/263/41
f 73/261/73 41/263/41 40/264/40
f 11/265/11 50/266/50 47/267/47
f 11/265/11 47/267/47 8/268/8
f 14/269/14 53/270/53 50/271/50
f 14/269/14 50/271/50 11/272/11
f 17/273/17 56/274/56 53/275/53
f 17/273/17 53/275/53 14/276/14
f 20/277/20 59/278/59 56/279/56
f 20/277/20 56/279/56 17/280/17
f 23/281/23 62/282/62 59/283/59
f 23/281/23 59/283/59 20/284/20
f 26/285/26 65/286/65 62/287/62
f 26/285/26 62/287/62 23/288/23
f 29/289/29 68/290/68 65/291/65
f 29/289/29 65/291/65 26/292/26
f 32/293/32 71/294/71 68/295/68
f 32/293/32 68/295/68 29/296/29
f 35/297/35 74/298/74 71/299/71
f 35/297/35 71/299/71 32/300/32
f 2/301/2 41/302/41 74/303/74
f 2/301/2 74/303/74 35/304/35
f 5/305/5 44/306/44 41/307/41
f 5/305/5 41/307/41 2/308/2
f 8/309/8 47/310/47 44/311/44
f 8/309/8 44/311/44 5/312/5
o Decorations
v 1.5 0.6875 0.1875
v 1.5 0.6875 -0.1875
v 1.5 0.3125 0.1875
v 1.5 0.3125 -0.1875
v 1.375 0.625 0.125
v 1.375 0.625 -0.125
v 1.375 0.375 0.125
v 1.375 0.375 -0.125
v 1.125 0.625 0.125
v 1.125 0.625 -0.125
v 1.125 0.375 0.125
v 1.125 0.375 -0.125
v 0.18750000000000022 0.6875 -1.5
v -0.18749999999999967 0.6875 -1.5
v 0.18750000000000022 0.3125 -1.5
v -0.18749999999999967 0.3125 -1.5
v 0.12500000000000033 0.625 -1.375
v -0.12499999999999978 0.625 -1.375
v 0.12500000000000033 0.375 -1.375
v -0.12499999999999978 0.375 -1.375
v 0.12500000000000022 0.625 -1.125
v -0.12499999999999989 0.625 -1.1250000000000002
v 0.12500000000000022 0.375 -1.125
v -0.12499999999999989 0.375 -1.1250000000000002
v -1.5 0.6875 -0.18749999999999983
v -1.5 0.6875 0.18750000000000017
v -1.5 0.3125 -0.18749999999999983
v -1.5 0.3125 0.18750000000000017
v -1.375 0.625 -0.12499999999999983
v -1.375 0.625 0.12500000000000017
v -1.375 0.375 -0.12499999999999983
v -1.375 0.375 0.12500000000000017
v -1.125 0.625 -0.12499999999999986
v -1.125 0.625 0.1250000000000001
v -1.125 0.375 -0.12499999999999986
v -1.125 0.375 0.1250000000000001
v -0.18749999999999967 0.6875 1.5
v 0.18750000000000022 0.6875 1.5
v -0.18749999999999967 0.3125 1.5
v 0.18750000000000022 0.3125 1.5
v -0.12499999999999978 0.625 1.375
v 0.12500000000000033 0.625 1.375
v -0.12499999999999978 0.375 1.375
v 0.12500000000000033 0.375 1.375
v -0.12499999999999989 0.625 1.1250000000000002
v 0.12500000000000022 0.625 1.125
v -0.12499999999999989 0.375 1.1250000000000002
v 0.12500000000000022 0.375 1.125
v 1.5 2.6875 0.1875
v 1.5 2.6875 -0.1875
v 1.5 2.3125 0.1875
v 1.5 2.3125 -0.1875
v 1.375 2.625 0.125
v 1.375 2.625 -0.125
v 1.375 2.375 0.125
v 1.375 2.375 -0.125
v 0.18750000000000022 2.6875 -1.5
v -0.18749999999999967 2.6875 -1.5
v 0.18750000000000022 2.3125 -1.5
v -0.18749999999999967 2.3125 -1.5
v 0.12500000000000033 2.625 -1.375
v -0.12499999999999978 2.625 -1.375
v 0.12500000000000033 2.375 -1.375
v -0.12499999999999978 2.375 -1.375
v -1.5 2.6875 -0.18749999999999983
v -1.5 2.6875 0.18750000000000017
v -1.5 2.3125 -0.18749999999999983
v -1.5 2.3125 0.18750000000000017
v -1.375 2.625 -0.12499999999999983
v -1.375 2.625 0.12500000000000017
v -1.375 2.375 -0.12499999999999983
v -1.375 2.375 0.12500000000000017
v -0.18749999999999967 2.6875 1.5
v 0.18750000000000022 2.6875 1.5
v -0.18749999999999967 2.3125 1.5
v 0.18750000000000022 2.3125 1.5
v -0.12499999999999978 2.625 1.375
v 0.12500000000000033 2.625 1.375
v -0.12499999999999978 2.375 1.375
v 0.12500000000000033 2.375 1.375
v -0.25 0.5 -0.25
v -0.25 0.5 -0.75
v -0.5 0 -0.5
v -0.5 0 -1
v -0.75 0.5 -0.25
v -0.75 0.5 -0.75
v -1 0 -0.5
v -1 0 -1
v 0.75 0.5 -0.25
v 0.75 0.5 -0.75
v 1 0 -0.5
v 1 0 -1
v 0.25 0.5 -0.25
v 0.25 0.5 -0.75
v 0.5 0 -0.5
v 0.5 0 -1
v -0.25 0.5 0.75
v -0.25 0.5 0.25
v -0.5 0 1
v -0.5 0 0.5
v -0.75 0.5 0.75
v -0.75 0.5 0.25
v -1 0 1
v -1 0 0.5
v 0.75 0.5 0.75
v 0.75 0.5 0.25
v 1 0 1
v 1 0 0.5
v 0.25 0.5 0.75
v 0.25 0.5 0.25
v 0.5 0 1
v 0.5 0 0.5
vt 0.0234375 0.0234375
vt 0 0.0234375
vt 0 0
vt 0.0234375 0
vt 0.00390625 0.0234375
vt 0 0.01953125
vt 0.0234375 0.01953125
vt 0.01953125 0.0234375
vt 0.0234375 0.00390625
vt 0 0.00390625
vt 0.00390625 0
vt 0.01953125 0
vt 0.003906249999999999 0
vt 0.003906249999999999 0.0234375
vt 0 0.01953125
vt 0 0.00390625
vt 0.0234375 0.01953125
vt 0.01953125 0.0234375
vt 0.01953125 0
vt 0.0234375 0.00390625
vt 0 0.01953125
vt 0 0.00390625
vt 0.00390625 0.00390625
vt 0.00390625 0.01953125
vt 0.01953125 0.0234375
vt 0.00390625 0.0234375
vt 0.00390625 0.01953125
vt 0.01953125 0.01953125
vt 0.0234375 0.00390625
vt 0.0234375 0.01953125
vt 0.01953125 0.01953125
vt 0.01953125 0.00390625
vt 0.00390625 0
vt 0.01953125 0
vt 0.01953125 0.00390625
vt 0.00390625 0.00390625
vt 0.0234375 0.0234375
vt 0 0.0234375
vt 0 0
vt 0.0234375 0
vt 0.00390625 0.0234375
vt 0 0.01953125
vt 0.0234375 0.01953125
vt 0.01953125 0.0234375
vt 0.0234375 0.00390625
vt 0 0.00390625
vt 0.00390625 0
vt 0.01953125 0
vt 0.003906249999999999 0
vt 0.003906249999999999 0.0234375
vt 0 0.01953125
vt 0 0.00390625
vt 0.0234375 0.01953125
vt 0.01953125 0.0234375
vt 0.01953125 0
vt 0.0234375 0.00390625
vt 0 0.01953125
vt 0 0.00390625
vt 0.00390625 0.00390625
vt 0.00390625 0.01953125
vt 0.01953125 0.0234375
vt 0.00390625 0.0234375
vt 0.00390625 0.01953125
vt 0.01953125 0.01953125
vt 0.0234375 0.00390625
vt 0.0234375 0.01953125
vt 0.01953125 0.01953125
vt 0.01953125 0.00390625
vt 0.00390625 0
vt 0.01953125 0
vt 0.01953125 0.00390625
vt 0.00390625 0.00390625
vt 0.0234375 0.0234375
vt 0 0.0234375
vt 0 0
vt 0.0234375 0
vt 0.00390625 0.0234375
vt 0 0.01953125
vt 0.0234375 0.01953125
vt 0.01953125 0.0234375
vt 0.0234375 0.00390625
vt 0 0.00390625
vt 0.00390625 0
vt 0.01953125 0
vt 0.003906249999999999 0
vt 0.003906249999999999 0.0234375
vt 0 0.01953125
vt 0 0.00390625
vt 0.0234375 0.01953125
vt 0.01953125 0.0234375
vt 0.01953125 0
vt 0.0234375 0.00390625
vt 0 0.01953125
vt 0 0.00390625
vt 0.00390625 0.00390625
vt 0.00390625 0.01953125
vt 0.01953125 0.0234375
vt 0.00390625 0.0234375
vt 0.00390625 0.01953125
vt 0.01953125 0.01953125
vt 0.0234375 0.00390625
vt 0.0234375 0.01953125
vt 0.01953125 0.01953125
vt 0.01953125 0.00390625
vt 0.00390625 0
vt 0.01953125 0
vt 0.01953125 0.00390625
vt 0.00390625 0.00390625
vt 0.0234375 0.0234375
vt 0 0.0234375
vt 0 0
vt 0.0234375 0
vt 0.00390625 0.0234375
vt 0 0.01953125
vt 0.0234375 0.01953125
vt 0.01953125 0.0234375
vt 0.0234375 0.00390625
vt 0 0.00390625
vt 0.00390625 0
vt 0.01953125 0
vt 0.003906249999999999 0
vt 0.003906249999999999 0.0234375
vt 0 0.01953125
vt 0 0.00390625
vt 0.0234375 0.01953125
vt 0.01953125 0.0234375
vt 0.01953125 0
vt 0.0234375 0.00390625
vt 0 0.01953125
vt 0 0.00390625
vt 0.00390625 0.00390625
vt 0.00390625 0.01953125
vt 0.01953125 0.0234375
vt 0.00390625 0.0234375
vt 0.00390625 0.01953125
vt 0.01953125 0.01953125
vt 0.0234375 0.00390625
vt 0.0234375 0.01953125
vt 0.01953125 0.01953125
vt 0.01953125 0.00390625
vt 0.00390625 0
vt 0.01953125 0
vt 0.01953125 0.00390625
vt 0.00390625 0.00390625
vt 0 0.0234375
vt 0.0234375 0.0234375
vt 0.0234375 0
vt 0 0
vt 0.00390625 0.0234375
vt 0 0.01953125
vt 0.0234375 0.01953125
vt 0.01953125 0.0234375
vt 0.0234375 0.00390625
vt 0 0.00390625
vt 0.00390625 0
vt 0.01953125 0
vt 0.00390625 0
vt 0.00390625 0.0234375
vt 0 0.01953125
vt 0 0.00390625
vt 0.0234375 0.01953125
vt 0.01953125 0.0234375
vt 0.01953125 0
vt 0.0234375 0.00390625
vt 0.0234375 0.0234375
vt 0 0.0234375
vt 0 0
vt 0.0234375 0
vt 0.00390625 0.0234375
vt 0 0.01953125
vt 0.0234375 0.01953125
vt 0.01953125 0.0234375
vt 0.0234375 0.00390625
vt 0 0.00390625
vt 0.00390625 0
vt 0.01953125 0
vt 0.003906249999999999 0
vt 0.003906249999999999 0.0234375
vt 0 0.01953125
vt 0 0.00390625
vt 0.0234375 0.01953125
vt 0.01953125 0.0234375
vt 0.01953125 0
vt 0.0234375 0.00390625
vt 0.0234375 0.0234375
vt 0 0.0234375
vt 0 0
vt 0.0234375 0
vt 0.00390625 0.0234375
vt 0 0.01953125
vt 0.0234375 0.01953125
vt 0.01953125 0.0234375
vt 0.0234375 0.00390625
vt 0 0.00390625
vt 0.00390625 0
vt 0.01953125 0
vt 0.003906249999999999 0
vt 0.003906249999999999 0.0234375
vt 0 0.01953125
vt 0 0.00390625
vt 0.0234375 0.01953125
vt 0.01953125 0.0234375
vt 0.01953125 0
vt 0.0234375 0.00390625
vt 0.0234375 0.0234375
vt 0 0.0234375
vt 0 0
vt 0.0234375 0
vt 0.00390625 0.0234375
vt 0 0.01953125
vt 0.0234375 0.01953125
vt 0.01953125 0.0234375
vt 0.0234375 0.00390625
vt 0 0.00390625
vt 0.00390625 0
vt 0.01953125 0
vt 0.003906249999999999 0
vt 0.003906249999999999 0.0234375
vt 0 0.01953125
vt 0 0.00390625
vt 0.0234375 0.01953125
vt 0.01953125 0.0234375
vt 0.01953125 0
vt 0.0234375 0.00390625
vt 0.0546875 0.03125
vt 0.0234375 0.03125
vt 0.0234375 0
vt 0.0546875 0
vt 0.0546875 0
vt 0.0546875 0.03125
vt 0.0234375 0.03125
vt 0.0234375 0
vt 0.0859375 0
vt 0.0859375 0.03125
vt 0.0546875 0.03125
vt 0.0546875 0
vt 0.0546875 0
vt 0.0546875 0.03125
vt 0.0234375 0.03125
vt 0.0234375 0
vt 0.0546875 0.03125
vt 0.0234375 0.03125
vt 0.0234375 0
vt 0.0546875 0
vt 0.0546875 0.03125
vt 0.0234375 0.03125
vt 0.0234375 0
vt 0.0546875 0
vt 0.0546875 0
vt 0.0546875 0.03125
vt 0.0234375 0.03125
vt 0.0234375 0
vt 0.0859375 0
vt 0.0859375 0.03125
vt 0.0546875 0.03125
vt 0.0546875 0
vt 0.0546875 0
vt 0.0546875 0.03125
vt 0.0234375 0.03125
vt 0.0234375 0
vt 0.0546875 0.03125
vt 0.0234375 0.03125
vt 0.0234375 0
vt 0.0546875 0
vt 0.0546875 0.03125
vt 0.0234375 0.03125
vt 0.0234375 0
vt 0.0546875 0
vt 0.0546875 0
vt 0.0546875 0.03125
vt 0.0234375 0.03125
vt 0.0234375 0
vt 0.0859375 0
vt 0.0859375 0.03125
vt 0.0546875 0.03125
vt 0.0546875 0
vt 0.0546875 0
vt 0.0546875 0.03125
vt 0.0234375 0.03125
vt 0.0234375 0
vt 0.0546875 0.03125
vt 0.0234375 0.03125
vt 0.0234375 0
vt 0.0546875 0
vt 0.0546875 0.03125
vt 0.0234375 0.03125
vt 0.0234375 0
vt 0.0546875 0
vt 0.0546875 0
vt 0.0546875 0.03125
vt 0.0234375 0.03125
vt 0.0234375 0
vt 0.0859375 0
vt 0.0859375 0.03125
vt 0.0546875 0.03125
vt 0.0546875 0
vt 0.0546875 0
vt 0.0546875 0.03125
vt 0.0234375 0.03125
vt 0.0234375 0
vt 0.0546875 0.03125
vt 0.0234375 0.03125
vt 0.0234375 0
vt 0.0546875 0
vn 1 0 0
vn -0.44721359549995804 0.8944271909999161 0
vn -0.44721359549995804 -0.8944271909999161 0
vn -0.44721359549995804 0 0.8944271909999161
vn -0.44721359549995804 0 -0.8944271909999161
vn 0 0 1
vn 0 1 0
vn 0 0 -1
vn 0 -1 0
vn 0 0 -1
vn 0 0.894427190999916 0.447213595499958
vn 0 -0.894427190999916 0.447213595499958
vn 0.8944271909999162 0 0.4472135954999573
vn -0.8944271909999162 0 0.4472135954999573
vn 1 0 4.440892098500626e-16
vn 0 1 0
vn -1 0 -4.44089209850063e-16
vn 0 -1 0
vn -1 0 0
vn 0.44721359549995804 0.8944271909999161 0
vn 0.44721359549995804 -0.8944271909999161 0
vn 0.44721359549995804 0 -0.8944271909999161
vn 0.44721359549995804 0 0.8944271909999161
vn -1.1102230246251565e-16 0 -1
vn 0 1 0
vn 2.220446049250313e-16 0 1
vn 0 -1 0
vn 0 0 1
vn 0 0.894427190999916 -0.447213595499958
vn 0 -0.894427190999916 -0.447213595499958
vn -0.8944271909999162 0 -0.4472135954999573
vn 0.8944271909999162 0 -0.4472135954999573
vn -1 0 4.44089209850063e-16
vn 0 1 0
vn 1 0 -4.440892098500626e-16
vn 0 -1 0
vn 1 0 0
vn -0.44721359549995804 0.8944271909999161 0
vn -0.44721359549995804 -0.8944271909999161 0
vn -0.44721359549995804 0 0.8944271909999161
vn -0.44721359549995804 0 -0.8944271909999161
vn 0 0 -1
vn 0 0.894427190999916 0.447213595499958
vn 0 -0.894427190999916 0.447213595499958
vn 0.8944271909999162 0 0.4472135954999573
vn -0.8944271909999162 0 0.4472135954999573
vn -1 0 0
vn 0.44721359549995804 0.8944271909999161 0
vn 0.44721359549995804 -0.8944271909999161 0
vn 0.44721359549995804 0 -0.8944271909999161
vn 0.44721359549995804 0 0.8944271909999161
vn 0 0 1
vn 0 0.894427190999916 -0.447213595499958
vn 0 -0.894427190999916 -0.447213595499958
vn -0.8944271909999162 0 -0.4472135954999573
vn 0.8944271909999162 0 -0.4472135954999573
vn 0.8944271909999161 -0.44721359549995804 0
vn -0.8944271909999161 0.44721359549995804 0
vn 0 -1 0
vn 0 -0.44721359549995804 0.8944271909999161
vn 0 0.44721359549995804 -0.8944271909999161
vn 0.8944271909999161 0.44721359549995804 0
vn -0.8944271909999161 -0.44721359549995804 0
vn 0 -1 0
vn 0 -0.44721359549995804 0.8944271909999161
vn 0 0.44721359549995804 -0.8944271909999161
vn 0.8944271909999161 -0.44721359549995804 0
vn -0.8944271909999161 0.44721359549995804 0
vn 0 -1 0
vn 0 0.44721359549995804 0.8944271909999161
vn 0 -0.44721359549995804 -0.8944271909999161
vn 0.8944271909999161 0.44721359549995804 0
vn -0.8944271909999161 -0.44721359549995804 0
vn 0 -1 0
vn 0 0.44721359549995804 0.8944271909999161
vn 0 -0.44721359549995804 -0.8944271909999161
usemtl m_2a3653a0-b086-87bf-3577-6b542552ad6f
f 76/313/75 75/314/75 77/315/75
f 76/313/75 77/315/75 78/316/75
f 79/317/76 75/318/76 76/319/76
f 79/317/76 76/319/76 80/320/76
f 78/321/77 77/322/77 81/323/77
f 78/321/77 81/323/77 82/324/77
f 77/325/78 75/326/78 79/327/78
f 77/325/78 79/327/78 81/328/78
f 80/329/79 76/330/79 78/331/79
f 80/329/79 78/331/79 82/332/79
f 83/333/80 85/334/80 81/335/80
f 83/333/80 81/335/80 79/336/80
f 84/337/81 83/338/81 79/339/81
f 84/337/81 79/339/81 80/340/81
f 86/341/82 84/342/82 80/343/82
f 86/341/82 80/343/82 82/344/82
f 85/345/83 86/346/83 82/347/83
f 85/345/83 82/347/83 81/348/83
f 88/349/84 87/350/84 89/351/84
f 88/349/84 89/351/84 90/352/84
f 91/353/85 87/354/85 88/355/85
f 91/353/85 88/355/85 92/356/85
f 90/357/86 89/358/86 93/359/86
f 90/357/86 93/359/86 94/360/86
f 89/361/87 87/362/87 91/363/87
f 89/361/87 91/363/87 93/364/87
f 92/365/88 88/366/88 90/367/88
f 92/365/88 90/367/88 94/368/88
f 95/369/89 97/370/89 93/371/89
f 95/369/89 93/371/89 91/372/89
f 96/373/90 95/374/90 91/375/90
f 96/373/90 91/375/90 92/376/90
f 98/377/91 96/378/91 92/379/91
f 98/377/91 92/379/91 94/380/91
f 97/381/92 98/382/92 94/383/92
f 97/381/92 94/383/92 93/384/92
f 100/385/93 99/386/93 101/387/93
f 100/385/93 101/387/93 102/388/93
f 103/389/94 99/390/94 100/391/94
f 103/389/94 100/391/94 104/392/94
f 102/393/95 101/394/95 105/395/95
f 102/393/95 105/395/95 106/396/95
f 101/397/96 99/398/96 103/399/96
f 101/397/96 103/399/96 105/400/96
f 104/401/97 100/402/97 102/403/97
f 104/401/97 102/403/97 106/404/97
f 107/405/98 109/406/98 105/407/98
f 107/405/98 105/407/98 103/408/98
f 108/409/99 107/410/99 103/411/99
f 108/409/99 103/411/99 104/412/99
f 110/413/100 108/414/100 104/415/100
f 110/413/100 104/415/100 106/416/100
f 109/417/101 110/418/101 106/419/101
f 109/417/101 106/419/101 105/420/101
f 112/421/102 111/422/102 113/423/102
f 112/421/102 113/423/102 114/424/102
f 115/425/103 111/426/103 112/427/103
f 115/425/103 112/427/103 116/428/103
f 114/429/104 113/430/104 117/431/104
f 114/429/104 117/431/104 118/432/104
f 113/433/105 111/434/105 115/435/105
f 113/433/105 115/435/105 117/436/105
f 116/437/106 112/438/106 114/439/106
f 116/437/106 114/439/106 118/440/106
f 119/441/107 121/442/107 117/443/107
f 119/441/107 117/443/107 115/444/107
f 120/445/108 119/446/108 115/447/108
f 120/445/108 115/447/108 116/448/108
f 122/449/109 120/450/109 116/451/109
f 122/449/109 116/451/109 118/452/109
f 121/453/110 122/454/110 118/455/110
f 121/453/110 118/455/110 117/456/110
f 124/457/111 123/458/111 125/459/111
f 124/457/111 125/459/111 126/460/111
f 127/461/112 123/462/112 124/463/112
f 127/461/112 124/463/112 128/464/112
f 126/465/113 125/466/113 129/467/113
f 126/465/113 129/467/113 130/468/113
f 125/469/114 123/470/114 127/471/114
f 125/469/114 127/471/114 129/472/114
f 128/473/115 124/474/115 126/475/115
f 128/473/115 126/475/115 130/476/115
f 132/477/116 131/478/116 133/479/116
f 132/477/116 133/479/116 134/480/116
f 135/481/117 131/482/117 132/483/117
f 135/481/117 132/483/117 136/484/117
f 134/485/118 133/486/118 137/487/118
f 134/485/118 137/487/118 138/488/118
f 133/489/119 131/490/119 135/491/119
f 133/489/119 135/491/119 137/492/119
f 136/493/120 132/494/120 134/495/120
f 136/493/120 134/495/120 138/496/120
f 140/497/121 139/498/121 141/499/121
f 140/497/121 141/499/121 142/500/121
f 143/501/122 139/502/122 140/503/122
f 143/501/122 140/503/122 144/504/122
f 142/505/123 141/506/123 145/507/123
f 142/505/123 145/507/123 146/508/123
f 141/509/124 139/510/124 143/511/124
f 141/509/124 143/511/124 145/512/124
f 144/513/125 140/514/125 142/515/125
f 144/513/125 142/515/125 146/516/125
f 148/517/126 147/518/126 149/519/126
f 148/517/126 149/519/126 150/520/126
f 151/521/127 147/522/127 148/523/127
f 151/521/127 148/523/127 152/524/127
f 150/525/128 149/526/128 153/527/128
f 150/525/128 153/527/128 154/528/128
f 149/529/129 147/530/129 151/531/129
f 149/529/129 151/531/129 153/532/129
f 152/533/130 148/534/130 150/535/130
f 152/533/130 150/535/130 154/536/130
f 156/537/131 155/538/131 157/539/131
f 156/537/131 157/539/131 158/540/131
f 161/541/132 159/542/132 160/543/132
f 161/541/132 160/543/132 162/544/132
f 158/545/133 157/546/133 161/547/133
f 158/545/133 161/547/133 162/548/133
f 157/549/134 155/550/134 159/551/134
f 157/549/134 159/551/134 161/552/134
f 160/553/135 156/554/135 158/555/135
f 160/553/135 158/555/135 162/556/135
f 164/557/136 163/558/136 165/559/136
f 164/557/136 165/559/136 166/560/136
f 169/561/137 167/562/137 168/563/137
f 169/561/137 168/563/137 170/564/137
f 166/565/138 165/566/138 169/567/138
f 166/565/138 169/567/138 170/568/138
f 165/569/139 163/570/139 167/571/139
f 165/569/139 167/571/139 169/572/139
f 168/573/140 164/574/140 166/575/140
f 168/573/140 166/575/140 170/576/140
f 172/577/141 171/578/141 173/579/141
f 172/577/141 173/579/141 174/580/141
f 177/581/142 175/582/142 176/583/142
f 177/581/142 176/583/142 178/584/142
f 174/585/143 173/586/143 177/587/143
f 174/585/143 177/587/143 178/588/143
f 173/589/144 171/590/144 175/591/144
f 173/589/144 175/591/144 177/592/144
f 176/593/145 172/594/145 174/595/145
f 176/593/145 174/595/145 178/596/145
f 180/597/146 179/598/146 181/599/146
f 180/597/146 181/599/146 182/600/146
f 185/601/147 183/602/147 184/603/147
f 185/601/147 184/603/147 186/604/147
f 182/605/148 181/606/148 185/607/148
f 182/605/148 185/607/148 186/608/148
f 181/609/149 179/610/149 183/611/149
f 181/609/149 183/611/149 185/612/149
f 184/613/150 180/614/150 182/615/150
f 184/613/150 182/615/150 186/616/150