# Made in Blockbench 5.1.6
mtllib transmission_tower.mtl

o Base
v -0.75 16 -0.75
v -0.75 16 -1
v -1.25 0 -1.25
v -1.25 0 -1.5
v -1 16 -0.75
v -1 16 -1
v -1.5 0 -1.25
v -1.5 0 -1.5
v -0.75 24 -0.75
v -0.75 24 -1
v -1 24 -0.75
v -1 24 -1
v 0.125 26.4375 0.125
v 0.125 26.4375 -0.125
v -0.125 26.4375 0.125
v -0.125 26.4375 -0.125
v -1.25 0 1.5
v -1.25 0 1.25
v -1.5 0 1.5
v -1.5 0 1.25
v -0.75 16 1
v -0.75 16 0.75
v -1 16 1
v -1 16 0.75
v -0.75 24 1
v -0.75 24 0.75
v -1 24 1
v -1 24 0.75
v 0.125 26.4375 0.125
v 0.125 26.4375 -0.125
v -0.125 26.4375 0.125
v -0.125 26.4375 -0.125
v 1 16 1
v 1 16 0.75
v 1.5 0 1.5
v 1.5 0 1.25
v 0.75 16 1
v 0.75 16 0.75
v 1.25 0 1.5
v 1.25 0 1.25
v 1 24 1
v 1 24 0.75
v 0.75 24 1
v 0.75 24 0.75
v 0.125 26.4375 0.125
v 0.125 26.4375 -0.125
v -0.125 26.4375 0.125
v -0.125 26.4375 -0.125
v 1 16 -0.75
v 1 16 -1
v 1.5 0 -1.25
v 1.5 0 -1.5
v 0.75 16 -0.75
v 0.75 16 -1
v 1.25 0 -1.25
v 1.25 0 -1.5
v 1 24 -0.75
v 1 24 -1
v 0.75 24 -0.75
v 0.75 24 -1
v 0.125 26.4375 0.125
v 0.125 26.4375 -0.125
v -0.125 26.4375 0.125
v -0.125 26.4375 -0.125
v -1.3124999999999991 3.25 1.3125
v -1.375 0.2500000000000001 -1.4375
v -1.3124999999999993 3 1.3125
v -1.375 1.1102230246251565e-16 -1.4375
v -1.3750000000000004 0.2500000000000002 1.4375
v -1.3124999999999998 3.2499999999999996 -1.3125
v -1.3750000000000004 3.3306690738754696e-16 1.4375
v -1.3125 2.9999999999999996 -1.3125
v -1.1874999999999996 6.25 1.1875
v -1.1875 6 1.1875
v -1.1875 6.249999999999999 -1.1875
v -1.1875 6 -1.1875
v -1.125 9.25 1.0625
v -1.125 9 1.0625
v -1.125 9.25 -1.0625
v -1.125 9 -1.0625
v -1 12.25 0.9375
v -1 12 0.9375
v -1.0000000000000009 12.25 -0.9375
v -1 12 -0.9375
v -0.9375000000000009 15.249999999999998 0.8125
v -0.9375000000000009 15 0.8125
v -0.9375000000000009 15.249999999999998 -0.8125
v -0.9375000000000009 15 -0.8125
v -0.8750000000000018 18.25 0.8125
v -0.8750000000000018 18 0.8125
v -0.8750000000000018 18.25 -0.8125
v -0.8750000000000018 18 -0.8125
v -0.8750000000000018 21.25 0.8125
v -0.8750000000000018 21 0.8125
v -0.8750000000000018 21.25 -0.8125
v -0.8750000000000018 21 -0.8125
v -0.8750000000000018 24.25 0.8125
v -0.8750000000000036 24 0.8125
v -0.8750000000000053 24.25 -0.8125
v -0.8750000000000036 24 -0.8125
v -0.5 25.25 0.4375
v -0.4999999999999982 25 0.4375
v -0.5 25.25 -0.4375
v -0.4999999999999982 25 -0.4375
v 1.3125 3.250000000000001 1.3124999999999996
v -1.4375 0.2500000000000001 1.375
v 1.3124999999999996 3 1.3124999999999996
v -1.4375 -1.1102230246251565e-16 1.375
v 1.4375 0.25000000000000044 1.3750000000000009
v -1.3125000000000002 3.25 1.3125
v 1.4375 3.3306690738754696e-16 1.3750000000000009
v -1.3125000000000004 3 1.3125
v 1.1874999999999996 6.25 1.1874999999999996
v 1.1874999999999991 6 1.1874999999999996
v -1.1875000000000004 6.25 1.1875
v -1.1875000000000004 6 1.1875
v 1.0624999999999991 9.25 1.1249999999999996
v 1.0624999999999987 9 1.1249999999999996
v -1.0625000000000009 9.25 1.125
v -1.0625000000000013 9 1.125
v 0.9375 12.25 0.9999999999999996
v 0.9375 12 0.9999999999999996
v -0.9375 12.25 1
v -0.9375 12 1
v 0.8124999999999982 15.25 0.9374999999999996
v 0.8124999999999991 15 0.9374999999999996
v -0.8125000000000018 15.25 0.9375
v -0.8125000000000009 15 0.9375
v 0.8125 18.25 0.8749999999999996
v 0.8125 18 0.8749999999999996
v -0.8125 18.25 0.875
v -0.8125000000000018 18 0.875
v 0.8124999999999964 21.25 0.8749999999999996
v 0.8124999999999964 21 0.8749999999999996
v -0.8125000000000018 21.25 0.875
v -0.8125 21 0.875
v 0.8124999999999982 24.25 0.8749999999999996
v 0.8125 24 0.8749999999999996
v -0.8125000000000036 24.25 0.875
v -0.8125000000000036 24 0.875
v 0.43749999999999645 25.25 0.4999999999999998
v 0.4374999999999982 25 0.5
v -0.4375 25.25 0.5000000000000002
v -0.4374999999999982 25 0.5000000000000002
v 1.3124999999999987 3.2500000000000004 -1.3125
v 1.375 0.2500000000000002 1.4375
v 1.3124999999999991 3.0000000000000004 -1.3125
v 1.375 1.1102230246251565e-16 1.4375
v 1.3750000000000004 0.25000000000000056 -1.4375
v 1.3125 3.25 1.3125
v 1.3750000000000004 4.440892098500626e-16 -1.4375
v 1.3124999999999996 3 1.3125
v 1.1874999999999982 6.249999999999999 -1.1875000000000002
v 1.1874999999999982 6 -1.1875000000000002
v 1.1874999999999996 6.249999999999999 1.1875
v 1.1874999999999996 6 1.1875
v 1.1249999999999982 9.25 -1.0625
v 1.1249999999999978 9 -1.0625
v 1.1249999999999991 9.25 1.0624999999999996
v 1.1249999999999991 9 1.0624999999999996
v 0.9999999999999991 12.249999999999998 -0.9375000000000001
v 0.9999999999999982 12 -0.9375000000000001
v 1 12.25 0.9375
v 1 12 0.9375
v 0.9374999999999973 15.249999999999998 -0.8125
v 0.9374999999999973 15 -0.8125
v 0.9375000000000009 15.25 0.8125
v 0.9375 15 0.8125
v 0.8749999999999964 18.25 -0.8125
v 0.8749999999999964 18 -0.8125
v 0.875 18.25 0.8125
v 0.875 18 0.8125
v 0.8749999999999964 21.25 -0.8125
v 0.8749999999999964 21 -0.8125
v 0.8749999999999964 21.25 0.8125
v 0.8749999999999964 21 0.8125
v 0.8749999999999929 24.25 -0.8125
v 0.8749999999999964 24 -0.8125
v 0.875 24.25 0.8125
v 0.875 24 0.8125
v 0.5 25.25 -0.4375
v 0.4999999999999982 25 -0.4375
v 0.5 25.25 0.4375
v 0.4999999999999982 25 0.4375
v -1.3125000000000004 3.250000000000001 -1.3124999999999991
v 1.4375 0.2500000000000002 -1.3750000000000002
v -1.3125000000000004 3 -1.3124999999999991
v 1.4375 0 -1.3750000000000002
v -1.4375 0.25000000000000033 -1.3750000000000004
v 1.3124999999999991 3.25 -1.3125
v -1.4375 3.3306690738754696e-16 -1.3750000000000004
v 1.3124999999999996 3 -1.3125
v -1.1875000000000004 6.25 -1.1874999999999991
v -1.1875000000000004 6 -1.1874999999999991
v 1.1874999999999996 6.25 -1.1875000000000002
v 1.1874999999999991 6 -1.1875000000000002
v -1.0625000000000009 9.25 -1.1249999999999991
v -1.0625000000000013 9 -1.1249999999999991
v 1.0624999999999991 9.25 -1.1250000000000002
v 1.0624999999999987 9 -1.1250000000000002
v -0.9375 12.25 -0.9999999999999991
v -0.9375 12 -0.9999999999999991
v 0.9375 12.25 -1
v 0.9375 12 -1
v -0.8125000000000018 15.25 -0.9374999999999991
v -0.8125000000000009 15 -0.9374999999999991
v 0.8124999999999982 15.25 -0.9375000000000002
v 0.8124999999999991 15 -0.9375000000000002
v -0.8125 18.25 -0.8749999999999991
v -0.8125000000000018 18 -0.8749999999999991
v 0.8125 18.25 -0.8750000000000002
v 0.8125 18 -0.8750000000000002
v -0.8125000000000018 21.25 -0.8749999999999991
v -0.8125 21 -0.8749999999999991
v 0.8124999999999964 21.25 -0.8750000000000002
v 0.8124999999999964 21 -0.8750000000000002
v -0.8125000000000036 24.25 -0.8749999999999991
v -0.8125000000000036 24 -0.8749999999999991
v 0.8124999999999982 24.25 -0.8750000000000002
v 0.8125 24 -0.8750000000000002
v -0.4375 25.25 -0.49999999999999956
v -0.4374999999999982 25 -0.49999999999999967
v 0.43749999999999645 25.25 -0.5000000000000006
v 0.4374999999999982 25 -0.5000000000000006
v 9 21.25 0.125
v 9 21.25 -0.125
v 9 21 0.125
v 9 21 -0.125
v 1 21.25 -0.75
v 1 21.25 -1
v 1 21 -0.75
v 1 21 -1
v 1 21.25 1
v 1 21.25 0.75
v 1 21 1
v 1 21 0.75
v 1 22.5 -0.75
v 1 22.5 -1
v 1 22.25 -0.75
v 1 22.25 -1
v 1 22.5 1
v 1 22.5 0.75
v 1 22.25 1
v 1 22.25 0.75
v 9 18.25 0.125
v 9 18.25 -0.125
v 9 18 0.125
v 9 18 -0.125
v 1 18.25 -0.75
v 1 18.25 -1
v 1 18 -0.75
v 1 18 -1
v 1 18.25 1
v 1 18.25 0.75
v 1 18 1
v 1 18 0.75
v 1 19.5 -0.75
v 1 19.5 -1
v 1 19.25 -0.75
v 1 19.25 -1
v 1 19.5 1
v 1 19.5 0.75
v 1 19.25 1
v 1 19.25 0.75
v 9 15.3125 0.125
v 9 15.3125 -0.125
v 9 15.0625 0.125
v 9 15.0625 -0.125
v 1 15.3125 -0.75
v 1 15.3125 -1
v 1 15.0625 -0.75
v 1 15.0625 -1
v 1 15.3125 1
v 1 15.3125 0.75
v 1 15.0625 1
v 1 15.0625 0.75
v 1 16.5625 -0.75
v 1 16.5625 -1
v 1 16.3125 -0.75
v 1 16.3125 -1
v 1 16.5625 1
v 1 16.5625 0.75
v 1 16.3125 1
v 1 16.3125 0.75
v -9 21.25 -0.12499999999999889
v -9 21.25 0.1250000000000011
v -9 21 -0.12499999999999889
v -9 21 0.1250000000000011
v -0.9999999999999999 21.25 0.75
v -0.9999999999999999 21.25 1
v -0.9999999999999999 21 0.75
v -0.9999999999999999 21 1
v -1.0000000000000002 21.25 -0.9999999999999999
v -1 21.25 -0.7499999999999999
v -1.0000000000000002 21 -0.9999999999999999
v -1 21 -0.7499999999999999
v -0.9999999999999999 22.5 0.75
v -0.9999999999999999 22.5 1
v -0.9999999999999999 22.25 0.75
v -0.9999999999999999 22.25 1
v -1.0000000000000002 22.5 -0.9999999999999999
v -1 22.5 -0.7499999999999999
v -1.0000000000000002 22.25 -0.9999999999999999
v -1 22.25 -0.7499999999999999
v -9 18.25 -0.12499999999999889
v -9 18.25 0.1250000000000011
v -9 18 -0.12499999999999889
v -9 18 0.1250000000000011
v -0.9999999999999999 18.25 0.75
v -0.9999999999999999 18.25 1
v -0.9999999999999999 18 0.75
v -0.9999999999999999 18 1
v -1.0000000000000002 18.25 -0.9999999999999999
v -1 18.25 -0.7499999999999999
v -1.0000000000000002 18 -0.9999999999999999
v -1 18 -0.7499999999999999
v -0.9999999999999999 19.5 0.75
v -0.9999999999999999 19.5 1
v -0.9999999999999999 19.25 0.75
v -0.9999999999999999 19.25 1
v -1.0000000000000002 19.5 -0.9999999999999999
v -1 19.5 -0.7499999999999999
v -1.0000000000000002 19.25 -0.9999999999999999
v -1 19.25 -0.7499999999999999
v -9 15.3125 -0.12499999999999889
v -9 15.3125 0.1250000000000011
v -9 15.0625 -0.12499999999999889
v -9 15.0625 0.1250000000000011
v -0.9999999999999999 15.3125 0.75
v -0.9999999999999999 15.3125 1
v -0.9999999999999999 15.0625 0.75
v -0.9999999999999999 15.0625 1
v -1.0000000000000002 15.3125 -0.9999999999999999
v -1 15.3125 -0.7499999999999999
v -1.0000000000000002 15.0625 -0.9999999999999999
v -1 15.0625 -0.7499999999999999
v -0.9999999999999999 16.5625 0.75
v -0.9999999999999999 16.5625 1
v -0.9999999999999999 16.3125 0.75
v -0.9999999999999999 16.3125 1
v -1.0000000000000002 16.5625 -0.9999999999999999
v -1 16.5625 -0.7499999999999999
v -1.0000000000000002 16.3125 -0.9999999999999999
v -1 16.3125 -0.7499999999999999
vt 0.5 1
vt 0 1
vt 0 0
vt 0.5 0
vt 0.5 0
vt 0.5 1
vt 0 1
vt 0 0
vt 0.5 0
vt 0.5 1
vt 0 1
vt 0 0
vt 0.5 0
vt 0.5 1
vt 0 1
vt 0 0
vt 0.5 1
vt 0 1
vt 0 0
vt 0.5 0
vt 0.5 1
vt 0 1
vt 0 0
vt 0.5 0
vt 0.5 1
vt 0 1
vt 0 0
vt 0.5 0
vt 0.5 1
vt 0 1
vt 0 0
vt 0.5 0
vt 0.5 1
vt 0 1
vt 0 0
vt 0.5 0
vt 0.5 0.75
vt 0 0.75
vt 0 -0.25
vt 0.5 -0.25
vt 0.5 1
vt 0 1
vt 0 0
vt 0.5 0
vt 0.5 1
vt 0 1
vt 0 0
vt 0.5 0
vt 0.5 1
vt 0 1
vt 0 0
vt 0.5 0
vt 0.5 1
vt 0 1
vt 0 0
vt 0.5 0
vt 0.5 0
vt 0.5 1
vt 0 1
vt 0 0
vt 0.5 0
vt 0.5 1
vt 0 1
vt 0 0
vt 0.5 0
vt 0.5 1
vt 0 1
vt 0 0
vt 0.5 1
vt 0 1
vt 0 0
vt 0.5 0
vt 0.5 1
vt 0 1
vt 0 0
vt 0.5 0
vt 0.5 1
vt 0 1
vt 0 0
vt 0.5 0
vt 0.5 1
vt 0 1
vt 0 0
vt 0.5 0
vt 0.5 1
vt 0 1
vt 0 0
vt 0.5 0
vt 0.5 1
vt 0 1
vt 0 0
vt 0.5 0
vt 0.5 1
vt 0 1
vt 0 0
vt 0.5 0
vt 0.5 1
vt 0 1
vt 0 0
vt 0.5 0
vt 0.5 1
vt 0 1
vt 0 0
vt 0.5 0
vt 0.5 1
vt 0 1
vt 0 0
vt 0.5 0
vt 0.5 0
vt 0.5 1
vt 0 1
vt 0 0
vt 0.5 0
vt 0.5 1
vt 0 1
vt 0 0
vt 0.5 0
vt 0.5 1
vt 0 1
vt 0 0
vt 0.5 1
vt 0 1
vt 0 0
vt 0.5 0
vt 0.5 1
vt 0 1
vt 0 0
vt 0.5 0
vt 0.5 1
vt 0 1
vt 0 0
vt 0.5 0
vt 0.5 1
vt 0 1
vt 0 0
vt 0.5 0
vt 0.5 1
vt 0 1
vt 0 0
vt 0.5 0
vt 0.5 1
vt 0 1
vt 0 0
vt 0.5 0
vt 0.5 1
vt 0 1
vt 0 0
vt 0.5 0
vt 0.5 1
vt 0 1
vt 0 0
vt 0.5 0
vt 0.5 1
vt 0 1
vt 0 0
vt 0.5 0
vt 0.5 1
vt 0 1
vt 0 0
vt 0.5 0
vt 0.5 0
vt 0.5 1
vt 0 1
vt 0 0
vt 0 0
vt 0.5 0
vt 0.5 1
vt 0 1
vt 0.5 0
vt 0.5 1
vt 0 1
vt 0 0
vt 0.5 0
vt 0.5 1
vt 0 1
vt 0 0
vt 0.5 1
vt 0 1
vt 0 0
vt 0.5 0
vt 0.5 1
vt 0 1
vt 0 0
vt 0.5 0
vt 0.5 1
vt 0 1
vt 0 0
vt 0.5 0
vt 0.5 1
vt 0 1
vt 0 0
vt 0.5 0
vt 0.5 1
vt 0 1
vt 0 0
vt 0.5 0
vt 0.5 1
vt 0 1
vt 0 0
vt 0.5 0
vt 0.5 1
vt 0 1
vt 0 0
vt 0.5 0
vt 0.5 1
vt 0 1
vt 0 0
vt 0.5 0
vt 0.5 1
vt 0 1
vt 0 0
vt 0.5 0
vt 1 1
vt 0.5 1
vt 0.5 0
vt 1 0
vt 1 1
vt 0.5 1
vt 0.5 0
vt 1 0
vt 1 1
vt 0.5 1
vt 0.5 0
vt 1 0
vt 1 1
vt 0.5 1
vt 0.5 0
vt 1 0
vt 1 1
vt 0.5 1
vt 0.5 0
vt 1 0
vt 1 1
vt 0.5 1
vt 0.5 0
vt 1 0
vt 1 1
vt 0.5 1
vt 0.5 0
vt 1 0
vt 1 1
vt 0.5 1
vt 0.5 0
vt 1 0
vt 1 1
vt 0.5 1
vt 0.5 0
vt 1 0
vt 1 1
vt 0.5 1
vt 0.5 0
vt 1 0
vt 1 1
vt 0.5 1
vt 0.5 0
vt 1 0
vt 1 1
vt 0.5 1
vt 0.5 0
vt 1 0
vt 1 1
vt 0.5 1
vt 0.5 0
vt 1 0
vt 1 1
vt 0.5 1
vt 0.5 0
vt 1 0
vt 1 1
vt 0.5 1
vt 0.5 0
vt 1 0
vt 1 1
vt 0.5 1
vt 0.5 0
vt 1 0
vt 1 1
vt 0.5 1
vt 0.5 0
vt 1 0
vt 1 1
vt 0.5 1
vt 0.5 0
vt 1 0
vt 1 1
vt 0.5 1
vt 0.5 0
vt 1 0
vt 1 1
vt 0.5 1
vt 0.5 0
vt 1 0
vt 1 1
vt 0.5 1
vt 0.5 0
vt 1 0
vt 1 1
vt 0.5 1
vt 0.5 0
vt 1 0
vt 1 1
vt 0.5 1
vt 0.5 0
vt 1 0
vt 1 1
vt 0.5 1
vt 0.5 0
vt 1 0
vt 1 1
vt 0.5 1
vt 0.5 0
vt 1 0
vt 1 1
vt 0.5 1
vt 0.5 0
vt 1 0
vt 1 1
vt 0.5 1
vt 0.5 0
vt 1 0
vt 1 1
vt 0.5 1
vt 0.5 0
vt 1 0
vt 1 1
vt 0.5 1
vt 0.5 0
vt 1 0
vt 1 1
vt 0.5 1
vt 0.5 0
vt 1 0
vt 1 1
vt 0.5 1
vt 0.5 0
vt 1 0
vt 1 1
vt 0.5 1
vt 0.5 0
vt 1 0
vt 1 1
vt 0.5 1
vt 0.5 0
vt 1 0
vt 1 1
vt 0.5 1
vt 0.5 0
vt 1 0
vt 1 1
vt 0.5 1
vt 0.5 0
vt 1 0
vt 1 1
vt 0.5 1
vt 0.5 0
vt 1 0
vt 1 1
vt 0.5 1
vt 0.5 0
vt 1 0
vt 1 1
vt 0.5 1
vt 0.5 0
vt 1 0
vt 1 1
vt 0.5 1
vt 0.5 0
vt 1 0
vt 1 1
vt 0.5 1
vt 0.5 0
vt 1 0
vt 1 1
vt 0.5 1
vt 0.5 0
vt 1 0
vt 1 1
vt 0.5 1
vt 0.5 0
vt 1 0
vt 1 1
vt 0.5 1
vt 0.5 0
vt 1 0
vt 1 1
vt 0.5 1
vt 0.5 0
vt 1 0
vt 1 1
vt 0.5 1
vt 0.5 0
vt 1 0
vt 1 1
vt 0.5 1
vt 0.5 0
vt 1 0
vt 1 1
vt 0.5 1
vt 0.5 0
vt 1 0
vt 1 1
vt 0.5 1
vt 0.5 0
vt 1 0
vt 1 1
vt 0.5 1
vt 0.5 0
vt 1 0
vt 1 1
vt 0.5 1
vt 0.5 0
vt 1 0
vt 1 1
vt 0.5 1
vt 0.5 0
vt 1 0
vt 1 1
vt 0.5 1
vt 0.5 0
vt 1 0
vt 1 1
vt 0.5 1
vt 0.5 0
vt 1 0
vt 1 1
vt 0.5 1
vt 0.5 0
vt 1 0
vt 1 1
vt 0.5 1
vt 0.5 0
vt 1 0
vt 1 1
vt 0.5 1
vt 0.5 0
vt 1 0
vt 1 1
vt 0.5 1
vt 0.5 0
vt 1 0
vt 1 1
vt 0.5 1
vt 0.5 0
vt 1 0
vt 1 1
vt 0.5 1
vt 0.5 0
vt 1 0
vt 1 1
vt 0.5 1
vt 0.5 0
vt 1 0
vt 1 1
vt 0.5 1
vt 0.5 0
vt 1 0
vt 1 1
vt 0.5 1
vt 0.5 0
vt 1 0
vt 1 1
vt 0.5 1
vt 0.5 0
vt 1 0
vt 1 1
vt 0.5 1
vt 0.5 0
vt 1 0
vt 1 1
vt 0.5 1
vt 0.5 0
vt 1 0
vt 1 1
vt 0.5 1
vt 0.5 0
vt 1 0
vt 1 1
vt 0.5 1
vt 0.5 0
vt 1 0
vt 1 1
vt 0.5 1
vt 0.5 0
vt 1 0
vt 1 1
vt 0.5 1
vt 0.5 0
vt 1 0
vt 1 1
vt 0.5 1
vt 0.5 0
vt 1 0
vt 1 1
vt 0.5 1
vt 0.5 0
vt 1 0
vt 1 1
vt 0.5 1
vt 0.5 0
vt 1 0
vt 0.5 0
vt 0.5 1
vt 0 1
vt 0 0
vt 0.5 1
vt 0 1
vt 0 0
vt 0.5 0
vt 0.5 1
vt 0 1
vt 0 0
vt 0.5 0
vt 0 1
vt 0 0
vt 0.5 0
vt 0.5 1
vt 0.5 0
vt 0.5 1
vt 0 1
vt 0 0
vt 0.5 1
vt 0 1
vt 0 0
vt 0.5 0
vt 0.5 1
vt 0 1
vt 0 0
vt 0.5 0
vt 0 1
vt 0 0
vt 0.5 0
vt 0.5 1
vt 0.5 0
vt 0.5 1
vt 0 1
vt 0 0
vt 0.5 1
vt 0 1
vt 0 0
vt 0.5 0
vt 0.5 1
vt 0 1
vt 0 0
vt 0.5 0
vt 0 1
vt 0 0
vt 0.5 0
vt 0.5 1
vt 0.5 1
vt 0 1
vt 0 0
vt 0.5 0
vt 0.5 0
vt 0.5 1
vt 0 1
vt 0 0
vt 0.5 1
vt 0 1
vt 0 0
vt 0.5 0
vt 0.5 1
vt 0 1
vt 0 0
vt 0.5 0
vt 0 1
vt 0 0
vt 0.5 0
vt 0.5 1
vt 0.5 0
vt 0.5 1
vt 0 1
vt 0 0
vt 0.5 1
vt 0 1
vt 0 0
vt 0.5 0
vt 0.5 1
vt 0 1
vt 0 0
vt 0.5 0
vt 0 1
vt 0 0
vt 0.5 0
vt 0.5 1
vt 0.5 0
vt 0.5 1
vt 0 1
vt 0 0
vt 0.5 1
vt 0 1
vt 0 0
vt 0.5 0
vt 0.5 1
vt 0 1
vt 0 0
vt 0.5 0
vt 0 1
vt 0 0
vt 0.5 0
vt 0.5 1
vt 0.5 0
vt 0.5 1
vt 0 1
vt 0 0
vt 0.5 1
vt 0 1
vt 0 0
vt 0.5 0
vt 0.5 1
vt 0 1
vt 0 0
vt 0.5 0
vt 0 1
vt 0 0
vt 0.5 0
vt 0.5 1
vt 0.5 1
vt 0 1
vt 0 0
vt 0.5 0
vt 0.5 0
vt 0.5 1
vt 0 1
vt 0 0
vt 0.5 1
vt 0 1
vt 0 0
vt 0.5 0
vt 0.5 1
vt 0 1
vt 0 0
vt 0.5 0
vt 0 1
vt 0 0
vt 0.5 0
vt 0.5 1
vt 0.5 0
vt 0.5 1
vt 0 1
vt 0 0
vt 0.5 1
vt 0 1
vt 0 0
vt 0.5 0
vt 0.5 1
vt 0 1
vt 0 0
vt 0.5 0
vt 0 1
vt 0 0
vt 0.5 0
vt 0.5 1
vt 0.5 0
vt 0.5 1
vt 0 1
vt 0 0
vt 0.5 1
vt 0 1
vt 0 0
vt 0.5 0
vt 0.5 1
vt 0 1
vt 0 0
vt 0.5 0
vt 0 1
vt 0 0
vt 0.5 0
vt 0.5 1
vt 0.5 0
vt 0.5 1
vt 0 1
vt 0 0
vt 0.5 1
vt 0 1
vt 0 0
vt 0.5 0
vt 0.5 1
vt 0 1
vt 0 0
vt 0.5 0
vt 0 1
vt 0 0
vt 0.5 0
vt 0.5 1
vt 0.5 1
vt 0 1
vt 0 0
vt 0.5 0
vt 0.5 0
vt 0.5 1
vt 0 1
vt 0 0
vt 0.5 1
vt 0 1
vt 0 0
vt 0.5 0
vt 0.5 1
vt 0 1
vt 0 0
vt 0.5 0
vt 0 1
vt 0 0
vt 0.5 0
vt 0.5 1
vt 0.5 0
vt 0.5 1
vt 0 1
vt 0 0
vt 0.5 1
vt 0 1
vt 0 0
vt 0.5 0
vt 0.5 1
vt 0 1
vt 0 0
vt 0.5 0
vt 0 1
vt 0 0
vt 0.5 0
vt 0.5 1
vt 0.5 0
vt 0.5 1
vt 0 1
vt 0 0
vt 0.5 1
vt 0 1
vt 0 0
vt 0.5 0
vt 0.5 1
vt 0 1
vt 0 0
vt 0.5 0
vt 0 1
vt 0 0
vt 0.5 0
vt 0.5 1
vt 0.5 0
vt 0.5 1
vt 0 1
vt 0 0
vt 0.5 1
vt 0 1
vt 0 0
vt 0.5 0
vt 0.5 1
vt 0 1
vt 0 0
vt 0.5 0
vt 0 1
vt 0 0
vt 0.5 0
vt 0.5 1
vt 0.5 1
vt 0 1
vt 0 0
vt 0.5 0
vt 0.5 0
vt 0.5 1
vt 0 1
vt 0 0
vt 0.5 1
vt 0 1
vt 0 0
vt 0.5 0
vt 0.5 1
vt 0 1
vt 0 0
vt 0.5 0
vt 0 1
vt 0 0
vt 0.5 0
vt 0.5 1
vt 0.5 0
vt 0.5 1
vt 0 1
vt 0 0
vt 0.5 1
vt 0 1
vt 0 0
vt 0.5 0
vt 0.5 1
vt 0 1
vt 0 0
vt 0.5 0
vt 0 1
vt 0 0
vt 0.5 0
vt 0.5 1
vt 0.5 0
vt 0.5 1
vt 0 1
vt 0 0
vt 0.5 1
vt 0 1
vt 0 0
vt 0.5 0
vt 0.5 1
vt 0 1
vt 0 0
vt 0.5 0
vt 0 1
vt 0 0
vt 0.5 0
vt 0.5 1
vt 0.5 0
vt 0.5 1
vt 0 1
vt 0 0
vt 0.5 1
vt 0 1
vt 0 0
vt 0.5 0
vt 0.5 1
vt 0 1
vt 0 0
vt 0.5 0
vt 0 1
vt 0 0
vt 0.5 0
vt 0.5 1
vt 0.5 1
vt 0 1
vt 0 0
vt 0.5 0
vt 0.5 0
vt 0.5 1
vt 0 1
vt 0 0
vt 0.5 1
vt 0 1
vt 0 0
vt 0.5 0
vt 0.5 1
vt 0 1
vt 0 0
vt 0.5 0
vt 0 1
vt 0 0
vt 0.5 0
vt 0.5 1
vt 0.5 0
vt 0.5 1
vt 0 1
vt 0 0
vt 0.5 1
vt 0 1
vt 0 0
vt 0.5 0
vt 0.5 1
vt 0 1
vt 0 0
vt 0.5 0
vt 0 1
vt 0 0
vt 0.5 0
vt 0.5 1
vt 0.5 0
vt 0.5 1
vt 0 1
vt 0 0
vt 0.5 1
vt 0 1
vt 0 0
vt 0.5 0
vt 0.5 1
vt 0 1
vt 0 0
vt 0.5 0
vt 0 1
vt 0 0
vt 0.5 0
vt 0.5 1
vt 0.5 0
vt 0.5 1
vt 0 1
vt 0 0
vt 0.5 1
vt 0 1
vt 0 0
vt 0.5 0
vt 0.5 1
vt 0 1
vt 0 0
vt 0.5 0
vt 0 1
vt 0 0
vt 0.5 0
vt 0.5 1
vt 0.5 1
vt 0 1
vt 0 0
vt 0.5 0
vt 0.5 0
vt 0.5 1
vt 0 1
vt 0 0
vt 0.5 1
vt 0 1
vt 0 0
vt 0.5 0
vt 0.5 1
vt 0 1
vt 0 0
vt 0.5 0
vt 0 1
vt 0 0
vt 0.5 0
vt 0.5 1
vn 0.9995120760870788 -0.031234752377721213 0
vn -0.9995120760870788 0.031234752377721213 0
vn 0 -1 0
vn 0 -0.031234752377721213 0.9995120760870788
vn 0 0.031234752377721213 -0.9995120760870788
vn 0 0 1
vn 1 0 0
vn 0 0 -1
vn -1 0 0
vn 0 -0.33786475360676677 0.9411946707617075
vn 0.9411946707617075 -0.33786475360676677 0
vn 0 0.33786475360676677 -0.9411946707617075
vn -0.9411946707617075 0.33786475360676677 0
vn 0.9995120760870788 -0.031234752377721213 0
vn -0.9995120760870788 0.031234752377721213 0
vn 0 -1 0
vn 0 0.031234752377721213 0.9995120760870788
vn 0 -0.031234752377721213 -0.9995120760870788
vn 0 0 1
vn 1 0 0
vn 0 0 -1
vn -1 0 0
vn 0 0.33786475360676677 0.9411946707617075
vn 0.9411946707617075 -0.33786475360676677 0
vn 0 -0.33786475360676677 -0.9411946707617075
vn -0.9411946707617075 0.33786475360676677 0
vn 0.9995120760870788 0.031234752377721213 0
vn -0.9995120760870788 -0.031234752377721213 0
vn 0 -1 0
vn 0 0.031234752377721213 0.9995120760870788
vn 0 -0.031234752377721213 -0.9995120760870788
vn 0 0 1
vn 1 0 0
vn 0 0 -1
vn -1 0 0
vn 0 0.33786475360676677 0.9411946707617075
vn 0.9411946707617075 0.33786475360676677 0
vn 0 -0.33786475360676677 -0.9411946707617075
vn -0.9411946707617075 -0.33786475360676677 0
vn 0.9995120760870788 0.031234752377721213 0
vn -0.9995120760870788 -0.031234752377721213 0
vn 0 1 0
vn 0 -1 0
vn 0 -0.031234752377721213 0.9995120760870788
vn 0 0.031234752377721213 -0.9995120760870788
vn 0 0 1
vn 1 0 0
vn 0 0 -1
vn -1 0 0
vn 0 -0.33786475360676677 0.9411946707617075
vn 0.9411946707617075 0.33786475360676677 0
vn 0 0.33786475360676677 -0.9411946707617075
vn -0.9411946707617075 -0.33786475360676677 0
vn -0.9997418355449428 0 0.022721405353294477
vn -0.9997418355449428 8.879491236024086e-16 -0.022721405353293398
vn -0.9987523388778448 8.870702740163268e-16 0.04993761694389119
vn -0.9987523388778448 0 -0.04993761694389185
vn -0.9996144206527183 0 0.027767067240353275
vn -0.9996144206527183 0 -0.027767067240353088
vn -0.9980525784828888 0 0.06237828615518055
vn -0.9980525784828883 -3.5457950477382678e-15 -0.06237828615518539
vn -0.9993628543475495 -3.5504500827256516e-15 0.035691530512418565
vn -0.9993628543475496 0 -0.035691530512412015
vn -0.9992611746313143 0 0.03843312210120382
vn -0.9992611746313143 0 -0.038433122101203844
vn -1 0 0
vn -1 0 0
vn -1 0 0
vn -1 -7.105427357601002e-15 -1.0931426704001542e-14
vn -0.9578262852211488 -6.805765090839691e-15 0.28734788556635416
vn -0.9578262852211495 -6.805765090839696e-15 -0.28734788556635166
vn 0.022721405353294314 0 0.9997418355449428
vn -0.022721405353294446 4.036132380010948e-17 0.9997418355449428
vn 0.04993761694389242 0 0.9987523388778448
vn -0.049937616943892066 0 0.9987523388778448
vn 0.027767067240353483 0 0.9996144206527183
vn -0.027767067240353 4.932421980248804e-17 0.9996144206527183
vn 0.06237828615518087 -1.108060952418211e-16 0.9980525784828888
vn -0.062378286155180325 0 0.9980525784828888
vn 0.035691530512412736 0 0.9993628543475496
vn -0.035691530512412445 -1.2680178866877406e-16 0.9993628543475496
vn 0.03843312210120441 1.365418786079578e-16 0.9992611746313143
vn -0.038433122101203615 2.730837572159138e-16 0.9992611746313143
vn 2.7328566760004274e-16 -1.9418114590055974e-30 1
vn 2.732856676000421e-16 1.941811459005593e-30 1
vn 2.7328566760003495e-16 1.941811459005542e-30 1
vn 2.7328566760003855e-16 0 1
vn 0.2873478855663456 0 0.9578262852211515
vn -0.2873478855663469 -2.0417295272519267e-15 0.9578262852211511
vn 0.9997418355449428 0 -0.02272140535329462
vn 0.9997418355449428 -1.7758982472048217e-15 0.02272140535329628
vn 0.9987523388778445 -1.7741405480326558e-15 -0.04993761694389507
vn 0.9987523388778448 0 0.04993761694389193
vn 0.9996144206527183 0 -0.027767067240353868
vn 0.9996144206527183 0 0.02776706724035289
vn 0.9980525784828888 0 -0.06237828615518065
vn 0.9980525784828888 0 0.06237828615517966
vn 0.9993628543475497 0 -0.035691530512414006
vn 0.9993628543475495 -3.5504500827256516e-15 0.03569153051241755
vn 0.9992611746313139 -3.550088843806925e-15 -0.03843312210121367
vn 0.9992611746313144 0 0.03843312210120276
vn 1 0 -2.1862853408003084e-15
vn 1 0 0
vn 1 0 -2.1862853408003084e-15
vn 1 0 -2.1862853408003084e-15
vn 0.9578262852211515 0 -0.28734788556634544
vn 0.9578262852211515 -6.80576509083971e-15 0.28734788556634544
vn -0.022721405353294557 0 -0.9997418355449428
vn 0.022721405353294255 4.036132380010943e-17 -0.9997418355449428
vn -0.04993761694389274 -8.870702740163307e-17 -0.9987523388778448
vn 0.04993761694389194 -8.870702740163307e-17 -0.9987523388778448
vn -0.02776706724035369 4.932421980248804e-17 -0.9996144206527183
vn 0.02776706724035288 -4.932421980248835e-17 -0.9996144206527183
vn -0.06237828615518097 1.108060952418207e-16 -0.9980525784828885
vn 0.0623782861551801 0 -0.9980525784828888
vn -0.03569153051241299 0 -0.9993628543475496
vn 0.03569153051241164 1.2680178866877253e-16 -0.9993628543475498
vn -0.03843312210120533 -1.3654187860795958e-16 -0.9992611746313143
vn 0.03843312210120371 0 -0.9992611746313143
vn -6.832141690000964e-16 0 -1
vn -6.8321416900009785e-16 0 -1
vn -6.832141690000964e-16 0 -1
vn -6.832141690000874e-16 -4.854528647513855e-30 -1
vn -0.28734788556634777 -2.041729527251926e-15 -0.9578262852211508
vn 0.28734788556634294 1.871585399980911e-15 -0.9578262852211521
vn 0 1 0
vn 0 -1 0
vn -0.10872659128563486 0 0.9940716917543758
vn 0.10872659128563486 0 -0.9940716917543758
vn 0 1 0
vn 0 -1 0
vn 0.10872659128563486 0 0.9940716917543758
vn -0.10872659128563486 0 -0.9940716917543758
vn 0.1543768802736096 0.9880120337511015 0
vn -0.1543768802736096 -0.9880120337511015 0
vn -0.10872659128563486 0 0.9940716917543758
vn 0.10872659128563486 0 -0.9940716917543758
vn 1 0 0
vn 0.1543768802736096 0.9880120337511015 0
vn -0.1543768802736096 -0.9880120337511015 0
vn 0.10872659128563486 0 0.9940716917543758
vn -0.10872659128563486 0 -0.9940716917543758
vn 0 1 0
vn 0 -1 0
vn -0.10872659128563486 0 0.9940716917543758
vn 0.10872659128563486 0 -0.9940716917543758
vn 0 1 0
vn 0 -1 0
vn 0.10872659128563486 0 0.9940716917543758
vn -0.10872659128563486 0 -0.9940716917543758
vn 0.1543768802736096 0.9880120337511015 0
vn -0.1543768802736096 -0.9880120337511015 0
vn -0.10872659128563486 0 0.9940716917543758
vn 0.10872659128563486 0 -0.9940716917543758
vn 1 0 0
vn 0.1543768802736096 0.9880120337511015 0
vn -0.1543768802736096 -0.9880120337511015 0
vn 0.10872659128563486 0 0.9940716917543758
vn -0.10872659128563486 0 -0.9940716917543758
vn 0 1 0
vn 0 -1 0
vn -0.10872659128563486 0 0.9940716917543758
vn 0.10872659128563486 0 -0.9940716917543758
vn 0 1 0
vn 0 -1 0
vn 0.10872659128563486 0 0.9940716917543758
vn -0.10872659128563486 0 -0.9940716917543758
vn 0.1543768802736096 0.9880120337511015 0
vn -0.1543768802736096 -0.9880120337511015 0
vn -0.10872659128563486 0 0.9940716917543758
vn 0.10872659128563486 0 -0.9940716917543758
vn 1 0 0
vn 0.1543768802736096 0.9880120337511015 0
vn -0.1543768802736096 -0.9880120337511015 0
vn 0.10872659128563486 0 0.9940716917543758
vn -0.10872659128563486 0 -0.9940716917543758
vn 0 1 0
vn 0 -1 0
vn 0.10872659128563472 0 -0.9940716917543758
vn -0.10872659128563472 0 0.9940716917543758
vn 0 1 0
vn 0 -1 0
vn -0.10872659128563499 0 -0.9940716917543758
vn 0.10872659128563499 0 0.9940716917543758
vn -0.1543768802736096 0.9880120337511015 0
vn 0.1543768802736096 -0.9880120337511015 0
vn 0.10872659128563472 0 -0.9940716917543758
vn -0.10872659128563464 0 0.9940716917543758
vn -1 0 0
vn -0.15437688027360957 0.9880120337511015 0
vn 0.1543768802736096 -0.9880120337511015 0
vn -0.10872659128563499 0 -0.9940716917543758
vn 0.10872659128563497 0 0.9940716917543758
vn 0 1 0
vn 0 -1 0
vn 0.10872659128563472 0 -0.9940716917543758
vn -0.10872659128563472 0 0.9940716917543758
vn 0 1 0
vn 0 -1 0
vn -0.10872659128563499 0 -0.9940716917543758
vn 0.10872659128563499 0 0.9940716917543758
vn -0.1543768802736096 0.9880120337511015 0
vn 0.1543768802736096 -0.9880120337511015 0
vn 0.10872659128563472 0 -0.9940716917543758
vn -0.10872659128563464 0 0.9940716917543758
vn -1 0 0
vn -0.15437688027360957 0.9880120337511015 0
vn 0.1543768802736096 -0.9880120337511015 0
vn -0.10872659128563499 0 -0.9940716917543758
vn 0.10872659128563497 0 0.9940716917543758
vn 0 1 0
vn 0 -1 0
vn 0.10872659128563472 0 -0.9940716917543758
vn -0.10872659128563472 0 0.9940716917543758
vn 0 1 0
vn 0 -1 0
vn -0.10872659128563499 0 -0.9940716917543758
vn 0.10872659128563499 0 0.9940716917543758
vn -0.1543768802736096 0.9880120337511015 0
vn 0.1543768802736096 -0.9880120337511015 0
vn 0.10872659128563472 0 -0.9940716917543758
vn -0.10872659128563464 0 0.9940716917543758
vn -1 0 0
vn -0.15437688027360957 0.9880120337511015 0
vn 0.1543768802736096 -0.9880120337511015 0
vn -0.10872659128563499 0 -0.9940716917543758
vn 0.10872659128563497 0 0.9940716917543758
usemtl m_1c0b9ad2-ea42-7807-29f7-d26f0c5a35d4
f 2/1/1 1/2/1 3/3/1
f 2/1/1 3/3/1 4/4/1
f 7/5/2 5/6/2 6/7/2
f 7/5/2 6/7/2 8/8/2
f 4/9/3 3/10/3 7/11/3
f 4/9/3 7/11/3 8/12/3
f 3/13/4 1/14/4 5/15/4
f 3/13/4 5/15/4 7/16/4
f 6/17/5 2/18/5 4/19/5
f 6/17/5 4/19/5 8/20/5
f 9/21/6 11/22/6 5/23/6
f 9/21/6 5/23/6 1/24/6
f 10/25/7 9/26/7 1/27/7
f 10/25/7 1/27/7 2/28/7
f 12/29/8 10/30/8 2/31/8
f 12/29/8 2/31/8 6/32/8
f 11/33/9 12/34/9 6/35/9
f 11/33/9 6/35/9 5/36/9
f 13/37/10 15/38/10 11/39/10
f 13/37/10 11/39/10 9/40/10
f 14/41/11 13/42/11 9/43/11
f 14/41/11 9/43/11 10/44/11
f 16/45/12 14/46/12 10/47/12
f 16/45/12 10/47/12 12/48/12
f 15/49/13 16/50/13 12/51/13
f 15/49/13 12/51/13 11/52/13
f 22/53/14 21/54/14 17/55/14
f 22/53/14 17/55/14 18/56/14
f 19/57/15 23/58/15 24/59/15
f 19/57/15 24/59/15 20/60/15
f 18/61/16 17/62/16 19/63/16
f 18/61/16 19/63/16 20/64/16
f 17/65/17 21/66/17 23/67/17
f 17/65/17 23/67/17 19/68/17
f 24/69/18 22/70/18 18/71/18
f 24/69/18 18/71/18 20/72/18
f 25/73/19 27/74/19 23/75/19
f 25/73/19 23/75/19 21/76/19
f 26/77/20 25/78/20 21/79/20
f 26/77/20 21/79/20 22/80/20
f 28/81/21 26/82/21 22/83/21
f 28/81/21 22/83/21 24/84/21
f 27/85/22 28/86/22 24/87/22
f 27/85/22 24/87/22 23/88/22
f 29/89/23 31/90/23 27/91/23
f 29/89/23 27/91/23 25/92/23
f 30/93/24 29/94/24 25/95/24
f 30/93/24 25/95/24 26/96/24
f 32/97/25 30/98/25 26/99/25
f 32/97/25 26/99/25 28/100/25
f 31/101/26 32/102/26 28/103/26
f 31/101/26 28/103/26 27/104/26
f 34/105/27 33/106/27 35/107/27
f 34/105/27 35/107/27 36/108/27
f 39/109/28 37/110/28 38/111/28
f 39/109/28 38/111/28 40/112/28
f 36/113/29 35/114/29 39/115/29
f 36/113/29 39/115/29 40/116/29
f 35/117/30 33/118/30 37/119/30
f 35/117/30 37/119/30 39/120/30
f 38/121/31 34/122/31 36/123/31
f 38/121/31 36/123/31 40/124/31
f 41/125/32 43/126/32 37/127/32
f 41/125/32 37/127/32 33/128/32
f 42/129/33 41/130/33 33/131/33
f 42/129/33 33/131/33 34/132/33
f 44/133/34 42/134/34 34/135/34
f 44/133/34 34/135/34 38/136/34
f 43/137/35 44/138/35 38/139/35
f 43/137/35 38/139/35 37/140/35
f 45/141/36 47/142/36 43/143/36
f 45/141/36 43/143/36 41/144/36
f 46/145/37 45/146/37 41/147/37
f 46/145/37 41/147/37 42/148/37
f 48/149/38 46/150/38 42/151/38
f 48/149/38 42/151/38 44/152/38
f 47/153/39 48/154/39 44/155/39
f 47/153/39 44/155/39 43/156/39
f 50/157/40 49/158/40 51/159/40
f 50/157/40 51/159/40 52/160/40
f 55/161/41 53/162/41 54/163/41
f 55/161/41 54/163/41 56/164/41
f 63/165/42 61/166/42 62/167/42
f 63/165/42 62/167/42 64/168/42
f 52/169/43 51/170/43 55/171/43
f 52/169/43 55/171/43 56/172/43
f 51/173/44 49/174/44 53/175/44
f 51/173/44 53/175/44 55/176/44
f 54/177/45 50/178/45 52/179/45
f 54/177/45 52/179/45 56/180/45
f 57/181/46 59/182/46 53/183/46
f 57/181/46 53/183/46 49/184/46
f 58/185/47 57/186/47 49/187/47
f 58/185/47 49/187/47 50/188/47
f 60/189/48 58/190/48 50/191/48
f 60/189/48 50/191/48 54/192/48
f 59/193/49 60/194/49 54/195/49
f 59/193/49 54/195/49 53/196/49
f 61/197/50 63/198/50 59/199/50
f 61/197/50 59/199/50 57/200/50
f 62/201/51 61/202/51 57/203/51
f 62/201/51 57/203/51 58/204/51
f 64/205/52 62/206/52 58/207/52
f 64/205/52 58/207/52 60/208/52
f 63/209/53 64/210/53 60/211/53
f 63/209/53 60/211/53 59/212/53
f 65/213/54 66/214/54 68/215/54
f 65/213/54 68/215/54 67/216/54
f 69/217/55 70/218/55 72/219/55
f 69/217/55 72/219/55 71/220/55
f 73/221/56 70/222/56 72/223/56
f 73/221/56 72/223/56 74/224/56
f 65/225/57 75/226/57 76/227/57
f 65/225/57 76/227/57 67/228/57
f 77/229/58 75/230/58 76/231/58
f 77/229/58 76/231/58 78/232/58
f 73/233/59 79/234/59 80/235/59
f 73/233/59 80/235/59 74/236/59
f 81/237/60 79/238/60 80/239/60
f 81/237/60 80/239/60 82/240/60
f 77/241/61 83/242/61 84/243/61
f 77/241/61 84/243/61 78/244/61
f 85/245/62 83/246/62 84/247/62
f 85/245/62 84/247/62 86/248/62
f 81/249/63 87/250/63 88/251/63
f 81/249/63 88/251/63 82/252/63
f 89/253/64 87/254/64 88/255/64
f 89/253/64 88/255/64 90/256/64
f 85/257/65 91/258/65 92/259/65
f 85/257/65 92/259/65 86/260/65
f 93/261/66 91/262/66 92/263/66
f 93/261/66 92/263/66 94/264/66
f 89/265/67 95/266/67 96/267/67
f 89/265/67 96/267/67 90/268/67
f 97/269/68 95/270/68 96/271/68
f 97/269/68 96/271/68 98/272/68
f 93/273/69 99/274/69 100/275/69
f 93/273/69 100/275/69 94/276/69
f 101/277/70 99/278/70 100/279/70
f 101/277/70 100/279/70 102/280/70
f 97/281/71 103/282/71 104/283/71
f 97/281/71 104/283/71 98/284/71
f 105/285/72 106/286/72 108/287/72
f 105/285/72 108/287/72 107/288/72
f 109/289/73 110/290/73 112/291/73
f 109/289/73 112/291/73 111/292/73
f 113/293/74 110/294/74 112/295/74
f 113/293/74 112/295/74 114/296/74
f 105/297/75 115/298/75 116/299/75
f 105/297/75 116/299/75 107/300/75
f 117/301/76 115/302/76 116/303/76
f 117/301/76 116/303/76 118/304/76
f 113/305/77 119/306/77 120/307/77
f 113/305/77 120/307/77 114/308/77
f 121/309/78 119/310/78 120/311/78
f 121/309/78 120/311/78 122/312/78
f 117/313/79 123/314/79 124/315/79
f 117/313/79 124/315/79 118/316/79
f 125/317/80 123/318/80 124/319/80
f 125/317/80 124/319/80 126/320/80
f 121/321/81 127/322/81 128/323/81
f 121/321/81 128/323/81 122/324/81
f 129/325/82 127/326/82 128/327/82
f 129/325/82 128/327/82 130/328/82
f 125/329/83 131/330/83 132/331/83
f 125/329/83 132/331/83 126/332/83
f 133/333/84 131/334/84 132/335/84
f 133/333/84 132/335/84 134/336/84
f 129/337/85 135/338/85 136/339/85
f 129/337/85 136/339/85 130/340/85
f 137/341/86 135/342/86 136/343/86
f 137/341/86 136/343/86 138/344/86
f 133/345/87 139/346/87 140/347/87
f 133/345/87 140/347/87 134/348/87
f 141/349/88 139/350/88 140/351/88
f 141/349/88 140/351/88 142/352/88
f 137/353/89 143/354/89 144/355/89
f 137/353/89 144/355/89 138/356/89
f 145/357/90 146/358/90 148/359/90
f 145/357/90 148/359/90 147/360/90
f 149/361/91 150/362/91 152/363/91
f 149/361/91 152/363/91 151/364/91
f 153/365/92 150/366/92 152/367/92
f 153/365/92 152/367/92 154/368/92
f 145/369/93 155/370/93 156/371/93
f 145/369/93 156/371/93 147/372/93
f 157/373/94 155/374/94 156/375/94
f 157/373/94 156/375/94 158/376/94
f 153/377/95 159/378/95 160/379/95
f 153/377/95 160/379/95 154/380/95
f 161/381/96 159/382/96 160/383/96
f 161/381/96 160/383/96 162/384/96
f 157/385/97 163/386/97 164/387/97
f 157/385/97 164/387/97 158/388/97
f 165/389/98 163/390/98 164/391/98
f 165/389/98 164/391/98 166/392/98
f 161/393/99 167/394/99 168/395/99
f 161/393/99 168/395/99 162/396/99
f 169/397/100 167/398/100 168/399/100
f 169/397/100 168/399/100 170/400/100
f 165/401/101 171/402/101 172/403/101
f 165/401/101 172/403/101 166/404/101
f 173/405/102 171/406/102 172/407/102
f 173/405/102 172/407/102 174/408/102
f 169/409/103 175/410/103 176/411/103
f 169/409/103 176/411/103 170/412/103
f 177/413/104 175/414/104 176/415/104
f 177/413/104 176/415/104 178/416/104
f 173/417/105 179/418/105 180/419/105
f 173/417/105 180/419/105 174/420/105
f 181/421/106 179/422/106 180/423/106
f 181/421/106 180/423/106 182/424/106
f 177/425/107 183/426/107 184/427/107
f 177/425/107 184/427/107 178/428/107
f 185/429/108 186/430/108 188/431/108
f 185/429/108 188/431/108 187/432/108
f 189/433/109 190/434/109 192/435/109
f 189/433/109 192/435/109 191/436/109
f 193/437/110 190/438/110 192/439/110
f 193/437/110 192/439/110 194/440/110
f 185/441/111 195/442/111 196/443/111
f 185/441/111 196/443/111 187/444/111
f 197/445/112 195/446/112 196/447/112
f 197/445/112 196/447/112 198/448/112
f 193/449/113 199/450/113 200/451/113
f 193/449/113 200/451/113 194/452/113
f 201/453/114 199/454/114 200/455/114
f 201/453/114 200/455/114 202/456/114
f 197/457/115 203/458/115 204/459/115
f 197/457/115 204/459/115 198/460/115
f 205/461/116 203/462/116 204/463/116
f 205/461/116 204/463/116 206/464/116
f 201/465/117 207/466/117 208/467/117
f 201/465/117 208/467/117 202/468/117
f 209/469/118 207/470/118 208/471/118
f 209/469/118 208/471/118 210/472/118
f 205/473/119 211/474/119 212/475/119
f 205/473/119 212/475/119 206/476/119
f 213/477/120 211/478/120 212/479/120
f 213/477/120 212/479/120 214/480/120
f 209/481/121 215/482/121 216/483/121
f 209/481/121 216/483/121 210/484/121
f 217/485/122 215/486/122 216/487/122
f 217/485/122 216/487/122 218/488/122
f 213/489/123 219/490/123 220/491/123
f 213/489/123 220/491/123 214/492/123
f 221/493/124 219/494/124 220/495/124
f 221/493/124 220/495/124 222/496/124
f 217/497/125 223/498/125 224/499/125
f 217/497/125 224/499/125 218/500/125
f 229/501/126 225/502/126 226/503/126
f 229/501/126 226/503/126 230/504/126
f 228/505/127 227/506/127 231/507/127
f 228/505/127 231/507/127 232/508/127
f 227/509/128 225/510/128 229/511/128
f 227/509/128 229/511/128 231/512/128
f 230/513/129 226/514/129 228/515/129
f 230/513/129 228/515/129 232/516/129
f 233/517/130 225/518/130 226/519/130
f 233/517/130 226/519/130 234/520/130
f 228/521/131 227/522/131 235/523/131
f 228/521/131 235/523/131 236/524/131
f 227/525/132 225/526/132 233/527/132
f 227/525/132 233/527/132 235/528/132
f 234/529/133 226/530/133 228/531/133
f 234/529/133 228/531/133 236/532/133
f 237/533/134 225/534/134 226/535/134
f 237/533/134 226/535/134 238/536/134
f 228/537/135 227/538/135 239/539/135
f 228/537/135 239/539/135 240/540/135
f 227/541/136 225/542/136 237/543/136
f 227/541/136 237/543/136 239/544/136
f 238/545/137 226/546/137 228/547/137
f 238/545/137 228/547/137 240/548/137
f 226/549/138 225/550/138 227/551/138
f 226/549/138 227/551/138 228/552/138
f 241/553/139 225/554/139 226/555/139
f 241/553/139 226/555/139 242/556/139
f 228/557/140 227/558/140 243/559/140
f 228/557/140 243/559/140 244/560/140
f 227/561/141 225/562/141 241/563/141
f 227/561/141 241/563/141 243/564/141
f 242/565/142 226/566/142 228/567/142
f 242/565/142 228/567/142 244/568/142
f 249/569/143 245/570/143 246/571/143
f 249/569/143 246/571/143 250/572/143
f 248/573/144 247/574/144 251/575/144
f 248/573/144 251/575/144 252/576/144
f 247/577/145 245/578/145 249/579/145
f 247/577/145 249/579/145 251/580/145
f 250/581/146 246/582/146 248/583/146
f 250/581/146 248/583/146 252/584/146
f 253/585/147 245/586/147 246/587/147
f 253/585/147 246/587/147 254/588/147
f 248/589/148 247/590/148 255/591/148
f 248/589/148 255/591/148 256/592/148
f 247/593/149 245/594/149 253/595/149
f 247/593/149 253/595/149 255/596/149
f 254/597/150 246/598/150 248/599/150
f 254/597/150 248/599/150 256/600/150
f 257/601/151 245/602/151 246/603/151
f 257/601/151 246/603/151 258/604/151
f 248/605/152 247/606/152 259/607/152
f 248/605/152 259/607/152 260/608/152
f 247/609/153 245/610/153 257/611/153
f 247/609/153 257/611/153 259/612/153
f 258/613/154 246/614/154 248/615/154
f 258/613/154 248/615/154 260/616/154
f 246/617/155 245/618/155 247/619/155
f 246/617/155 247/619/155 248/620/155
f 261/621/156 245/622/156 246/623/156
f 261/621/156 246/623/156 262/624/156
f 248/625/157 247/626/157 263/627/157
f 248/625/157 263/627/157 264/628/157
f 247/629/158 245/630/158 261/631/158
f 247/629/158 261/631/158 263/632/158
f 262/633/159 246/634/159 248/635/159
f 262/633/159 248/635/159 264/636/159
f 269/637/160 265/638/160 266/639/160
f 269/637/160 266/639/160 270/640/160
f 268/641/161 267/642/161 271/643/161
f 268/641/161 271/643/161 272/644/161
f 267/645/162 265/646/162 269/647/162
f 267/645/162 269/647/162 271/648/162
f 270/649/163 266/650/163 268/651/163
f 270/649/163 268/651/163 272/652/163
f 273/653/164 265/654/164 266/655/164
f 273/653/164 266/655/164 274/656/164
f 268/657/165 267/658/165 275/659/165
f 268/657/165 275/659/165 276/660/165
f 267/661/166 265/662/166 273/663/166
f 267/661/166 273/663/166 275/664/166
f 274/665/167 266/666/167 268/667/167
f 274/665/167 268/667/167 276/668/167
f 277/669/168 265/670/168 266/671/168
f 277/669/168 266/671/168 278/672/168
f 268/673/169 267/674/169 279/675/169
f 268/673/169 279/675/169 280/676/169
f 267/677/170 265/678/170 277/679/170
f 267/677/170 277/679/170 279/680/170
f 278/681/171 266/682/171 268/683/171
f 278/681/171 268/683/171 280/684/171
f 266/685/172 265/686/172 267/687/172
f 266/685/172 267/687/172 268/688/172
f 281/689/173 265/690/173 266/691/173
f 281/689/173 266/691/173 282/692/173
f 268/693/174 267/694/174 283/695/174
f 268/693/174 283/695/174 284/696/174
f 267/697/175 265/698/175 281/699/175
f 267/697/175 281/699/175 283/700/175
f 282/701/176 266/702/176 268/703/176
f 282/701/176 268/703/176 284/704/176
f 289/705/177 285/706/177 286/707/177
f 289/705/177 286/707/177 290/708/177
f 288/709/178 287/710/178 291/711/178
f 288/709/178 291/711/178 292/712/178
f 287/713/179 285/714/179 289/715/179
f 287/713/179 289/715/179 291/716/179
f 290/717/180 286/718/180 288/719/180
f 290/717/180 288/719/180 292/720/180
f 293/721/181 285/722/181 286/723/181
f 293/721/181 286/723/181 294/724/181
f 288/725/182 287/726/182 295/727/182
f 288/725/182 295/727/182 296/728/182
f 287/729/183 285/730/183 293/731/183
f 287/729/183 293/731/183 295/732/183
f 294/733/184 286/734/184 288/735/184
f 294/733/184 288/735/184 296/736/184
f 297/737/185 285/738/185 286/739/185
f 297/737/185 286/739/185 298/740/185
f 288/741/186 287/742/186 299/743/186
f 288/741/186 299/743/186 300/744/186
f 287/745/187 285/746/187 297/747/187
f 287/745/187 297/747/187 299/748/187
f 298/749/188 286/750/188 288/751/188
f 298/749/188 288/751/188 300/752/188
f 286/753/189 285/754/189 287/755/189
f 286/753/189 287/755/189 288/756/189
f 301/757/190 285/758/190 286/759/190
f 301/757/190 286/759/190 302/760/190
f 288/761/191 287/762/191 303/763/191
f 288/761/191 303/763/191 304/764/191
f 287/765/192 285/766/192 301/767/192
f 287/765/192 301/767/192 303/768/192
f 302/769/193 286/770/193 288/771/193
f 302/769/193 288/771/193 304/772/193
f 309/773/194 305/774/194 306/775/194
f 309/773/194 306/775/194 310/776/194
f 308/777/195 307/778/195 311/779/195
f 308/777/195 311/779/195 312/780/195
f 307/781/196 305/782/196 309/783/196
f 307/781/196 309/783/196 311/784/196
f 310/785/197 306/786/197 308/787/197
f 310/785/197 308/787/197 312/788/197
f 313/789/198 305/790/198 306/791/198
f 313/789/198 306/791/198 314/792/198
f 308/793/199 307/794/199 315/795/199
f 308/793/199 315/795/199 316/796/199
f 307/797/200 305/798/200 313/799/200
f 307/797/200 313/799/200 315/800/200
f 314/801/201 306/802/201 308/803/201
f 314/801/201 308/803/201 316/804/201
f 317/805/202 305/806/202 306/807/202
f 317/805/202 306/807/202 318/808/202
f 308/809/203 307/810/203 319/811/203
f 308/809/203 319/811/203 320/812/203
f 307/813/204 305/814/204 317/815/204
f 307/813/204 317/815/204 319/816/204
f 318/817/205 306/818/205 308/819/205
f 318/817/205 308/819/205 320/820/205
f 306/821/206 305/822/206 307/823/206
f 306/821/206 307/823/206 308/824/206
f 321/825/207 305/826/207 306/827/207
f 321/825/207 306/827/207 322/828/207
f 308/829/208 307/830/208 323/831/208
f 308/829/208 323/831/208 324/832/208
f 307/833/209 305/834/209 321/835/209
f 307/833/209 321/835/209 323/836/209
f 322/837/210 306/838/210 308/839/210
f 322/837/210 308/839/210 324/840/210
f 329/841/211 325/842/211 326/843/211
f 329/841/211 326/843/211 330/844/211
f 328/845/212 327/846/212 331/847/212
f 328/845/212 331/847/212 332/848/212
f 327/849/213 325/850/213 329/851/213
f 327/849/213 329/851/213 331/852/213
f 330/853/214 326/854/214 328/855/214
f 330/853/214 328/855/214 332/856/214
f 333/857/215 325/858/215 326/859/215
f 333/857/215 326/859/215 334/860/215
f 328/861/216 327/862/216 335/863/216
f 328/861/216 335/863/216 336/864/216
f 327/865/217 325/866/217 333/867/217
f 327/865/217 333/867/217 335/868/217
f 334/869/218 326/870/218 328/871/218
f 334/869/218 328/871/218 336/872/218
f 337/873/219 325/874/219 326/875/219
f 337/873/219 326/875/219 338/876/219
f 328/877/220 327/878/220 339/879/220
f 328/877/220 339/879/220 340/880/220
f 327/881/221 325/882/221 337/883/221
f 327/881/221 337/883/221 339/884/221
f 338/885/222 326/886/222 328/887/222
f 338/885/222 328/887/222 340/888/222
f 326/889/223 325/890/223 327/891/223
f 326/889/223 327/891/223 328/892/223
f 341/893/224 325/894/224 326/895/224
f 341/893/224 326/895/224 342/896/224
f 328/897/225 327/898/225 343/899/225
f 328/897/225 343/899/225 344/900/225
f 327/901/226 325/902/226 341/903/226
f 327/901/226 341/903/226 343/904/226
f 342/905/227 326/906/227 328/907/227
f 342/905/227 328/907/227 344/908/227